<svg width="30" height="30" viewBox="0 0 30 30" fill="none" xmlns="http://www.w3.org/2000/svg">
<path fill-rule="evenodd" clip-rule="evenodd" d="M8.96257 4.85096L5.12507 8.05096C4.60007 8.48846 3.81257 8.42596 3.37507 7.88846C2.92507 7.36346 3.00007 6.57596 3.52507 6.12596L7.37507 2.92596C7.90007 2.48846 8.68757 2.55096 9.12507 3.08846C9.57507 3.61346 9.50007 4.40096 8.96257 4.85096ZM26.4751 6.12596L22.6251 2.92596C22.1001 2.48846 21.3126 2.55096 20.8626 3.08846C20.4251 3.61346 20.5001 4.40096 21.0251 4.85096L24.8626 8.05096C25.3876 8.48846 26.1751 8.42596 26.6251 7.88846C27.0751 7.36346 27.0001 6.57596 26.4751 6.12596ZM19.8376 18.926L15.6251 16.426V10.7635C15.6251 10.2635 15.2251 9.86346 14.7251 9.86346H14.6501C14.1501 9.86346 13.7501 10.2635 13.7501 10.7635V16.6635C13.7501 17.101 13.9751 17.5135 14.3626 17.7385L18.9251 20.476C19.3501 20.726 19.9001 20.601 20.1501 20.176C20.4126 19.7385 20.2751 19.176 19.8376 18.926ZM15.0001 4.86346C8.78757 4.86346 3.75007 9.90096 3.75007 16.1135C3.75007 22.326 8.78757 27.3635 15.0001 27.3635C21.2126 27.3635 26.2501 22.326 26.2501 16.1135C26.2501 9.90096 21.2126 4.86346 15.0001 4.86346ZM6.25007 16.1135C6.25007 20.9385 10.1751 24.8635 15.0001 24.8635C19.8251 24.8635 23.7501 20.9385 23.7501 16.1135C23.7501 11.2885 19.8251 7.36346 15.0001 7.36346C10.1751 7.36346 6.25007 11.2885 6.25007 16.1135Z" fill="#203CA7"/>
</svg>
