<svg width="135" height="56" viewBox="0 0 135 56" fill="none" xmlns="http://www.w3.org/2000/svg">
<path fill-rule="evenodd" clip-rule="evenodd" d="M51.9442 33.2975C51.9442 30.0411 52.8156 27.7479 56.7599 27.7479C57.9983 27.7479 59.099 28.0231 59.9246 28.5276L58.5945 30.408C58.1359 30.1329 57.4938 29.9494 56.6682 29.9494C55.063 29.9494 54.375 30.6832 54.375 33.2975C54.375 35.9117 55.0171 36.6914 56.6682 36.6914C57.4938 36.6914 58.0442 36.508 58.7321 36.1411L59.9246 37.8839C59.0073 38.4343 58.09 38.7094 56.5307 38.7094C52.9991 38.8011 51.9442 36.6456 51.9442 33.2975V33.2975Z" fill="white"/>
<path fill-rule="evenodd" clip-rule="evenodd" d="M65.5201 34.5814C65.5201 33.1138 65.3825 32.2882 64.0066 32.2882C62.6307 32.2882 62.4931 33.1138 62.4931 34.5814C62.4931 36.0032 62.6307 36.8746 64.0066 36.8746C65.3825 36.8746 65.5201 36.0032 65.5201 34.5814ZM60.0623 34.5355C60.0623 31.9671 60.8419 30.2701 63.9607 30.2701C67.1254 30.2701 67.8592 31.9671 67.8592 34.5355C67.8592 37.1956 67.1254 38.8009 63.9607 38.8009C60.8878 38.8009 60.0623 37.1039 60.0623 34.5355Z" fill="white"/>
<path fill-rule="evenodd" clip-rule="evenodd" d="M68.6387 30.5454L70.5191 30.4077L70.7026 31.0498C71.1154 30.5453 71.895 30.2701 73.4086 30.2701C75.5642 30.2701 76.0228 31.5543 76.0228 33.2513V38.6633H73.6379V33.8017C73.6379 32.8385 73.5002 32.334 72.4913 32.334C71.2071 32.334 71.0236 32.8844 71.0236 34.0769V38.6174H68.6845V30.5453L68.6387 30.5454Z" fill="white"/>
<path fill-rule="evenodd" clip-rule="evenodd" d="M76.3896 38.1588L77.3069 36.4618C77.949 36.737 78.9122 37.0122 79.8753 37.0122C80.5633 37.0122 80.8385 36.8287 80.8385 36.3701C80.8385 35.8656 80.5633 35.7739 79.0956 35.3152C77.4904 34.8107 76.6648 34.3062 76.6648 32.7927C76.6648 30.9123 78.0408 30.2701 79.9671 30.2701C81.2512 30.2701 81.9392 30.4078 82.7189 30.6829L81.8016 32.5175C81.2512 32.2882 80.6092 32.1506 79.8753 32.1506C79.0956 32.1506 78.9122 32.334 78.9122 32.7468C78.9122 33.1596 79.1874 33.2972 80.4716 33.6641C82.2603 34.2145 83.04 34.6731 83.04 36.3242C83.04 38.0212 81.8934 38.755 79.8295 38.755C78.5911 38.755 77.3069 38.6174 76.3896 38.1588Z" fill="white"/>
<path fill-rule="evenodd" clip-rule="evenodd" d="M83.2236 30.4078H84.7372L85.104 28.5732L86.9845 28.2063V30.4537H89.0025V32.38H86.9845V35.9574C86.9845 36.5536 87.0762 36.8288 87.9935 36.8288H89.0025V38.7551C88.5897 38.801 88.0394 38.8468 87.6725 38.8468C85.2875 38.8468 84.5995 38.1129 84.5995 36.2325V32.4258H83.2236V30.4078Z" fill="white"/>
<path fill-rule="evenodd" clip-rule="evenodd" d="M89.7821 30.5455L91.6625 30.4079L91.846 31.1876C92.2129 30.729 92.855 30.3621 94.3227 30.3621V32.426C92.3046 32.426 92.167 33.3432 92.167 34.5357V38.6635H89.7821V30.5455Z" fill="white"/>
<path fill-rule="evenodd" clip-rule="evenodd" d="M94.8732 35.2696V30.408H97.2581V35.1778C97.2581 36.3244 97.304 36.8289 98.5423 36.8289C99.7347 36.8289 99.8265 36.3244 99.8265 35.1778V30.408H102.166V35.2696C102.166 37.7462 101.478 38.7552 98.5423 38.7552C95.6528 38.8012 94.8732 37.7921 94.8732 35.2696Z" fill="white"/>
<path fill-rule="evenodd" clip-rule="evenodd" d="M102.762 34.5355C102.762 31.8754 103.45 30.2701 106.614 30.2701C107.761 30.2701 108.495 30.4536 109.091 30.6829L108.036 32.6092C107.669 32.4258 107.256 32.334 106.752 32.334C105.559 32.334 105.192 32.9303 105.192 34.6273C105.192 36.2784 105.559 36.9205 106.844 36.9205C107.44 36.9205 107.898 36.737 108.357 36.5994L109.228 38.2964C108.311 38.7092 107.577 38.8467 106.522 38.8467C103.495 38.8008 102.762 37.1956 102.762 34.5355V34.5355Z" fill="white"/>
<path fill-rule="evenodd" clip-rule="evenodd" d="M109.412 30.4078H110.925L111.292 28.5732L113.173 28.2063V30.4537H115.191V32.38H113.173V35.9574C113.173 36.5536 113.264 36.8288 114.182 36.8288H115.191V38.7551C114.778 38.801 114.228 38.8468 113.861 38.8468C111.476 38.8468 110.788 38.1129 110.788 36.2325V32.4258H109.412V30.4078Z" fill="white"/>
<path fill-rule="evenodd" clip-rule="evenodd" d="M115.971 30.408H118.356V38.6635H115.971V30.408ZM115.971 27.6561H118.356V29.6742H115.971V27.6561Z" fill="white"/>
<path fill-rule="evenodd" clip-rule="evenodd" d="M124.456 34.5814C124.456 33.1138 124.318 32.2882 122.942 32.2882C121.566 32.2882 121.429 33.1138 121.429 34.5814C121.429 36.0032 121.566 36.8746 122.942 36.8746C124.318 36.8746 124.456 36.0032 124.456 34.5814ZM118.998 34.5355C118.998 31.9671 119.777 30.2701 122.896 30.2701C126.061 30.2701 126.795 31.9671 126.795 34.5355C126.795 37.1956 126.061 38.8009 122.896 38.8009C119.823 38.8009 118.998 37.1039 118.998 34.5355Z" fill="white"/>
<path fill-rule="evenodd" clip-rule="evenodd" d="M127.574 30.5454L129.455 30.4077L129.638 31.0498C130.051 30.5453 130.831 30.2701 132.344 30.2701C134.546 30.2701 134.958 31.5543 134.958 33.2513V38.6633H132.573V33.8017C132.573 32.8385 132.436 32.334 131.427 32.334C130.143 32.334 129.959 32.8844 129.959 34.0769V38.6174H127.574V30.5454Z" fill="white"/>
<path fill-rule="evenodd" clip-rule="evenodd" d="M58.7779 47.5153V41.3236H61.1169V52.0558H58.8696L54.7418 45.3597V52.0558H52.4486V41.3236H55.017L58.7779 47.5153Z" fill="white"/>
<path fill-rule="evenodd" clip-rule="evenodd" d="M64.1899 47.24H66.9877C66.9417 46.1393 66.896 45.6348 65.6576 45.6348C64.511 45.5889 64.2358 46.1393 64.1899 47.24ZM61.8967 47.928C61.8967 45.3137 62.7223 43.7085 65.7035 43.7085C69.1891 43.7085 69.0974 45.91 69.0515 48.937H64.1899C64.2816 49.9002 64.6027 50.313 65.7952 50.313C66.9877 50.313 67.538 50.0836 68.1342 49.8543L69.0057 51.5054C68.1801 51.9182 67.1711 52.1934 65.6576 52.1934C62.5388 52.1474 61.8967 50.5881 61.8967 47.928V47.928Z" fill="white"/>
<path fill-rule="evenodd" clip-rule="evenodd" d="M76.298 52.1014L74.968 47.515L73.6838 52.1014H71.3447L69.1891 43.8458H71.574L72.6748 48.6616L73.959 43.8458H76.1146L77.3988 48.5698L78.4537 43.8458H80.7469L78.5912 52.1014H76.298Z" fill="white"/>
<path fill-rule="evenodd" clip-rule="evenodd" d="M80.5636 51.5513L81.4808 49.8543C82.1229 50.1295 83.0861 50.4047 84.0493 50.4047C84.7372 50.4047 85.0124 50.2212 85.0124 49.7626C85.0124 49.3039 84.7372 49.1664 83.3154 48.7077C81.7102 48.2032 80.8847 47.7445 80.8847 46.231C80.8847 44.3506 82.2147 43.7085 84.1869 43.7085C85.4252 43.7085 86.1132 43.8461 86.9387 44.1213L86.0214 45.91C85.471 45.7265 84.829 45.5431 84.0951 45.5431C83.3155 45.5431 83.132 45.7265 83.132 46.1393C83.132 46.5521 83.4071 46.6897 84.6455 47.0566C86.4342 47.607 87.2139 48.0656 87.2139 49.6709C87.2139 51.3678 86.0673 52.1017 84.0493 52.1017C82.7192 52.1476 81.4809 51.964 80.5636 51.5513Z" fill="white"/>
<path d="M48.3209 5.45761L1.03491 25.2251V23.7574L48.3209 3.94409V5.45761Z" fill="#BDBDBD"/>
<path d="M48.3209 1.51352L1.03491 21.3268V19.8133L48.3209 0V1.51352Z" fill="#BDBDBD"/>
<path fill-rule="evenodd" clip-rule="evenodd" d="M0.989166 27.7022V53.2027C0.989166 53.2027 0.622228 56.0004 3.55755 56.0004H45.7985C48.2751 56.0004 48.2751 53.3861 48.2751 53.3861V7.98059L0.989166 27.7022Z" fill="#BDBDBD"/>
<path d="M44.3766 52.1935H39.2399L29.7918 36.8748V52.1935H24.5175V27.6561H30.3881L39.0564 41.8282V27.6561H44.3766V52.1935Z" fill="white"/>
<path d="M14.7943 52.5145C6.58456 52.5145 4.24548 47.6529 4.24548 39.9477C4.24548 32.4719 6.26352 27.3351 15.2529 27.3351C18.0506 27.3351 20.5272 27.9772 22.4077 29.1238L19.4265 33.435C18.3716 32.7929 16.904 32.426 15.0694 32.426C11.4003 32.426 9.88676 34.0312 9.88676 40.0853C9.88676 46.0018 11.3086 47.8364 15.0694 47.8364C16.9499 47.8364 18.234 47.4695 19.7476 46.598L22.4994 50.5882C20.3897 51.8266 18.3258 52.5145 14.7943 52.5145V52.5145Z" fill="white"/>
</svg>
