<svg width="52" height="56" viewBox="0 0 52 56" fill="none" xmlns="http://www.w3.org/2000/svg">
<path d="M25.255 7.74579L27.1105 12.921L20.492 21.9936H30.3891L32.4511 27.6021H11.2545L25.255 7.74579Z" fill="white"/>
<path d="M27.2271 4.95835L35.3977 27.6069H40.7196L30.7308 6.34667e-05L27.2586 4.95835" fill="white"/>
<path d="M1.88216 45.8198L4.04703 45.8013C4.64954 45.8013 5.12941 45.5992 5.48708 45.1943C5.84477 44.7902 6.02978 44.2453 6.04245 43.5607V38.1088C6.04245 37.4118 5.86032 36.8612 5.4964 36.4564C5.13235 36.0523 4.64286 35.8496 4.02827 35.8496H1.88216C1.83195 35.8496 1.80695 35.8748 1.80695 35.9241V45.7453C1.80695 45.795 1.83195 45.8198 1.88216 45.8198ZM-0.000244141 47.183V34.4866C-0.000244141 34.3623 0.0622828 34.2999 0.187981 34.2999H4.00937C5.17646 34.2999 6.10835 34.63 6.80475 35.2893C7.50135 35.9494 7.84951 36.8269 7.84951 37.9219V43.7475C7.84951 44.8427 7.50135 45.7204 6.80475 46.3801C6.10835 47.0398 5.17646 47.3695 4.00937 47.3695H0.187981C0.0622828 47.3695 -0.000244141 47.3075 -0.000244141 47.183Z" fill="white"/>
<path d="M19.408 35.8496H13.9489C13.8986 35.8496 13.8736 35.8748 13.8736 35.9241V39.957C13.8736 40.007 13.8986 40.032 13.9489 40.032H17.5443C17.6697 40.032 17.7326 40.0943 17.7326 40.2185V41.3947C17.7326 41.5193 17.6697 41.5817 17.5443 41.5817H13.9489C13.8986 41.5817 13.8736 41.6066 13.8736 41.6561V45.7453C13.8736 45.795 13.8986 45.8198 13.9489 45.8198H19.408C19.5332 45.8198 19.5963 45.8823 19.5963 46.0068V47.183C19.5963 47.3075 19.5332 47.3695 19.408 47.3695H12.2547C12.1291 47.3695 12.0664 47.3075 12.0664 47.183V34.4866C12.0664 34.3623 12.1291 34.2999 12.2547 34.2999H19.408C19.5332 34.2999 19.5963 34.3623 19.5963 34.4866V35.663C19.5963 35.7873 19.5332 35.8496 19.408 35.8496Z" fill="white"/>
<path d="M23.6433 47.183V34.4866C23.6433 34.3623 23.706 34.2999 23.8316 34.2999H25.2623C25.3876 34.2999 25.4505 34.3623 25.4505 34.4866V45.7453C25.4505 45.795 25.4756 45.8198 25.5258 45.8198H30.8719C30.9973 45.8198 31.0602 45.8823 31.0602 46.0068V47.183C31.0602 47.3075 30.9973 47.3695 30.8719 47.3695H23.8316C23.706 47.3695 23.6433 47.3075 23.6433 47.183" fill="white"/>
<path d="M40.7737 34.4866V35.6817C40.7737 35.806 40.7106 35.8684 40.5856 35.8684H37.5549C37.5045 35.8684 37.4794 35.8935 37.4794 35.943V47.183C37.4794 47.3075 37.4165 47.3695 37.2912 47.3695H35.8605C35.7351 47.3695 35.6724 47.3075 35.6724 47.183V35.943C35.6724 35.8935 35.6471 35.8684 35.597 35.8684H32.698C32.5726 35.8684 32.5099 35.806 32.5099 35.6817V34.4866C32.5099 34.3623 32.5726 34.2999 32.698 34.2999H40.5856C40.7106 34.2999 40.7737 34.3623 40.7737 34.4866" fill="white"/>
<path d="M45.5835 43.5326C45.6022 43.5515 45.624 43.5607 45.6493 43.5607H49.0566C49.0815 43.5607 49.1035 43.5515 49.1224 43.5326C49.1413 43.5141 49.1442 43.4986 49.132 43.486L47.3811 36.727C47.3684 36.7024 47.356 36.6896 47.3435 36.6896C47.331 36.6896 47.3184 36.7024 47.3057 36.727L45.5739 43.486C45.5613 43.4986 45.5646 43.5141 45.5835 43.5326V43.5326ZM50.0918 47.2016L49.5271 45.0357C49.5146 44.9984 49.4831 44.9798 49.4332 44.9798H45.2727C45.21 44.9798 45.1788 44.9984 45.1788 45.0357L44.6328 47.2016C44.6201 47.3137 44.5512 47.3695 44.4258 47.3695H42.9573C42.8946 47.3695 42.8475 47.3512 42.8163 47.3137C42.7847 47.2762 42.7754 47.2268 42.788 47.1641L46.2705 34.4679C46.2954 34.3559 46.3646 34.2999 46.4777 34.2999H48.2471C48.36 34.2999 48.4288 34.3559 48.4543 34.4679L51.9556 47.1641L51.9743 47.22C51.9743 47.3202 51.9114 47.3695 51.7862 47.3695H50.2988C50.1861 47.3695 50.1169 47.3137 50.0918 47.2016" fill="white"/>
<path d="M0.680083 55.8223C0.463352 55.7085 0.295753 55.5476 0.17736 55.3397C0.0590386 55.132 -0.00012207 54.892 -0.00012207 54.6193V52.5617C-0.00012207 52.146 0.130662 51.8142 0.391871 51.5663C0.653438 51.3183 0.99852 51.1944 1.4274 51.1944C1.85635 51.1944 2.20036 51.3175 2.45955 51.563C2.71854 51.8089 2.84819 52.1351 2.84819 52.5415V52.5951C2.84819 52.6177 2.84152 52.6356 2.82813 52.6488C2.8148 52.6622 2.79898 52.6689 2.78121 52.6689L2.27198 52.6957C2.22715 52.6957 2.20487 52.6735 2.20487 52.6286V52.5283C2.20487 52.2958 2.13338 52.1085 1.99042 51.9652C1.8474 51.8221 1.65974 51.7507 1.4274 51.7507C1.19498 51.7507 1.00633 51.8221 0.861004 51.9652C0.715823 52.1085 0.643196 52.2958 0.643196 52.5283V54.6595C0.643196 54.892 0.715823 55.0793 0.861004 55.2224C1.00633 55.3658 1.19498 55.4369 1.4274 55.4369C1.65974 55.4369 1.8474 55.3658 1.99042 55.2224C2.13338 55.0793 2.20487 54.892 2.20487 54.6595V54.5656C2.20487 54.5208 2.22715 54.4987 2.27198 54.4987L2.78121 54.5256C2.82592 54.5256 2.84819 54.548 2.84819 54.5924V54.6395C2.84819 54.9075 2.78895 55.1445 2.67056 55.3498C2.55224 55.5551 2.38579 55.7141 2.17136 55.8256C1.95683 55.9375 1.70895 55.993 1.4274 55.993C1.14592 55.993 0.896743 55.9362 0.680083 55.8223Z" fill="white"/>
<path d="M6.24612 55.2095C6.39359 55.0574 6.46729 54.8563 6.46729 54.6062V52.5954C6.46729 52.3454 6.39359 52.142 6.24612 51.9855C6.0988 51.8291 5.90426 51.751 5.66303 51.751C5.42625 51.751 5.23415 51.8291 5.08662 51.9855C4.93928 52.142 4.86537 52.3454 4.86537 52.5954V54.6062C4.86537 54.8517 4.93928 55.0517 5.08662 55.2059C5.23415 55.3599 5.42625 55.4371 5.66303 55.4371C5.90426 55.4371 6.0988 55.3612 6.24612 55.2095ZM4.90899 55.8225C4.69226 55.7043 4.52372 55.5378 4.40296 55.3233C4.28228 55.1088 4.22205 54.8609 4.22205 54.5792V52.6087C4.22205 52.3321 4.28228 52.0862 4.40296 51.8716C4.52372 51.6571 4.69226 51.4906 4.90899 51.3724C5.12564 51.2539 5.37704 51.1947 5.66303 51.1947C5.94896 51.1947 6.20142 51.2539 6.42038 51.3724C6.63925 51.4906 6.80915 51.6571 6.92976 51.8716C7.05037 52.0862 7.11068 52.3321 7.11068 52.6087V54.5792C7.11068 54.8609 7.05037 55.1088 6.92976 55.3233C6.80915 55.5378 6.63925 55.7043 6.42038 55.8225C6.20142 55.9407 5.94896 56.0002 5.66303 56.0002C5.37704 56.0002 5.12564 55.9407 4.90899 55.8225Z" fill="white"/>
<path d="M11.0317 51.2483H11.5409C11.5856 51.2483 11.6079 51.2706 11.6079 51.3152V55.8725C11.6079 55.9174 11.5856 55.9396 11.5409 55.9396H11.0046C10.9645 55.9396 10.9378 55.924 10.9244 55.893L9.30912 52.6423C9.30016 52.6332 9.29244 52.6287 9.28556 52.6287C9.27889 52.6287 9.27553 52.6357 9.27553 52.6489L9.28226 55.8725C9.28226 55.9174 9.25984 55.9396 9.21528 55.9396H8.70583C8.66122 55.9396 8.63879 55.9174 8.63879 55.8725V51.3152C8.63879 51.2706 8.66122 51.2483 8.70583 51.2483H9.24214C9.28226 51.2483 9.30912 51.2637 9.32251 51.295L10.931 54.5457C10.9398 54.5549 10.9478 54.5589 10.9544 54.5589C10.9611 54.5589 10.9645 54.5523 10.9645 54.5389V51.3152C10.9645 51.2706 10.9868 51.2483 11.0317 51.2483Z" fill="white"/>
<path d="M13.7223 55.8358C13.5055 55.731 13.3379 55.5844 13.2195 55.3967C13.101 55.2093 13.042 54.9902 13.042 54.7401V54.5589C13.042 54.5144 13.0643 54.4922 13.109 54.4922H13.605C13.6495 54.4922 13.672 54.5144 13.672 54.5589V54.7064C13.672 54.9255 13.7467 55.102 13.8965 55.236C14.0462 55.3699 14.2483 55.437 14.5029 55.437C14.7309 55.437 14.9108 55.3758 15.0425 55.2526C15.1742 55.1299 15.2402 54.968 15.2402 54.7668C15.2402 54.6328 15.2066 54.5168 15.1397 54.4185C15.0727 54.32 14.9755 54.2284 14.8482 54.1436C14.7209 54.0585 14.5365 53.9513 14.2952 53.8221C14.0226 53.6787 13.8047 53.5514 13.6417 53.4397C13.4786 53.3281 13.3435 53.1875 13.2362 53.0177C13.129 52.8477 13.0754 52.6423 13.0754 52.4012C13.0754 52.0255 13.1983 51.7307 13.4441 51.5161C13.6898 51.3016 14.0159 51.1946 14.4227 51.1946C14.7041 51.1946 14.952 51.2483 15.1665 51.3551C15.381 51.4624 15.5473 51.6136 15.6657 51.8077C15.7841 52.0023 15.8434 52.2266 15.8434 52.4813V52.6358C15.8434 52.6803 15.8211 52.7024 15.7764 52.7024H15.2737C15.2291 52.7024 15.2066 52.6803 15.2066 52.6358V52.4945C15.2066 52.276 15.1352 52.0972 14.9921 51.9588C14.8492 51.8202 14.6549 51.7509 14.4091 51.7509C14.1902 51.7509 14.0193 51.8068 13.8965 51.9182C13.7735 52.0301 13.7121 52.1887 13.7121 52.3942C13.7121 52.5285 13.7423 52.6423 13.8026 52.736C13.8629 52.8297 13.9556 52.9182 14.0807 53.001C14.2058 53.0835 14.3913 53.1875 14.637 53.3123C14.9454 53.4866 15.1787 53.6299 15.3374 53.7413C15.4959 53.8532 15.6256 53.9894 15.7261 54.1504C15.8267 54.3112 15.877 54.5056 15.877 54.7333C15.877 55.1174 15.7506 55.4238 15.4983 55.6515C15.2457 55.8791 14.9051 55.9932 14.4763 55.9932C14.1902 55.9932 13.9389 55.9405 13.7223 55.8358Z" fill="white"/>
<path d="M19.9051 51.3152V51.7443C19.9051 51.7889 19.8826 51.811 19.838 51.811H18.759C18.741 51.811 18.732 51.8202 18.732 51.8379V55.8725C18.732 55.9174 18.7098 55.9396 18.6651 55.9396H18.1557C18.111 55.9396 18.0887 55.9174 18.0887 55.8725V51.8379C18.0887 51.8202 18.0797 51.811 18.0619 51.811H17.0297C16.985 51.811 16.9628 51.7889 16.9628 51.7443V51.3152C16.9628 51.2706 16.985 51.2483 17.0297 51.2483H19.838C19.8826 51.2483 19.9051 51.2706 19.9051 51.3152" fill="white"/>
<path d="M21.9289 51.8314V53.3328C21.9289 53.3502 21.9379 53.3594 21.9559 53.3594H22.7668C22.9722 53.3594 23.1387 53.2888 23.2659 53.1484C23.3936 53.0075 23.4572 52.8211 23.4572 52.5886C23.4572 52.3519 23.3945 52.1619 23.2694 52.0189C23.1444 51.876 22.9768 51.8044 22.7668 51.8044H21.9559C21.9379 51.8044 21.9289 51.8135 21.9289 51.8314V51.8314ZM23.4772 55.8861L22.6997 53.8888C22.6953 53.8754 22.6864 53.8686 22.6728 53.8686H21.9559C21.9379 53.8686 21.9289 53.8778 21.9289 53.8954V55.8725C21.9289 55.9174 21.9065 55.9396 21.862 55.9396H21.3524C21.3079 55.9396 21.2855 55.9174 21.2855 55.8725V51.3152C21.2855 51.2706 21.3079 51.2483 21.3524 51.2483H22.8538C23.2293 51.2483 23.5309 51.3709 23.7586 51.6168C23.9867 51.8627 24.1006 52.1841 24.1006 52.5818C24.1006 52.8812 24.0313 53.1383 23.8926 53.3528C23.754 53.5673 23.5644 53.7147 23.323 53.795C23.3096 53.7995 23.3052 53.8107 23.3096 53.8286L24.1273 55.8591L24.1339 55.8861C24.1339 55.9218 24.114 55.9396 24.0736 55.9396H23.5509C23.5151 55.9396 23.4906 55.9218 23.4772 55.8861" fill="white"/>
<path d="M26.1679 55.8158C25.9511 55.6972 25.7837 55.5298 25.6655 55.3131C25.5468 55.0965 25.4878 54.845 25.4878 54.5589V51.3152C25.4878 51.2706 25.51 51.2483 25.5549 51.2483H26.0643C26.1088 51.2483 26.1312 51.2706 26.1312 51.3152V54.5991C26.1312 54.8496 26.2036 55.0516 26.3488 55.2058C26.494 55.3598 26.6831 55.437 26.9152 55.437C27.1521 55.437 27.3432 55.3598 27.4884 55.2058C27.6334 55.0516 27.7062 54.8496 27.7062 54.5991V51.3152C27.7062 51.2706 27.7286 51.2483 27.7733 51.2483H28.2825C28.327 51.2483 28.3496 51.2706 28.3496 51.3152V54.5589C28.3496 54.845 28.2904 55.0965 28.1721 55.3131C28.0535 55.5298 27.8859 55.6972 27.6692 55.8158C27.4524 55.9341 27.2012 55.9932 26.9152 55.9932C26.6338 55.9932 26.3848 55.9341 26.1679 55.8158" fill="white"/>
<path d="M30.4573 55.8224C30.2404 55.7086 30.0729 55.5477 29.9544 55.3398C29.8363 55.1321 29.7771 54.8921 29.7771 54.6194V52.5618C29.7771 52.1462 29.9076 51.8143 30.1691 51.5664C30.4306 51.3185 30.7757 51.1946 31.2047 51.1946C31.6336 51.1946 31.9777 51.3176 32.2368 51.5631C32.4959 51.809 32.6253 52.1352 32.6253 52.5416V52.5952C32.6253 52.6178 32.6187 52.6358 32.6052 52.6489C32.592 52.6623 32.576 52.6691 32.5584 52.6691L32.0491 52.6958C32.0043 52.6958 31.9819 52.6736 31.9819 52.6287V52.5285C31.9819 52.296 31.9104 52.1086 31.7676 51.9654C31.6246 51.8222 31.4368 51.7509 31.2047 51.7509C30.972 51.7509 30.7835 51.8222 30.6383 51.9654C30.4929 52.1086 30.4203 52.296 30.4203 52.5285V54.6596C30.4203 54.8921 30.4929 55.0795 30.6383 55.2225C30.7835 55.3659 30.972 55.437 31.2047 55.437C31.4368 55.437 31.6246 55.3659 31.7676 55.2225C31.9104 55.0795 31.9819 54.8921 31.9819 54.6596V54.5657C31.9819 54.521 32.0043 54.4988 32.0491 54.4988L32.5584 54.5257C32.6032 54.5257 32.6253 54.5481 32.6253 54.5925V54.6396C32.6253 54.9076 32.5659 55.1446 32.4477 55.3499C32.3294 55.5553 32.1629 55.7143 31.9484 55.8257C31.7339 55.9376 31.4862 55.9932 31.2047 55.9932C30.9231 55.9932 30.6739 55.9363 30.4573 55.8224" fill="white"/>
<path d="M36.7742 51.3152V51.7443C36.7742 51.7889 36.7517 51.811 36.7069 51.811H35.6281C35.6101 51.811 35.6011 51.8202 35.6011 51.8379V55.8725C35.6011 55.9174 35.5787 55.9396 35.5342 55.9396H35.0248C34.9803 55.9396 34.9577 55.9174 34.9577 55.8725V51.8379C34.9577 51.8202 34.9489 51.811 34.9309 51.811H33.8988C33.8543 51.811 33.8319 51.7889 33.8319 51.7443V51.3152C33.8319 51.2706 33.8543 51.2483 33.8988 51.2483H36.7069C36.7517 51.2483 36.7742 51.2706 36.7742 51.3152" fill="white"/>
<path d="M38.1547 55.8725V51.3152C38.1547 51.2706 38.177 51.2483 38.2216 51.2483H38.7311C38.7757 51.2483 38.7981 51.2706 38.7981 51.3152V55.8725C38.7981 55.9174 38.7757 55.9396 38.7311 55.9396H38.2216C38.177 55.9396 38.1547 55.9174 38.1547 55.8725Z" fill="white"/>
<path d="M42.3433 55.2095C42.4907 55.0574 42.5646 54.8563 42.5646 54.6062V52.5954C42.5646 52.3454 42.4907 52.142 42.3433 51.9855C42.1959 51.8291 42.0014 51.751 41.7603 51.751C41.5234 51.751 41.3314 51.8291 41.1838 51.9855C41.0366 52.142 40.9627 52.3454 40.9627 52.5954V54.6062C40.9627 54.8517 41.0366 55.0517 41.1838 55.2059C41.3314 55.3599 41.5234 55.4371 41.7603 55.4371C42.0014 55.4371 42.1959 55.3612 42.3433 55.2095ZM41.0063 55.8225C40.7894 55.7043 40.6211 55.5378 40.5002 55.3233C40.3796 55.1088 40.3195 54.8609 40.3195 54.5792V52.6087C40.3195 52.3321 40.3796 52.0862 40.5002 51.8716C40.6211 51.6571 40.7894 51.4906 41.0063 51.3724C41.2228 51.2539 41.4742 51.1947 41.7603 51.1947C42.0463 51.1947 42.2988 51.2539 42.5177 51.3724C42.7364 51.4906 42.9064 51.6571 43.0271 51.8716C43.1475 52.0862 43.208 52.3321 43.208 52.6087V54.5792C43.208 54.8609 43.1475 55.1088 43.0271 55.3233C42.9064 55.5378 42.7364 55.7043 42.5177 55.8225C42.2988 55.9407 42.0463 56.0002 41.7603 56.0002C41.4742 56.0002 41.2228 55.9407 41.0063 55.8225Z" fill="white"/>
<path d="M47.1288 51.2483H47.6382C47.6827 51.2483 47.7051 51.2706 47.7051 51.3152V55.8725C47.7051 55.9174 47.6827 55.9396 47.6382 55.9396H47.102C47.0617 55.9396 47.0351 55.924 47.0215 55.893L45.4064 52.6423C45.3974 52.6332 45.3897 52.6287 45.3829 52.6287C45.3761 52.6287 45.3728 52.6357 45.3728 52.6489L45.3794 55.8725C45.3794 55.9174 45.357 55.9396 45.3125 55.9396H44.8031C44.7586 55.9396 44.7362 55.9174 44.7362 55.8725V51.3152C44.7362 51.2706 44.7586 51.2483 44.8031 51.2483H45.3394C45.3794 51.2483 45.4064 51.2637 45.4198 51.295L47.0281 54.5457C47.0371 54.5549 47.045 54.5589 47.0516 54.5589C47.0584 54.5589 47.0617 54.5523 47.0617 54.5389V51.3152C47.0617 51.2706 47.0841 51.2483 47.1288 51.2483" fill="white"/>
<path d="M49.8197 55.8358C49.6028 55.731 49.4352 55.5844 49.317 55.3967C49.1985 55.2093 49.1393 54.9902 49.1393 54.7401V54.5589C49.1393 54.5144 49.1616 54.4922 49.2064 54.4922H49.7024C49.7469 54.4922 49.7695 54.5144 49.7695 54.5589V54.7064C49.7695 54.9255 49.8441 55.102 49.9939 55.236C50.1437 55.3699 50.3458 55.437 50.6004 55.437C50.8283 55.437 51.0082 55.3758 51.1399 55.2526C51.2717 55.1299 51.3377 54.968 51.3377 54.7668C51.3377 54.6328 51.3042 54.5168 51.2372 54.4185C51.1701 54.32 51.0729 54.2284 50.9457 54.1436C50.8183 54.0585 50.6342 53.9513 50.3925 53.8221C50.1201 53.6787 49.9022 53.5514 49.7392 53.4397C49.576 53.3281 49.4411 53.1875 49.3338 53.0177C49.2266 52.8477 49.1728 52.6423 49.1728 52.4012C49.1728 52.0255 49.2959 51.7307 49.5416 51.5161C49.7871 51.3016 50.1134 51.1946 50.5199 51.1946C50.8016 51.1946 51.0495 51.2483 51.2638 51.3551C51.4783 51.4624 51.6446 51.6136 51.7633 51.8077C51.8815 52.0023 51.9408 52.2266 51.9408 52.4813V52.6358C51.9408 52.6803 51.9184 52.7024 51.8738 52.7024H51.3711C51.3265 52.7024 51.3042 52.6803 51.3042 52.6358V52.4945C51.3042 52.276 51.2325 52.0972 51.0896 51.9588C50.9468 51.8202 50.7524 51.7509 50.5066 51.7509C50.2876 51.7509 50.1167 51.8068 49.9939 51.9182C49.8709 52.0301 49.8094 52.1887 49.8094 52.3942C49.8094 52.5285 49.8397 52.6423 49.9002 52.736C49.9605 52.8297 50.0531 52.9182 50.1782 53.001C50.3032 53.0835 50.4888 53.1875 50.7343 53.3123C51.0429 53.4866 51.2761 53.6299 51.4349 53.7413C51.5935 53.8532 51.7229 53.9894 51.8236 54.1504C51.9243 54.3112 51.9743 54.5056 51.9743 54.7333C51.9743 55.1174 51.8482 55.4238 51.5957 55.6515C51.3432 55.8791 51.0025 55.9932 50.5737 55.9932C50.2876 55.9932 50.0364 55.9405 49.8197 55.8358" fill="white"/>
</svg>
