<svg width="30" height="30" viewBox="0 0 30 30" fill="none" xmlns="http://www.w3.org/2000/svg">
<path fill-rule="evenodd" clip-rule="evenodd" d="M5 5H25C26.375 5 27.5 6.125 27.5 7.5V22.5C27.5 23.875 26.375 25 25 25H5C3.625 25 2.5 23.875 2.5 22.5L2.5125 7.5C2.5125 6.125 3.625 5 5 5ZM15.6625 15.8375L24.5 10.3125C24.8125 10.1125 25 9.775 25 9.4125C25 8.575 24.0875 8.075 23.375 8.5125L15 13.75L6.625 8.5125C5.9125 8.075 5 8.575 5 9.4125C5 9.775 5.1875 10.1125 5.5 10.3125L14.3375 15.8375C14.7375 16.0875 15.2625 16.0875 15.6625 15.8375Z" fill="#203CA7"/>
</svg>
