<svg width="30" height="30" viewBox="0 0 30 30" fill="none" xmlns="http://www.w3.org/2000/svg">
<path fill-rule="evenodd" clip-rule="evenodd" d="M6.25 11.5813C6.25 6.7438 10.1625 2.8313 15 2.8313C19.8375 2.8313 23.75 6.7438 23.75 11.5813C23.75 16.7938 18.225 23.9813 15.9625 26.7188C15.4625 27.3188 14.55 27.3188 14.05 26.7188C11.775 23.9813 6.25 16.7938 6.25 11.5813ZM11.875 11.5813C11.875 13.3063 13.275 14.7063 15 14.7063C16.725 14.7063 18.125 13.3063 18.125 11.5813C18.125 9.8563 16.725 8.4563 15 8.4563C13.275 8.4563 11.875 9.8563 11.875 11.5813Z" fill="#203CA7"/>
</svg>
