<svg width="18" height="18" viewBox="0 0 18 18" fill="none" xmlns="http://www.w3.org/2000/svg">
<path d="M16.2217 12.2682L13.6817 11.9782C13.0717 11.9082 12.4717 12.1182 12.0417 12.5482L10.2017 14.3882C7.37174 12.9482 5.05174 10.6382 3.61174 7.79819L5.46174 5.94819C5.89174 5.51819 6.10174 4.91819 6.03174 4.30819L5.74174 1.78819C5.62174 0.778188 4.77174 0.0181885 3.75174 0.0181885H2.02174C0.89174 0.0181885 -0.0482601 0.958188 0.0217399 2.08819C0.55174 10.6282 7.38174 17.4482 15.9117 17.9782C17.0417 18.0482 17.9817 17.1082 17.9817 15.9782V14.2482C17.9917 13.2382 17.2317 12.3882 16.2217 12.2682Z" fill="#FCC907"/>
</svg>
