<svg width="30" height="30" viewBox="0 0 30 30" fill="none" xmlns="http://www.w3.org/2000/svg">
<path d="M24.0273 19.0852L20.8523 18.7227C20.0898 18.6352 19.3398 18.8977 18.8023 19.4352L16.5023 21.7352C12.9648 19.9352 10.0648 17.0477 8.2648 13.4977L10.5773 11.1852C11.1148 10.6477 11.3773 9.89771 11.2898 9.13521L10.9273 5.98521C10.7773 4.72271 9.7148 3.77271 8.4398 3.77271H6.2773C4.8648 3.77271 3.6898 4.94771 3.7773 6.3602C4.4398 17.0352 12.9773 25.5602 23.6398 26.2227C25.0523 26.3102 26.2273 25.1352 26.2273 23.7227V21.5602C26.2398 20.2977 25.2898 19.2352 24.0273 19.0852Z" fill="#203CA7"/>
</svg>
