<svg width="51" height="46" viewBox="0 0 51 46" fill="none" xmlns="http://www.w3.org/2000/svg">
<path fill-rule="evenodd" clip-rule="evenodd" d="M5.71929 38.7712C5.58187 38.5884 5.35323 38.4966 5.1243 38.4966C4.62082 38.4966 4.34599 38.9545 4.34599 39.4124C4.34599 39.8243 4.66643 40.2822 5.1243 40.2822C5.35323 40.2822 5.58216 40.1904 5.71929 40.0071V40.6024C5.53626 40.6942 5.35323 40.7857 5.1243 40.7857C4.39189 40.7857 3.84251 40.1445 3.84251 39.4124C3.84251 38.68 4.34599 37.9932 5.1243 37.9932C5.35323 37.9932 5.53626 38.0385 5.71929 38.1306V38.7712V38.7712ZM7.27592 39.3665C7.27592 38.6341 7.82559 37.9932 8.60361 37.9932C9.38192 37.9932 9.9313 38.6338 9.9313 39.3665C9.9313 40.1445 9.38192 40.7857 8.60361 40.7857C7.8253 40.7857 7.27592 40.1445 7.27592 39.3665ZM7.8253 39.3665C7.8253 39.7784 8.14574 40.2822 8.60332 40.2822C9.06089 40.2822 9.38163 39.7784 9.38163 39.3665C9.38163 38.9545 9.06089 38.4966 8.60332 38.4966C8.14574 38.4966 7.8253 38.9545 7.8253 39.3665ZM11.5332 37.9932H11.8996L13.3188 39.8243V38.0847H13.8223V40.7857H13.4559L12.037 38.9086V40.6942H11.5332V37.9932V37.9932ZM16.7978 38.6338C16.7063 38.4963 16.5689 38.4504 16.4318 38.4504C16.2487 38.4504 16.1113 38.5423 16.1113 38.725C16.1113 39.1829 17.1186 39.0001 17.1186 39.8694C17.1186 40.4193 16.7978 40.7851 16.2487 40.7851C15.8824 40.7851 15.6537 40.5565 15.4704 40.2819L15.7909 39.9612C15.8368 40.1439 16.0657 40.3272 16.2487 40.3272C16.4777 40.3272 16.6151 40.1439 16.6151 39.9612C16.6151 39.6866 16.3405 39.5945 16.1572 39.5033C15.7909 39.3659 15.5619 39.1826 15.5619 38.7709C15.5619 38.3592 15.8824 37.9929 16.3402 37.9929C16.5692 37.9929 16.8896 38.1303 17.0727 38.313L16.7978 38.6338ZM19.6362 40.6942H19.1328V38.4966H18.5834V38.0847H20.1856V38.4966H19.6362V40.6942V40.6942ZM23.5275 40.6942H22.8863L22.2454 39.641V40.6942H21.742V38.0847H22.4285C22.9319 38.0847 23.2983 38.3133 23.2983 38.8627C23.2983 39.1834 23.115 39.5498 22.7489 39.5951L23.5275 40.6942V40.6942ZM22.2457 39.275H22.2913C22.6118 39.275 22.7948 39.1831 22.7948 38.8624C22.7948 38.5423 22.5659 38.4963 22.2913 38.4963H22.2457V39.275V39.275ZM25.0382 38.0847H25.5417V39.5498C25.5417 39.8699 25.5876 40.3278 25.9999 40.3278C26.4571 40.3278 26.5031 39.8699 26.5031 39.5498V38.0847H27.0068V39.641C27.0068 40.2822 26.7317 40.7854 25.9996 40.7854C25.3125 40.7854 25.0379 40.2822 25.0379 39.641V38.0847H25.0382ZM30.4858 38.7712C30.3484 38.5884 30.1198 38.4966 29.9365 38.4966C29.4333 38.4966 29.1579 38.9545 29.1579 39.4124C29.1579 39.8243 29.433 40.2822 29.8903 40.2822C30.1195 40.2822 30.3481 40.1904 30.4855 40.0071V40.6024C30.3022 40.6942 30.1195 40.7857 29.8903 40.7857C29.1579 40.7857 28.6085 40.1445 28.6085 39.4124C28.6085 38.68 29.1122 37.9932 29.8903 37.9932C30.1195 37.9932 30.3022 38.0385 30.4855 38.1306V38.7712H30.4858V38.7712ZM33.0494 40.6942H32.5462V38.4966H31.9963V38.0847H33.5988V38.4966H33.0494V40.6942ZM35.1551 38.0847H35.6592V40.6942H35.1551V38.0847ZM37.3067 39.3665C37.3067 38.6341 37.8105 37.9932 38.5885 37.9932C39.3666 37.9932 39.9162 38.6338 39.9162 39.3665C39.9162 40.1445 39.3663 40.7857 38.5885 40.7857C37.8108 40.7857 37.3067 40.1445 37.3067 39.3665ZM37.8108 39.3665C37.8108 39.7784 38.1769 40.2822 38.5888 40.2822C39.0467 40.2822 39.3669 39.7784 39.3669 39.3665C39.3669 38.9545 39.0467 38.4966 38.5888 38.4966C38.131 38.4966 37.8108 38.9545 37.8108 39.3665ZM41.5185 37.9932H41.8848L43.304 39.8243V38.0847H43.8072V40.7857H43.4414L42.0222 38.9086V40.6942H41.5185V37.9932V37.9932ZM46.783 38.6338C46.6918 38.4963 46.5544 38.4504 46.417 38.4504C46.2337 38.4504 46.0962 38.5423 46.0962 38.725C46.0962 39.1829 47.1035 39.0001 47.1035 39.8694C47.1035 40.4193 46.7828 40.7851 46.2337 40.7851C45.8676 40.7851 45.6384 40.5565 45.4556 40.2819L45.7758 39.9612C45.8217 40.1439 46.0509 40.3272 46.2337 40.3272C46.4623 40.3272 46.6003 40.1439 46.6003 39.9612C46.6003 39.6866 46.3258 39.5945 46.1424 39.5033C45.7758 39.3659 45.5472 39.1826 45.5472 38.7709C45.5472 38.3592 45.8679 37.9929 46.3258 37.9929C46.5544 37.9929 46.8751 38.1303 47.0579 38.313L46.783 38.6338V38.6338ZM18.1714 44.4024V44.7685H18.7205V45.0889H18.1714V45.5462H18.7205V45.8216H17.851V44.1273H18.7205V44.4024H18.1714V44.4024ZM20.5517 44.4936C20.5302 44.4516 20.4974 44.4164 20.4569 44.3921C20.4164 44.3678 20.3699 44.3554 20.3227 44.3562C20.2312 44.3562 20.0938 44.4474 20.0938 44.5395C20.0938 44.8141 20.7803 44.7223 20.7803 45.2716C20.7803 45.6383 20.5514 45.8669 20.2309 45.8669C20.002 45.8669 19.819 45.7295 19.7275 45.5462L19.9105 45.3176C19.9564 45.455 20.0935 45.5462 20.2309 45.5462C20.3684 45.5462 20.4599 45.455 20.4599 45.3176C20.4599 45.1342 20.2768 45.0889 20.1391 45.043C19.9561 44.9518 19.7731 44.8597 19.7731 44.5851C19.7731 44.3106 20.002 44.082 20.2766 44.082C20.414 44.082 20.6426 44.1732 20.7344 44.2647L20.5517 44.4936V44.4936ZM22.3372 45.8216H22.0168V44.4024H21.6504V44.1273H22.6577V44.4024H22.3372V45.8216V45.8216ZM24.031 45.6383C24.031 45.7757 23.9395 45.8669 23.848 45.8669C23.7105 45.8669 23.619 45.7757 23.619 45.6383C23.619 45.5465 23.7105 45.455 23.848 45.455C23.9395 45.455 24.031 45.5462 24.031 45.6383ZM25.9537 44.4024V44.1273H26.5031V45.8216H26.1823V44.4024H25.9537ZM28.1056 45.7295L28.4263 45.2263H28.3345C28.0138 45.2263 27.8313 44.9518 27.8313 44.6769C27.8313 44.3562 28.06 44.0817 28.4266 44.0817C28.7468 44.0817 28.976 44.3103 28.976 44.6769C28.976 44.8597 28.8842 45.043 28.7927 45.2263L28.3348 45.8669L28.1056 45.7295V45.7295ZM28.1515 44.6769C28.1515 44.8144 28.2427 44.9971 28.426 44.9971C28.5634 44.9971 28.6547 44.8144 28.6547 44.6769C28.6547 44.5395 28.5634 44.3562 28.426 44.3562C28.2427 44.3565 28.1515 44.5398 28.1515 44.6769ZM30.4858 44.4024L30.4399 44.6769H30.5317C30.8525 44.6769 31.0811 44.9515 31.0811 45.2716C31.0811 45.5924 30.8066 45.8669 30.4399 45.8669C30.2572 45.8669 30.0739 45.7757 29.9368 45.6383L30.0742 45.3637C30.1201 45.5012 30.2575 45.5924 30.4402 45.5924C30.6235 45.5924 30.7148 45.4091 30.7148 45.2263C30.7148 45.043 30.5774 44.9056 30.3946 44.9056C30.3028 44.9056 30.2113 44.9515 30.1201 44.9968H30.0742L30.2575 44.127H30.9899V44.4021H30.4858V44.4024V44.4024ZM32.6375 44.4024L32.5462 44.6769H32.6375C32.9582 44.6769 33.1868 44.9515 33.1868 45.2716C33.1868 45.5924 32.9582 45.8669 32.5916 45.8669C32.3629 45.8669 32.2255 45.7757 32.0884 45.6383L32.1796 45.3637C32.2714 45.5012 32.4088 45.5924 32.5462 45.5924C32.729 45.5924 32.8664 45.4091 32.8664 45.2263C32.8664 45.043 32.729 44.9056 32.5462 44.9056C32.4544 44.9056 32.317 44.9515 32.2717 44.9968H32.2258L32.4091 44.127H33.1412V44.4021H32.6375V44.4024ZM4.16296 30.9889C4.11734 30.7603 3.52206 30.4395 3.38464 30.3936H5.94822C5.76519 30.4395 5.67368 30.7144 5.67368 30.8056L6.63502 33.5066C7.13879 32.3622 7.8712 30.9889 7.91681 30.8515C8.00833 30.6223 7.77939 30.4395 7.55075 30.3936H7.73378L10.0225 30.4396L9.61085 30.6682C9.42753 30.7141 9.24421 30.9889 9.1986 31.172C9.10738 31.4006 6.63502 35.612 6.63502 35.9328L4.16296 30.9889V30.9889ZM11.8081 30.0732L14.555 35.5211C14.6006 35.7044 14.8295 35.8872 14.9213 35.9331H12.8612C12.9984 35.8872 13.0443 35.7497 13.0443 35.6585C13.0443 35.6126 13.0443 35.5673 12.9984 35.4752L12.7694 34.9258H11.0298L10.7552 35.3837C10.7093 35.4749 10.7093 35.5211 10.7093 35.567C10.7093 35.6582 10.7552 35.9331 10.9383 35.9331H8.87815C9.01557 35.9331 9.24421 35.6123 9.24421 35.5211L11.8081 30.0732ZM11.3046 33.9645H12.4034L11.8999 32.7286L11.3046 33.9645V33.9645ZM17.1642 30.3936C16.9811 30.4395 16.8896 30.6223 16.8896 30.8056V33.9186C16.8896 34.651 17.027 34.9258 17.8051 34.9258C18.5831 34.9258 18.629 34.6513 18.629 33.9186V30.8056C18.629 30.6223 18.5375 30.4395 18.3542 30.3936H20.2312C20.0023 30.4395 19.9567 30.6223 19.9567 30.8056V33.9186C19.9567 35.155 19.3158 35.979 17.7592 35.979C16.2031 35.979 15.5619 35.155 15.5619 33.9186V30.8056C15.5619 30.6223 15.5163 30.4395 15.2874 30.3936H17.1642ZM28.3801 35.9331C28.6088 35.8872 28.6547 35.6585 28.6547 35.5211V30.8059C28.6547 30.6226 28.6088 30.4398 28.3801 30.3939H30.1198C29.8906 30.4398 29.8452 30.6226 29.8452 30.8059V32.5915H32.2717V30.8059C32.2717 30.6226 32.1799 30.4398 31.9966 30.3939H33.6909C33.5076 30.4398 33.4163 30.6226 33.4163 30.8059V35.5211C33.4163 35.6585 33.5076 35.8872 33.6909 35.9331H31.9966C32.1799 35.8872 32.2717 35.6585 32.2258 35.5211V33.7355H29.8455V35.5211C29.8455 35.6585 29.8908 35.8872 30.0742 35.9331H28.3801V35.9331ZM42.0222 30.0276L45.8676 33.7811V30.8056C45.8676 30.6223 45.7758 30.4395 45.6384 30.3936H47.2409C47.0576 30.4395 47.0123 30.6223 47.0123 30.8056V36.3447L43.2128 32.7739V35.5208C43.2128 35.6582 43.304 35.8869 43.4414 35.9328H41.7936C41.9763 35.8869 42.0222 35.6582 42.0222 35.5208V30.0276V30.0276ZM37.6734 30.0732L40.4197 35.4752C40.4656 35.7044 40.6489 35.8872 40.7864 35.8872H38.726C38.8634 35.8872 38.9093 35.7044 38.9093 35.6126C38.9093 35.5673 38.9093 35.5214 38.8634 35.4752L38.6347 34.8799H36.8492L36.5746 35.3837C36.5746 35.4296 36.5293 35.5211 36.5293 35.567C36.5293 35.6582 36.6205 35.8872 36.758 35.8872H34.7435C34.8809 35.8872 35.0642 35.567 35.1101 35.4752L37.6734 30.0732V30.0732ZM37.1696 33.9186H38.2681L37.7649 32.7286L37.1696 33.9186Z" fill="#DFDFDF"/>
<path fill-rule="evenodd" clip-rule="evenodd" d="M12.4948 0.133667H0.958374L24.9922 26.9147L30.9895 20.5055L12.4948 0.133667V0.133667Z" fill="white"/>
<path fill-rule="evenodd" clip-rule="evenodd" d="M14.1886 0.133667H50.3538L48.74 1.83526H15.7475L14.1886 0.133667ZM48.0773 2.55373L46.2377 4.58187H18.2635L16.4056 2.55373H48.0773ZM45.5739 5.29918L43.7064 7.31715L20.7382 7.28316L18.9204 5.29888H45.5739V5.29918V5.29918ZM43.0437 8.03329L41.2093 10.0152L23.2131 9.98474L21.3965 8.00133L43.0437 8.03329V8.03329ZM40.5469 10.7314L38.7114 12.7145L25.6878 12.686L23.8712 10.7029L40.5469 10.7314V10.7314ZM38.049 13.4303L36.1969 15.4315H28.2023L26.3461 13.4048L38.049 13.4303V13.4303ZM35.5337 16.1485L33.6975 18.1322H30.677L28.8595 16.1485H35.5337ZM33.034 18.8495L32.1796 19.7728L31.3341 18.8495H33.034ZM24.8552 33.2777L25.5417 33.8271V34.8797C25.3586 35.0177 25.2671 35.063 24.7634 35.063C23.9394 35.063 22.7492 34.6511 22.7492 33.1406C22.7492 31.9501 23.5731 31.3551 24.6259 31.3551C25.4499 31.3551 26.2741 31.767 26.2741 32.0422V30.5669C26.223 30.5817 26.1187 30.5715 25.9074 30.4396C25.6329 30.2563 25.2209 30.1189 24.6716 30.1189C23.3442 30.1189 21.6504 31.0346 21.6504 33.1859C21.6504 34.7429 23.1152 36.0703 24.7178 36.0703C26.4118 36.0703 26.5489 35.6124 26.7317 35.3379V33.5959L26.9955 33.278H24.8552V33.2777V33.2777Z" fill="#DFDFDF"/>
</svg>
