<svg width="148" height="47" viewBox="0 0 148 47" fill="none" xmlns="http://www.w3.org/2000/svg">
<g clip-path="url(#clip0_43_813)">
<path d="M45.4 16.0596L49.3425 18.3605C50.0645 18.7821 50.948 18.1588 50.758 17.3705L49.713 13.0438L53.1995 10.1288C53.836 9.59714 53.494 8.58881 52.658 8.52464L48.0695 8.14881L46.274 4.06048C45.951 3.31798 44.849 3.31798 44.526 4.06048L42.7305 8.13964L38.142 8.51548C37.306 8.57964 36.964 9.58798 37.6005 10.1196L41.087 13.0346L40.042 17.3613C39.852 18.1496 40.7355 18.773 41.4575 18.3513L45.4 16.0596Z" fill="#BFC3D4"/>
<path d="M113.8 16.0596L117.742 18.3605C118.464 18.7821 119.348 18.1588 119.158 17.3705L118.113 13.0438L121.599 10.1288C122.236 9.59714 121.894 8.58881 121.058 8.52464L116.469 8.14881L114.674 4.06048C114.351 3.31798 113.249 3.31798 112.926 4.06048L111.13 8.13964L106.542 8.51548C105.706 8.57964 105.364 9.58798 106 10.1196L109.487 13.0346L108.442 17.3613C108.252 18.1496 109.135 18.773 109.857 18.3513L113.8 16.0596Z" fill="#BFC3D4"/>
<path d="M91.0001 16.0596L94.9426 18.3605C95.6646 18.7821 96.5481 18.1588 96.3581 17.3705L95.3131 13.0438L98.7996 10.1288C99.4361 9.59714 99.0941 8.58881 98.2581 8.52464L93.6696 8.14881L91.8741 4.06048C91.5511 3.31798 90.4491 3.31798 90.1261 4.06048L88.3306 8.13964L83.7421 8.51548C82.9061 8.57964 82.5641 9.58798 83.2006 10.1196L86.6871 13.0346L85.6421 17.3613C85.4521 18.1496 86.3356 18.773 87.0576 18.3513L91.0001 16.0596Z" fill="#BFC3D4"/>
<path d="M68.2 16.0596L72.1425 18.3605C72.8645 18.7821 73.748 18.1588 73.558 17.3705L72.513 13.0438L75.9995 10.1288C76.636 9.59714 76.294 8.58881 75.458 8.52464L70.8695 8.14881L69.074 4.06048C68.751 3.31798 67.649 3.31798 67.326 4.06048L65.5305 8.13964L60.942 8.51548C60.106 8.57964 59.764 9.58798 60.4005 10.1196L63.887 13.0346L62.842 17.3613C62.652 18.1496 63.5355 18.773 64.2575 18.3513L68.2 16.0596Z" fill="#BFC3D4"/>
<path d="M136.6 16.0596L140.542 18.3605C141.264 18.7821 142.148 18.1588 141.958 17.3705L140.913 13.0438L144.399 10.1288C145.036 9.59714 144.694 8.58881 143.858 8.52464L139.269 8.14881L137.474 4.06048C137.151 3.31798 136.049 3.31798 135.726 4.06048L133.93 8.13964L129.342 8.51548C128.506 8.57964 128.164 9.58798 128.8 10.1196L132.287 13.0346L131.242 17.3613C131.052 18.1496 131.935 18.773 132.657 18.3513L136.6 16.0596Z" fill="#BFC3D4"/>
</g>
<path d="M44.56 38.472V35.432C44.56 35.2453 44.5653 35.0453 44.576 34.832C44.592 34.6133 44.6133 34.3867 44.64 34.152L41.56 38.472H44.56ZM47.92 38.472V39.864C47.92 39.9867 47.8773 40.0933 47.792 40.184C47.712 40.2747 47.5947 40.32 47.44 40.32H46.72V43H44.56V40.32H39.872C39.7173 40.32 39.576 40.272 39.448 40.176C39.3253 40.08 39.248 39.96 39.216 39.816L38.96 38.592L44.352 31.344H46.72V38.472H47.92ZM50.3853 41.744C50.3853 41.552 50.4199 41.3733 50.4893 41.208C50.5639 41.0427 50.6626 40.8987 50.7853 40.776C50.9133 40.6533 51.0626 40.5573 51.2333 40.488C51.4039 40.4133 51.5906 40.376 51.7933 40.376C51.9906 40.376 52.1746 40.4133 52.3453 40.488C52.5159 40.5573 52.6653 40.6533 52.7933 40.776C52.9213 40.8987 53.0199 41.0427 53.0893 41.208C53.1639 41.3733 53.2013 41.552 53.2013 41.744C53.2013 41.936 53.1639 42.1173 53.0893 42.288C53.0199 42.4533 52.9213 42.5973 52.7933 42.72C52.6653 42.8427 52.5159 42.9387 52.3453 43.008C52.1746 43.0773 51.9906 43.112 51.7933 43.112C51.5906 43.112 51.4039 43.0773 51.2333 43.008C51.0626 42.9387 50.9133 42.8427 50.7853 42.72C50.6626 42.5973 50.5639 42.4533 50.4893 42.288C50.4199 42.1173 50.3853 41.936 50.3853 41.744ZM64.1334 31.344V32.384C64.1334 32.6933 64.0987 32.944 64.0294 33.136C63.96 33.3227 63.8934 33.48 63.8294 33.608L59.7814 42.184C59.6694 42.408 59.5094 42.6 59.3014 42.76C59.0987 42.92 58.8267 43 58.4854 43H56.6774L60.8374 34.656C60.96 34.432 61.0827 34.2293 61.2054 34.048C61.3334 33.8613 61.4747 33.6853 61.6294 33.52H56.5014C56.4267 33.52 56.3547 33.5067 56.2854 33.48C56.2214 33.448 56.1627 33.408 56.1094 33.36C56.0614 33.3067 56.0214 33.248 55.9894 33.184C55.9574 33.1147 55.9414 33.0453 55.9414 32.976V31.344H64.1334ZM76.4138 36.824C76.7818 36.824 77.0938 36.7787 77.3498 36.688C77.6111 36.592 77.8244 36.4613 77.9898 36.296C78.1551 36.1307 78.2751 35.9387 78.3498 35.72C78.4244 35.496 78.4618 35.256 78.4618 35C78.4618 34.488 78.2938 34.088 77.9578 33.8C77.6271 33.512 77.1124 33.368 76.4138 33.368H75.3258V36.824H76.4138ZM82.1578 43H79.7098C79.2564 43 78.9311 42.8293 78.7338 42.488L76.7978 39.104C76.7071 38.96 76.6058 38.856 76.4938 38.792C76.3818 38.7227 76.2218 38.688 76.0138 38.688H75.3258V43H72.6218V31.344H76.4138C77.2564 31.344 77.9738 31.432 78.5658 31.608C79.1631 31.7787 79.6484 32.0187 80.0218 32.328C80.4004 32.6373 80.6751 33.0027 80.8458 33.424C81.0164 33.8453 81.1018 34.304 81.1018 34.8C81.1018 35.1787 81.0511 35.536 80.9498 35.872C80.8484 36.208 80.6991 36.52 80.5018 36.808C80.3044 37.0907 80.0591 37.344 79.7658 37.568C79.4778 37.792 79.1444 37.976 78.7658 38.12C78.9418 38.2107 79.1071 38.3253 79.2618 38.464C79.4164 38.5973 79.5551 38.7573 79.6778 38.944L82.1578 43ZM90.8974 38.544L89.8174 35.352C89.7374 35.1493 89.652 34.912 89.5614 34.64C89.4707 34.3627 89.38 34.064 89.2894 33.744C89.2094 34.0693 89.124 34.3707 89.0334 34.648C88.9427 34.9253 88.8574 35.1653 88.7774 35.368L87.7054 38.544H90.8974ZM95.1934 43H93.0974C92.8627 43 92.6734 42.9467 92.5294 42.84C92.3854 42.728 92.276 42.5867 92.2014 42.416L91.5134 40.384H87.0814L86.3934 42.416C86.3347 42.5653 86.228 42.7013 86.0734 42.824C85.924 42.9413 85.7374 43 85.5134 43H83.4014L87.9134 31.344H90.6814L95.1934 43ZM104.948 33.488H101.668V43H98.9637V33.488H95.6837V31.344H104.948V33.488ZM110.642 43H107.922V31.344H110.642V43ZM124.667 31.344V43H123.259C123.051 43 122.875 42.968 122.731 42.904C122.592 42.8347 122.453 42.7173 122.315 42.552L116.819 35.6C116.84 35.808 116.853 36.0107 116.859 36.208C116.869 36.4 116.875 36.5813 116.875 36.752V43H114.491V31.344H115.915C116.032 31.344 116.131 31.3493 116.211 31.36C116.291 31.3707 116.363 31.392 116.427 31.424C116.491 31.4507 116.552 31.4907 116.611 31.544C116.669 31.5973 116.736 31.6693 116.811 31.76L122.355 38.76C122.328 38.536 122.309 38.32 122.299 38.112C122.288 37.8987 122.283 37.6987 122.283 37.512V31.344H124.667ZM134.128 36.96H138.272V41.88C137.675 42.3173 137.037 42.6347 136.36 42.832C135.688 43.0293 134.984 43.128 134.248 43.128C133.288 43.128 132.413 42.9787 131.624 42.68C130.84 42.376 130.168 41.96 129.608 41.432C129.048 40.8987 128.616 40.2693 128.312 39.544C128.008 38.8133 127.856 38.0213 127.856 37.168C127.856 36.2987 128 35.5013 128.288 34.776C128.576 34.0453 128.987 33.416 129.52 32.888C130.059 32.36 130.707 31.9493 131.464 31.656C132.227 31.3627 133.077 31.216 134.016 31.216C134.501 31.216 134.957 31.256 135.384 31.336C135.811 31.416 136.203 31.5253 136.56 31.664C136.923 31.8027 137.253 31.968 137.552 32.16C137.851 32.352 138.117 32.56 138.352 32.784L137.568 33.976C137.445 34.1627 137.285 34.2773 137.088 34.32C136.896 34.3627 136.688 34.3147 136.464 34.176C136.251 34.048 136.048 33.9387 135.856 33.848C135.669 33.752 135.477 33.6747 135.28 33.616C135.083 33.5573 134.875 33.5147 134.656 33.488C134.437 33.4613 134.192 33.448 133.92 33.448C133.413 33.448 132.957 33.5387 132.552 33.72C132.147 33.896 131.8 34.1467 131.512 34.472C131.229 34.7973 131.011 35.1893 130.856 35.648C130.701 36.1013 130.624 36.608 130.624 37.168C130.624 37.7867 130.709 38.336 130.88 38.816C131.051 39.296 131.291 39.7013 131.6 40.032C131.915 40.3627 132.288 40.616 132.72 40.792C133.157 40.9627 133.64 41.048 134.168 41.048C134.493 41.048 134.787 41.016 135.048 40.952C135.315 40.888 135.573 40.8027 135.824 40.696V38.928H134.672C134.501 38.928 134.368 38.8827 134.272 38.792C134.176 38.7013 134.128 38.5867 134.128 38.448V36.96Z" fill="#BFC3D4"/>
<path d="M19.2759 7.45244C16.3619 7.45244 15.5335 8.74494 15.5335 11.5943V16.2972H23.2841L22.5203 23.9157H15.532V47H6.25688V23.9142H0V16.2958H6.25981V11.725C6.25981 4.03906 9.34125 0 17.9848 0C19.8399 0 22.0592 0.146875 23.384 0.331937V7.48475" fill="#BFC3D4"/>
<defs>
<clipPath id="clip0_43_813">
<rect x="34" width="114" height="22" rx="5" fill="white"/>
</clipPath>
</defs>
</svg>
