<svg width="170" height="47" viewBox="0 0 170 47" fill="none" xmlns="http://www.w3.org/2000/svg">
<path d="M46.2419 24.0496C46.2419 37.4579 37.0599 47 23.5 47C10.4992 47 0 36.5008 0 23.5C0 10.4992 10.4992 0 23.5 0C29.8298 0 35.1552 2.32157 39.2583 6.1498L32.8621 12.2996C24.495 4.22621 8.93569 10.2907 8.93569 23.5C8.93569 31.6966 15.4835 38.3391 23.5 38.3391C32.8052 38.3391 36.2923 31.6681 36.8419 28.2095H23.5V20.1266H45.8724C46.0903 21.33 46.2419 22.4861 46.2419 24.0496Z" fill="#BFC3D4"/>
<g clip-path="url(#clip0_43_803)">
<path d="M67.4 16.0596L71.3425 18.3605C72.0645 18.7821 72.948 18.1588 72.758 17.3705L71.713 13.0438L75.1995 10.1288C75.836 9.59714 75.494 8.58881 74.658 8.52464L70.0695 8.14881L68.274 4.06048C67.951 3.31798 66.849 3.31798 66.526 4.06048L64.7305 8.13964L60.142 8.51548C59.306 8.57964 58.964 9.58798 59.6005 10.1196L63.087 13.0346L62.042 17.3613C61.852 18.1496 62.7355 18.773 63.4575 18.3513L67.4 16.0596Z" fill="#BFC3D4"/>
<path d="M135.8 16.0596L139.742 18.3605C140.464 18.7821 141.348 18.1588 141.158 17.3705L140.113 13.0438L143.599 10.1288C144.236 9.59714 143.894 8.58881 143.058 8.52464L138.469 8.14881L136.674 4.06048C136.351 3.31798 135.249 3.31798 134.926 4.06048L133.13 8.13964L128.542 8.51548C127.706 8.57964 127.364 9.58798 128 10.1196L131.487 13.0346L130.442 17.3613C130.252 18.1496 131.135 18.773 131.857 18.3513L135.8 16.0596Z" fill="#BFC3D4"/>
<path d="M113 16.0596L116.943 18.3605C117.665 18.7821 118.548 18.1588 118.358 17.3705L117.313 13.0438L120.8 10.1288C121.436 9.59714 121.094 8.58881 120.258 8.52464L115.67 8.14881L113.874 4.06048C113.551 3.31798 112.449 3.31798 112.126 4.06048L110.331 8.13964L105.742 8.51548C104.906 8.57964 104.564 9.58798 105.201 10.1196L108.687 13.0346L107.642 17.3613C107.452 18.1496 108.336 18.773 109.058 18.3513L113 16.0596Z" fill="#BFC3D4"/>
<path d="M90.2 16.0596L94.1425 18.3605C94.8645 18.7821 95.748 18.1588 95.558 17.3705L94.513 13.0438L97.9995 10.1288C98.636 9.59714 98.294 8.58881 97.458 8.52464L92.8695 8.14881L91.074 4.06048C90.751 3.31798 89.649 3.31798 89.326 4.06048L87.5305 8.13964L82.942 8.51548C82.106 8.57964 81.764 9.58798 82.4005 10.1196L85.887 13.0346L84.842 17.3613C84.652 18.1496 85.5355 18.773 86.2575 18.3513L90.2 16.0596Z" fill="#BFC3D4"/>
<path d="M158.6 16.0596L162.542 18.3605C163.264 18.7821 164.148 18.1588 163.958 17.3705L162.913 13.0438L166.399 10.1288C167.036 9.59714 166.694 8.58881 165.858 8.52464L161.269 8.14881L159.474 4.06048C159.151 3.31798 158.049 3.31798 157.726 4.06048L155.93 8.13964L151.342 8.51548C150.506 8.57964 150.164 9.58798 150.8 10.1196L154.287 13.0346L153.242 17.3613C153.052 18.1496 153.935 18.773 154.657 18.3513L158.6 16.0596Z" fill="#BFC3D4"/>
</g>
<path d="M66.56 38.472V35.432C66.56 35.2453 66.5653 35.0453 66.576 34.832C66.592 34.6133 66.6133 34.3867 66.64 34.152L63.56 38.472H66.56ZM69.92 38.472V39.864C69.92 39.9867 69.8773 40.0933 69.792 40.184C69.712 40.2747 69.5947 40.32 69.44 40.32H68.72V43H66.56V40.32H61.872C61.7173 40.32 61.576 40.272 61.448 40.176C61.3253 40.08 61.248 39.96 61.216 39.816L60.96 38.592L66.352 31.344H68.72V38.472H69.92ZM72.3853 41.744C72.3853 41.552 72.4199 41.3733 72.4893 41.208C72.5639 41.0427 72.6626 40.8987 72.7853 40.776C72.9133 40.6533 73.0626 40.5573 73.2333 40.488C73.4039 40.4133 73.5906 40.376 73.7933 40.376C73.9906 40.376 74.1746 40.4133 74.3453 40.488C74.5159 40.5573 74.6653 40.6533 74.7933 40.776C74.9213 40.8987 75.0199 41.0427 75.0893 41.208C75.1639 41.3733 75.2013 41.552 75.2013 41.744C75.2013 41.936 75.1639 42.1173 75.0893 42.288C75.0199 42.4533 74.9213 42.5973 74.7933 42.72C74.6653 42.8427 74.5159 42.9387 74.3453 43.008C74.1746 43.0773 73.9906 43.112 73.7933 43.112C73.5906 43.112 73.4039 43.0773 73.2333 43.008C73.0626 42.9387 72.9133 42.8427 72.7853 42.72C72.6626 42.5973 72.5639 42.4533 72.4893 42.288C72.4199 42.1173 72.3853 41.936 72.3853 41.744ZM86.1334 31.344V32.384C86.1334 32.6933 86.0987 32.944 86.0294 33.136C85.96 33.3227 85.8934 33.48 85.8294 33.608L81.7814 42.184C81.6694 42.408 81.5094 42.6 81.3014 42.76C81.0987 42.92 80.8267 43 80.4854 43H78.6774L82.8374 34.656C82.96 34.432 83.0827 34.2293 83.2054 34.048C83.3334 33.8613 83.4747 33.6853 83.6294 33.52H78.5014C78.4267 33.52 78.3547 33.5067 78.2854 33.48C78.2214 33.448 78.1627 33.408 78.1094 33.36C78.0614 33.3067 78.0214 33.248 77.9894 33.184C77.9574 33.1147 77.9414 33.0453 77.9414 32.976V31.344H86.1334ZM98.4138 36.824C98.7818 36.824 99.0938 36.7787 99.3498 36.688C99.6111 36.592 99.8244 36.4613 99.9898 36.296C100.155 36.1307 100.275 35.9387 100.35 35.72C100.424 35.496 100.462 35.256 100.462 35C100.462 34.488 100.294 34.088 99.9578 33.8C99.6271 33.512 99.1124 33.368 98.4138 33.368H97.3258V36.824H98.4138ZM104.158 43H101.71C101.256 43 100.931 42.8293 100.734 42.488L98.7978 39.104C98.7071 38.96 98.6058 38.856 98.4938 38.792C98.3818 38.7227 98.2218 38.688 98.0138 38.688H97.3258V43H94.6218V31.344H98.4138C99.2564 31.344 99.9738 31.432 100.566 31.608C101.163 31.7787 101.648 32.0187 102.022 32.328C102.4 32.6373 102.675 33.0027 102.846 33.424C103.016 33.8453 103.102 34.304 103.102 34.8C103.102 35.1787 103.051 35.536 102.95 35.872C102.848 36.208 102.699 36.52 102.502 36.808C102.304 37.0907 102.059 37.344 101.766 37.568C101.478 37.792 101.144 37.976 100.766 38.12C100.942 38.2107 101.107 38.3253 101.262 38.464C101.416 38.5973 101.555 38.7573 101.678 38.944L104.158 43ZM112.897 38.544L111.817 35.352C111.737 35.1493 111.652 34.912 111.561 34.64C111.471 34.3627 111.38 34.064 111.289 33.744C111.209 34.0693 111.124 34.3707 111.033 34.648C110.943 34.9253 110.857 35.1653 110.777 35.368L109.705 38.544H112.897ZM117.193 43H115.097C114.863 43 114.673 42.9467 114.529 42.84C114.385 42.728 114.276 42.5867 114.201 42.416L113.513 40.384H109.081L108.393 42.416C108.335 42.5653 108.228 42.7013 108.073 42.824C107.924 42.9413 107.737 43 107.513 43H105.401L109.913 31.344H112.681L117.193 43ZM126.948 33.488H123.668V43H120.964V33.488H117.684V31.344H126.948V33.488ZM132.642 43H129.922V31.344H132.642V43ZM146.667 31.344V43H145.259C145.051 43 144.875 42.968 144.731 42.904C144.592 42.8347 144.453 42.7173 144.315 42.552L138.819 35.6C138.84 35.808 138.853 36.0107 138.859 36.208C138.869 36.4 138.875 36.5813 138.875 36.752V43H136.491V31.344H137.915C138.032 31.344 138.131 31.3493 138.211 31.36C138.291 31.3707 138.363 31.392 138.427 31.424C138.491 31.4507 138.552 31.4907 138.611 31.544C138.669 31.5973 138.736 31.6693 138.811 31.76L144.355 38.76C144.328 38.536 144.309 38.32 144.299 38.112C144.288 37.8987 144.283 37.6987 144.283 37.512V31.344H146.667ZM156.128 36.96H160.272V41.88C159.675 42.3173 159.037 42.6347 158.36 42.832C157.688 43.0293 156.984 43.128 156.248 43.128C155.288 43.128 154.413 42.9787 153.624 42.68C152.84 42.376 152.168 41.96 151.608 41.432C151.048 40.8987 150.616 40.2693 150.312 39.544C150.008 38.8133 149.856 38.0213 149.856 37.168C149.856 36.2987 150 35.5013 150.288 34.776C150.576 34.0453 150.987 33.416 151.52 32.888C152.059 32.36 152.707 31.9493 153.464 31.656C154.227 31.3627 155.077 31.216 156.016 31.216C156.501 31.216 156.957 31.256 157.384 31.336C157.811 31.416 158.203 31.5253 158.56 31.664C158.923 31.8027 159.253 31.968 159.552 32.16C159.851 32.352 160.117 32.56 160.352 32.784L159.568 33.976C159.445 34.1627 159.285 34.2773 159.088 34.32C158.896 34.3627 158.688 34.3147 158.464 34.176C158.251 34.048 158.048 33.9387 157.856 33.848C157.669 33.752 157.477 33.6747 157.28 33.616C157.083 33.5573 156.875 33.5147 156.656 33.488C156.437 33.4613 156.192 33.448 155.92 33.448C155.413 33.448 154.957 33.5387 154.552 33.72C154.147 33.896 153.8 34.1467 153.512 34.472C153.229 34.7973 153.011 35.1893 152.856 35.648C152.701 36.1013 152.624 36.608 152.624 37.168C152.624 37.7867 152.709 38.336 152.88 38.816C153.051 39.296 153.291 39.7013 153.6 40.032C153.915 40.3627 154.288 40.616 154.72 40.792C155.157 40.9627 155.64 41.048 156.168 41.048C156.493 41.048 156.787 41.016 157.048 40.952C157.315 40.888 157.573 40.8027 157.824 40.696V38.928H156.672C156.501 38.928 156.368 38.8827 156.272 38.792C156.176 38.7013 156.128 38.5867 156.128 38.448V36.96Z" fill="#BFC3D4"/>
<defs>
<clipPath id="clip0_43_803">
<rect x="56" width="114" height="22" rx="5" fill="white"/>
</clipPath>
</defs>
</svg>
