<svg width="159" height="48" viewBox="0 0 159 48" fill="none" xmlns="http://www.w3.org/2000/svg">
<g clip-path="url(#clip0_43_823)">
<path d="M56.4 16.0596L60.3425 18.3605C61.0645 18.7821 61.948 18.1588 61.758 17.3705L60.713 13.0438L64.1995 10.1288C64.836 9.59714 64.494 8.58881 63.658 8.52464L59.0695 8.14881L57.274 4.06048C56.951 3.31798 55.849 3.31798 55.526 4.06048L53.7305 8.13964L49.142 8.51548C48.306 8.57964 47.964 9.58798 48.6005 10.1196L52.087 13.0346L51.042 17.3613C50.852 18.1496 51.7355 18.773 52.4575 18.3513L56.4 16.0596Z" fill="#BFC3D4"/>
<path d="M124.8 16.0596L128.742 18.3605C129.464 18.7821 130.348 18.1588 130.158 17.3705L129.113 13.0438L132.599 10.1288C133.236 9.59714 132.894 8.58881 132.058 8.52464L127.469 8.14881L125.674 4.06048C125.351 3.31798 124.249 3.31798 123.926 4.06048L122.13 8.13964L117.542 8.51548C116.706 8.57964 116.364 9.58798 117 10.1196L120.487 13.0346L119.442 17.3613C119.252 18.1496 120.135 18.773 120.857 18.3513L124.8 16.0596Z" fill="#BFC3D4"/>
<path d="M102 16.0596L105.943 18.3605C106.665 18.7821 107.548 18.1588 107.358 17.3705L106.313 13.0438L109.8 10.1288C110.436 9.59714 110.094 8.58881 109.258 8.52464L104.67 8.14881L102.874 4.06048C102.551 3.31798 101.449 3.31798 101.126 4.06048L99.3306 8.13964L94.7421 8.51548C93.9061 8.57964 93.5641 9.58798 94.2006 10.1196L97.6871 13.0346L96.6421 17.3613C96.4521 18.1496 97.3356 18.773 98.0576 18.3513L102 16.0596Z" fill="#BFC3D4"/>
<path d="M79.2 16.0596L83.1425 18.3605C83.8645 18.7821 84.748 18.1588 84.558 17.3705L83.513 13.0438L86.9995 10.1288C87.636 9.59714 87.294 8.58881 86.458 8.52464L81.8695 8.14881L80.074 4.06048C79.751 3.31798 78.649 3.31798 78.326 4.06048L76.5305 8.13964L71.942 8.51548C71.106 8.57964 70.764 9.58798 71.4005 10.1196L74.887 13.0346L73.842 17.3613C73.652 18.1496 74.5355 18.773 75.2575 18.3513L79.2 16.0596Z" fill="#BFC3D4"/>
<path d="M147.6 16.0596L151.542 18.3605C152.264 18.7821 153.148 18.1588 152.958 17.3705L151.913 13.0438L155.399 10.1288C156.036 9.59714 155.694 8.58881 154.858 8.52464L150.269 8.14881L148.474 4.06048C148.151 3.31798 147.049 3.31798 146.726 4.06048L144.93 8.13964L140.342 8.51548C139.506 8.57964 139.164 9.58798 139.8 10.1196L143.287 13.0346L142.242 17.3613C142.052 18.1496 142.935 18.773 143.657 18.3513L147.6 16.0596Z" fill="#BFC3D4"/>
</g>
<path d="M55.56 38.472V35.432C55.56 35.2453 55.5653 35.0453 55.576 34.832C55.592 34.6133 55.6133 34.3867 55.64 34.152L52.56 38.472H55.56ZM58.92 38.472V39.864C58.92 39.9867 58.8773 40.0933 58.792 40.184C58.712 40.2747 58.5947 40.32 58.44 40.32H57.72V43H55.56V40.32H50.872C50.7173 40.32 50.576 40.272 50.448 40.176C50.3253 40.08 50.248 39.96 50.216 39.816L49.96 38.592L55.352 31.344H57.72V38.472H58.92ZM61.3853 41.744C61.3853 41.552 61.4199 41.3733 61.4893 41.208C61.5639 41.0427 61.6626 40.8987 61.7853 40.776C61.9133 40.6533 62.0626 40.5573 62.2333 40.488C62.4039 40.4133 62.5906 40.376 62.7933 40.376C62.9906 40.376 63.1746 40.4133 63.3453 40.488C63.5159 40.5573 63.6653 40.6533 63.7933 40.776C63.9213 40.8987 64.0199 41.0427 64.0893 41.208C64.1639 41.3733 64.2013 41.552 64.2013 41.744C64.2013 41.936 64.1639 42.1173 64.0893 42.288C64.0199 42.4533 63.9213 42.5973 63.7933 42.72C63.6653 42.8427 63.5159 42.9387 63.3453 43.008C63.1746 43.0773 62.9906 43.112 62.7933 43.112C62.5906 43.112 62.4039 43.0773 62.2333 43.008C62.0626 42.9387 61.9133 42.8427 61.7853 42.72C61.6626 42.5973 61.5639 42.4533 61.4893 42.288C61.4199 42.1173 61.3853 41.936 61.3853 41.744ZM75.1334 31.344V32.384C75.1334 32.6933 75.0987 32.944 75.0294 33.136C74.96 33.3227 74.8934 33.48 74.8294 33.608L70.7814 42.184C70.6694 42.408 70.5094 42.6 70.3014 42.76C70.0987 42.92 69.8267 43 69.4854 43H67.6774L71.8374 34.656C71.96 34.432 72.0827 34.2293 72.2054 34.048C72.3334 33.8613 72.4747 33.6853 72.6294 33.52H67.5014C67.4267 33.52 67.3547 33.5067 67.2854 33.48C67.2214 33.448 67.1627 33.408 67.1094 33.36C67.0614 33.3067 67.0214 33.248 66.9894 33.184C66.9574 33.1147 66.9414 33.0453 66.9414 32.976V31.344H75.1334ZM87.4138 36.824C87.7818 36.824 88.0938 36.7787 88.3498 36.688C88.6111 36.592 88.8244 36.4613 88.9898 36.296C89.1551 36.1307 89.2751 35.9387 89.3498 35.72C89.4244 35.496 89.4618 35.256 89.4618 35C89.4618 34.488 89.2938 34.088 88.9578 33.8C88.6271 33.512 88.1124 33.368 87.4138 33.368H86.3258V36.824H87.4138ZM93.1578 43H90.7098C90.2564 43 89.9311 42.8293 89.7338 42.488L87.7978 39.104C87.7071 38.96 87.6058 38.856 87.4938 38.792C87.3818 38.7227 87.2218 38.688 87.0138 38.688H86.3258V43H83.6218V31.344H87.4138C88.2564 31.344 88.9738 31.432 89.5658 31.608C90.1631 31.7787 90.6484 32.0187 91.0218 32.328C91.4004 32.6373 91.6751 33.0027 91.8458 33.424C92.0164 33.8453 92.1018 34.304 92.1018 34.8C92.1018 35.1787 92.0511 35.536 91.9498 35.872C91.8484 36.208 91.6991 36.52 91.5018 36.808C91.3044 37.0907 91.0591 37.344 90.7658 37.568C90.4778 37.792 90.1444 37.976 89.7658 38.12C89.9418 38.2107 90.1071 38.3253 90.2618 38.464C90.4164 38.5973 90.5551 38.7573 90.6778 38.944L93.1578 43ZM101.897 38.544L100.817 35.352C100.737 35.1493 100.652 34.912 100.561 34.64C100.471 34.3627 100.38 34.064 100.289 33.744C100.209 34.0693 100.124 34.3707 100.033 34.648C99.9427 34.9253 99.8574 35.1653 99.7774 35.368L98.7054 38.544H101.897ZM106.193 43H104.097C103.863 43 103.673 42.9467 103.529 42.84C103.385 42.728 103.276 42.5867 103.201 42.416L102.513 40.384H98.0814L97.3934 42.416C97.3347 42.5653 97.228 42.7013 97.0734 42.824C96.924 42.9413 96.7374 43 96.5134 43H94.4014L98.9134 31.344H101.681L106.193 43ZM115.948 33.488H112.668V43H109.964V33.488H106.684V31.344H115.948V33.488ZM121.642 43H118.922V31.344H121.642V43ZM135.667 31.344V43H134.259C134.051 43 133.875 42.968 133.731 42.904C133.592 42.8347 133.453 42.7173 133.315 42.552L127.819 35.6C127.84 35.808 127.853 36.0107 127.859 36.208C127.869 36.4 127.875 36.5813 127.875 36.752V43H125.491V31.344H126.915C127.032 31.344 127.131 31.3493 127.211 31.36C127.291 31.3707 127.363 31.392 127.427 31.424C127.491 31.4507 127.552 31.4907 127.611 31.544C127.669 31.5973 127.736 31.6693 127.811 31.76L133.355 38.76C133.328 38.536 133.309 38.32 133.299 38.112C133.288 37.8987 133.283 37.6987 133.283 37.512V31.344H135.667ZM145.128 36.96H149.272V41.88C148.675 42.3173 148.037 42.6347 147.36 42.832C146.688 43.0293 145.984 43.128 145.248 43.128C144.288 43.128 143.413 42.9787 142.624 42.68C141.84 42.376 141.168 41.96 140.608 41.432C140.048 40.8987 139.616 40.2693 139.312 39.544C139.008 38.8133 138.856 38.0213 138.856 37.168C138.856 36.2987 139 35.5013 139.288 34.776C139.576 34.0453 139.987 33.416 140.52 32.888C141.059 32.36 141.707 31.9493 142.464 31.656C143.227 31.3627 144.077 31.216 145.016 31.216C145.501 31.216 145.957 31.256 146.384 31.336C146.811 31.416 147.203 31.5253 147.56 31.664C147.923 31.8027 148.253 31.968 148.552 32.16C148.851 32.352 149.117 32.56 149.352 32.784L148.568 33.976C148.445 34.1627 148.285 34.2773 148.088 34.32C147.896 34.3627 147.688 34.3147 147.464 34.176C147.251 34.048 147.048 33.9387 146.856 33.848C146.669 33.752 146.477 33.6747 146.28 33.616C146.083 33.5573 145.875 33.5147 145.656 33.488C145.437 33.4613 145.192 33.448 144.92 33.448C144.413 33.448 143.957 33.5387 143.552 33.72C143.147 33.896 142.8 34.1467 142.512 34.472C142.229 34.7973 142.011 35.1893 141.856 35.648C141.701 36.1013 141.624 36.608 141.624 37.168C141.624 37.7867 141.709 38.336 141.88 38.816C142.051 39.296 142.291 39.7013 142.6 40.032C142.915 40.3627 143.288 40.616 143.72 40.792C144.157 40.9627 144.64 41.048 145.168 41.048C145.493 41.048 145.787 41.016 146.048 40.952C146.315 40.888 146.573 40.8027 146.824 40.696V38.928H145.672C145.501 38.928 145.368 38.8827 145.272 38.792C145.176 38.7013 145.128 38.5867 145.128 38.448V36.96Z" fill="#BFC3D4"/>
<path d="M13.7772 34.1134L7.27867 42.0269C6.36434 43.1403 6.80117 44.8217 8.14176 45.3493L14.495 47.8499C15.8656 48.3893 17.3555 47.4032 17.3945 45.9307L17.6684 35.5648C17.7236 33.4751 15.1037 32.498 13.7772 34.1134Z" fill="#BFC3D4"/>
<path d="M12.697 26.2478L3.05949 22.7875C1.70347 22.3007 0.26676 23.2772 0.220477 24.7173L0.00114527 31.5414C-0.0462165 33.0136 1.38348 34.0853 2.7833 33.6269L12.6381 30.4004C14.6247 29.7501 14.6643 26.9541 12.697 26.2478Z" fill="#BFC3D4"/>
<path d="M23.7426 27.3574L33.6144 24.6365C35.0033 24.2537 35.6156 22.628 34.8242 21.424L31.0739 15.7186C30.2649 14.4879 28.4788 14.4349 27.5984 15.6157L21.3995 23.9285C20.1498 25.6042 21.7276 27.9129 23.7426 27.3574Z" fill="#BFC3D4"/>
<path d="M16.5935 3.63572C16.672 1.92832 15.0631 0.640275 13.4142 1.09059L5.60025 3.22457C3.91454 3.68492 3.19861 5.68015 4.20702 7.10727L13.174 22.6426C13.2469 22.7687 13.3271 22.8909 13.4215 23.002C14.7495 24.5625 17.2425 23.9843 17.857 22.1574C17.9674 21.8292 17.9985 21.4795 17.9713 21.1342L16.5935 3.63572Z" fill="#BFC3D4"/>
<path d="M33.6817 34.4594L23.7688 31.4157C21.7707 30.8021 20.1267 33.0641 21.3272 34.7752L27.2082 43.1579C28.0356 44.3374 29.7726 44.3675 30.6404 43.2174L34.753 37.7674C35.6402 36.5917 35.0897 34.8919 33.6817 34.4594Z" fill="#BFC3D4"/>
<defs>
<clipPath id="clip0_43_823">
<rect x="45" width="114" height="22" rx="5" fill="white"/>
</clipPath>
</defs>
</svg>
