<?xml version="1.0" standalone="no"?>
<!DOCTYPE svg PUBLIC "-//W3C//DTD SVG 1.1//EN" "http://www.w3.org/Graphics/SVG/1.1/DTD/svg11.dtd" >
<svg xmlns="http://www.w3.org/2000/svg" xmlns:xlink="http://www.w3.org/1999/xlink" version="1.1">
<metadata>
Created by FontForge 20170731 at Fri Oct 24 14:58:13 2014
 By Aleksey,,,
(c) 2014, Copyright by Lineto. All rights reserved.
</metadata>
<defs>
<font id="IntCircularPTT-Thin" horiz-adv-x="560" >
  <font-face 
    font-family="Int Circular PTT Thin"
    font-weight="250"
    font-stretch="normal"
    units-per-em="1000"
    panose-1="2 11 4 4 2 1 1 2 1 2"
    ascent="809"
    descent="-191"
    x-height="474"
    cap-height="709"
    bbox="-47 -243 2838 1010"
    underline-thickness="80"
    underline-position="-275"
    unicode-range="U+0020-FEFF"
  />
<missing-glyph horiz-adv-x="562" 
d="M80 709h402v-709h-402v709zM403 79v551h-244v-551h244z" />
    <glyph glyph-name="f_f" unicode="ff" horiz-adv-x="609" 
d="M446 438v-438h-40v438h-250v-438h-40v438h-103v36h103v111q0 74 37 110t97 36q30 0 53 -10v-36q-20 10 -48 10q-43 0 -71 -26.5t-28 -86.5v-108h250v111q0 74 37 110t97 36q30 0 53 -10v-36q-20 10 -48 10q-43 0 -71 -26.5t-28 -86.5v-108h142v-36h-142z" />
    <glyph glyph-name="f_f_i" unicode="ffi" horiz-adv-x="822" 
d="M696 0v438h-250v-438h-40v438h-250v-438h-40v438h-103v36h103v111q0 74 37 110t97 36q30 0 53 -10v-36q-20 10 -48 10q-43 0 -71 -26.5t-28 -86.5v-108h250v111q0 74 37 110t97 36q30 0 53 -10v-36q-20 10 -48 10q-43 0 -71 -26.5t-28 -86.5v-108h290v-474h-40zM677 681
q0 17 11 28.5t28 11.5q16 0 27.5 -11.5t11.5 -28.5q0 -16 -11.5 -27t-27.5 -11q-17 0 -28 11t-11 27z" />
    <glyph glyph-name="f_f_l" unicode="ffl" horiz-adv-x="822" 
d="M696 0v438h-250v-438h-40v438h-250v-438h-40v438h-103v36h103v111q0 74 37 110t97 36q30 0 53 -10v-36q-20 10 -48 10q-43 0 -71 -26.5t-28 -86.5v-108h250v111q0 74 37 110t97 36q30 0 53 -10v-36q-20 10 -48 10q-43 0 -71 -26.5t-28 -86.5v-108h250v247h40v-721h-40z
" />
    <glyph glyph-name="f_i" unicode="fi" horiz-adv-x="532" 
d="M406 0v438h-250v-438h-40v438h-103v36h103v111q0 74 37 110t97 36q30 0 53 -10v-36q-20 10 -48 10q-43 0 -71 -26.5t-28 -86.5v-108h290v-474h-40zM387 681q0 17 11 28.5t28 11.5q16 0 27.5 -11.5t11.5 -28.5q0 -16 -11.5 -27t-27.5 -11q-17 0 -28 11t-11 27z" />
    <glyph glyph-name="f_l" unicode="fl" horiz-adv-x="532" 
d="M406 0v438h-250v-438h-40v438h-103v36h103v111q0 74 37 110t97 36q30 0 53 -10v-36q-20 10 -48 10q-43 0 -71 -26.5t-28 -86.5v-108h250v247h40v-721h-40z" />
    <glyph glyph-name=".notdef" horiz-adv-x="562" 
d="M80 709h402v-709h-402v709zM403 79v551h-244v-551h244z" />
    <glyph glyph-name=".null" horiz-adv-x="0" 
 />
    <glyph glyph-name="nonmarkingreturn" horiz-adv-x="254" 
 />
    <glyph glyph-name="space" unicode=" " horiz-adv-x="254" 
 />
    <glyph glyph-name="exclam" unicode="!" horiz-adv-x="281" 
d="M131 181l-13 528h52l-13 -528h-26zM100 36q0 17 11.5 29t28.5 12t29 -12t12 -29t-12 -28.5t-29 -11.5t-28.5 11.5t-11.5 28.5z" />
    <glyph glyph-name="quotedbl" unicode="&#x22;" horiz-adv-x="246" 
d="M35 680q0 17 9.5 26t22.5 9q14 0 24 -9t10 -26q0 -7 -1.5 -19.5t-3.5 -21.5l-21 -131h-15l-20 131q-2 9 -3.5 21.5t-1.5 19.5zM145 680q0 17 9.5 26t22.5 9q14 0 24 -9t10 -26q0 -7 -1.5 -19.5t-3.5 -21.5l-21 -131h-15l-20 131q-2 9 -3.5 21.5t-1.5 19.5z" />
    <glyph glyph-name="numbersign" unicode="#" horiz-adv-x="748" 
d="M484 456h-189l-39 -202h188zM438 220h-189l-43 -220h-37l43 220h-157v34h163l40 202h-154v34h160l44 219h37l-43 -219h188l44 219h37l-43 -219h165v-34h-172l-39 -202h162v-34h-169l-43 -220h-37z" />
    <glyph glyph-name="dollar" unicode="$" horiz-adv-x="587" 
d="M282 383v288q-33 -2 -61.5 -14t-49.5 -31t-33 -44t-12 -55q0 -53 29.5 -86.5t85.5 -47.5zM316 333v-298q40 2 71 15t52 33.5t31.5 46t10.5 53.5q0 56 -34 91.5t-97 50.5zM282 -112v112q-50 3 -89 20t-67.5 45t-45 64t-20.5 75l37 12q3 -33 17 -64.5t37 -56.5t56 -41
t75 -19v307l-49 12q-64 15 -105.5 57t-41.5 113q0 39 15.5 71.5t42.5 57t62.5 39t75.5 16.5v114h34v-114q43 -3 76.5 -16.5t58 -36t40 -51.5t23.5 -62l-36 -13q-6 27 -19 52t-33 44t-47 31t-63 15v-296l41 -10q75 -18 120 -61t45 -118q0 -38 -15 -71t-42 -58t-65 -40
t-84 -17v-112h-34z" />
    <glyph glyph-name="percent" unicode="%" horiz-adv-x="826" 
d="M160 0l478 709h40l-477 -709h-41zM364 565q0 -32 -11.5 -59.5t-32 -47.5t-48 -32t-58.5 -12q-32 0 -59 12t-47.5 32t-32 47.5t-11.5 59.5q0 31 11.5 59t32 48t47.5 32t59 12q31 0 58.5 -12t48 -32t32 -48t11.5 -59zM100 565q0 -25 9 -46.5t24 -37.5t36 -25t45 -9t45 9
t36 25t24 37.5t9 46.5t-9 46.5t-24 37.5t-36 25t-45 9t-45 -9t-36 -25t-24 -37.5t-9 -46.5zM475 144q0 31 11.5 59t32 48t47.5 32t59 12q31 0 58.5 -12t48 -32t32 -48t11.5 -59q0 -32 -11.5 -59.5t-32 -47.5t-48 -32t-58.5 -12q-32 0 -59 12t-47.5 32t-32 47.5t-11.5 59.5z
M739 144q0 25 -9 46.5t-24 37.5t-36 25t-45 9t-45 -9t-36 -25t-24 -37.5t-9 -46.5t9 -46.5t24 -37.5t36 -25t45 -9t45 9t36 25t24 37.5t9 46.5z" />
    <glyph glyph-name="ampersand" unicode="&#x26;" horiz-adv-x="654" 
d="M475 117q-49 -61 -98.5 -95t-110.5 -34q-44 0 -78.5 14.5t-58.5 38.5t-36.5 55.5t-12.5 64.5q0 63 35 109.5t88 84.5l24 18l-41 42q-26 28 -48 64.5t-22 79.5q0 33 12.5 62.5t34.5 51.5t52 35t66 13t66 -12t51 -33t33 -49.5t12 -61.5q0 -50 -29 -86.5t-66 -63.5l-62 -46
l188 -194l139 172v-57l-113 -142l144 -149h-55zM260 396l67 49q34 24 54.5 53.5t20.5 67.5q0 24 -9 45.5t-24.5 37.5t-38 25.5t-49.5 9.5q-28 0 -51 -10t-39 -26.5t-25 -39t-9 -46.5q0 -33 15.5 -62.5t42.5 -57.5zM268 27q53 0 97 34t84 83l-196 201l-34 -25
q-40 -30 -68.5 -67t-28.5 -88q0 -28 9.5 -53t28 -44t46 -30t62.5 -11z" />
    <glyph glyph-name="quotesingle" unicode="'" horiz-adv-x="136" 
d="M35 680q0 17 9.5 26t22.5 9q14 0 24 -9t10 -26q0 -7 -1.5 -19.5t-3.5 -21.5l-21 -131h-15l-20 131q-2 9 -3.5 21.5t-1.5 19.5z" />
    <glyph glyph-name="parenleft" unicode="(" horiz-adv-x="272" 
d="M65 317q0 79 13.5 146.5t38 125t57.5 106.5t72 91l25 -22q-38 -42 -69 -90t-53.5 -103t-34.5 -118t-12 -136t12 -136t34.5 -118t53.5 -103t69 -90l-25 -22q-39 41 -72 89.5t-57.5 106.5t-38 126t-13.5 147z" />
    <glyph glyph-name="parenright" unicode=")" horiz-adv-x="276" 
d="M211 317q0 -79 -13.5 -147t-38 -126t-57.5 -106.5t-72 -89.5l-25 22q38 42 69 90t53.5 103t34.5 118t12 136t-12 136t-34.5 118t-53.5 103t-69 90l25 22q39 -42 72 -91t57.5 -106.5t38 -125t13.5 -146.5z" />
    <glyph glyph-name="asterisk" unicode="*" horiz-adv-x="431" 
d="M232 554l149 52l10 -31l-149 -52l96 -134l-26 -20l-97 136l-94 -135l-26 20l93 133l-148 51l11 32l147 -52v155h34v-155z" />
    <glyph glyph-name="plus" unicode="+" horiz-adv-x="562" 
d="M298 365h199v-34h-199v-217h-36v217h-197v34h197v214h36v-214z" />
    <glyph glyph-name="comma" unicode="," horiz-adv-x="246" 
d="M137 1q-7 -5 -18 -5q-17 0 -28 12.5t-11 29.5t12 29t30 12q19 0 33 -14.5t14 -43.5q0 -61 -30 -104t-73 -57v28q16 6 29 18t22 27.5t14.5 33t5.5 34.5z" />
    <glyph glyph-name="hyphen" unicode="-" horiz-adv-x="390" 
d="M55 269v36h258v-36h-258z" />
    <glyph glyph-name="period" unicode="." horiz-adv-x="245" 
d="M80 38q0 18 12.5 30.5t29.5 12.5q18 0 30.5 -12.5t12.5 -30.5q0 -17 -12.5 -29.5t-30.5 -12.5q-17 0 -29.5 12.5t-12.5 29.5z" />
    <glyph glyph-name="slash" unicode="/" horiz-adv-x="413" 
d="M56 0h-41l342 709h41z" />
    <glyph glyph-name="zero" unicode="0" horiz-adv-x="606" 
d="M93 354q0 -62 10.5 -121t35 -105t65 -74t99.5 -28t99.5 28t65 74t35 105t10.5 121q0 63 -10.5 122t-35 105t-64.5 74t-100 28t-100.5 -28t-64.5 -74t-34.5 -105t-10.5 -122zM51 354q0 63 11 128t39.5 118t77.5 87t124 34t124 -34t77.5 -87t39.5 -118t11 -128
q0 -62 -11 -127t-39.5 -118t-77.5 -87t-124 -34t-124 34t-77.5 87t-39.5 118t-11 127z" />
    <glyph glyph-name="one" unicode="1" horiz-adv-x="355" 
d="M209 0v628q-8 -17 -23.5 -36t-38.5 -34.5t-52.5 -27t-66.5 -13.5v36q36 4 66 18t53 35t38.5 47.5t22.5 55.5h42v-709h-41z" />
    <glyph glyph-name="two" unicode="2" horiz-adv-x="539" 
d="M498 0h-447q1 32 9 64.5t24 64t41.5 60.5t60.5 53l139 94q58 39 89.5 83t31.5 101q0 33 -11 63t-33 52.5t-53.5 35.5t-72.5 13q-84 0 -133.5 -50t-49.5 -137q0 -17 3 -36l-41 5q-2 8 -2.5 19.5t-0.5 17.5q0 45 15 84.5t43.5 69.5t69.5 47t94 17q51 0 91 -15.5t67 -42.5
t41.5 -63.5t14.5 -78.5q0 -70 -38.5 -120.5t-95.5 -89.5l-148 -100q-40 -27 -71 -71.5t-36 -100.5h399v-39z" />
    <glyph glyph-name="three" unicode="3" horiz-adv-x="548" 
d="M507 206q0 -46 -18 -85.5t-49.5 -69t-75 -46.5t-93.5 -17q-53 0 -96 16.5t-74 46t-49 69.5t-21 88l40 9q2 -44 18.5 -79.5t43.5 -60t62.5 -38t75.5 -13.5q41 0 76.5 13.5t61.5 37.5t41 57t15 72q0 80 -49 129.5t-137 49.5q-17 0 -35.5 -3.5t-33.5 -8.5l-19 34l249 264
h-393v38h442v-41l-241 -254q11 3 23.5 4.5t20.5 1.5q43 0 82.5 -14.5t68.5 -42t46.5 -67t17.5 -90.5z" />
    <glyph glyph-name="four" unicode="4" horiz-adv-x="571" 
d="M36 231l328 478h62v-490h129v-36h-129v-183h-41v183h-349v48zM385 672l-310 -453h310v453z" />
    <glyph glyph-name="five" unicode="5" horiz-adv-x="561" 
d="M88 203q4 -37 19.5 -69.5t40.5 -56.5t59 -37.5t75 -13.5q45 0 80.5 15.5t61 41.5t39 61.5t13.5 76.5q0 44 -14 80t-39 61.5t-60.5 39.5t-78.5 14q-54 0 -97.5 -22t-73.5 -63l-42 16l73 362h348v-38h-318l-58 -292q32 39 80.5 57t94.5 18q52 0 94 -17t71.5 -47.5
t45.5 -73.5t16 -95q0 -49 -17 -91.5t-47.5 -74t-74 -49.5t-97.5 -18q-49 0 -90 15.5t-71 43t-48.5 65t-22.5 80.5z" />
    <glyph glyph-name="six" unicode="6" horiz-adv-x="581" 
d="M51 314q0 106 27.5 183t73 126.5t106 73.5t126.5 24q50 0 88 -12.5t64 -29.5l-14 -35q-23 15 -57.5 27t-82.5 12q-78 0 -133.5 -31t-90.5 -83t-51.5 -120.5t-16.5 -144.5v-9q0 -3 1 -11q4 31 21 63t45.5 58t69 42t91.5 16q48 0 89 -17.5t72 -49t48.5 -75.5t17.5 -98
q0 -52 -19.5 -95t-52 -74t-75.5 -48.5t-91 -17.5q-56 0 -103 22t-81 64t-53 102.5t-19 137.5zM111 224q0 -44 16 -80.5t43 -63t62.5 -41t74.5 -14.5q40 0 75.5 14.5t62.5 41t42.5 63t15.5 80.5q0 46 -15 83t-40.5 63t-61 40.5t-75.5 14.5q-42 0 -78.5 -15.5t-63.5 -43
t-42.5 -64t-15.5 -78.5z" />
    <glyph glyph-name="seven" unicode="7" horiz-adv-x="514" 
d="M503 665q-65 -61 -119 -130t-95.5 -150t-69.5 -176t-40 -209h-43q13 122 44 222t74.5 182.5t96 148t108.5 118.5h-448v38h492v-44z" />
    <glyph glyph-name="eight" unicode="8" horiz-adv-x="562" 
d="M281 25q45 0 80 12.5t59 34t37 51t13 62.5t-12 62.5t-36 51t-59.5 34t-81.5 12.5t-81.5 -12.5t-59.5 -34t-36 -51t-12 -62.5t13 -62.5t37 -51t59 -34t80 -12.5zM281 381q39 0 71.5 11.5t55.5 31.5t35.5 48t12.5 61t-12 60.5t-34.5 48t-55 32t-73.5 11.5t-73.5 -11.5
t-55 -32t-34.5 -48t-12 -60.5t12.5 -61t35.5 -48t55.5 -31.5t71.5 -11.5zM281 -12q-55 0 -97.5 15t-72 41.5t-45 61.5t-15.5 76q0 67 42 116.5t113 64.5q-31 7 -57 23t-44.5 38.5t-29 50.5t-10.5 60q0 39 15.5 73t43.5 59t68 39.5t89 14.5t89 -14.5t68 -39.5t43.5 -59
t15.5 -73q0 -32 -10.5 -60t-29 -50.5t-44.5 -38.5t-57 -23q71 -15 113 -64.5t42 -116.5q0 -41 -15.5 -76t-45 -61.5t-72 -41.5t-97.5 -15z" />
    <glyph glyph-name="nine" unicode="9" horiz-adv-x="578" 
d="M46 486q0 52 18 95.5t49 74.5t72.5 48t89.5 17q120 0 186 -89t66 -255q0 -200 -71.5 -294.5t-201.5 -94.5q-29 0 -58 6t-55 16.5t-48 26t-35 33.5l26 29q26 -33 71 -53t96 -20q115 0 174.5 85t59.5 254v21q0 14 -2 31q-16 -71 -71 -115t-136 -44q-46 0 -87.5 15.5
t-73 44.5t-50.5 71.5t-19 96.5zM465 493q0 43 -15 78.5t-40.5 60t-60.5 38t-74 13.5q-40 0 -74 -14t-59.5 -39.5t-40 -61t-14.5 -79.5q0 -46 14.5 -82t40 -61t60 -38t75.5 -13t75.5 14t59.5 39.5t39 62.5t14 82z" />
    <glyph glyph-name="colon" unicode=":" horiz-adv-x="245" 
d="M80 38q0 18 12.5 30.5t29.5 12.5q18 0 30.5 -12.5t12.5 -30.5q0 -17 -12.5 -29.5t-30.5 -12.5q-17 0 -29.5 12.5t-12.5 29.5zM80 435q0 18 12.5 30.5t29.5 12.5q18 0 30.5 -12.5t12.5 -30.5q0 -17 -12.5 -29.5t-30.5 -12.5q-17 0 -29.5 12.5t-12.5 29.5z" />
    <glyph glyph-name="semicolon" unicode=";" horiz-adv-x="245" 
d="M75 435q0 18 12.5 30.5t29.5 12.5q18 0 30.5 -12.5t12.5 -30.5q0 -17 -12.5 -29.5t-30.5 -12.5q-17 0 -29.5 12.5t-12.5 29.5zM137 1q-7 -5 -18 -5q-17 0 -28 12.5t-11 29.5t12 29t30 12q19 0 33 -14.5t14 -43.5q0 -61 -30 -104t-73 -57v28q16 6 29 18t22 27.5t14.5 33
t5.5 34.5z" />
    <glyph glyph-name="less" unicode="&#x3c;" horiz-adv-x="556" 
d="M476 161v-40l-396 208v37l396 208v-40l-362 -186z" />
    <glyph glyph-name="equal" unicode="=" horiz-adv-x="587" 
d="M75 427v35h437v-35h-437zM75 234v35h437v-35h-437z" />
    <glyph glyph-name="greater" unicode="&#x3e;" horiz-adv-x="486" 
d="M407 348l-362 186v40l396 -208v-37l-396 -208v40z" />
    <glyph glyph-name="question" unicode="?" horiz-adv-x="486" 
d="M216 180q-3 12 -3.5 21t-0.5 19q0 45 15 79.5t51 63.5l44 35q35 29 56.5 62.5t21.5 75.5q0 29 -10 56t-29.5 47.5t-48 32.5t-65.5 12q-41 0 -71.5 -13.5t-50.5 -35.5t-30 -50.5t-10 -59.5q0 -23 9 -56l-41 6q-5 15 -6.5 27.5t-1.5 26.5q0 35 12.5 69.5t37.5 61.5t63 44
t89 17q46 0 82 -15.5t61 -41t38 -58.5t13 -69q0 -51 -26.5 -93t-71.5 -77l-44 -35q-30 -24 -39.5 -53.5t-9.5 -58.5v-20q0 -6 2 -20h-36zM195 36q0 17 11.5 29t28.5 12t29 -12t12 -29t-12 -28.5t-29 -11.5t-28.5 11.5t-11.5 28.5z" />
    <glyph glyph-name="at" unicode="@" horiz-adv-x="824" 
d="M379 150q-30 0 -56 12t-45 33.5t-30 51.5t-11 67q0 42 13.5 81.5t38.5 70.5t59.5 50t75.5 19q42 0 74 -24.5t39 -66.5l14 79h35l-48 -249q-3 -15 -3 -28q0 -28 14 -46.5t50 -18.5q26 0 51.5 16t46 45t33 68.5t12.5 87.5q0 54 -20.5 106t-60 93t-98 66.5t-133.5 25.5
q-71 0 -133 -27t-107.5 -75t-72 -113t-26.5 -140q0 -73 24 -136t69 -109.5t108.5 -73t142.5 -26.5q73 0 138 27t115 77l19 -23q-50 -53 -122 -83t-150 -30q-85 0 -155 28.5t-120 78.5t-77.5 119.5t-27.5 150.5q0 82 29.5 153t80.5 123t119 81.5t145 29.5q82 0 146.5 -28
t109.5 -73.5t69 -103.5t24 -118q0 -55 -16 -100.5t-41.5 -78.5t-57.5 -51t-65 -18q-46 0 -69 25t-23 61q-19 -39 -52.5 -62.5t-74.5 -23.5zM521 390q0 48 -26 80t-76 32q-29 0 -55.5 -14.5t-46.5 -39.5t-32 -58.5t-12 -71.5q0 -26 6.5 -50.5t20 -43.5t33.5 -30.5t47 -11.5
q37 0 63.5 19t43.5 49t25.5 67t8.5 73z" />
    <glyph glyph-name="A" unicode="A" horiz-adv-x="660" 
d="M176 285h307l-154 381zM499 246h-339l-99 -246h-46l290 709h49l291 -709h-46z" />
    <glyph glyph-name="B" unicode="B" horiz-adv-x="575" 
d="M285 709q51 0 91 -13.5t67.5 -38.5t42 -59.5t14.5 -76.5q0 -57 -30.5 -99t-78.5 -58q28 -7 52.5 -23.5t42.5 -39.5t28 -51.5t10 -59.5q0 -42 -16 -77t-44.5 -60t-68.5 -39t-89 -14h-210v709h189zM305 38q81 0 128.5 42t47.5 112q0 34 -12.5 61.5t-33.5 47t-49.5 30
t-61.5 10.5h-185v-303h166zM316 378q29 0 55 10.5t45 29t30 44.5t11 57q0 70 -45.5 111t-128.5 41h-144v-293h177z" />
    <glyph glyph-name="C" unicode="C" horiz-adv-x="737" 
d="M390 682q-57 0 -111.5 -21.5t-96.5 -63t-67.5 -102.5t-25.5 -141t25.5 -141t67.5 -102.5t96.5 -62.5t111.5 -21q52 0 97 15t79.5 42t58 64.5t34.5 82.5l37 -13q-12 -50 -39 -92t-66.5 -73t-90 -48t-110.5 -17q-65 0 -126.5 24t-110 70.5t-78 114.5t-29.5 157t29.5 157.5
t78 115t110 70.5t126.5 24q59 0 109 -16.5t89 -46.5t65.5 -71.5t38.5 -91.5l-38 -14q-11 46 -34 83t-57.5 63t-78 40.5t-94.5 14.5z" />
    <glyph glyph-name="D" unicode="D" horiz-adv-x="684" 
d="M298 38q59 0 112.5 20t94.5 59.5t65.5 98.5t24.5 137q0 79 -24 138.5t-64.5 99.5t-94 60t-112.5 20h-161v-633h159zM96 0v709h205q67 0 128.5 -23t107.5 -68t73.5 -111.5t27.5 -153.5t-27.5 -153t-74.5 -110.5t-108.5 -67t-128.5 -22.5h-203z" />
    <glyph glyph-name="E" unicode="E" horiz-adv-x="562" 
d="M96 0v709h410v-39h-368v-295h337v-39h-337v-297h368v-39h-410z" />
    <glyph glyph-name="F" unicode="F" horiz-adv-x="555" 
d="M96 0v709h413v-39h-370v-302h339v-39h-339v-329h-43z" />
    <glyph glyph-name="G" unicode="G" horiz-adv-x="760" 
d="M654 0l-5 159q-9 -24 -28.5 -53.5t-52.5 -56t-80.5 -44t-112.5 -17.5q-60 0 -119 23.5t-105.5 70t-75.5 115t-29 158.5q0 89 28.5 157t76 114.5t108.5 70.5t126 24q56 0 105 -15.5t88 -43.5t67.5 -67t43.5 -86l-38 -16q-28 86 -97 137.5t-169 51.5q-57 0 -110 -21
t-94.5 -62.5t-66 -102.5t-24.5 -141t25.5 -141.5t66 -103t91.5 -62.5t103 -21q76 0 127.5 26t83 65t45.5 84t14 83h-272v39h313v-324h-33z" />
    <glyph glyph-name="H" unicode="H" horiz-adv-x="709" 
d="M570 0v341h-431v-341h-43v709h43v-329h431v329h43v-709h-43z" />
    <glyph glyph-name="I" unicode="I" horiz-adv-x="235" 
d="M96 0v709h43v-709h-43z" />
    <glyph glyph-name="J" unicode="J" horiz-adv-x="513" 
d="M31 251l43 10v-50q0 -85 40.5 -134.5t115.5 -49.5q76 0 115 49t39 133v500h43v-502q0 -49 -13 -89.5t-38 -69t-62 -44.5t-84 -16q-94 0 -146.5 58t-52.5 160v45z" />
    <glyph glyph-name="K" unicode="K" horiz-adv-x="631" 
d="M272 366l-133 -144v-222h-43v709h43v-430l393 430h56l-288 -313l301 -396h-54z" />
    <glyph glyph-name="L" unicode="L" horiz-adv-x="536" 
d="M96 0v709h43v-670h371v-39h-414z" />
    <glyph glyph-name="M" unicode="M" horiz-adv-x="919" 
d="M780 0v646l-300 -646h-42l-299 646v-646h-43v709h58l306 -655l306 655h57v-709h-43z" />
    <glyph glyph-name="N" unicode="N" horiz-adv-x="734" 
d="M590 0l-451 654v-654h-43v709h57l442 -643v643h43v-709h-48z" />
    <glyph glyph-name="O" unicode="O" horiz-adv-x="780" 
d="M390 27q57 0 111.5 21t96.5 62.5t67.5 102.5t25.5 141t-25.5 141t-67.5 102.5t-96.5 63t-111.5 21.5t-111.5 -21.5t-96.5 -63t-67.5 -102.5t-25.5 -141t25.5 -141t67.5 -102.5t96.5 -62.5t111.5 -21zM390 -12q-65 0 -126.5 24t-110 70.5t-78 114.5t-29.5 157t29.5 157.5
t78 115t110 70.5t126.5 24q64 0 126 -24t110.5 -70.5t78 -115t29.5 -157.5t-29.5 -157t-78 -114.5t-110.5 -70.5t-126 -24z" />
    <glyph glyph-name="P" unicode="P" horiz-adv-x="561" 
d="M309 345q41 0 74 12t56 33.5t35.5 51t12.5 65.5t-12.5 65.5t-35.5 51.5t-56 34t-74 12h-170v-325h170zM139 306v-306h-43v709h219q48 0 88 -15.5t68 -42.5t43.5 -64t15.5 -80q0 -44 -15.5 -80.5t-43.5 -63.5t-68 -42t-88 -15h-176z" />
    <glyph glyph-name="Q" unicode="Q" horiz-adv-x="780" 
d="M598 58q-46 -35 -99 -52.5t-109 -17.5q-65 0 -126.5 24t-110 70.5t-78 114.5t-29.5 157t29.5 157.5t78 115t110 70.5t126.5 24q64 0 126 -24t110.5 -70.5t78 -115t29.5 -157.5t-29.5 -157t-77.5 -115l97 -106l-28 -25zM449 279l151 -166q42 42 66.5 102t24.5 139
q0 80 -25.5 141t-67.5 102.5t-96.5 63t-111.5 21.5t-111.5 -21.5t-96.5 -63t-67.5 -102.5t-25.5 -141t25.5 -141t67.5 -102.5t96.5 -62.5t111.5 -21q49 0 95.5 15t85.5 45l-151 167z" />
    <glyph glyph-name="R" unicode="R" horiz-adv-x="586" 
d="M96 0v709h226q46 0 84.5 -15t66 -41.5t42.5 -62.5t15 -78q0 -39 -13.5 -72.5t-37.5 -59t-57.5 -41.5t-73.5 -20l177 -319h-50l-173 316h-163v-316h-43zM312 355q39 0 71 11.5t55 32t36 49.5t13 64q0 36 -13 65t-36 49.5t-55 32t-71 11.5h-173v-315h173z" />
    <glyph glyph-name="S" unicode="S" horiz-adv-x="564" 
d="M285 683q-33 0 -64.5 -10.5t-56.5 -30t-40 -47.5t-15 -62q0 -54 31 -89t88 -49l120 -29q78 -19 124 -63.5t46 -121.5q0 -41 -17 -76.5t-47 -61.5t-72 -40.5t-93 -14.5q-54 0 -98 17t-75.5 46.5t-51 67.5t-23.5 80l39 13q4 -38 20 -71.5t43 -59t64 -40.5t82 -15
q43 0 78 11.5t59 32t37 48.5t13 60q0 57 -35 94t-100 53l-121 29q-67 16 -110 59t-43 117q0 42 17.5 77t47.5 60.5t69.5 39.5t82.5 14q50 0 88 -13.5t66 -36.5t45.5 -55t26.5 -68l-38 -13q-14 65 -60 106t-127 42z" />
    <glyph glyph-name="T" unicode="T" horiz-adv-x="581" 
d="M312 670v-670h-43v670h-254v39h551v-39h-254z" />
    <glyph glyph-name="U" unicode="U" horiz-adv-x="645" 
d="M322 -12q-108 0 -172 63t-64 182v476h43v-474q0 -101 48.5 -154.5t144.5 -53.5q97 0 145.5 53.5t48.5 154.5v474h43v-476q0 -119 -63.5 -182t-173.5 -63z" />
    <glyph glyph-name="V" unicode="V" horiz-adv-x="655" 
d="M589 709h46l-287 -709h-44l-284 709h46l261 -663z" />
    <glyph glyph-name="W" unicode="W" horiz-adv-x="963" 
d="M899 709h44l-206 -709h-48l-208 656l-207 -656h-46l-208 709h45l187 -650l205 650h49l207 -652z" />
    <glyph glyph-name="X" unicode="X" horiz-adv-x="587" 
d="M319 356l238 -356h-51l-213 321l-213 -321h-50l239 356l-236 353h51l210 -320l212 320h50z" />
    <glyph glyph-name="Y" unicode="Y" horiz-adv-x="591" 
d="M20 709h50l227 -366l226 366h48l-254 -406v-303h-42v303z" />
    <glyph glyph-name="Z" unicode="Z" horiz-adv-x="613" 
d="M46 0v45l492 625h-487v39h534v-44l-492 -626h494v-39h-541z" />
    <glyph glyph-name="bracketleft" unicode="[" horiz-adv-x="256" 
d="M100 -137v910h131v-34h-95v-842h95v-34h-131z" />
    <glyph glyph-name="backslash" unicode="\" horiz-adv-x="413" 
d="M15 709h41l342 -709h-41z" />
    <glyph glyph-name="bracketright" unicode="]" horiz-adv-x="256" 
d="M25 -137v34h95v842h-95v34h131v-910h-131z" />
    <glyph glyph-name="asciicircum" unicode="^" horiz-adv-x="492" 
d="M415 355l-169 314l-169 -314h-42l193 354h36l193 -354h-42z" />
    <glyph glyph-name="underscore" unicode="_" horiz-adv-x="561" 
d="M25 -34v34h511v-34h-511z" />
    <glyph glyph-name="grave" unicode="`" horiz-adv-x="234" 
d="M45 669h53l90 -135h-30z" />
    <glyph glyph-name="a" unicode="a" horiz-adv-x="495" 
d="M208 -11q-38 0 -66.5 11.5t-48 30t-29.5 42t-10 47.5q0 59 37 92.5t105 44.5l125 19q33 5 45.5 20t12.5 34q0 54 -34.5 87.5t-94.5 33.5q-62 0 -101.5 -31.5t-46.5 -89.5l-38 9q8 69 59 108t126 39q42 0 74 -12.5t53 -34t32 -50.5t11 -62v-243q0 -27 2 -46t5 -38h-39
q-2 8 -4 34t-2 58q-9 -20 -25 -38.5t-37.5 -32.5t-49.5 -23t-61 -9zM212 24q37 0 68 13t53 35.5t34 52.5t12 64v77q-5 -8 -18 -13.5t-38 -9.5l-125 -19q-48 -8 -75.5 -33.5t-27.5 -68.5q0 -18 7.5 -36t22 -31.5t36.5 -22t51 -8.5z" />
    <glyph glyph-name="b" unicode="b" horiz-adv-x="565" 
d="M86 0v721h40v-353q7 19 21.5 39.5t36.5 38t52.5 29t69.5 11.5q49 0 88.5 -19t67 -52t42.5 -78.5t15 -98.5t-15 -99t-43 -79.5t-67.5 -52.5t-88.5 -19q-39 0 -69 11.5t-52 29t-36.5 38.5t-22.5 40v-107h-39zM479 238q0 45 -13 84t-36 67.5t-56.5 44.5t-73.5 16t-72 -16.5
t-55 -45t-35.5 -67t-12.5 -83.5t12.5 -84.5t35.5 -68t55 -45t72 -16.5t73.5 16.5t56.5 45.5t36 68t13 84z" />
    <glyph glyph-name="c" unicode="c" horiz-adv-x="518" 
d="M275 450q-40 0 -74 -15.5t-59.5 -43t-40 -67t-14.5 -87.5t14.5 -87.5t40 -67.5t59.5 -43t74 -15q35 0 63 11t49 29t34.5 41t21.5 46l34 -15q-9 -29 -26 -55.5t-42.5 -47t-59 -33t-74.5 -12.5q-50 0 -91.5 18.5t-72.5 51.5t-48 78.5t-17 100.5q0 54 17.5 100t48 79
t72.5 51.5t91 18.5q80 0 131 -42t68 -105l-35 -15q-6 23 -19 45.5t-33 40.5t-47.5 29t-64.5 11z" />
    <glyph glyph-name="d" unicode="d" horiz-adv-x="565" 
d="M440 107q-8 -19 -22 -40t-35.5 -38.5t-51.5 -29t-69 -11.5q-49 0 -88.5 19t-68 52.5t-44 79.5t-15.5 99t15.5 98.5t43.5 78.5t68 52t88 19q42 0 73 -12t52 -29.5t33.5 -37.5t19.5 -36v350h40v-629q0 -40 2.5 -65t2.5 -27h-39q-2 9 -3.5 31t-1.5 50v26zM440 238
q0 45 -12.5 83.5t-35.5 67t-55 45t-72 16.5q-41 0 -74 -16t-56 -44t-36 -67t-13 -85q0 -45 13 -84t36 -68t56 -45.5t74 -16.5q40 0 72 16.5t55 45t35.5 68t12.5 84.5z" />
    <glyph glyph-name="e" unicode="e" horiz-adv-x="526" 
d="M87 234v-6q0 -47 14.5 -84.5t40 -64t59.5 -41t72 -14.5q33 0 60.5 10t49 27.5t36.5 40t24 47.5l35 -12q-10 -31 -28.5 -58t-45 -47.5t-59.5 -32t-72 -11.5q-47 0 -88.5 17t-72 49.5t-48.5 79t-18 105.5q0 55 17 101t46.5 78t68.5 50t84 18q51 0 91.5 -17.5t68 -48.5
t42.5 -74t15 -94v-8q0 -2 -1 -10h-391zM437 269q0 38 -12 71t-34.5 57.5t-54.5 38.5t-73 14q-36 0 -66.5 -13.5t-53.5 -38t-37 -57.5t-17 -72h348z" />
    <glyph glyph-name="f" unicode="f" horiz-adv-x="319" 
d="M156 438v-438h-40v438h-103v36h103v111q0 74 37 110t97 36q30 0 53 -10v-36q-20 10 -48 10q-43 0 -71 -26.5t-28 -86.5v-108h142v-36h-142z" />
    <glyph glyph-name="g" unicode="g" horiz-adv-x="541" 
d="M87 -15q3 -32 16.5 -59.5t35 -47.5t50.5 -32t64 -12q54 0 87.5 18t51.5 46.5t24.5 64t6.5 71.5v99q-8 -19 -21.5 -38t-34.5 -34t-49 -24t-64 -9q-46 0 -84.5 17.5t-66 48t-42.5 72.5t-15 91t15 90.5t42.5 72.5t66 48.5t84.5 17.5q37 0 65.5 -9.5t49.5 -24.5t34.5 -34.5
t20.5 -38.5v95h39v-439q0 -39 -8 -81t-30.5 -76.5t-63.5 -57t-108 -22.5q-43 0 -78.5 13.5t-62 37.5t-43.5 56.5t-21 69.5zM87 257q0 -41 12.5 -76.5t35 -61.5t54 -40.5t70.5 -14.5q38 0 69 15t52.5 41t33.5 61t12 76q0 40 -12 75.5t-33.5 61.5t-52.5 41t-69 15
q-39 0 -70.5 -14.5t-54 -40.5t-35 -61.5t-12.5 -76.5z" />
    <glyph glyph-name="h" unicode="h" horiz-adv-x="527" 
d="M86 0v721h40v-333q7 18 21 35.5t33.5 31.5t45 22.5t57.5 8.5q42 0 73.5 -13.5t52.5 -37t31.5 -55t10.5 -66.5v-314h-40v308q0 30 -8.5 55.5t-26 45t-43.5 30.5t-61 11q-33 0 -59.5 -13.5t-46 -36t-30 -51.5t-10.5 -60v-289h-40z" />
    <glyph glyph-name="i" unicode="i" horiz-adv-x="212" 
d="M86 0v474h40v-474h-40zM67 681q0 17 11 28.5t28 11.5q16 0 27.5 -11.5t11.5 -28.5q0 -16 -11.5 -27t-27.5 -11q-17 0 -28 11t-11 27z" />
    <glyph glyph-name="j" unicode="j" horiz-adv-x="212" 
d="M86 474h40v-543q0 -66 -34 -98.5t-88 -32.5q-32 0 -51 10v35q22 -9 48 -9q42 0 63.5 22.5t21.5 73.5v542zM67 681q0 17 11 28.5t28 11.5q16 0 27.5 -11.5t11.5 -28.5q0 -16 -11.5 -27t-27.5 -11q-17 0 -28 11t-11 27z" />
    <glyph glyph-name="k" unicode="k" horiz-adv-x="485" 
d="M225 245l-99 -99v-146h-40v721h40v-522l274 275h55l-202 -202l207 -272h-50z" />
    <glyph glyph-name="l" unicode="l" horiz-adv-x="212" 
d="M86 0v721h40v-721h-40z" />
    <glyph glyph-name="m" unicode="m" horiz-adv-x="840" 
d="M405 0v312q0 29 -9 54t-26 44t-42 29.5t-57 10.5t-59 -13t-46 -34.5t-29.5 -50t-10.5 -59.5v-293h-40v474h39v-87q7 17 20.5 34.5t33 32t45 23.5t57.5 9q62 0 102 -33t52 -85q17 51 59 84.5t106 33.5q37 0 67.5 -12.5t52 -35t33 -53.5t11.5 -69v-316h-40v312q0 29 -9 54
t-26 44t-42 29.5t-57 10.5t-59 -13t-46 -34.5t-29.5 -50t-10.5 -59.5v-293h-40z" />
    <glyph glyph-name="n" unicode="n" horiz-adv-x="527" 
d="M126 0h-40v474h39v-87q7 19 21 36.5t34 31.5t46 22.5t57 8.5q42 0 73.5 -13.5t52.5 -37t31.5 -55t10.5 -66.5v-314h-40v308q0 30 -8.5 55.5t-26 45t-43.5 30.5t-61 11q-33 0 -59.5 -13.5t-46 -36t-30 -51.5t-10.5 -60v-289z" />
    <glyph glyph-name="o" unicode="o" horiz-adv-x="556" 
d="M278 -12q-47 0 -89.5 17.5t-74 50t-50 78.5t-18.5 103t18 103t49.5 78.5t74 50t90.5 17.5q47 0 89.5 -17.5t74 -50t50 -78.5t18.5 -103t-18.5 -103t-50 -78.5t-73.5 -50t-90 -17.5zM87 237q0 -50 15.5 -89t41.5 -67t61 -42.5t73 -14.5t72.5 14.5t61 42.5t42 67t15.5 89
q0 49 -15.5 88.5t-42 67.5t-61 42.5t-72.5 14.5t-73 -14.5t-61 -42.5t-41.5 -67.5t-15.5 -88.5z" />
    <glyph glyph-name="p" unicode="p" horiz-adv-x="565" 
d="M86 -190v664h40v-106q8 19 22.5 39.5t36 38t52 29t69.5 11.5q49 0 88.5 -19t67 -52t42.5 -78.5t15 -98.5t-15 -99t-43 -79.5t-67.5 -52.5t-88.5 -19q-38 0 -68 11t-51.5 28t-36.5 37.5t-23 39.5v-294h-40zM479 238q0 45 -13 84t-36 67.5t-56.5 44.5t-73.5 16t-72 -16.5
t-55 -45t-35.5 -67t-12.5 -83.5t12.5 -84.5t35.5 -68t55 -45t72 -16.5t73.5 16.5t56.5 45.5t36 68t13 84z" />
    <glyph glyph-name="q" unicode="q" horiz-adv-x="557" 
d="M439 -190v294q-8 -19 -23 -39.5t-36.5 -37.5t-51.5 -28t-68 -11q-49 0 -88.5 19t-67.5 52.5t-43 79.5t-15 99t15 98.5t42.5 78.5t67 52t88.5 19q39 0 69.5 -11.5t52 -29t36 -38t22.5 -39.5v106h40v-664h-40zM86 238q0 -45 13 -84t36 -68t56 -45.5t74 -16.5q40 0 72 16.5
t55 45t35.5 68t12.5 84.5t-12.5 83.5t-35.5 67t-55 45t-72 16.5q-41 0 -74 -16t-56 -44.5t-36 -67.5t-13 -84z" />
    <glyph glyph-name="r" unicode="r" horiz-adv-x="343" 
d="M315 432q-7 2 -18 4t-25 2q-31 0 -57.5 -11t-46 -32t-31 -52.5t-11.5 -73.5v-269h-40v474h39v-91q20 46 58 71t91 25q26 0 41 -5v-42z" />
    <glyph glyph-name="s" unicode="s" horiz-adv-x="428" 
d="M78 141q8 -52 44 -85t99 -33q25 0 47.5 7t39 19.5t26 30.5t9.5 41q0 40 -25 61.5t-67 31.5l-79 18q-49 11 -80.5 40t-31.5 82q0 27 12.5 51t33.5 42t49 28.5t60 10.5q37 0 65 -10.5t47.5 -28t31.5 -40t18 -47.5l-36 -13q-9 44 -39 74t-87 30q-22 0 -42.5 -6.5t-37 -19
t-26.5 -30.5t-10 -40q0 -36 22 -56.5t63 -29.5l79 -18q56 -13 87.5 -44t31.5 -83q0 -27 -11.5 -52t-32.5 -43.5t-51 -29.5t-67 -11q-41 0 -72.5 11.5t-54 31t-35.5 44.5t-17 53z" />
    <glyph glyph-name="t" unicode="t" horiz-adv-x="334" 
d="M157 474h136v-36h-136v-309q0 -51 23 -74.5t66 -23.5q15 0 28.5 3t18.5 5v-35q-7 -3 -22 -6t-35 -3q-55 0 -87 33t-32 99v311h-107v36h43q34 0 50.5 15t16.5 54v82h37v-151z" />
    <glyph glyph-name="u" unicode="u" horiz-adv-x="529" 
d="M413 0q-1 7 -3 26t-2 47v11q-7 -17 -20 -34t-32 -30.5t-44.5 -22.5t-57.5 -9q-48 0 -81.5 16t-55 42.5t-31.5 60.5t-10 70v297h40v-291q0 -31 7.5 -59.5t24.5 -50.5t44 -35.5t66 -13.5q33 0 60.5 12.5t46.5 34.5t29.5 50.5t10.5 60.5v292h40v-382q0 -26 2 -50.5t4 -41.5
h-38z" />
    <glyph glyph-name="v" unicode="v" horiz-adv-x="461" 
d="M253 0h-44l-189 474h45l166 -430l167 430h43z" />
    <glyph glyph-name="w" unicode="w" horiz-adv-x="753" 
d="M400 474l152 -427l139 427h42l-158 -474h-46l-152 427l-152 -427h-46l-159 474h44l139 -427l152 427h45z" />
    <glyph glyph-name="x" unicode="x" horiz-adv-x="447" 
d="M200 242l-176 232h48l152 -203l152 203h47l-175 -232l184 -242h-48l-161 213l-160 -213h-48z" />
    <glyph glyph-name="y" unicode="y" horiz-adv-x="468" 
d="M98 -190l120 257l-203 407h45l180 -365l165 365h43l-306 -664h-44z" />
    <glyph glyph-name="z" unicode="z" horiz-adv-x="436" 
d="M31 0v36l322 402h-320v36h368v-36l-322 -402h326v-36h-374z" />
    <glyph glyph-name="braceleft" unicode="{" horiz-adv-x="316" 
d="M192 13q0 -53 19.5 -79.5t72.5 -26.5h7v-33h-7q-67 0 -97.5 35.5t-30.5 105.5v173q0 49 -27.5 77t-73.5 33v40q46 5 73.5 33t27.5 77v173q0 70 30.5 106t97.5 36h7v-34h-7q-53 0 -72.5 -26.5t-19.5 -79.5v-182q0 -48 -28 -81.5t-77 -41.5q51 -8 78 -41.5t27 -81.5v-182z
" />
    <glyph glyph-name="bar" unicode="|" horiz-adv-x="236" 
d="M100 -137v910h36v-910h-36z" />
    <glyph glyph-name="braceright" unicode="}" horiz-adv-x="316" 
d="M124 195q0 48 27 81.5t78 41.5q-49 8 -77 41.5t-28 81.5v182q0 53 -19.5 79.5t-72.5 26.5h-7v34h7q67 0 97.5 -36t30.5 -106v-173q0 -49 27.5 -77t73.5 -33v-40q-46 -5 -73.5 -33t-27.5 -77v-173q0 -70 -30.5 -105.5t-97.5 -35.5h-7v33h7q53 0 72.5 26.5t19.5 79.5v182z
" />
    <glyph glyph-name="asciitilde" unicode="~" horiz-adv-x="550" 
d="M241 286q-19 10 -36.5 15.5t-34.5 5.5q-33 0 -56.5 -14t-43.5 -42l-25 20q24 35 53.5 53.5t71.5 18.5q20 0 42.5 -7t45.5 -19l46 -25q20 -10 40 -16.5t37 -6.5q34 0 56.5 13.5t42.5 41.5l25 -20q-24 -35 -53 -53t-71 -18q-21 0 -44.5 8t-48.5 21z" />
    <glyph glyph-name="uni00A0" unicode="&#xa0;" horiz-adv-x="254" 
 />
    <glyph glyph-name="exclamdown" unicode="&#xa1;" horiz-adv-x="281" 
d="M150 297l13 -528h-52l13 528h26zM181 442q0 -17 -11.5 -29t-28.5 -12t-29 12t-12 29t12 28.5t29 11.5t28.5 -11.5t11.5 -28.5z" />
    <glyph glyph-name="cent" unicode="&#xa2;" horiz-adv-x="550" 
d="M302 0h-34v99q-46 4 -84 23.5t-65.5 52t-43 76.5t-15.5 96q0 51 15.5 95t43 76.5t66 52.5t83.5 24v114h34v-114q75 -4 121.5 -45t63.5 -101l-35 -15q-6 21 -17 42t-29 39t-44 30t-60 14v-424q33 2 59 14t44.5 30t31 39.5t19.5 42.5l34 -15q-8 -28 -24.5 -53.5t-40 -46
t-54.5 -33.5t-69 -15v-98zM99 347q0 -43 12 -80t34.5 -65.5t53.5 -46t69 -20.5v424q-38 -3 -69 -21t-53.5 -46t-34.5 -65.5t-12 -79.5z" />
    <glyph glyph-name="sterling" unicode="&#xa3;" horiz-adv-x="594" 
d="M214 313q4 -15 6.5 -31.5t2.5 -34.5q0 -38 -9.5 -69.5t-24.5 -57.5t-34 -47t-38 -36h256q65 0 100.5 40t40.5 104l40 -6q-5 -79 -50 -127t-123 -48h-316v40q21 15 42 36t37.5 47.5t26.5 57.5t10 66q0 17 -2.5 33.5t-7.5 32.5h-95v37h83q-16 39 -32 79t-16 90
q0 43 14.5 80t41 64t64 42.5t83.5 15.5q44 0 80 -14t61.5 -38t40.5 -56.5t18 -68.5l-42 -8q-2 31 -14 58t-32.5 47t-48.5 31t-62 11q-35 0 -64.5 -12t-51 -33.5t-34 -52t-12.5 -67.5q0 -24 5 -45.5t12.5 -42t16 -40t16.5 -40.5h199v-37h-188z" />
    <glyph glyph-name="currency" unicode="&#xa4;" horiz-adv-x="571" 
d="M422 179q-27 -23 -61 -35.5t-72 -12.5q-40 0 -75.5 14t-62.5 38l-72 -74l-25 25l72 74q-50 56 -50 136q0 40 14 76t38 63l-73 76l26 25l73 -76q28 23 62.5 36t72.5 13q37 0 70.5 -12t59.5 -34l71 73l25 -25l-69 -72q26 -28 41 -64.5t15 -78.5q0 -41 -14 -77t-40 -63
l69 -70l-25 -25zM112 344q0 -37 14 -69.5t38 -56.5t56 -38t69 -14t69 14t56 38t37.5 56.5t13.5 69.5t-13.5 69.5t-37.5 56.5t-56 38t-69 14t-69 -14t-56 -38t-38 -56.5t-14 -69.5z" />
    <glyph glyph-name="yen" unicode="&#xa5;" horiz-adv-x="601" 
d="M280 0v187h-191v37h191v89h-191v37h168l-222 359h50l217 -356l216 356h48l-221 -359h170v-37h-193v-89h193v-37h-193v-187h-42z" />
    <glyph glyph-name="brokenbar" unicode="&#xa6;" horiz-adv-x="236" 
d="M100 373v400h36v-400h-36zM136 264v-401h-36v401h36z" />
    <glyph glyph-name="section" unicode="&#xa7;" horiz-adv-x="535" 
d="M122 -20q2 -68 42 -109.5t106 -41.5q29 0 54.5 9t44 24.5t29.5 38t11 49.5q0 45 -23 73.5t-65 51.5l-108 58q-27 14 -48.5 28.5t-37 31.5t-24 37.5t-8.5 47.5q0 48 29.5 82t72.5 47q-51 29 -77 65.5t-26 88.5q0 36 14.5 65.5t39 50.5t56 32.5t65.5 11.5q41 0 74 -13
t56 -36.5t36 -55.5t15 -71l-38 -9q-2 68 -40 109.5t-103 41.5q-26 0 -50 -8.5t-43 -24.5t-30.5 -39t-11.5 -51q0 -45 23 -73.5t61 -49.5l108 -58q26 -14 48 -28.5t37.5 -31.5t24 -37.5t8.5 -47.5q0 -48 -28.5 -81.5t-74.5 -49.5q54 -29 81 -65.5t27 -88.5q0 -36 -14.5 -65
t-39 -49.5t-57 -32t-69.5 -11.5q-41 0 -74 12.5t-57 36t-38 56t-15 71.5zM228 391q-38 -8 -66 -37t-28 -71q0 -38 23.5 -63t63.5 -47l89 -48q18 4 35 13.5t30 23.5t21 32t8 38q0 38 -23 64t-63 47z" />
    <glyph glyph-name="dieresis" unicode="&#xa8;" horiz-adv-x="326" 
d="M45 604q0 14 9.5 23.5t23.5 9.5t23.5 -9.5t9.5 -23.5t-9.5 -23.5t-23.5 -9.5t-23.5 9.5t-9.5 23.5zM215 604q0 14 9.5 23.5t23.5 9.5t23.5 -9.5t9.5 -23.5t-9.5 -23.5t-23.5 -9.5t-23.5 9.5t-9.5 23.5z" />
    <glyph glyph-name="copyright" unicode="&#xa9;" horiz-adv-x="835" 
d="M90 354q0 -70 25.5 -131t69.5 -106t103.5 -71t128.5 -26q68 0 127.5 26t104 71t70 106t25.5 131t-25.5 131t-70 106.5t-104 71.5t-127.5 26q-69 0 -128.5 -26t-103.5 -71.5t-69.5 -106.5t-25.5 -131zM55 354q0 76 28 143t77 116.5t115 78.5t142 29t142 -29t115 -78.5
t77.5 -116.5t28.5 -143t-28.5 -142.5t-77.5 -116t-115 -78.5t-142 -29t-142 29t-115 78.5t-77 116t-28 142.5zM420 526q-33 0 -60.5 -12.5t-47.5 -35t-31.5 -54.5t-11.5 -70q0 -39 11 -70.5t31.5 -54t48 -35t60.5 -12.5q28 0 51 9t40.5 23t29.5 32.5t18 37.5l30 -13
q-8 -23 -22.5 -45t-36 -38.5t-49 -26.5t-61.5 -10q-41 0 -75 15.5t-58.5 42.5t-38 64t-13.5 81t13.5 81t38 64t58.5 42.5t75 15.5q67 0 108.5 -34t57.5 -86l-31 -11q-13 44 -47 72t-88 28z" />
    <glyph glyph-name="ordfeminine" unicode="&#xaa;" horiz-adv-x="403" 
d="M67 463q0 42 26 65.5t71 30.5l96 15q20 3 27.5 12.5t7.5 21.5q0 35 -23.5 57.5t-65.5 22.5t-68.5 -22.5t-31.5 -61.5l-33 9q5 48 41.5 77.5t90.5 29.5q33 0 56.5 -9.5t39 -25t23 -36.5t7.5 -45v-169q0 -19 1 -33t3 -26h-35q-2 8 -3 22.5t-1 36.5q-13 -26 -43 -46.5
t-74 -20.5q-55 0 -83.5 29t-28.5 66zM183 399q30 0 51 10.5t34.5 28.5t20 42.5t6.5 52.5v28q-4 -5 -11.5 -8.5t-23.5 -5.5l-90 -15q-31 -5 -48.5 -22t-17.5 -46q0 -25 19.5 -45t59.5 -20z" />
    <glyph glyph-name="guillemotleft" unicode="&#xab;" horiz-adv-x="396" 
d="M213 92h-40l-133 191l133 191h40l-132 -191zM366 92h-40l-133 191l133 191h40l-132 -191z" />
    <glyph glyph-name="logicalnot" unicode="&#xac;" horiz-adv-x="556" 
d="M439 222v205h-389v36h426v-241h-37z" />
    <glyph glyph-name="uni00AD" unicode="&#xad;" horiz-adv-x="390" 
d="M55 269v36h258v-36h-258z" />
    <glyph glyph-name="registered" unicode="&#xae;" horiz-adv-x="835" 
d="M431 353q42 0 67 23.5t25 62.5t-25 62.5t-67 23.5h-87v-172h87zM344 156h-33v398h124q55 0 88.5 -32.5t33.5 -82.5q0 -45 -26.5 -75t-71.5 -38l98 -170h-38l-97 168h-78v-168zM90 354q0 -70 25.5 -131t69.5 -106t103.5 -71t128.5 -26q68 0 127.5 26t104 71t70 106
t25.5 131t-25.5 131t-70 106.5t-104 71.5t-127.5 26q-69 0 -128.5 -26t-103.5 -71.5t-69.5 -106.5t-25.5 -131zM55 354q0 76 28 143t77 116.5t115 78.5t142 29t142 -29t115 -78.5t77.5 -116.5t28.5 -143t-28.5 -142.5t-77.5 -116t-115 -78.5t-142 -29t-142 29t-115 78.5
t-77 116t-28 142.5z" />
    <glyph glyph-name="macron" unicode="&#xaf;" horiz-adv-x="332" 
d="M45 619h242v-35h-242v35z" />
    <glyph glyph-name="degree" unicode="&#xb0;" horiz-adv-x="370" 
d="M185 449q24 0 45 9t36 25t24 37.5t9 46.5t-9 46.5t-24 37.5t-36 25t-45 9t-45 -9t-36 -25t-24 -37.5t-9 -46.5t9 -46.5t24 -37.5t36 -25t45 -9zM35 567q0 31 11.5 59t32 48t47.5 32t59 12q31 0 58.5 -12t48 -32t32 -48t11.5 -59q0 -32 -11.5 -59.5t-32 -47.5t-48 -32
t-58.5 -12q-32 0 -59 12t-47.5 32t-32 47.5t-11.5 59.5z" />
    <glyph glyph-name="plusminus" unicode="&#xb1;" horiz-adv-x="575" 
d="M305 392v-152h-36v152h-194v34h194v151h36v-151h195v-34h-195zM75 133v34h425v-34h-425z" />
    <glyph glyph-name="twosuperior" unicode="&#xb2;" horiz-adv-x="393" 
d="M72 583q-1 4 -1.5 10t-0.5 9q0 47 34 79.5t92 32.5q57 0 89 -31t32 -75q0 -36 -20.5 -62t-52.5 -46l-74 -46q-22 -14 -37 -32t-18 -43h208v-32h-253q0 38 17.5 70.5t57.5 58.5l74 46q26 17 44 38t18 48q0 30 -23 53t-62 23t-64.5 -23t-25.5 -63q0 -4 0.5 -9.5t1.5 -10.5z
" />
    <glyph glyph-name="threesuperior" unicode="&#xb3;" horiz-adv-x="408" 
d="M204 340q-59 0 -96.5 30.5t-42.5 77.5l34 11q1 -21 10 -37t23.5 -27.5t32.5 -17.5t38 -6q42 0 70 23.5t28 60.5q0 38 -27 58t-65 20q-17 0 -34 -5l-18 29l126 119h-209v32h256v-31l-124 -117q5 1 7 1h6q23 0 44.5 -6.5t38 -19.5t26.5 -33t10 -47q0 -24 -9.5 -45
t-27 -36.5t-42.5 -24.5t-55 -9z" />
    <glyph glyph-name="acute" unicode="&#xb4;" horiz-adv-x="234" 
d="M76 534h-31l90 135h54z" />
    <glyph glyph-name="mu" unicode="&#xb5;" horiz-adv-x="544" 
d="M422 84q-7 -17 -20 -34t-32 -30.5t-44.5 -22.5t-57.5 -9q-49 0 -85 19.5t-53 54.5v-252h-40v664h40v-291q0 -31 7.5 -59.5t24.5 -50.5t44 -35.5t66 -13.5q33 0 60.5 12.5t46.5 34.5t29.5 50.5t10.5 60.5v292h40v-382q0 -26 2 -50.5t4 -41.5h-38q-1 7 -3 26t-2 47v11z" />
    <glyph glyph-name="paragraph" unicode="&#xb6;" horiz-adv-x="598" 
d="M311 -190h-35v521h-42q-39 0 -73.5 15t-60 40.5t-40.5 60t-15 73.5t15 73.5t43 60t67 40.5t86 15h307v-34h-93v-865h-35v865h-124v-865z" />
    <glyph glyph-name="periodcentered" unicode="&#xb7;" horiz-adv-x="234" 
d="M76 284q0 17 11.5 29t29.5 12t29.5 -12t11.5 -29t-11.5 -29t-29.5 -12t-29.5 12t-11.5 29z" />
    <glyph glyph-name="cedilla" unicode="&#xb8;" horiz-adv-x="300" 
d="M97 -69l48 74h33l-46 -68q7 4 16.5 5.5t17.5 1.5q41 0 65 -19.5t24 -52.5q0 -35 -27 -56.5t-77 -21.5q-34 0 -62.5 14.5t-43.5 34.5l21 24q13 -17 34 -30t51 -13q34 0 52 13t18 35t-16.5 34.5t-48.5 12.5q-9 0 -19.5 -2.5t-21.5 -7.5z" />
    <glyph glyph-name="onesuperior" unicode="&#xb9;" horiz-adv-x="248" 
d="M65 630q38 8 59.5 30.5t27.5 48.5h36v-362h-36v296q-4 -6 -12.5 -13t-20.5 -14t-26 -12t-28 -6v32z" />
    <glyph glyph-name="ordmasculine" unicode="&#xba;" horiz-adv-x="466" 
d="M233 368q-34 0 -64 12.5t-52.5 35.5t-35.5 55.5t-13 72.5t13 72.5t35 55.5t52 35.5t65 12.5q34 0 64 -12.5t52.5 -35.5t35.5 -55.5t13 -72.5t-13 -72.5t-35 -55.5t-52.5 -35.5t-64.5 -12.5zM104 544q0 -34 10.5 -60.5t28 -45t41 -28.5t49.5 -10t49.5 10t41 28.5t28 45
t10.5 60.5t-10.5 60.5t-28 45t-41 28.5t-49.5 10t-49.5 -10t-41 -28.5t-28 -45t-10.5 -60.5z" />
    <glyph glyph-name="guillemotright" unicode="&#xbb;" horiz-adv-x="396" 
d="M163 283l-133 191h40l133 -191l-133 -191h-40zM316 283l-133 191h40l133 -191l-133 -191h-40z" />
    <glyph glyph-name="onequarter" unicode="&#xbc;" horiz-adv-x="788" 
d="M65 631q38 8 59.5 30.5t27.5 48.5h36v-362h-36v296q-4 -6 -12.5 -13t-20.5 -14t-26 -12t-28 -6v32zM624 709l-477 -709h-41l478 709h40zM420 125l181 236h48v-242h74v-32h-74v-87h-36v87h-193v38zM613 322l-157 -203h157v203z" />
    <glyph glyph-name="onehalf" unicode="&#xbd;" horiz-adv-x="803" 
d="M65 631q38 8 59.5 30.5t27.5 48.5h36v-362h-36v296q-4 -6 -12.5 -13t-20.5 -14t-26 -12t-28 -6v32zM614 709l-477 -709h-41l478 709h40zM482 236q-1 4 -1.5 10t-0.5 9q0 47 34 79.5t92 32.5q57 0 89 -31t32 -75q0 -36 -20.5 -62t-52.5 -46l-74 -46q-22 -14 -37 -32
t-18 -43h208v-32h-253q0 38 17.5 70.5t57.5 58.5l74 46q26 17 44 38t18 48q0 30 -23 53t-62 23t-64.5 -23t-25.5 -63q0 -4 0.5 -9.5t1.5 -10.5z" />
    <glyph glyph-name="threequarters" unicode="&#xbe;" horiz-adv-x="868" 
d="M204 341q-59 0 -96.5 30.5t-42.5 77.5l34 11q1 -21 10 -37t23.5 -27.5t32.5 -17.5t38 -6q42 0 70 23.5t28 60.5q0 38 -27 58t-65 20q-17 0 -34 -5l-18 29l126 119h-209v32h256v-31l-124 -117q5 1 7 1h6q23 0 44.5 -6.5t38 -19.5t26.5 -33t10 -47q0 -24 -9.5 -45
t-27 -36.5t-42.5 -24.5t-55 -9zM702 709l-477 -709h-41l478 709h40zM500 125l181 236h48v-242h74v-32h-74v-87h-36v87h-193v38zM693 322l-157 -203h157v203z" />
    <glyph glyph-name="questiondown" unicode="&#xbf;" horiz-adv-x="486" 
d="M270 298q3 -12 3.5 -21t0.5 -19q0 -45 -15 -79.5t-51 -63.5l-44 -35q-35 -29 -56.5 -62.5t-21.5 -75.5q0 -29 10 -56t29.5 -47.5t48 -32.5t65.5 -12q41 0 71.5 13.5t50.5 35.5t30 50.5t10 59.5q0 23 -9 56l41 -6q5 -15 6.5 -27.5t1.5 -26.5q0 -35 -12.5 -69.5
t-37.5 -61.5t-63 -44t-89 -17q-46 0 -82 15.5t-61 41t-38 58.5t-13 69q0 51 26.5 93t71.5 77l44 35q30 24 39.5 53.5t9.5 58.5v20q0 6 -2 20h36zM291 442q0 -17 -11.5 -29t-28.5 -12t-29 12t-12 29t12 28.5t29 11.5t28.5 -11.5t11.5 -28.5z" />
    <glyph glyph-name="Agrave" unicode="&#xc0;" horiz-adv-x="660" 
d="M182 878h57l110 -119h-36zM176 285h307l-154 381zM499 246h-339l-99 -246h-46l290 709h49l291 -709h-46z" />
    <glyph glyph-name="Aacute" unicode="&#xc1;" horiz-adv-x="660" 
d="M352 759h-36l110 119h57zM176 285h307l-154 381zM499 246h-339l-99 -246h-46l290 709h49l291 -709h-46z" />
    <glyph glyph-name="Acircumflex" unicode="&#xc2;" horiz-adv-x="660" 
d="M333 854l-106 -95h-40l116 119h60l116 -119h-40zM176 285h307l-154 381zM499 246h-339l-99 -246h-46l290 709h49l291 -709h-46z" />
    <glyph glyph-name="Atilde" unicode="&#xc3;" horiz-adv-x="660" 
d="M262 869q21 0 37.5 -8t32.5 -21l21 -17q13 -10 24 -15.5t26 -5.5q21 0 34 16.5t13 47.5h32v-8q0 -43 -23 -67t-55 -24q-20 0 -35.5 7t-29.5 18l-22 18q-15 12 -26.5 18t-28.5 6q-23 0 -34.5 -17t-11.5 -46h-32v10q0 41 22.5 64.5t55.5 23.5zM176 285h307l-154 381z
M499 246h-339l-99 -246h-46l290 709h49l291 -709h-46z" />
    <glyph glyph-name="Adieresis" unicode="&#xc4;" horiz-adv-x="660" 
d="M176 285h307l-154 381zM499 246h-339l-99 -246h-46l290 709h49l291 -709h-46zM207 819q0 14 9.5 24t23.5 10t24 -10t10 -24t-10 -24t-24 -10t-23.5 10t-9.5 24zM393 819q0 14 9.5 24t23.5 10t24 -10t10 -24t-10 -24t-24 -10t-23.5 10t-9.5 24z" />
    <glyph glyph-name="Aring" unicode="&#xc5;" horiz-adv-x="660" 
d="M272 773q0 -28 17.5 -46t43.5 -18t43.5 18t17.5 46t-17.5 46.5t-43.5 18.5t-43.5 -18.5t-17.5 -46.5zM176 285h307l-154 381zM61 0h-46l280 686q-25 11 -40.5 34t-15.5 53q0 20 7.5 37.5t20 30.5t29.5 20.5t37 7.5q19 0 36.5 -7.5t30 -20.5t20 -30.5t7.5 -37.5
q0 -32 -17.5 -56t-44.5 -34l280 -683h-46l-100 246h-339z" />
    <glyph glyph-name="AE" unicode="&#xc6;" horiz-adv-x="973" 
d="M507 667l-269 -408h269v408zM507 221h-294l-145 -221h-53l471 709h431v-39h-368v-295h337v-39h-337v-297h368v-39h-410v221z" />
    <glyph glyph-name="Ccedilla" unicode="&#xc7;" horiz-adv-x="737" 
d="M504 -128q0 -35 -27 -56.5t-77 -21.5q-34 0 -62.5 14.5t-43.5 34.5l21 24q13 -17 34 -30t51 -13q34 0 52 13t18 35t-16.5 34.5t-48.5 12.5q-9 0 -19.5 -2.5t-21.5 -7.5l-18 22l37 57q-64 1 -124.5 25.5t-108 71t-76 114t-28.5 155.5q0 89 29.5 157.5t78 115t110 70.5
t126.5 24q59 0 109 -16.5t89 -46.5t65.5 -71.5t38.5 -91.5l-38 -14q-11 46 -34 83t-57.5 63t-78 40.5t-94.5 14.5q-57 0 -111.5 -21.5t-96.5 -63t-67.5 -102.5t-25.5 -141t25.5 -141t67.5 -102.5t96.5 -62.5t111.5 -21q52 0 97 15t79.5 42t58 64.5t34.5 82.5l37 -13
q-11 -47 -36 -87.5t-61 -70.5t-82 -48.5t-101 -22.5l-35 -52q7 4 16.5 5.5t17.5 1.5q41 0 65 -19.5t24 -52.5z" />
    <glyph glyph-name="Egrave" unicode="&#xc8;" horiz-adv-x="562" 
d="M176 878h57l110 -119h-36zM96 0v709h410v-39h-368v-295h337v-39h-337v-297h368v-39h-410z" />
    <glyph glyph-name="Eacute" unicode="&#xc9;" horiz-adv-x="562" 
d="M297 759h-36l110 119h57zM96 0v709h410v-39h-368v-295h337v-39h-337v-297h368v-39h-410z" />
    <glyph glyph-name="Ecircumflex" unicode="&#xca;" horiz-adv-x="562" 
d="M304 854l-106 -95h-40l116 119h60l116 -119h-40zM96 0v709h410v-39h-368v-295h337v-39h-337v-297h368v-39h-410z" />
    <glyph glyph-name="Edieresis" unicode="&#xcb;" horiz-adv-x="562" 
d="M177 819q0 14 9.5 24t23.5 10t24 -10t10 -24t-10 -24t-24 -10t-23.5 10t-9.5 24zM363 819q0 14 9.5 24t23.5 10t24 -10t10 -24t-10 -24t-24 -10t-23.5 10t-9.5 24zM96 0v709h410v-39h-368v-295h337v-39h-337v-297h368v-39h-410z" />
    <glyph glyph-name="Igrave" unicode="&#xcc;" horiz-adv-x="235" 
d="M-26 878h57l110 -119h-36zM96 0v709h43v-709h-43z" />
    <glyph glyph-name="Iacute" unicode="&#xcd;" horiz-adv-x="235" 
d="M141 759h-36l110 119h57zM96 0v709h43v-709h-43z" />
    <glyph glyph-name="Icircumflex" unicode="&#xce;" horiz-adv-x="235" 
d="M122 854l-106 -95h-40l116 119h60l116 -119h-40zM96 0v709h43v-709h-43z" />
    <glyph glyph-name="Idieresis" unicode="&#xcf;" horiz-adv-x="235" 
d="M29 819q0 14 9 23t22 9t22.5 -9t9.5 -23t-9.5 -23t-22.5 -9t-22 9t-9 23zM149 819q0 14 9 23t22 9q14 0 23 -9t9 -23t-9 -23t-23 -9q-13 0 -22 9t-9 23zM96 0v709h43v-709h-43z" />
    <glyph glyph-name="Eth" unicode="&#xd0;" horiz-adv-x="684" 
d="M96 0v348h-79v36h79v325h205q67 0 128.5 -23t107.5 -68t73.5 -111.5t27.5 -153.5t-27.5 -153t-74.5 -110.5t-108.5 -67t-128.5 -22.5h-203zM298 38q59 0 112.5 20t94.5 59.5t65.5 98.5t24.5 137q0 79 -24 138.5t-64.5 99.5t-94 60t-112.5 20h-161v-287h154v-36h-154v-310
h159z" />
    <glyph glyph-name="Ntilde" unicode="&#xd1;" horiz-adv-x="734" 
d="M301 869q21 0 37.5 -8t32.5 -21l21 -17q13 -10 24 -15.5t26 -5.5q21 0 34 16.5t13 47.5h32v-8q0 -43 -23 -67t-55 -24q-20 0 -35.5 7t-29.5 18l-22 18q-15 12 -26.5 18t-28.5 6q-23 0 -34.5 -17t-11.5 -46h-32v10q0 41 22.5 64.5t55.5 23.5zM590 0l-451 654v-654h-43v709
h57l442 -643v643h43v-709h-48z" />
    <glyph glyph-name="Ograve" unicode="&#xd2;" horiz-adv-x="780" 
d="M251 878h57l110 -119h-36zM390 27q57 0 111.5 21t96.5 62.5t67.5 102.5t25.5 141t-25.5 141t-67.5 102.5t-96.5 63t-111.5 21.5t-111.5 -21.5t-96.5 -63t-67.5 -102.5t-25.5 -141t25.5 -141t67.5 -102.5t96.5 -62.5t111.5 -21zM390 -12q-65 0 -126.5 24t-110 70.5
t-78 114.5t-29.5 157t29.5 157.5t78 115t110 70.5t126.5 24q64 0 126 -24t110.5 -70.5t78 -115t29.5 -157.5t-29.5 -157t-78 -114.5t-110.5 -70.5t-126 -24z" />
    <glyph glyph-name="Oacute" unicode="&#xd3;" horiz-adv-x="780" 
d="M410 759h-36l110 119h57zM390 27q57 0 111.5 21t96.5 62.5t67.5 102.5t25.5 141t-25.5 141t-67.5 102.5t-96.5 63t-111.5 21.5t-111.5 -21.5t-96.5 -63t-67.5 -102.5t-25.5 -141t25.5 -141t67.5 -102.5t96.5 -62.5t111.5 -21zM390 -12q-65 0 -126.5 24t-110 70.5
t-78 114.5t-29.5 157t29.5 157.5t78 115t110 70.5t126.5 24q64 0 126 -24t110.5 -70.5t78 -115t29.5 -157.5t-29.5 -157t-78 -114.5t-110.5 -70.5t-126 -24z" />
    <glyph glyph-name="Ocircumflex" unicode="&#xd4;" horiz-adv-x="780" 
d="M394 854l-106 -95h-40l116 119h60l116 -119h-40zM390 27q57 0 111.5 21t96.5 62.5t67.5 102.5t25.5 141t-25.5 141t-67.5 102.5t-96.5 63t-111.5 21.5t-111.5 -21.5t-96.5 -63t-67.5 -102.5t-25.5 -141t25.5 -141t67.5 -102.5t96.5 -62.5t111.5 -21zM390 -12
q-65 0 -126.5 24t-110 70.5t-78 114.5t-29.5 157t29.5 157.5t78 115t110 70.5t126.5 24q64 0 126 -24t110.5 -70.5t78 -115t29.5 -157.5t-29.5 -157t-78 -114.5t-110.5 -70.5t-126 -24z" />
    <glyph glyph-name="Otilde" unicode="&#xd5;" horiz-adv-x="780" 
d="M324 869q21 0 37.5 -8t32.5 -21l21 -17q13 -10 24 -15.5t26 -5.5q21 0 34 16.5t13 47.5h32v-8q0 -43 -23 -67t-55 -24q-20 0 -35.5 7t-29.5 18l-22 18q-15 12 -26.5 18t-28.5 6q-23 0 -34.5 -17t-11.5 -46h-32v10q0 41 22.5 64.5t55.5 23.5zM390 27q57 0 111.5 21
t96.5 62.5t67.5 102.5t25.5 141t-25.5 141t-67.5 102.5t-96.5 63t-111.5 21.5t-111.5 -21.5t-96.5 -63t-67.5 -102.5t-25.5 -141t25.5 -141t67.5 -102.5t96.5 -62.5t111.5 -21zM390 -12q-65 0 -126.5 24t-110 70.5t-78 114.5t-29.5 157t29.5 157.5t78 115t110 70.5t126.5 24
q64 0 126 -24t110.5 -70.5t78 -115t29.5 -157.5t-29.5 -157t-78 -114.5t-110.5 -70.5t-126 -24z" />
    <glyph glyph-name="Odieresis" unicode="&#xd6;" horiz-adv-x="780" 
d="M220 819q0 14 9.5 24t23.5 10t24 -10t10 -24t-10 -24t-24 -10t-23.5 10t-9.5 24zM500 819q0 14 9.5 24t23.5 10t24 -10t10 -24t-10 -24t-24 -10t-23.5 10t-9.5 24zM390 27q57 0 111.5 21t96.5 62.5t67.5 102.5t25.5 141t-25.5 141t-67.5 102.5t-96.5 63t-111.5 21.5
t-111.5 -21.5t-96.5 -63t-67.5 -102.5t-25.5 -141t25.5 -141t67.5 -102.5t96.5 -62.5t111.5 -21zM390 -12q-65 0 -126.5 24t-110 70.5t-78 114.5t-29.5 157t29.5 157.5t78 115t110 70.5t126.5 24q64 0 126 -24t110.5 -70.5t78 -115t29.5 -157.5t-29.5 -157t-78 -114.5
t-110.5 -70.5t-126 -24z" />
    <glyph glyph-name="multiply" unicode="&#xd7;" horiz-adv-x="516" 
d="M258 372l184 191l24 -24l-185 -192l185 -191l-24 -25l-185 191l-183 -190l-24 24l183 191l-183 191l24 25z" />
    <glyph glyph-name="Oslash" unicode="&#xd8;" horiz-adv-x="780" 
d="M91 -17l71 91q-52 47 -84 116.5t-32 163.5q0 89 29.5 157.5t78 115t110 70.5t126.5 24q58 0 113.5 -19.5t101.5 -57.5l76 98l28 -21l-78 -100q47 -47 75 -113.5t28 -153.5q0 -89 -29.5 -157t-78 -114.5t-110.5 -70.5t-126 -24q-54 0 -105 16t-96 48l-70 -90zM89 354
q0 -83 26.5 -144.5t70.5 -103.5l395 507q-41 34 -90 51.5t-101 17.5q-57 0 -111.5 -21.5t-96.5 -63t-67.5 -102.5t-25.5 -141zM390 27q57 0 111.5 21t96.5 62.5t67.5 102.5t25.5 141q0 76 -23.5 134.5t-61.5 100.5l-392 -505q38 -29 83 -43t93 -14z" />
    <glyph glyph-name="Ugrave" unicode="&#xd9;" horiz-adv-x="645" 
d="M201 878h57l110 -119h-36zM322 -12q-108 0 -172 63t-64 182v476h43v-474q0 -101 48.5 -154.5t144.5 -53.5q97 0 145.5 53.5t48.5 154.5v474h43v-476q0 -119 -63.5 -182t-173.5 -63z" />
    <glyph glyph-name="Uacute" unicode="&#xda;" horiz-adv-x="645" 
d="M317 759h-36l110 119h57zM322 -12q-108 0 -172 63t-64 182v476h43v-474q0 -101 48.5 -154.5t144.5 -53.5q97 0 145.5 53.5t48.5 154.5v474h43v-476q0 -119 -63.5 -182t-173.5 -63z" />
    <glyph glyph-name="Ucircumflex" unicode="&#xdb;" horiz-adv-x="645" 
d="M325 854l-106 -95h-40l116 119h60l116 -119h-40zM322 -12q-108 0 -172 63t-64 182v476h43v-474q0 -101 48.5 -154.5t144.5 -53.5q97 0 145.5 53.5t48.5 154.5v474h43v-476q0 -119 -63.5 -182t-173.5 -63z" />
    <glyph glyph-name="Udieresis" unicode="&#xdc;" horiz-adv-x="645" 
d="M200 819q0 14 9.5 24t23.5 10t24 -10t10 -24t-10 -24t-24 -10t-23.5 10t-9.5 24zM386 819q0 14 9.5 24t23.5 10t24 -10t10 -24t-10 -24t-24 -10t-23.5 10t-9.5 24zM322 -12q-108 0 -172 63t-64 182v476h43v-474q0 -101 48.5 -154.5t144.5 -53.5q97 0 145.5 53.5
t48.5 154.5v474h43v-476q0 -119 -63.5 -182t-173.5 -63z" />
    <glyph glyph-name="Yacute" unicode="&#xdd;" horiz-adv-x="591" 
d="M284 759h-36l110 119h57zM20 709h50l227 -366l226 366h48l-254 -406v-303h-42v303z" />
    <glyph glyph-name="Thorn" unicode="&#xde;" 
d="M139 155v-155h-43v709h43v-151h176q48 0 88 -15.5t68 -42.5t43.5 -64t15.5 -80q0 -44 -15.5 -80.5t-43.5 -63.5t-68 -42t-88 -15h-176zM309 194q41 0 74 12t56 33.5t35.5 51t12.5 65.5t-12.5 65.5t-35.5 51.5t-56 34t-74 12h-170v-325h170z" />
    <glyph glyph-name="germandbls" unicode="&#xdf;" horiz-adv-x="544" 
d="M236 136q0 -17 6.5 -36.5t19.5 -36t34.5 -27.5t51.5 -11q27 0 47.5 9.5t34 24.5t20.5 34t7 39q0 42 -24 70t-56 45l-41 22q-20 11 -36.5 29t-16.5 45q0 23 11.5 40t32.5 31l42 29q26 17 40.5 44t14.5 65q0 27 -9.5 51t-28 42t-45 28.5t-60.5 10.5q-32 0 -60 -13
t-49 -37.5t-33 -61t-12 -83.5v-489h-41v491q0 55 15.5 97.5t42 72t62 45t75.5 15.5q43 0 77 -13t58 -36t36.5 -53.5t12.5 -66.5q0 -52 -21.5 -84.5t-50.5 -52.5l-42 -29q-12 -8 -19.5 -17.5t-7.5 -25.5q0 -17 11 -25.5t28 -18.5l41 -22q40 -22 67 -58t27 -84
q0 -26 -9.5 -52.5t-28.5 -47.5t-47 -34t-65 -13q-40 0 -68 13.5t-46.5 33.5t-27.5 44.5t-10 46.5z" />
    <glyph glyph-name="agrave" unicode="&#xe0;" horiz-adv-x="495" 
d="M208 -11q-38 0 -66.5 11.5t-48 30t-29.5 42t-10 47.5q0 59 37 92.5t105 44.5l125 19q33 5 45.5 20t12.5 34q0 54 -34.5 87.5t-94.5 33.5q-62 0 -101.5 -31.5t-46.5 -89.5l-38 9q8 69 59 108t126 39q42 0 74 -12.5t53 -34t32 -50.5t11 -62v-243q0 -27 2 -46t5 -38h-39
q-2 8 -4 34t-2 58q-9 -20 -25 -38.5t-37.5 -32.5t-49.5 -23t-61 -9zM212 24q37 0 68 13t53 35.5t34 52.5t12 64v77q-5 -8 -18 -13.5t-38 -9.5l-125 -19q-48 -8 -75.5 -33.5t-27.5 -68.5q0 -18 7.5 -36t22 -31.5t36.5 -22t51 -8.5zM129 669h53l90 -135h-30z" />
    <glyph glyph-name="aacute" unicode="&#xe1;" horiz-adv-x="495" 
d="M260 534h-31l90 135h54zM208 -11q-38 0 -66.5 11.5t-48 30t-29.5 42t-10 47.5q0 59 37 92.5t105 44.5l125 19q33 5 45.5 20t12.5 34q0 54 -34.5 87.5t-94.5 33.5q-62 0 -101.5 -31.5t-46.5 -89.5l-38 9q8 69 59 108t126 39q42 0 74 -12.5t53 -34t32 -50.5t11 -62v-243
q0 -27 2 -46t5 -38h-39q-2 8 -4 34t-2 58q-9 -20 -25 -38.5t-37.5 -32.5t-49.5 -23t-61 -9zM212 24q37 0 68 13t53 35.5t34 52.5t12 64v77q-5 -8 -18 -13.5t-38 -9.5l-125 -19q-48 -8 -75.5 -33.5t-27.5 -68.5q0 -18 7.5 -36t22 -31.5t36.5 -22t51 -8.5z" />
    <glyph glyph-name="acircumflex" unicode="&#xe2;" horiz-adv-x="495" 
d="M256 644l-105 -110h-34l113 135h52l113 -135h-34zM208 -11q-38 0 -66.5 11.5t-48 30t-29.5 42t-10 47.5q0 59 37 92.5t105 44.5l125 19q33 5 45.5 20t12.5 34q0 54 -34.5 87.5t-94.5 33.5q-62 0 -101.5 -31.5t-46.5 -89.5l-38 9q8 69 59 108t126 39q42 0 74 -12.5t53 -34
t32 -50.5t11 -62v-243q0 -27 2 -46t5 -38h-39q-2 8 -4 34t-2 58q-9 -20 -25 -38.5t-37.5 -32.5t-49.5 -23t-61 -9zM212 24q37 0 68 13t53 35.5t34 52.5t12 64v77q-5 -8 -18 -13.5t-38 -9.5l-125 -19q-48 -8 -75.5 -33.5t-27.5 -68.5q0 -18 7.5 -36t22 -31.5t36.5 -22
t51 -8.5z" />
    <glyph glyph-name="atilde" unicode="&#xe3;" horiz-adv-x="495" 
d="M108 553v10q0 41 22.5 64t55.5 23q22 0 37.5 -8t31.5 -21l19 -16q13 -10 24 -15.5t25 -5.5q46 0 46 64h33v-8q0 -43 -23 -66.5t-55 -23.5q-19 0 -34 6.5t-28 17.5l-22 18q-13 11 -24.5 17.5t-28.5 6.5q-23 0 -34.5 -16.5t-11.5 -46.5h-33zM208 -11q-38 0 -66.5 11.5
t-48 30t-29.5 42t-10 47.5q0 59 37 92.5t105 44.5l125 19q33 5 45.5 20t12.5 34q0 54 -34.5 87.5t-94.5 33.5q-62 0 -101.5 -31.5t-46.5 -89.5l-38 9q8 69 59 108t126 39q42 0 74 -12.5t53 -34t32 -50.5t11 -62v-243q0 -27 2 -46t5 -38h-39q-2 8 -4 34t-2 58
q-9 -20 -25 -38.5t-37.5 -32.5t-49.5 -23t-61 -9zM212 24q37 0 68 13t53 35.5t34 52.5t12 64v77q-5 -8 -18 -13.5t-38 -9.5l-125 -19q-48 -8 -75.5 -33.5t-27.5 -68.5q0 -18 7.5 -36t22 -31.5t36.5 -22t51 -8.5z" />
    <glyph glyph-name="adieresis" unicode="&#xe4;" horiz-adv-x="495" 
d="M140 604q0 14 9.5 23.5t23.5 9.5t23.5 -9.5t9.5 -23.5t-9.5 -23.5t-23.5 -9.5t-23.5 9.5t-9.5 23.5zM310 604q0 14 9.5 23.5t23.5 9.5t23.5 -9.5t9.5 -23.5t-9.5 -23.5t-23.5 -9.5t-23.5 9.5t-9.5 23.5zM208 -11q-38 0 -66.5 11.5t-48 30t-29.5 42t-10 47.5q0 59 37 92.5
t105 44.5l125 19q33 5 45.5 20t12.5 34q0 54 -34.5 87.5t-94.5 33.5q-62 0 -101.5 -31.5t-46.5 -89.5l-38 9q8 69 59 108t126 39q42 0 74 -12.5t53 -34t32 -50.5t11 -62v-243q0 -27 2 -46t5 -38h-39q-2 8 -4 34t-2 58q-9 -20 -25 -38.5t-37.5 -32.5t-49.5 -23t-61 -9z
M212 24q37 0 68 13t53 35.5t34 52.5t12 64v77q-5 -8 -18 -13.5t-38 -9.5l-125 -19q-48 -8 -75.5 -33.5t-27.5 -68.5q0 -18 7.5 -36t22 -31.5t36.5 -22t51 -8.5z" />
    <glyph glyph-name="aring" unicode="&#xe5;" horiz-adv-x="495" 
d="M153 631q0 21 8 39.5t21.5 32.5t32 22t39.5 8t39.5 -8t32 -22t21.5 -32.5t8 -39.5t-8 -39.5t-21.5 -32.5t-32 -22t-39.5 -8t-39.5 8t-32 22t-21.5 32.5t-8 39.5zM186 631q0 -29 19.5 -50t48.5 -21t48.5 21t19.5 50t-19.5 50t-48.5 21t-48.5 -21t-19.5 -50zM208 -11
q-38 0 -66.5 11.5t-48 30t-29.5 42t-10 47.5q0 59 37 92.5t105 44.5l125 19q33 5 45.5 20t12.5 34q0 54 -34.5 87.5t-94.5 33.5q-62 0 -101.5 -31.5t-46.5 -89.5l-38 9q8 69 59 108t126 39q42 0 74 -12.5t53 -34t32 -50.5t11 -62v-243q0 -27 2 -46t5 -38h-39q-2 8 -4 34
t-2 58q-9 -20 -25 -38.5t-37.5 -32.5t-49.5 -23t-61 -9zM212 24q37 0 68 13t53 35.5t34 52.5t12 64v77q-5 -8 -18 -13.5t-38 -9.5l-125 -19q-48 -8 -75.5 -33.5t-27.5 -68.5q0 -18 7.5 -36t22 -31.5t36.5 -22t51 -8.5z" />
    <glyph glyph-name="ae" unicode="&#xe6;" horiz-adv-x="859" 
d="M420 234v-6q0 -47 14.5 -84.5t40 -64t59.5 -41t72 -14.5q33 0 60.5 10t49 27.5t36.5 40t24 47.5l35 -12q-10 -31 -28.5 -58t-45 -47.5t-59.5 -32t-72 -11.5q-67 0 -121.5 34.5t-82.5 99.5q-9 -27 -26 -51.5t-41 -42.5t-55.5 -28.5t-71.5 -10.5q-38 0 -66.5 11.5t-48 30
t-29.5 42t-10 47.5q0 59 37 92.5t105 44.5l125 19q33 5 45.5 20t12.5 34q0 54 -34.5 87.5t-94.5 33.5q-62 0 -101.5 -31.5t-46.5 -89.5l-38 9q8 69 59 108t126 39q68 0 109 -31t54 -82q29 54 77 83.5t106 29.5q51 0 91.5 -17.5t68 -48.5t42.5 -74t15 -94v-8q0 -2 -1 -10
h-391zM770 269q0 38 -12 71t-34.5 57.5t-54.5 38.5t-73 14q-36 0 -66.5 -13.5t-53.5 -38t-37 -57.5t-17 -72h348zM215 24q35 0 65 12.5t52 34t34.5 51t12.5 63.5v81q-5 -8 -16.5 -13.5t-33.5 -8.5l-135 -21q-45 -7 -72 -32.5t-27 -68.5q0 -19 7.5 -36.5t22.5 -31t37.5 -22
t52.5 -8.5z" />
    <glyph glyph-name="ccedilla" unicode="&#xe7;" horiz-adv-x="518" 
d="M228 -69l37 57q-44 2 -82 18q-41 19 -72 52t-48 78.5t-17 100.5q0 54 17.5 100t48 79t72.5 51.5t91 18.5q80 0 131 -42t68 -105l-35 -15q-6 23 -19 45.5t-33 40.5t-47.5 29t-64.5 11q-40 0 -74 -15.5t-59.5 -43t-40 -67t-14.5 -87.5t14.5 -87.5t40 -67.5t59.5 -43t74 -15
q35 0 63 11t49 29t34.5 41t21.5 46l34 -15q-9 -29 -26 -55.5t-42.5 -47t-59.5 -33.5q-23 -8 -51 -11l-35 -52q7 4 16.5 5.5t17.5 1.5q41 0 65 -19.5t24 -52.5q0 -35 -27 -56.5t-77 -21.5q-34 0 -62.5 14.5t-43.5 34.5l21 24q13 -17 34 -30t51 -13q34 0 52 13t18 35
t-16.5 34.5t-48.5 12.5q-9 0 -19.5 -2.5t-21.5 -7.5z" />
    <glyph glyph-name="egrave" unicode="&#xe8;" horiz-adv-x="526" 
d="M155 669h53l90 -135h-30zM87 234v-6q0 -47 14.5 -84.5t40 -64t59.5 -41t72 -14.5q33 0 60.5 10t49 27.5t36.5 40t24 47.5l35 -12q-10 -31 -28.5 -58t-45 -47.5t-59.5 -32t-72 -11.5q-47 0 -88.5 17t-72 49.5t-48.5 79t-18 105.5q0 55 17 101t46.5 78t68.5 50t84 18
q51 0 91.5 -17.5t68 -48.5t42.5 -74t15 -94v-8q0 -2 -1 -10h-391zM437 269q0 38 -12 71t-34.5 57.5t-54.5 38.5t-73 14q-36 0 -66.5 -13.5t-53.5 -38t-37 -57.5t-17 -72h348z" />
    <glyph glyph-name="eacute" unicode="&#xe9;" horiz-adv-x="526" 
d="M87 234v-6q0 -47 14.5 -84.5t40 -64t59.5 -41t72 -14.5q33 0 60.5 10t49 27.5t36.5 40t24 47.5l35 -12q-10 -31 -28.5 -58t-45 -47.5t-59.5 -32t-72 -11.5q-47 0 -88.5 17t-72 49.5t-48.5 79t-18 105.5q0 55 17 101t46.5 78t68.5 50t84 18q51 0 91.5 -17.5t68 -48.5
t42.5 -74t15 -94v-8q0 -2 -1 -10h-391zM437 269q0 38 -12 71t-34.5 57.5t-54.5 38.5t-73 14q-36 0 -66.5 -13.5t-53.5 -38t-37 -57.5t-17 -72h348zM282 534h-31l90 135h54z" />
    <glyph glyph-name="ecircumflex" unicode="&#xea;" horiz-adv-x="526" 
d="M271 644l-105 -110h-34l113 135h52l113 -135h-34zM87 234v-6q0 -47 14.5 -84.5t40 -64t59.5 -41t72 -14.5q33 0 60.5 10t49 27.5t36.5 40t24 47.5l35 -12q-10 -31 -28.5 -58t-45 -47.5t-59.5 -32t-72 -11.5q-47 0 -88.5 17t-72 49.5t-48.5 79t-18 105.5q0 55 17 101
t46.5 78t68.5 50t84 18q51 0 91.5 -17.5t68 -48.5t42.5 -74t15 -94v-8q0 -2 -1 -10h-391zM437 269q0 38 -12 71t-34.5 57.5t-54.5 38.5t-73 14q-36 0 -66.5 -13.5t-53.5 -38t-37 -57.5t-17 -72h348z" />
    <glyph glyph-name="edieresis" unicode="&#xeb;" horiz-adv-x="526" 
d="M154 604q0 14 9.5 23.5t23.5 9.5t23.5 -9.5t9.5 -23.5t-9.5 -23.5t-23.5 -9.5t-23.5 9.5t-9.5 23.5zM324 604q0 14 9.5 23.5t23.5 9.5t23.5 -9.5t9.5 -23.5t-9.5 -23.5t-23.5 -9.5t-23.5 9.5t-9.5 23.5zM87 234v-6q0 -47 14.5 -84.5t40 -64t59.5 -41t72 -14.5
q33 0 60.5 10t49 27.5t36.5 40t24 47.5l35 -12q-10 -31 -28.5 -58t-45 -47.5t-59.5 -32t-72 -11.5q-47 0 -88.5 17t-72 49.5t-48.5 79t-18 105.5q0 55 17 101t46.5 78t68.5 50t84 18q51 0 91.5 -17.5t68 -48.5t42.5 -74t15 -94v-8q0 -2 -1 -10h-391zM437 269q0 38 -12 71
t-34.5 57.5t-54.5 38.5t-73 14q-36 0 -66.5 -13.5t-53.5 -38t-37 -57.5t-17 -72h348z" />
    <glyph glyph-name="igrave" unicode="&#xec;" horiz-adv-x="212" 
d="M-16 669h53l90 -135h-30zM86 0v474h40v-474h-40z" />
    <glyph glyph-name="iacute" unicode="&#xed;" horiz-adv-x="212" 
d="M126 534h-31l90 135h54zM86 0v474h40v-474h-40z" />
    <glyph glyph-name="icircumflex" unicode="&#xee;" horiz-adv-x="212" 
d="M112 644l-105 -110h-34l113 135h52l113 -135h-34zM86 0v474h40v-474h-40z" />
    <glyph glyph-name="idieresis" unicode="&#xef;" horiz-adv-x="212" 
d="M18 603q0 14 9 23t22 9q14 0 23 -9t9 -23q0 -13 -9 -22t-23 -9q-13 0 -22 9t-9 22zM134 603q0 14 9 23t22 9q14 0 23 -9t9 -23q0 -13 -9 -22t-23 -9q-13 0 -22 9t-9 22zM86 0v474h40v-474h-40z" />
    <glyph glyph-name="eth" unicode="&#xf0;" horiz-adv-x="546" 
d="M274 -9q-50 0 -91.5 18t-71.5 49.5t-46.5 74.5t-16.5 94q0 54 18.5 97t49 73t70.5 46t83 16q53 0 100.5 -22t76.5 -74q-15 66 -46.5 122.5t-76.5 101.5l-134 -68l-13 28l120 60q-68 59 -151 81l13 33q43 -11 88.5 -35t87.5 -60l114 58l14 -27l-103 -52
q64 -64 102.5 -154.5t38.5 -199.5q0 -56 -15 -103.5t-43.5 -82.5t-71 -54.5t-96.5 -19.5zM459 241q0 42 -15 76t-40.5 58t-59 37t-70.5 13t-70.5 -13.5t-59 -39t-40.5 -62.5t-15 -83q0 -45 14 -82t38.5 -63.5t58.5 -41t74 -14.5q44 0 78.5 16.5t58 46t36 68.5t12.5 84z" />
    <glyph glyph-name="ntilde" unicode="&#xf1;" horiz-adv-x="527" 
d="M131 553v10q0 41 22.5 64t55.5 23q22 0 37.5 -8t31.5 -21l19 -16q13 -10 24 -15.5t25 -5.5q46 0 46 64h33v-8q0 -43 -23 -66.5t-55 -23.5q-19 0 -34 6.5t-28 17.5l-22 18q-13 11 -24.5 17.5t-28.5 6.5q-23 0 -34.5 -16.5t-11.5 -46.5h-33zM126 0h-40v474h39v-87
q7 19 21 36.5t34 31.5t46 22.5t57 8.5q42 0 73.5 -13.5t52.5 -37t31.5 -55t10.5 -66.5v-314h-40v308q0 30 -8.5 55.5t-26 45t-43.5 30.5t-61 11q-33 0 -59.5 -13.5t-46 -36t-30 -51.5t-10.5 -60v-289z" />
    <glyph glyph-name="ograve" unicode="&#xf2;" horiz-adv-x="556" 
d="M158 669h53l90 -135h-30zM278 -12q-47 0 -89.5 17.5t-74 50t-50 78.5t-18.5 103t18 103t49.5 78.5t74 50t90.5 17.5q47 0 89.5 -17.5t74 -50t50 -78.5t18.5 -103t-18.5 -103t-50 -78.5t-73.5 -50t-90 -17.5zM87 237q0 -50 15.5 -89t41.5 -67t61 -42.5t73 -14.5t72.5 14.5
t61 42.5t42 67t15.5 89q0 49 -15.5 88.5t-42 67.5t-61 42.5t-72.5 14.5t-73 -14.5t-61 -42.5t-41.5 -67.5t-15.5 -88.5z" />
    <glyph glyph-name="oacute" unicode="&#xf3;" horiz-adv-x="556" 
d="M278 -12q-47 0 -89.5 17.5t-74 50t-50 78.5t-18.5 103t18 103t49.5 78.5t74 50t90.5 17.5q47 0 89.5 -17.5t74 -50t50 -78.5t18.5 -103t-18.5 -103t-50 -78.5t-73.5 -50t-90 -17.5zM87 237q0 -50 15.5 -89t41.5 -67t61 -42.5t73 -14.5t72.5 14.5t61 42.5t42 67t15.5 89
q0 49 -15.5 88.5t-42 67.5t-61 42.5t-72.5 14.5t-73 -14.5t-61 -42.5t-41.5 -67.5t-15.5 -88.5zM293 534h-31l90 135h54z" />
    <glyph glyph-name="ocircumflex" unicode="&#xf4;" horiz-adv-x="556" 
d="M283 644l-105 -110h-34l113 135h52l113 -135h-34zM278 -12q-47 0 -89.5 17.5t-74 50t-50 78.5t-18.5 103t18 103t49.5 78.5t74 50t90.5 17.5q47 0 89.5 -17.5t74 -50t50 -78.5t18.5 -103t-18.5 -103t-50 -78.5t-73.5 -50t-90 -17.5zM87 237q0 -50 15.5 -89t41.5 -67
t61 -42.5t73 -14.5t72.5 14.5t61 42.5t42 67t15.5 89q0 49 -15.5 88.5t-42 67.5t-61 42.5t-72.5 14.5t-73 -14.5t-61 -42.5t-41.5 -67.5t-15.5 -88.5z" />
    <glyph glyph-name="otilde" unicode="&#xf5;" horiz-adv-x="556" 
d="M135 553v10q0 41 22.5 64t55.5 23q22 0 37.5 -8t31.5 -21l19 -16q13 -10 24 -15.5t25 -5.5q46 0 46 64h33v-8q0 -43 -23 -66.5t-55 -23.5q-19 0 -34 6.5t-28 17.5l-22 18q-13 11 -24.5 17.5t-28.5 6.5q-23 0 -34.5 -16.5t-11.5 -46.5h-33zM278 -12q-47 0 -89.5 17.5
t-74 50t-50 78.5t-18.5 103t18 103t49.5 78.5t74 50t90.5 17.5q47 0 89.5 -17.5t74 -50t50 -78.5t18.5 -103t-18.5 -103t-50 -78.5t-73.5 -50t-90 -17.5zM87 237q0 -50 15.5 -89t41.5 -67t61 -42.5t73 -14.5t72.5 14.5t61 42.5t42 67t15.5 89q0 49 -15.5 88.5t-42 67.5
t-61 42.5t-72.5 14.5t-73 -14.5t-61 -42.5t-41.5 -67.5t-15.5 -88.5z" />
    <glyph glyph-name="odieresis" unicode="&#xf6;" horiz-adv-x="556" 
d="M165 604q0 14 9.5 23.5t23.5 9.5t23.5 -9.5t9.5 -23.5t-9.5 -23.5t-23.5 -9.5t-23.5 9.5t-9.5 23.5zM335 604q0 14 9.5 23.5t23.5 9.5t23.5 -9.5t9.5 -23.5t-9.5 -23.5t-23.5 -9.5t-23.5 9.5t-9.5 23.5zM278 -12q-47 0 -89.5 17.5t-74 50t-50 78.5t-18.5 103t18 103
t49.5 78.5t74 50t90.5 17.5q47 0 89.5 -17.5t74 -50t50 -78.5t18.5 -103t-18.5 -103t-50 -78.5t-73.5 -50t-90 -17.5zM87 237q0 -50 15.5 -89t41.5 -67t61 -42.5t73 -14.5t72.5 14.5t61 42.5t42 67t15.5 89q0 49 -15.5 88.5t-42 67.5t-61 42.5t-72.5 14.5t-73 -14.5
t-61 -42.5t-41.5 -67.5t-15.5 -88.5z" />
    <glyph glyph-name="divide" unicode="&#xf7;" horiz-adv-x="562" 
d="M242 169q0 16 11.5 27t26.5 11q16 0 27 -11t11 -27q0 -15 -11 -26t-27 -11q-15 0 -26.5 11t-11.5 26zM65 330v36h432v-36h-432zM242 525q0 16 11.5 27t26.5 11q16 0 27 -11t11 -27q0 -15 -11 -26.5t-27 -11.5q-15 0 -26.5 11.5t-11.5 26.5z" />
    <glyph glyph-name="oslash" unicode="&#xf8;" horiz-adv-x="556" 
d="M63 -17l54 70q-33 32 -52 79t-19 105q0 57 18 103t49.5 78.5t74 50t90.5 17.5q79 0 141 -48l57 73l26 -21l-58 -75q31 -32 48.5 -77t17.5 -101q0 -57 -18.5 -103t-50 -78.5t-73.5 -50t-90 -17.5q-77 0 -135 43l-54 -69zM87 237q0 -48 14.5 -87t39.5 -66l254 324
q-51 42 -117 42q-38 0 -73 -14.5t-61 -42.5t-41.5 -67.5t-15.5 -88.5zM469 237q0 46 -13.5 83t-36.5 64l-253 -323q49 -37 112 -37q38 0 72.5 14.5t61 42.5t42 67t15.5 89z" />
    <glyph glyph-name="ugrave" unicode="&#xf9;" horiz-adv-x="529" 
d="M159 669h53l90 -135h-30zM413 0q-1 7 -3 26t-2 47v11q-7 -17 -20 -34t-32 -30.5t-44.5 -22.5t-57.5 -9q-48 0 -81.5 16t-55 42.5t-31.5 60.5t-10 70v297h40v-291q0 -31 7.5 -59.5t24.5 -50.5t44 -35.5t66 -13.5q33 0 60.5 12.5t46.5 34.5t29.5 50.5t10.5 60.5v292h40
v-382q0 -26 2 -50.5t4 -41.5h-38z" />
    <glyph glyph-name="uacute" unicode="&#xfa;" horiz-adv-x="529" 
d="M413 0q-1 7 -3 26t-2 47v11q-7 -17 -20 -34t-32 -30.5t-44.5 -22.5t-57.5 -9q-48 0 -81.5 16t-55 42.5t-31.5 60.5t-10 70v297h40v-291q0 -31 7.5 -59.5t24.5 -50.5t44 -35.5t66 -13.5q33 0 60.5 12.5t46.5 34.5t29.5 50.5t10.5 60.5v292h40v-382q0 -26 2 -50.5t4 -41.5
h-38zM267 534h-31l90 135h54z" />
    <glyph glyph-name="ucircumflex" unicode="&#xfb;" horiz-adv-x="529" 
d="M266 644l-105 -110h-34l113 135h52l113 -135h-34zM413 0q-1 7 -3 26t-2 47v11q-7 -17 -20 -34t-32 -30.5t-44.5 -22.5t-57.5 -9q-48 0 -81.5 16t-55 42.5t-31.5 60.5t-10 70v297h40v-291q0 -31 7.5 -59.5t24.5 -50.5t44 -35.5t66 -13.5q33 0 60.5 12.5t46.5 34.5
t29.5 50.5t10.5 60.5v292h40v-382q0 -26 2 -50.5t4 -41.5h-38z" />
    <glyph glyph-name="udieresis" unicode="&#xfc;" horiz-adv-x="529" 
d="M146 604q0 14 9.5 23.5t23.5 9.5t23.5 -9.5t9.5 -23.5t-9.5 -23.5t-23.5 -9.5t-23.5 9.5t-9.5 23.5zM316 604q0 14 9.5 23.5t23.5 9.5t23.5 -9.5t9.5 -23.5t-9.5 -23.5t-23.5 -9.5t-23.5 9.5t-9.5 23.5zM413 0q-1 7 -3 26t-2 47v11q-7 -17 -20 -34t-32 -30.5t-44.5 -22.5
t-57.5 -9q-48 0 -81.5 16t-55 42.5t-31.5 60.5t-10 70v297h40v-291q0 -31 7.5 -59.5t24.5 -50.5t44 -35.5t66 -13.5q33 0 60.5 12.5t46.5 34.5t29.5 50.5t10.5 60.5v292h40v-382q0 -26 2 -50.5t4 -41.5h-38z" />
    <glyph glyph-name="yacute" unicode="&#xfd;" horiz-adv-x="468" 
d="M229 534h-31l90 135h54zM98 -190l120 257l-203 407h45l180 -365l165 365h43l-306 -664h-44z" />
    <glyph glyph-name="thorn" unicode="&#xfe;" horiz-adv-x="565" 
d="M86 -190v911h40v-353q8 19 22.5 39.5t36 38t52 29t69.5 11.5q49 0 88.5 -19t67 -52t42.5 -78.5t15 -98.5t-15 -99t-43 -79.5t-67.5 -52.5t-88.5 -19q-38 0 -68 11t-51.5 28t-36.5 37.5t-23 39.5v-294h-40zM479 238q0 45 -13 84t-36 67.5t-56.5 44.5t-73.5 16t-72 -16.5
t-55 -45t-35.5 -67t-12.5 -83.5t12.5 -84.5t35.5 -68t55 -45t72 -16.5t73.5 16.5t56.5 45.5t36 68t13 84z" />
    <glyph glyph-name="ydieresis" unicode="&#xff;" horiz-adv-x="468" 
d="M119 604q0 14 9.5 23.5t23.5 9.5t23.5 -9.5t9.5 -23.5t-9.5 -23.5t-23.5 -9.5t-23.5 9.5t-9.5 23.5zM289 604q0 14 9.5 23.5t23.5 9.5t23.5 -9.5t9.5 -23.5t-9.5 -23.5t-23.5 -9.5t-23.5 9.5t-9.5 23.5zM98 -190l120 257l-203 407h45l180 -365l165 365h43l-306 -664h-44z
" />
    <glyph glyph-name="Amacron" unicode="&#x100;" horiz-adv-x="660" 
d="M204 837h259v-36h-259v36zM176 285h307l-154 381zM499 246h-339l-99 -246h-46l290 709h49l291 -709h-46z" />
    <glyph glyph-name="amacron" unicode="&#x101;" horiz-adv-x="495" 
d="M135 619h242v-35h-242v35zM208 -11q-38 0 -66.5 11.5t-48 30t-29.5 42t-10 47.5q0 59 37 92.5t105 44.5l125 19q33 5 45.5 20t12.5 34q0 54 -34.5 87.5t-94.5 33.5q-62 0 -101.5 -31.5t-46.5 -89.5l-38 9q8 69 59 108t126 39q42 0 74 -12.5t53 -34t32 -50.5t11 -62v-243
q0 -27 2 -46t5 -38h-39q-2 8 -4 34t-2 58q-9 -20 -25 -38.5t-37.5 -32.5t-49.5 -23t-61 -9zM212 24q37 0 68 13t53 35.5t34 52.5t12 64v77q-5 -8 -18 -13.5t-38 -9.5l-125 -19q-48 -8 -75.5 -33.5t-27.5 -68.5q0 -18 7.5 -36t22 -31.5t36.5 -22t51 -8.5z" />
    <glyph glyph-name="Abreve" unicode="&#x102;" horiz-adv-x="660" 
d="M333 754q-32 0 -56 10.5t-41.5 28t-27 39.5t-11.5 46h33q2 -17 9 -33.5t20 -29.5t31.5 -20.5t42.5 -7.5t42.5 7.5t31.5 20.5t20 29.5t9 33.5h33q-2 -24 -11.5 -46t-27 -39.5t-42 -28t-55.5 -10.5zM176 285h307l-154 381zM499 246h-339l-99 -246h-46l290 709h49l291 -709
h-46z" />
    <glyph glyph-name="abreve" unicode="&#x103;" horiz-adv-x="495" 
d="M256 534q-33 0 -58.5 12t-43 31t-26 43t-8.5 49h32q0 -19 6.5 -37t19.5 -32.5t32.5 -23.5t45.5 -9t45.5 9t32.5 23.5t19.5 32.5t6.5 37h32q0 -25 -8.5 -49t-26 -43t-43 -31t-58.5 -12zM208 -11q-38 0 -66.5 11.5t-48 30t-29.5 42t-10 47.5q0 59 37 92.5t105 44.5l125 19
q33 5 45.5 20t12.5 34q0 54 -34.5 87.5t-94.5 33.5q-62 0 -101.5 -31.5t-46.5 -89.5l-38 9q8 69 59 108t126 39q42 0 74 -12.5t53 -34t32 -50.5t11 -62v-243q0 -27 2 -46t5 -38h-39q-2 8 -4 34t-2 58q-9 -20 -25 -38.5t-37.5 -32.5t-49.5 -23t-61 -9zM212 24q37 0 68 13
t53 35.5t34 52.5t12 64v77q-5 -8 -18 -13.5t-38 -9.5l-125 -19q-48 -8 -75.5 -33.5t-27.5 -68.5q0 -18 7.5 -36t22 -31.5t36.5 -22t51 -8.5z" />
    <glyph glyph-name="Aogonek" unicode="&#x104;" horiz-adv-x="660" 
d="M176 285h307l-154 381zM668 -199q-9 -3 -19 -5t-23 -2q-41 0 -69 23t-28 65q0 40 23 69t52 49h-5l-100 246h-339l-99 -246h-46l290 709h49l291 -709q-14 -8 -28 -19t-26 -25.5t-19.5 -31t-7.5 -35.5q0 -31 20 -47t48 -16q19 0 36 5v-30z" />
    <glyph glyph-name="aogonek" unicode="&#x105;" horiz-adv-x="495" 
d="M212 24q37 0 68 13t53 35.5t34 52.5t12 64v77q-5 -8 -18 -13.5t-38 -9.5l-125 -19q-48 -8 -75.5 -33.5t-27.5 -68.5q0 -18 7.5 -36t22 -31.5t36.5 -22t51 -8.5zM449 -199q-9 -3 -19 -5t-23 -2q-41 0 -69 23t-28 65q0 38 22.5 67.5t54.5 51.5q-2 9 -4 35t-2 56
q-9 -20 -25 -38.5t-37.5 -32.5t-49.5 -23t-61 -9q-38 0 -66.5 11.5t-48 30t-29.5 42t-10 47.5q0 59 37 92.5t105 44.5l125 19q33 5 45.5 20t12.5 34q0 54 -34.5 87.5t-94.5 33.5q-62 0 -101.5 -31.5t-46.5 -89.5l-38 9q8 69 59 108t126 39q42 0 74 -12.5t53 -34t32 -50.5
t11 -62v-243q0 -27 2 -46t5 -38q-14 -8 -28 -19t-26 -25.5t-19.5 -31t-7.5 -35.5q0 -31 20 -47t48 -16q19 0 36 5v-30z" />
    <glyph glyph-name="Cacute" unicode="&#x106;" horiz-adv-x="737" 
d="M408 759h-36l110 119h57zM390 682q-57 0 -111.5 -21.5t-96.5 -63t-67.5 -102.5t-25.5 -141t25.5 -141t67.5 -102.5t96.5 -62.5t111.5 -21q52 0 97 15t79.5 42t58 64.5t34.5 82.5l37 -13q-12 -50 -39 -92t-66.5 -73t-90 -48t-110.5 -17q-65 0 -126.5 24t-110 70.5
t-78 114.5t-29.5 157t29.5 157.5t78 115t110 70.5t126.5 24q59 0 109 -16.5t89 -46.5t65.5 -71.5t38.5 -91.5l-38 -14q-11 46 -34 83t-57.5 63t-78 40.5t-94.5 14.5z" />
    <glyph glyph-name="cacute" unicode="&#x107;" horiz-adv-x="518" 
d="M286 534h-31l90 135h54zM275 450q-40 0 -74 -15.5t-59.5 -43t-40 -67t-14.5 -87.5t14.5 -87.5t40 -67.5t59.5 -43t74 -15q35 0 63 11t49 29t34.5 41t21.5 46l34 -15q-9 -29 -26 -55.5t-42.5 -47t-59 -33t-74.5 -12.5q-50 0 -91.5 18.5t-72.5 51.5t-48 78.5t-17 100.5
q0 54 17.5 100t48 79t72.5 51.5t91 18.5q80 0 131 -42t68 -105l-35 -15q-6 23 -19 45.5t-33 40.5t-47.5 29t-64.5 11z" />
    <glyph glyph-name="Ccircumflex" unicode="&#x108;" horiz-adv-x="737" 
d="M399 854l-106 -95h-40l116 119h60l116 -119h-40zM390 682q-57 0 -111.5 -21.5t-96.5 -63t-67.5 -102.5t-25.5 -141t25.5 -141t67.5 -102.5t96.5 -62.5t111.5 -21q52 0 97 15t79.5 42t58 64.5t34.5 82.5l37 -13q-12 -50 -39 -92t-66.5 -73t-90 -48t-110.5 -17
q-65 0 -126.5 24t-110 70.5t-78 114.5t-29.5 157t29.5 157.5t78 115t110 70.5t126.5 24q59 0 109 -16.5t89 -46.5t65.5 -71.5t38.5 -91.5l-38 -14q-11 46 -34 83t-57.5 63t-78 40.5t-94.5 14.5z" />
    <glyph glyph-name="ccircumflex" unicode="&#x109;" horiz-adv-x="518" 
d="M279 644l-105 -110h-34l113 135h52l113 -135h-34zM275 450q-40 0 -74 -15.5t-59.5 -43t-40 -67t-14.5 -87.5t14.5 -87.5t40 -67.5t59.5 -43t74 -15q35 0 63 11t49 29t34.5 41t21.5 46l34 -15q-9 -29 -26 -55.5t-42.5 -47t-59 -33t-74.5 -12.5q-50 0 -91.5 18.5
t-72.5 51.5t-48 78.5t-17 100.5q0 54 17.5 100t48 79t72.5 51.5t91 18.5q80 0 131 -42t68 -105l-35 -15q-6 23 -19 45.5t-33 40.5t-47.5 29t-64.5 11z" />
    <glyph glyph-name="Cdotaccent" unicode="&#x10a;" horiz-adv-x="737" 
d="M361 819q0 16 11 27t27 11t27 -11t11 -27t-11 -27t-27 -11t-27 11t-11 27zM390 682q-57 0 -111.5 -21.5t-96.5 -63t-67.5 -102.5t-25.5 -141t25.5 -141t67.5 -102.5t96.5 -62.5t111.5 -21q52 0 97 15t79.5 42t58 64.5t34.5 82.5l37 -13q-12 -50 -39 -92t-66.5 -73
t-90 -48t-110.5 -17q-65 0 -126.5 24t-110 70.5t-78 114.5t-29.5 157t29.5 157.5t78 115t110 70.5t126.5 24q59 0 109 -16.5t89 -46.5t65.5 -71.5t38.5 -91.5l-38 -14q-11 46 -34 83t-57.5 63t-78 40.5t-94.5 14.5z" />
    <glyph glyph-name="cdotaccent" unicode="&#x10b;" horiz-adv-x="518" 
d="M242 602q0 16 11 27t27 11t27 -11t11 -27t-11 -27t-27 -11t-27 11t-11 27zM275 450q-40 0 -74 -15.5t-59.5 -43t-40 -67t-14.5 -87.5t14.5 -87.5t40 -67.5t59.5 -43t74 -15q35 0 63 11t49 29t34.5 41t21.5 46l34 -15q-9 -29 -26 -55.5t-42.5 -47t-59 -33t-74.5 -12.5
q-50 0 -91.5 18.5t-72.5 51.5t-48 78.5t-17 100.5q0 54 17.5 100t48 79t72.5 51.5t91 18.5q80 0 131 -42t68 -105l-35 -15q-6 23 -19 45.5t-33 40.5t-47.5 29t-64.5 11z" />
    <glyph glyph-name="Ccaron" unicode="&#x10c;" horiz-adv-x="737" 
d="M251 878h40l106 -95l106 95h40l-116 -119h-60zM390 682q-57 0 -111.5 -21.5t-96.5 -63t-67.5 -102.5t-25.5 -141t25.5 -141t67.5 -102.5t96.5 -62.5t111.5 -21q52 0 97 15t79.5 42t58 64.5t34.5 82.5l37 -13q-12 -50 -39 -92t-66.5 -73t-90 -48t-110.5 -17
q-65 0 -126.5 24t-110 70.5t-78 114.5t-29.5 157t29.5 157.5t78 115t110 70.5t126.5 24q59 0 109 -16.5t89 -46.5t65.5 -71.5t38.5 -91.5l-38 -14q-11 46 -34 83t-57.5 63t-78 40.5t-94.5 14.5z" />
    <glyph glyph-name="ccaron" unicode="&#x10d;" horiz-adv-x="518" 
d="M135 669h36l103 -110l103 110h36l-113 -135h-52zM275 450q-40 0 -74 -15.5t-59.5 -43t-40 -67t-14.5 -87.5t14.5 -87.5t40 -67.5t59.5 -43t74 -15q35 0 63 11t49 29t34.5 41t21.5 46l34 -15q-9 -29 -26 -55.5t-42.5 -47t-59 -33t-74.5 -12.5q-50 0 -91.5 18.5t-72.5 51.5
t-48 78.5t-17 100.5q0 54 17.5 100t48 79t72.5 51.5t91 18.5q80 0 131 -42t68 -105l-35 -15q-6 23 -19 45.5t-33 40.5t-47.5 29t-64.5 11z" />
    <glyph glyph-name="Dcaron" unicode="&#x10e;" horiz-adv-x="684" 
d="M195 878h40l106 -95l106 95h40l-116 -119h-60zM298 38q59 0 112.5 20t94.5 59.5t65.5 98.5t24.5 137q0 79 -24 138.5t-64.5 99.5t-94 60t-112.5 20h-161v-633h159zM96 0v709h205q67 0 128.5 -23t107.5 -68t73.5 -111.5t27.5 -153.5t-27.5 -153t-74.5 -110.5t-108.5 -67
t-128.5 -22.5h-203z" />
    <glyph glyph-name="dcaron" unicode="&#x10f;" horiz-adv-x="565" 
d="M569 541h-32l41 180h45zM440 107q-8 -19 -22 -40t-35.5 -38.5t-51.5 -29t-69 -11.5q-49 0 -88.5 19t-68 52.5t-44 79.5t-15.5 99t15.5 98.5t43.5 78.5t68 52t88 19q42 0 73 -12t52 -29.5t33.5 -37.5t19.5 -36v350h40v-629q0 -40 2.5 -65t2.5 -27h-39q-2 9 -3.5 31
t-1.5 50v26zM440 238q0 45 -12.5 83.5t-35.5 67t-55 45t-72 16.5q-41 0 -74 -16t-56 -44t-36 -67t-13 -85q0 -45 13 -84t36 -68t56 -45.5t74 -16.5q40 0 72 16.5t55 45t35.5 68t12.5 84.5z" />
    <glyph glyph-name="Dcroat" unicode="&#x110;" horiz-adv-x="684" 
d="M96 0v348h-79v36h79v325h205q67 0 128.5 -23t107.5 -68t73.5 -111.5t27.5 -153.5t-27.5 -153t-74.5 -110.5t-108.5 -67t-128.5 -22.5h-203zM298 38q59 0 112.5 20t94.5 59.5t65.5 98.5t24.5 137q0 79 -24 138.5t-64.5 99.5t-94 60t-112.5 20h-161v-287h154v-36h-154v-310
h159z" />
    <glyph glyph-name="dcroat" unicode="&#x111;" horiz-adv-x="565" 
d="M440 107q-8 -19 -22 -40t-35.5 -38.5t-51.5 -29t-69 -11.5q-49 0 -88.5 19t-68 52.5t-44 79.5t-15.5 99t15.5 98.5t43.5 78.5t68 52t88 19q42 0 73 -12t52 -29.5t33.5 -37.5t19.5 -36v205h-132v34h132v111h40v-111h104v-34h-104v-484q0 -40 2.5 -65t2.5 -27h-39
q-2 9 -3.5 31t-1.5 50v26zM440 238q0 45 -12.5 83.5t-35.5 67t-55 45t-72 16.5q-41 0 -74 -16t-56 -44t-36 -67t-13 -85q0 -45 13 -84t36 -68t56 -45.5t74 -16.5q40 0 72 16.5t55 45t35.5 68t12.5 84.5z" />
    <glyph glyph-name="Emacron" unicode="&#x112;" horiz-adv-x="562" 
d="M173 837h259v-36h-259v36zM96 0v709h410v-39h-368v-295h337v-39h-337v-297h368v-39h-410z" />
    <glyph glyph-name="emacron" unicode="&#x113;" horiz-adv-x="526" 
d="M153 619h242v-35h-242v35zM87 234v-6q0 -47 14.5 -84.5t40 -64t59.5 -41t72 -14.5q33 0 60.5 10t49 27.5t36.5 40t24 47.5l35 -12q-10 -31 -28.5 -58t-45 -47.5t-59.5 -32t-72 -11.5q-47 0 -88.5 17t-72 49.5t-48.5 79t-18 105.5q0 55 17 101t46.5 78t68.5 50t84 18
q51 0 91.5 -17.5t68 -48.5t42.5 -74t15 -94v-8q0 -2 -1 -10h-391zM437 269q0 38 -12 71t-34.5 57.5t-54.5 38.5t-73 14q-36 0 -66.5 -13.5t-53.5 -38t-37 -57.5t-17 -72h348z" />
    <glyph glyph-name="Ebreve" unicode="&#x114;" horiz-adv-x="562" 
d="M304 754q-32 0 -56 10.5t-41.5 28t-27 39.5t-11.5 46h33q2 -17 9 -33.5t20 -29.5t31.5 -20.5t42.5 -7.5t42.5 7.5t31.5 20.5t20 29.5t9 33.5h33q-2 -24 -11.5 -46t-27 -39.5t-42 -28t-55.5 -10.5zM96 0v709h410v-39h-368v-295h337v-39h-337v-297h368v-39h-410z" />
    <glyph glyph-name="ebreve" unicode="&#x115;" horiz-adv-x="526" 
d="M274 534q-33 0 -58.5 12t-43 31t-26 43t-8.5 49h32q0 -19 6.5 -37t19.5 -32.5t32.5 -23.5t45.5 -9t45.5 9t32.5 23.5t19.5 32.5t6.5 37h32q0 -25 -8.5 -49t-26 -43t-43 -31t-58.5 -12zM87 234v-6q0 -47 14.5 -84.5t40 -64t59.5 -41t72 -14.5q33 0 60.5 10t49 27.5
t36.5 40t24 47.5l35 -12q-10 -31 -28.5 -58t-45 -47.5t-59.5 -32t-72 -11.5q-47 0 -88.5 17t-72 49.5t-48.5 79t-18 105.5q0 55 17 101t46.5 78t68.5 50t84 18q51 0 91.5 -17.5t68 -48.5t42.5 -74t15 -94v-8q0 -2 -1 -10h-391zM437 269q0 38 -12 71t-34.5 57.5t-54.5 38.5
t-73 14q-36 0 -66.5 -13.5t-53.5 -38t-37 -57.5t-17 -72h348z" />
    <glyph glyph-name="Edotaccent" unicode="&#x116;" horiz-adv-x="562" 
d="M268 819q0 16 11 27t27 11t27 -11t11 -27t-11 -27t-27 -11t-27 11t-11 27zM96 0v709h410v-39h-368v-295h337v-39h-337v-297h368v-39h-410z" />
    <glyph glyph-name="edotaccent" unicode="&#x117;" horiz-adv-x="526" 
d="M237 602q0 16 11 27t27 11t27 -11t11 -27t-11 -27t-27 -11t-27 11t-11 27zM87 234v-6q0 -47 14.5 -84.5t40 -64t59.5 -41t72 -14.5q33 0 60.5 10t49 27.5t36.5 40t24 47.5l35 -12q-10 -31 -28.5 -58t-45 -47.5t-59.5 -32t-72 -11.5q-47 0 -88.5 17t-72 49.5t-48.5 79
t-18 105.5q0 55 17 101t46.5 78t68.5 50t84 18q51 0 91.5 -17.5t68 -48.5t42.5 -74t15 -94v-8q0 -2 -1 -10h-391zM437 269q0 38 -12 71t-34.5 57.5t-54.5 38.5t-73 14q-36 0 -66.5 -13.5t-53.5 -38t-37 -57.5t-17 -72h348z" />
    <glyph glyph-name="Eogonek" unicode="&#x118;" horiz-adv-x="562" 
d="M529 -199q-9 -3 -19 -5t-23 -2q-41 0 -69 23t-28 65q0 40 23 69t52 49h-369v709h410v-39h-368v-295h337v-39h-337v-297h368v-39q-14 -8 -28 -19t-26 -25.5t-19.5 -31t-7.5 -35.5q0 -31 20 -47t48 -16q19 0 36 5v-30z" />
    <glyph glyph-name="eogonek" unicode="&#x119;" horiz-adv-x="526" 
d="M478 137q-14 -41 -34.5 -66t-40 -40t-35.5 -21.5t-22 -9.5q-13 -7 -27.5 -18.5t-26.5 -25.5t-19.5 -31t-7.5 -36q0 -31 20 -47t48 -16q19 0 36 5v-30q-9 -3 -19 -5t-23 -2q-41 0 -69 23t-28 65q0 35 17.5 61t41.5 46q-4 -1 -8 -1h-8q-47 0 -88.5 17t-72 49.5t-48.5 79
t-18 105.5q0 55 17 101t46.5 78t68.5 50t84 18q51 0 91.5 -17.5t68 -48.5t42.5 -74t15 -94v-8q0 -2 -1 -10h-391v-6q0 -47 14.5 -84.5t40 -64t59.5 -41t72 -14.5q33 0 60.5 10t49 27.5t36.5 40t24 47.5zM437 269q0 38 -12 71t-34.5 57.5t-54.5 38.5t-73 14
q-36 0 -66.5 -13.5t-53.5 -38t-37 -57.5t-17 -72h348z" />
    <glyph glyph-name="Ecaron" unicode="&#x11a;" horiz-adv-x="562" 
d="M163 878h40l106 -95l106 95h40l-116 -119h-60zM96 0v709h410v-39h-368v-295h337v-39h-337v-297h368v-39h-410z" />
    <glyph glyph-name="ecaron" unicode="&#x11b;" horiz-adv-x="526" 
d="M135 669h36l103 -110l103 110h36l-113 -135h-52zM87 234v-6q0 -47 14.5 -84.5t40 -64t59.5 -41t72 -14.5q33 0 60.5 10t49 27.5t36.5 40t24 47.5l35 -12q-10 -31 -28.5 -58t-45 -47.5t-59.5 -32t-72 -11.5q-47 0 -88.5 17t-72 49.5t-48.5 79t-18 105.5q0 55 17 101
t46.5 78t68.5 50t84 18q51 0 91.5 -17.5t68 -48.5t42.5 -74t15 -94v-8q0 -2 -1 -10h-391zM437 269q0 38 -12 71t-34.5 57.5t-54.5 38.5t-73 14q-36 0 -66.5 -13.5t-53.5 -38t-37 -57.5t-17 -72h348z" />
    <glyph glyph-name="Gcircumflex" unicode="&#x11c;" horiz-adv-x="760" 
d="M392 854l-106 -95h-40l116 119h60l116 -119h-40zM654 0l-5 159q-9 -24 -28.5 -53.5t-52.5 -56t-80.5 -44t-112.5 -17.5q-60 0 -119 23.5t-105.5 70t-75.5 115t-29 158.5q0 89 28.5 157t76 114.5t108.5 70.5t126 24q56 0 105 -15.5t88 -43.5t67.5 -67t43.5 -86l-38 -16
q-28 86 -97 137.5t-169 51.5q-57 0 -110 -21t-94.5 -62.5t-66 -102.5t-24.5 -141t25.5 -141.5t66 -103t91.5 -62.5t103 -21q76 0 127.5 26t83 65t45.5 84t14 83h-272v39h313v-324h-33z" />
    <glyph glyph-name="gcircumflex" unicode="&#x11d;" horiz-adv-x="541" 
d="M268 644l-105 -110h-34l113 135h52l113 -135h-34zM87 -15q3 -32 16.5 -59.5t35 -47.5t50.5 -32t64 -12q54 0 87.5 18t51.5 46.5t24.5 64t6.5 71.5v99q-8 -19 -21.5 -38t-34.5 -34t-49 -24t-64 -9q-46 0 -84.5 17.5t-66 48t-42.5 72.5t-15 91t15 90.5t42.5 72.5t66 48.5
t84.5 17.5q37 0 65.5 -9.5t49.5 -24.5t34.5 -34.5t20.5 -38.5v95h39v-439q0 -39 -8 -81t-30.5 -76.5t-63.5 -57t-108 -22.5q-43 0 -78.5 13.5t-62 37.5t-43.5 56.5t-21 69.5zM87 257q0 -41 12.5 -76.5t35 -61.5t54 -40.5t70.5 -14.5q38 0 69 15t52.5 41t33.5 61t12 76
q0 40 -12 75.5t-33.5 61.5t-52.5 41t-69 15q-39 0 -70.5 -14.5t-54 -40.5t-35 -61.5t-12.5 -76.5z" />
    <glyph glyph-name="Gbreve" unicode="&#x11e;" horiz-adv-x="760" 
d="M384 754q-32 0 -56 10.5t-41.5 28t-27 39.5t-11.5 46h33q2 -17 9 -33.5t20 -29.5t31.5 -20.5t42.5 -7.5t42.5 7.5t31.5 20.5t20 29.5t9 33.5h33q-2 -24 -11.5 -46t-27 -39.5t-42 -28t-55.5 -10.5zM654 0l-5 159q-9 -24 -28.5 -53.5t-52.5 -56t-80.5 -44t-112.5 -17.5
q-60 0 -119 23.5t-105.5 70t-75.5 115t-29 158.5q0 89 28.5 157t76 114.5t108.5 70.5t126 24q56 0 105 -15.5t88 -43.5t67.5 -67t43.5 -86l-38 -16q-28 86 -97 137.5t-169 51.5q-57 0 -110 -21t-94.5 -62.5t-66 -102.5t-24.5 -141t25.5 -141.5t66 -103t91.5 -62.5t103 -21
q76 0 127.5 26t83 65t45.5 84t14 83h-272v39h313v-324h-33z" />
    <glyph glyph-name="gbreve" unicode="&#x11f;" horiz-adv-x="541" 
d="M264 534q-33 0 -58.5 12t-43 31t-26 43t-8.5 49h32q0 -19 6.5 -37t19.5 -32.5t32.5 -23.5t45.5 -9t45.5 9t32.5 23.5t19.5 32.5t6.5 37h32q0 -25 -8.5 -49t-26 -43t-43 -31t-58.5 -12zM87 -15q3 -32 16.5 -59.5t35 -47.5t50.5 -32t64 -12q54 0 87.5 18t51.5 46.5t24.5 64
t6.5 71.5v99q-8 -19 -21.5 -38t-34.5 -34t-49 -24t-64 -9q-46 0 -84.5 17.5t-66 48t-42.5 72.5t-15 91t15 90.5t42.5 72.5t66 48.5t84.5 17.5q37 0 65.5 -9.5t49.5 -24.5t34.5 -34.5t20.5 -38.5v95h39v-439q0 -39 -8 -81t-30.5 -76.5t-63.5 -57t-108 -22.5q-43 0 -78.5 13.5
t-62 37.5t-43.5 56.5t-21 69.5zM87 257q0 -41 12.5 -76.5t35 -61.5t54 -40.5t70.5 -14.5q38 0 69 15t52.5 41t33.5 61t12 76q0 40 -12 75.5t-33.5 61.5t-52.5 41t-69 15q-39 0 -70.5 -14.5t-54 -40.5t-35 -61.5t-12.5 -76.5z" />
    <glyph glyph-name="Gdotaccent" unicode="&#x120;" horiz-adv-x="760" 
d="M354 819q0 16 11 27t27 11t27 -11t11 -27t-11 -27t-27 -11t-27 11t-11 27zM654 0l-5 159q-9 -24 -28.5 -53.5t-52.5 -56t-80.5 -44t-112.5 -17.5q-60 0 -119 23.5t-105.5 70t-75.5 115t-29 158.5q0 89 28.5 157t76 114.5t108.5 70.5t126 24q56 0 105 -15.5t88 -43.5
t67.5 -67t43.5 -86l-38 -16q-28 86 -97 137.5t-169 51.5q-57 0 -110 -21t-94.5 -62.5t-66 -102.5t-24.5 -141t25.5 -141.5t66 -103t91.5 -62.5t103 -21q76 0 127.5 26t83 65t45.5 84t14 83h-272v39h313v-324h-33z" />
    <glyph glyph-name="gdotaccent" unicode="&#x121;" horiz-adv-x="541" 
d="M228 602q0 16 11 27t27 11t27 -11t11 -27t-11 -27t-27 -11t-27 11t-11 27zM87 -15q3 -32 16.5 -59.5t35 -47.5t50.5 -32t64 -12q54 0 87.5 18t51.5 46.5t24.5 64t6.5 71.5v99q-8 -19 -21.5 -38t-34.5 -34t-49 -24t-64 -9q-46 0 -84.5 17.5t-66 48t-42.5 72.5t-15 91
t15 90.5t42.5 72.5t66 48.5t84.5 17.5q37 0 65.5 -9.5t49.5 -24.5t34.5 -34.5t20.5 -38.5v95h39v-439q0 -39 -8 -81t-30.5 -76.5t-63.5 -57t-108 -22.5q-43 0 -78.5 13.5t-62 37.5t-43.5 56.5t-21 69.5zM87 257q0 -41 12.5 -76.5t35 -61.5t54 -40.5t70.5 -14.5q38 0 69 15
t52.5 41t33.5 61t12 76q0 40 -12 75.5t-33.5 61.5t-52.5 41t-69 15q-39 0 -70.5 -14.5t-54 -40.5t-35 -61.5t-12.5 -76.5z" />
    <glyph glyph-name="Gcommaaccent" unicode="&#x122;" horiz-adv-x="760" 
d="M362 -82q0 17 11 26.5t27 9.5q15 0 28.5 -12.5t13.5 -38.5q0 -48 -26.5 -74.5t-62.5 -30.5v25q25 4 42.5 21t18.5 43q-6 -6 -17 -6q-16 0 -25.5 10.5t-9.5 26.5zM654 0l-5 159q-9 -24 -28.5 -53.5t-52.5 -56t-80.5 -44t-112.5 -17.5q-60 0 -119 23.5t-105.5 70t-75.5 115
t-29 158.5q0 89 28.5 157t76 114.5t108.5 70.5t126 24q56 0 105 -15.5t88 -43.5t67.5 -67t43.5 -86l-38 -16q-28 86 -97 137.5t-169 51.5q-57 0 -110 -21t-94.5 -62.5t-66 -102.5t-24.5 -141t25.5 -141.5t66 -103t91.5 -62.5t103 -21q76 0 127.5 26t83 65t45.5 84t14 83
h-272v39h313v-324h-33z" />
    <glyph glyph-name="gcommaaccent" unicode="&#x123;" horiz-adv-x="541" 
d="M304 565q0 -17 -11 -26.5t-27 -9.5q-15 0 -28.5 12.5t-13.5 38.5q0 48 26.5 74.5t62.5 30.5v-25q-25 -4 -42.5 -21t-18.5 -43q6 6 17 6q16 0 25.5 -10.5t9.5 -26.5zM87 -15q3 -32 16.5 -59.5t35 -47.5t50.5 -32t64 -12q54 0 87.5 18t51.5 46.5t24.5 64t6.5 71.5v99
q-8 -19 -21.5 -38t-34.5 -34t-49 -24t-64 -9q-46 0 -84.5 17.5t-66 48t-42.5 72.5t-15 91t15 90.5t42.5 72.5t66 48.5t84.5 17.5q37 0 65.5 -9.5t49.5 -24.5t34.5 -34.5t20.5 -38.5v95h39v-439q0 -39 -8 -81t-30.5 -76.5t-63.5 -57t-108 -22.5q-43 0 -78.5 13.5t-62 37.5
t-43.5 56.5t-21 69.5zM87 257q0 -41 12.5 -76.5t35 -61.5t54 -40.5t70.5 -14.5q38 0 69 15t52.5 41t33.5 61t12 76q0 40 -12 75.5t-33.5 61.5t-52.5 41t-69 15q-39 0 -70.5 -14.5t-54 -40.5t-35 -61.5t-12.5 -76.5z" />
    <glyph glyph-name="Hcircumflex" unicode="&#x124;" horiz-adv-x="709" 
d="M356 854l-106 -95h-40l116 119h60l116 -119h-40zM570 0v341h-431v-341h-43v709h43v-329h431v329h43v-709h-43z" />
    <glyph glyph-name="hcircumflex" unicode="&#x125;" horiz-adv-x="527" 
d="M269 854l-106 -95h-40l116 119h60l116 -119h-40zM86 0v721h40v-333q7 18 21 35.5t33.5 31.5t45 22.5t57.5 8.5q42 0 73.5 -13.5t52.5 -37t31.5 -55t10.5 -66.5v-314h-40v308q0 30 -8.5 55.5t-26 45t-43.5 30.5t-61 11q-33 0 -59.5 -13.5t-46 -36t-30 -51.5t-10.5 -60
v-289h-40z" />
    <glyph glyph-name="Hbar" unicode="&#x126;" horiz-adv-x="709" 
d="M570 0v341h-431v-341h-43v533h-66v33h66v143h43v-143h431v143h43v-143h74v-33h-74v-533h-43zM570 380v153h-431v-153h431z" />
    <glyph glyph-name="hbar" unicode="&#x127;" horiz-adv-x="527" 
d="M86 0v578h-99v35h99v108h40v-108h136v-35h-136v-190q7 18 21 35.5t33.5 31.5t45 22.5t57.5 8.5q42 0 73.5 -13.5t52.5 -37t31.5 -55t10.5 -66.5v-314h-40v308q0 30 -8.5 55.5t-26 45t-43.5 30.5t-61 11q-33 0 -59.5 -13.5t-46 -36t-30 -51.5t-10.5 -60v-289h-40z" />
    <glyph glyph-name="Itilde" unicode="&#x128;" horiz-adv-x="235" 
d="M52 869q21 0 37.5 -8t32.5 -21l21 -17q13 -10 24 -15.5t26 -5.5q21 0 34 16.5t13 47.5h32v-8q0 -43 -23 -67t-55 -24q-20 0 -35.5 7t-29.5 18l-22 18q-15 12 -26.5 18t-28.5 6q-23 0 -34.5 -17t-11.5 -46h-32v10q0 41 22.5 64.5t55.5 23.5zM96 0v709h43v-709h-43z" />
    <glyph glyph-name="itilde" unicode="&#x129;" horiz-adv-x="212" 
d="M-35 553v10q0 41 22.5 64t55.5 23q22 0 37.5 -8t31.5 -21l19 -16q13 -10 24 -15.5t25 -5.5q46 0 46 64h33v-8q0 -43 -23 -66.5t-55 -23.5q-19 0 -34 6.5t-28 17.5l-22 18q-13 11 -24.5 17.5t-28.5 6.5q-23 0 -34.5 -16.5t-11.5 -46.5h-33zM86 0v474h40v-474h-40z" />
    <glyph glyph-name="Imacron" unicode="&#x12a;" horiz-adv-x="235" 
d="M-6 837h259v-36h-259v36zM96 0v709h43v-709h-43z" />
    <glyph glyph-name="imacron" unicode="&#x12b;" horiz-adv-x="212" 
d="M-9 619h242v-35h-242v35zM86 0v474h40v-474h-40z" />
    <glyph glyph-name="Ibreve" unicode="&#x12c;" horiz-adv-x="235" 
d="M123 754q-32 0 -56 10.5t-41.5 28t-27 39.5t-11.5 46h33q2 -17 9 -33.5t20 -29.5t31.5 -20.5t42.5 -7.5t42.5 7.5t31.5 20.5t20 29.5t9 33.5h33q-2 -24 -11.5 -46t-27 -39.5t-42 -28t-55.5 -10.5zM96 0v709h43v-709h-43z" />
    <glyph glyph-name="ibreve" unicode="&#x12d;" horiz-adv-x="212" 
d="M112 534q-33 0 -58.5 12t-43 31t-26 43t-8.5 49h32q0 -19 6.5 -37t19.5 -32.5t32.5 -23.5t45.5 -9t45.5 9t32.5 23.5t19.5 32.5t6.5 37h32q0 -25 -8.5 -49t-26 -43t-43 -31t-58.5 -12zM86 0v474h40v-474h-40z" />
    <glyph glyph-name="Iogonek" unicode="&#x12e;" horiz-adv-x="235" 
d="M162 -199q-9 -3 -19 -5t-23 -2q-41 0 -69 23t-28 65q0 35 19 63.5t54 54.5v709h43v-709q-14 -8 -28 -19t-26 -25.5t-19.5 -31t-7.5 -35.5q0 -31 20 -47t48 -16q19 0 36 5v-30z" />
    <glyph glyph-name="iogonek" unicode="&#x12f;" horiz-adv-x="212" 
d="M67 681q0 17 11 28.5t28 11.5q16 0 27.5 -11.5t11.5 -28.5q0 -16 -11.5 -27t-27.5 -11q-17 0 -28 11t-11 27zM149 -199q-9 -3 -19 -5t-23 -2q-41 0 -69 23t-28 65q0 41 23.5 70t52.5 49v473h40v-474q-14 -8 -28 -19t-26 -25.5t-19.5 -31t-7.5 -35.5q0 -31 20 -47t48 -16
q19 0 36 5v-30z" />
    <glyph glyph-name="Idotaccent" unicode="&#x130;" horiz-adv-x="235" 
d="M83 819q0 16 11 27t27 11t27 -11t11 -27t-11 -27t-27 -11t-27 11t-11 27zM96 0v709h43v-709h-43z" />
    <glyph glyph-name="dotlessi" unicode="&#x131;" horiz-adv-x="212" 
d="M86 0v474h40v-474h-40z" />
    <glyph glyph-name="IJ" unicode="&#x132;" horiz-adv-x="568" 
d="M86 300v409h43v-409h-43zM129 224v-13q0 -87 40.5 -135.5t115.5 -48.5q76 0 115 49t39 133v500h43v-502q0 -48 -13 -88t-38 -69.5t-62 -45.5t-84 -16q-94 0 -146.5 58t-52.5 160v10z" />
    <glyph glyph-name="ij" unicode="&#x133;" horiz-adv-x="448" 
d="M86 0v474h40v-474h-40zM67 681q0 17 11 28.5t28 11.5q16 0 27.5 -11.5t11.5 -28.5q0 -16 -11.5 -27t-27.5 -11q-17 0 -28 11t-11 27zM322 474h40v-543q0 -66 -34 -98.5t-88 -32.5q-32 0 -51 10v35q22 -9 48 -9q42 0 63.5 22.5t21.5 73.5v542zM303 681q0 17 11 28.5
t28 11.5q16 0 27.5 -11.5t11.5 -28.5q0 -16 -11.5 -27t-27.5 -11q-17 0 -28 11t-11 27z" />
    <glyph glyph-name="Jcircumflex" unicode="&#x134;" horiz-adv-x="513" 
d="M413 854l-106 -95h-40l116 119h60l116 -119h-40zM31 251l43 10v-50q0 -85 40.5 -134.5t115.5 -49.5q76 0 115 49t39 133v500h43v-502q0 -49 -13 -89.5t-38 -69t-62 -44.5t-84 -16q-94 0 -146.5 58t-52.5 160v45z" />
    <glyph glyph-name="jcircumflex" unicode="&#x135;" horiz-adv-x="212" 
d="M109 644l-105 -110h-34l113 135h52l113 -135h-34zM86 474h40v-539q0 -66 -31.5 -101.5t-87.5 -35.5q-26 0 -39 4t-15 5v33q2 0 15 -3t30 -3q88 0 88 102v538z" />
    <glyph glyph-name="Kcommaaccent" unicode="&#x136;" horiz-adv-x="631" 
d="M305 -82q0 17 11 26.5t27 9.5q15 0 28.5 -12.5t13.5 -38.5q0 -48 -26.5 -74.5t-62.5 -30.5v25q25 4 42.5 21t18.5 43q-6 -6 -17 -6q-16 0 -25.5 10.5t-9.5 26.5zM272 366l-133 -144v-222h-43v709h43v-430l393 430h56l-288 -313l301 -396h-54z" />
    <glyph glyph-name="kcommaaccent" unicode="&#x137;" horiz-adv-x="485" 
d="M225 245l-99 -99v-146h-40v721h40v-522l274 275h55l-202 -202l207 -272h-50zM231 -82q0 17 11 26.5t27 9.5q15 0 28.5 -12.5t13.5 -38.5q0 -48 -26.5 -74.5t-62.5 -30.5v25q25 4 42.5 21t18.5 43q-6 -6 -17 -6q-16 0 -25.5 10.5t-9.5 26.5z" />
    <glyph glyph-name="kgreenlandic" unicode="&#x138;" horiz-adv-x="480" 
d="M225 245l-99 -99v-146h-40v474h40v-275l274 275h55l-202 -202l207 -272h-50z" />
    <glyph glyph-name="Lacute" unicode="&#x139;" horiz-adv-x="536" 
d="M141 759h-36l110 119h57zM96 0v709h43v-670h371v-39h-414z" />
    <glyph glyph-name="lacute" unicode="&#x13a;" horiz-adv-x="212" 
d="M86 0v721h40v-721h-40zM129 759h-36l110 119h57z" />
    <glyph glyph-name="Lcommaaccent" unicode="&#x13b;" horiz-adv-x="536" 
d="M270 -82q0 17 11 26.5t27 9.5q15 0 28.5 -12.5t13.5 -38.5q0 -48 -26.5 -74.5t-62.5 -30.5v25q25 4 42.5 21t18.5 43q-6 -6 -17 -6q-16 0 -25.5 10.5t-9.5 26.5zM96 0v709h43v-670h371v-39h-414z" />
    <glyph glyph-name="lcommaaccent" unicode="&#x13c;" horiz-adv-x="212" 
d="M70 -82q0 17 11 26.5t27 9.5q15 0 28.5 -12.5t13.5 -38.5q0 -48 -26.5 -74.5t-62.5 -30.5v25q25 4 42.5 21t18.5 43q-6 -6 -17 -6q-16 0 -25.5 10.5t-9.5 26.5zM86 0v721h40v-721h-40z" />
    <glyph glyph-name="Lcaron" unicode="&#x13d;" horiz-adv-x="536" 
d="M302 576h-31l42 183h47zM96 0v709h43v-670h371v-39h-414z" />
    <glyph glyph-name="lcaron" unicode="&#x13e;" horiz-adv-x="212" 
d="M215 540h-32l41 180h45zM86 0v721h40v-721h-40z" />
    <glyph glyph-name="Ldot" unicode="&#x13f;" horiz-adv-x="536" 
d="M96 0v709h43v-670h371v-39h-414zM297 374q0 16 11 27t27 11t27 -11t11 -27t-11 -27t-27 -11t-27 11t-11 27z" />
    <glyph glyph-name="ldot" unicode="&#x140;" horiz-adv-x="212" 
d="M182 312q0 16 11 27t27 11t27 -11t11 -27t-11 -27t-27 -11t-27 11t-11 27zM86 0v721h40v-721h-40z" />
    <glyph glyph-name="Lslash" unicode="&#x141;" horiz-adv-x="546" 
d="M106 0v310l-101 -44v38l101 44v361h43v-342l166 74v-38l-166 -74v-290h371v-39h-414z" />
    <glyph glyph-name="lslash" unicode="&#x142;" horiz-adv-x="232" 
d="M96 0v307l-99 -43v38l99 43v376h40v-358l113 50v-38l-113 -50v-325h-40z" />
    <glyph glyph-name="Nacute" unicode="&#x143;" horiz-adv-x="734" 
d="M358 759h-36l110 119h57zM590 0l-451 654v-654h-43v709h57l442 -643v643h43v-709h-48z" />
    <glyph glyph-name="nacute" unicode="&#x144;" horiz-adv-x="527" 
d="M276 534h-31l90 135h54zM126 0h-40v474h39v-87q7 19 21 36.5t34 31.5t46 22.5t57 8.5q42 0 73.5 -13.5t52.5 -37t31.5 -55t10.5 -66.5v-314h-40v308q0 30 -8.5 55.5t-26 45t-43.5 30.5t-61 11q-33 0 -59.5 -13.5t-46 -36t-30 -51.5t-10.5 -60v-289z" />
    <glyph glyph-name="Ncommaaccent" unicode="&#x145;" horiz-adv-x="734" 
d="M342 -82q0 17 11 26.5t27 9.5q15 0 28.5 -12.5t13.5 -38.5q0 -48 -26.5 -74.5t-62.5 -30.5v25q25 4 42.5 21t18.5 43q-6 -6 -17 -6q-16 0 -25.5 10.5t-9.5 26.5zM590 0l-451 654v-654h-43v709h57l442 -643v643h43v-709h-48z" />
    <glyph glyph-name="ncommaaccent" unicode="&#x146;" horiz-adv-x="527" 
d="M240 -82q0 17 11 26.5t27 9.5q15 0 28.5 -12.5t13.5 -38.5q0 -48 -26.5 -74.5t-62.5 -30.5v25q25 4 42.5 21t18.5 43q-6 -6 -17 -6q-16 0 -25.5 10.5t-9.5 26.5zM126 0h-40v474h39v-87q7 19 21 36.5t34 31.5t46 22.5t57 8.5q42 0 73.5 -13.5t52.5 -37t31.5 -55
t10.5 -66.5v-314h-40v308q0 30 -8.5 55.5t-26 45t-43.5 30.5t-61 11q-33 0 -59.5 -13.5t-46 -36t-30 -51.5t-10.5 -60v-289z" />
    <glyph glyph-name="Ncaron" unicode="&#x147;" horiz-adv-x="734" 
d="M226 878h40l106 -95l106 95h40l-116 -119h-60zM590 0l-451 654v-654h-43v709h57l442 -643v643h43v-709h-48z" />
    <glyph glyph-name="ncaron" unicode="&#x148;" horiz-adv-x="527" 
d="M131 669h36l103 -110l103 110h36l-113 -135h-52zM126 0h-40v474h39v-87q7 19 21 36.5t34 31.5t46 22.5t57 8.5q42 0 73.5 -13.5t52.5 -37t31.5 -55t10.5 -66.5v-314h-40v308q0 30 -8.5 55.5t-26 45t-43.5 30.5t-61 11q-33 0 -59.5 -13.5t-46 -36t-30 -51.5t-10.5 -60
v-289z" />
    <glyph glyph-name="napostrophe" unicode="&#x149;" horiz-adv-x="527" 
d="M101 644q0 17 11 26.5t27 9.5q15 0 28.5 -12.5t13.5 -38.5q0 -48 -26.5 -74.5t-62.5 -30.5v25q25 4 42.5 21t18.5 43q-6 -6 -17 -6q-16 0 -25.5 10.5t-9.5 26.5zM126 0h-40v474h39v-87q7 19 21 36.5t34 31.5t46 22.5t57 8.5q42 0 73.5 -13.5t52.5 -37t31.5 -55
t10.5 -66.5v-314h-40v308q0 30 -8.5 55.5t-26 45t-43.5 30.5t-61 11q-33 0 -59.5 -13.5t-46 -36t-30 -51.5t-10.5 -60v-289z" />
    <glyph glyph-name="Eng" unicode="&#x14a;" horiz-adv-x="734" 
d="M528 -163q35 0 51.5 20.5t16.5 54.5v79l-457 663v-654h-43v709h57l442 -643v643h43v-798q0 -49 -26.5 -79.5t-74.5 -30.5q-18 0 -32.5 2.5t-23.5 6.5v34q9 -3 22 -5t25 -2z" />
    <glyph glyph-name="eng" unicode="&#x14b;" horiz-adv-x="527" 
d="M351 -202q-17 0 -31.5 2.5t-24.5 6.5v34q10 -3 23 -5t24 -2q35 0 52 21t17 55v398q0 30 -8.5 55.5t-26 45t-43.5 30.5t-61 11q-33 0 -59.5 -13.5t-46 -36t-30 -51.5t-10.5 -60v-289h-40v474h39v-87q7 19 21 36.5t34 31.5t46 22.5t57 8.5q42 0 73.5 -13.5t52.5 -37
t31.5 -55t10.5 -66.5v-406q0 -49 -26 -79.5t-74 -30.5z" />
    <glyph glyph-name="Omacron" unicode="&#x14c;" horiz-adv-x="780" 
d="M265 837h259v-36h-259v36zM390 27q57 0 111.5 21t96.5 62.5t67.5 102.5t25.5 141t-25.5 141t-67.5 102.5t-96.5 63t-111.5 21.5t-111.5 -21.5t-96.5 -63t-67.5 -102.5t-25.5 -141t25.5 -141t67.5 -102.5t96.5 -62.5t111.5 -21zM390 -12q-65 0 -126.5 24t-110 70.5
t-78 114.5t-29.5 157t29.5 157.5t78 115t110 70.5t126.5 24q64 0 126 -24t110.5 -70.5t78 -115t29.5 -157.5t-29.5 -157t-78 -114.5t-110.5 -70.5t-126 -24z" />
    <glyph glyph-name="omacron" unicode="&#x14d;" horiz-adv-x="556" 
d="M163 619h242v-35h-242v35zM278 -12q-47 0 -89.5 17.5t-74 50t-50 78.5t-18.5 103t18 103t49.5 78.5t74 50t90.5 17.5q47 0 89.5 -17.5t74 -50t50 -78.5t18.5 -103t-18.5 -103t-50 -78.5t-73.5 -50t-90 -17.5zM87 237q0 -50 15.5 -89t41.5 -67t61 -42.5t73 -14.5
t72.5 14.5t61 42.5t42 67t15.5 89q0 49 -15.5 88.5t-42 67.5t-61 42.5t-72.5 14.5t-73 -14.5t-61 -42.5t-41.5 -67.5t-15.5 -88.5z" />
    <glyph glyph-name="Obreve" unicode="&#x14e;" horiz-adv-x="780" 
d="M394 754q-32 0 -56 10.5t-41.5 28t-27 39.5t-11.5 46h33q2 -17 9 -33.5t20 -29.5t31.5 -20.5t42.5 -7.5t42.5 7.5t31.5 20.5t20 29.5t9 33.5h33q-2 -24 -11.5 -46t-27 -39.5t-42 -28t-55.5 -10.5zM390 27q57 0 111.5 21t96.5 62.5t67.5 102.5t25.5 141t-25.5 141
t-67.5 102.5t-96.5 63t-111.5 21.5t-111.5 -21.5t-96.5 -63t-67.5 -102.5t-25.5 -141t25.5 -141t67.5 -102.5t96.5 -62.5t111.5 -21zM390 -12q-65 0 -126.5 24t-110 70.5t-78 114.5t-29.5 157t29.5 157.5t78 115t110 70.5t126.5 24q64 0 126 -24t110.5 -70.5t78 -115
t29.5 -157.5t-29.5 -157t-78 -114.5t-110.5 -70.5t-126 -24z" />
    <glyph glyph-name="obreve" unicode="&#x14f;" horiz-adv-x="556" 
d="M281 534q-33 0 -58.5 12t-43 31t-26 43t-8.5 49h32q0 -19 6.5 -37t19.5 -32.5t32.5 -23.5t45.5 -9t45.5 9t32.5 23.5t19.5 32.5t6.5 37h32q0 -25 -8.5 -49t-26 -43t-43 -31t-58.5 -12zM278 -12q-47 0 -89.5 17.5t-74 50t-50 78.5t-18.5 103t18 103t49.5 78.5t74 50
t90.5 17.5q47 0 89.5 -17.5t74 -50t50 -78.5t18.5 -103t-18.5 -103t-50 -78.5t-73.5 -50t-90 -17.5zM87 237q0 -50 15.5 -89t41.5 -67t61 -42.5t73 -14.5t72.5 14.5t61 42.5t42 67t15.5 89q0 49 -15.5 88.5t-42 67.5t-61 42.5t-72.5 14.5t-73 -14.5t-61 -42.5t-41.5 -67.5
t-15.5 -88.5z" />
    <glyph glyph-name="Ohungarumlaut" unicode="&#x150;" horiz-adv-x="780" 
d="M351 759h-29l67 119h46zM451 759h-30l86 119h46zM390 27q57 0 111.5 21t96.5 62.5t67.5 102.5t25.5 141t-25.5 141t-67.5 102.5t-96.5 63t-111.5 21.5t-111.5 -21.5t-96.5 -63t-67.5 -102.5t-25.5 -141t25.5 -141t67.5 -102.5t96.5 -62.5t111.5 -21zM390 -12
q-65 0 -126.5 24t-110 70.5t-78 114.5t-29.5 157t29.5 157.5t78 115t110 70.5t126.5 24q64 0 126 -24t110.5 -70.5t78 -115t29.5 -157.5t-29.5 -157t-78 -114.5t-110.5 -70.5t-126 -24z" />
    <glyph glyph-name="ohungarumlaut" unicode="&#x151;" horiz-adv-x="556" 
d="M250 534h-31l70 135h45zM342 534h-31l83 135h45zM278 -12q-47 0 -89.5 17.5t-74 50t-50 78.5t-18.5 103t18 103t49.5 78.5t74 50t90.5 17.5q47 0 89.5 -17.5t74 -50t50 -78.5t18.5 -103t-18.5 -103t-50 -78.5t-73.5 -50t-90 -17.5zM87 237q0 -50 15.5 -89t41.5 -67
t61 -42.5t73 -14.5t72.5 14.5t61 42.5t42 67t15.5 89q0 49 -15.5 88.5t-42 67.5t-61 42.5t-72.5 14.5t-73 -14.5t-61 -42.5t-41.5 -67.5t-15.5 -88.5z" />
    <glyph glyph-name="OE" unicode="&#x152;" horiz-adv-x="1157" 
d="M691 0v174q-23 -47 -56 -82t-72.5 -58t-83.5 -34.5t-89 -11.5q-65 0 -126.5 24t-110 70.5t-78 114.5t-29.5 157t29.5 157.5t78 115t110 70.5t126.5 24q45 0 89 -12t83.5 -35.5t72.5 -58.5t56 -81v175h410v-39h-368v-295h337v-39h-337v-297h368v-39h-410zM89 354
q0 -80 25.5 -141t67.5 -102.5t96.5 -62.5t111.5 -21t111.5 21t96.5 62.5t67.5 102.5t25.5 141t-25.5 141t-67.5 102.5t-96.5 63t-111.5 21.5t-111.5 -21.5t-96.5 -63t-67.5 -102.5t-25.5 -141z" />
    <glyph glyph-name="oe" unicode="&#x153;" horiz-adv-x="949" 
d="M46 237q0 57 18 103t49.5 78.5t74 50t90.5 17.5q69 0 126 -37.5t85 -106.5q25 69 77.5 106.5t118.5 37.5q51 0 91.5 -17.5t68 -48.5t42.5 -74t15 -94v-8q0 -2 -1 -10h-391v-6q0 -47 14.5 -84.5t40 -64t59.5 -41t72 -14.5q33 0 60.5 10t49 27.5t36.5 40t24 47.5l35 -12
q-10 -31 -28.5 -58t-45 -47.5t-59.5 -32t-72 -11.5q-69 0 -125 37t-82 109q-27 -71 -84 -108.5t-127 -37.5q-47 0 -89.5 17.5t-74 50t-50 78.5t-18.5 103zM87 237q0 -50 15.5 -89t41.5 -67t61 -42.5t73 -14.5t72.5 14.5t61 42.5t42 67t15.5 89q0 49 -15.5 88.5t-42 67.5
t-61 42.5t-72.5 14.5t-73 -14.5t-61 -42.5t-41.5 -67.5t-15.5 -88.5zM860 269q0 38 -12 71t-34.5 57.5t-54.5 38.5t-73 14q-36 0 -66.5 -13.5t-53.5 -38t-37 -57.5t-17 -72h348z" />
    <glyph glyph-name="Racute" unicode="&#x154;" horiz-adv-x="586" 
d="M290 759h-36l110 119h57zM96 0v709h226q46 0 84.5 -15t66 -41.5t42.5 -62.5t15 -78q0 -39 -13.5 -72.5t-37.5 -59t-57.5 -41.5t-73.5 -20l177 -319h-50l-173 316h-163v-316h-43zM312 355q39 0 71 11.5t55 32t36 49.5t13 64q0 36 -13 65t-36 49.5t-55 32t-71 11.5h-173
v-315h173z" />
    <glyph glyph-name="racute" unicode="&#x155;" horiz-adv-x="343" 
d="M315 432q-7 2 -18 4t-25 2q-31 0 -57.5 -11t-46 -32t-31 -52.5t-11.5 -73.5v-269h-40v474h39v-91q20 46 58 71t91 25q26 0 41 -5v-42zM193 534h-31l90 135h54z" />
    <glyph glyph-name="Rcommaaccent" unicode="&#x156;" horiz-adv-x="586" 
d="M279 -82q0 17 11 26.5t27 9.5q15 0 28.5 -12.5t13.5 -38.5q0 -48 -26.5 -74.5t-62.5 -30.5v25q25 4 42.5 21t18.5 43q-6 -6 -17 -6q-16 0 -25.5 10.5t-9.5 26.5zM96 0v709h226q46 0 84.5 -15t66 -41.5t42.5 -62.5t15 -78q0 -39 -13.5 -72.5t-37.5 -59t-57.5 -41.5
t-73.5 -20l177 -319h-50l-173 316h-163v-316h-43zM312 355q39 0 71 11.5t55 32t36 49.5t13 64q0 36 -13 65t-36 49.5t-55 32t-71 11.5h-173v-315h173z" />
    <glyph glyph-name="rcommaaccent" unicode="&#x157;" horiz-adv-x="343" 
d="M69 -82q0 17 11 26.5t27 9.5q15 0 28.5 -12.5t13.5 -38.5q0 -48 -26.5 -74.5t-62.5 -30.5v25q25 4 42.5 21t18.5 43q-6 -6 -17 -6q-16 0 -25.5 10.5t-9.5 26.5zM315 432q-7 2 -18 4t-25 2q-31 0 -57.5 -11t-46 -32t-31 -52.5t-11.5 -73.5v-269h-40v474h39v-91
q20 46 58 71t91 25q26 0 41 -5v-42z" />
    <glyph glyph-name="Rcaron" unicode="&#x158;" horiz-adv-x="586" 
d="M142 878h40l106 -95l106 95h40l-116 -119h-60zM96 0v709h226q46 0 84.5 -15t66 -41.5t42.5 -62.5t15 -78q0 -39 -13.5 -72.5t-37.5 -59t-57.5 -41.5t-73.5 -20l177 -319h-50l-173 316h-163v-316h-43zM312 355q39 0 71 11.5t55 32t36 49.5t13 64q0 36 -13 65t-36 49.5
t-55 32t-71 11.5h-173v-315h173z" />
    <glyph glyph-name="rcaron" unicode="&#x159;" horiz-adv-x="343" 
d="M58 669h36l103 -110l103 110h36l-113 -135h-52zM315 432q-7 2 -18 4t-25 2q-31 0 -57.5 -11t-46 -32t-31 -52.5t-11.5 -73.5v-269h-40v474h39v-91q20 46 58 71t91 25q26 0 41 -5v-42z" />
    <glyph glyph-name="Sacute" unicode="&#x15a;" horiz-adv-x="564" 
d="M302 759h-36l110 119h57zM285 683q-33 0 -64.5 -10.5t-56.5 -30t-40 -47.5t-15 -62q0 -54 31 -89t88 -49l120 -29q78 -19 124 -63.5t46 -121.5q0 -41 -17 -76.5t-47 -61.5t-72 -40.5t-93 -14.5q-54 0 -98 17t-75.5 46.5t-51 67.5t-23.5 80l39 13q4 -38 20 -71.5t43 -59
t64 -40.5t82 -15q43 0 78 11.5t59 32t37 48.5t13 60q0 57 -35 94t-100 53l-121 29q-67 16 -110 59t-43 117q0 42 17.5 77t47.5 60.5t69.5 39.5t82.5 14q50 0 88 -13.5t66 -36.5t45.5 -55t26.5 -68l-38 -13q-14 65 -60 106t-127 42z" />
    <glyph glyph-name="sacute" unicode="&#x15b;" horiz-adv-x="428" 
d="M78 141q8 -52 44 -85t99 -33q25 0 47.5 7t39 19.5t26 30.5t9.5 41q0 40 -25 61.5t-67 31.5l-79 18q-49 11 -80.5 40t-31.5 82q0 27 12.5 51t33.5 42t49 28.5t60 10.5q37 0 65 -10.5t47.5 -28t31.5 -40t18 -47.5l-36 -13q-9 44 -39 74t-87 30q-22 0 -42.5 -6.5t-37 -19
t-26.5 -30.5t-10 -40q0 -36 22 -56.5t63 -29.5l79 -18q56 -13 87.5 -44t31.5 -83q0 -27 -11.5 -52t-32.5 -43.5t-51 -29.5t-67 -11q-41 0 -72.5 11.5t-54 31t-35.5 44.5t-17 53zM228 534h-31l90 135h54z" />
    <glyph glyph-name="Scircumflex" unicode="&#x15c;" horiz-adv-x="564" 
d="M300 854l-106 -95h-40l116 119h60l116 -119h-40zM285 683q-33 0 -64.5 -10.5t-56.5 -30t-40 -47.5t-15 -62q0 -54 31 -89t88 -49l120 -29q78 -19 124 -63.5t46 -121.5q0 -41 -17 -76.5t-47 -61.5t-72 -40.5t-93 -14.5q-54 0 -98 17t-75.5 46.5t-51 67.5t-23.5 80l39 13
q4 -38 20 -71.5t43 -59t64 -40.5t82 -15q43 0 78 11.5t59 32t37 48.5t13 60q0 57 -35 94t-100 53l-121 29q-67 16 -110 59t-43 117q0 42 17.5 77t47.5 60.5t69.5 39.5t82.5 14q50 0 88 -13.5t66 -36.5t45.5 -55t26.5 -68l-38 -13q-14 65 -60 106t-127 42z" />
    <glyph glyph-name="scircumflex" unicode="&#x15d;" horiz-adv-x="428" 
d="M228 644l-105 -110h-34l113 135h52l113 -135h-34zM78 141q8 -52 44 -85t99 -33q25 0 47.5 7t39 19.5t26 30.5t9.5 41q0 40 -25 61.5t-67 31.5l-79 18q-49 11 -80.5 40t-31.5 82q0 27 12.5 51t33.5 42t49 28.5t60 10.5q37 0 65 -10.5t47.5 -28t31.5 -40t18 -47.5l-36 -13
q-9 44 -39 74t-87 30q-22 0 -42.5 -6.5t-37 -19t-26.5 -30.5t-10 -40q0 -36 22 -56.5t63 -29.5l79 -18q56 -13 87.5 -44t31.5 -83q0 -27 -11.5 -52t-32.5 -43.5t-51 -29.5t-67 -11q-41 0 -72.5 11.5t-54 31t-35.5 44.5t-17 53z" />
    <glyph glyph-name="Scedilla" unicode="&#x15e;" horiz-adv-x="564" 
d="M248 -69l37 57q-52 1 -94 17q-44 17 -75.5 46.5t-51 67.5t-23.5 80l39 13q4 -38 20 -71.5t43 -59t64 -40.5t82 -15q43 0 78 11.5t59 32t37 48.5t13 60q0 57 -35 94t-100 53l-121 29q-67 16 -110 59t-43 117q0 42 17.5 77t47.5 60.5t69.5 39.5t82.5 14q50 0 88 -13.5
t66 -36.5t45.5 -55t26.5 -68l-38 -13q-14 65 -60 106t-127 42q-33 0 -64.5 -10.5t-56.5 -30t-40 -47.5t-15 -62q0 -54 31 -89t88 -49l120 -29q78 -19 124 -63.5t46 -121.5q0 -41 -17 -76.5t-47 -61.5t-72 -41q-30 -9 -64 -13l-35 -52q7 4 16.5 5.5t17.5 1.5q41 0 65 -19.5
t24 -52.5q0 -35 -27 -56.5t-77 -21.5q-34 0 -62.5 14.5t-43.5 34.5l21 24q13 -17 34 -30t51 -13q34 0 52 13t18 35t-16.5 34.5t-48.5 12.5q-9 0 -19.5 -2.5t-21.5 -7.5z" />
    <glyph glyph-name="scedilla" unicode="&#x15f;" horiz-adv-x="428" 
d="M173 -69l37 57q-35 2 -63 12q-31 11 -53.5 30.5t-35.5 44.5t-17 53l37 13q8 -52 44 -85t99 -33q25 0 47.5 7t39 19.5t26 30.5t9.5 41q0 40 -25 61.5t-67 31.5l-79 18q-49 11 -80.5 40t-31.5 82q0 27 12.5 51t33.5 42t49 28.5t60 10.5q37 0 65 -10.5t47.5 -28t31.5 -40
t18 -47.5l-36 -13q-9 44 -39 74t-87 30q-22 0 -42.5 -6.5t-37 -19t-26.5 -30.5t-10 -40q0 -36 22 -56.5t63 -29.5l79 -18q56 -13 87.5 -44t31.5 -83q0 -27 -11.5 -52t-32.5 -43.5t-51 -29.5q-21 -7 -44 -10l-35 -52q7 4 16.5 5.5t17.5 1.5q41 0 65 -19.5t24 -52.5
q0 -35 -27 -56.5t-77 -21.5q-34 0 -62.5 14.5t-43.5 34.5l21 24q13 -17 34 -30t51 -13q34 0 52 13t18 35t-16.5 34.5t-48.5 12.5q-9 0 -19.5 -2.5t-21.5 -7.5z" />
    <glyph glyph-name="Scaron" unicode="&#x160;" horiz-adv-x="564" 
d="M145 878h40l106 -95l106 95h40l-116 -119h-60zM285 683q-33 0 -64.5 -10.5t-56.5 -30t-40 -47.5t-15 -62q0 -54 31 -89t88 -49l120 -29q78 -19 124 -63.5t46 -121.5q0 -41 -17 -76.5t-47 -61.5t-72 -40.5t-93 -14.5q-54 0 -98 17t-75.5 46.5t-51 67.5t-23.5 80l39 13
q4 -38 20 -71.5t43 -59t64 -40.5t82 -15q43 0 78 11.5t59 32t37 48.5t13 60q0 57 -35 94t-100 53l-121 29q-67 16 -110 59t-43 117q0 42 17.5 77t47.5 60.5t69.5 39.5t82.5 14q50 0 88 -13.5t66 -36.5t45.5 -55t26.5 -68l-38 -13q-14 65 -60 106t-127 42z" />
    <glyph glyph-name="scaron" unicode="&#x161;" horiz-adv-x="428" 
d="M83 669h36l103 -110l103 110h36l-113 -135h-52zM78 141q8 -52 44 -85t99 -33q25 0 47.5 7t39 19.5t26 30.5t9.5 41q0 40 -25 61.5t-67 31.5l-79 18q-49 11 -80.5 40t-31.5 82q0 27 12.5 51t33.5 42t49 28.5t60 10.5q37 0 65 -10.5t47.5 -28t31.5 -40t18 -47.5l-36 -13
q-9 44 -39 74t-87 30q-22 0 -42.5 -6.5t-37 -19t-26.5 -30.5t-10 -40q0 -36 22 -56.5t63 -29.5l79 -18q56 -13 87.5 -44t31.5 -83q0 -27 -11.5 -52t-32.5 -43.5t-51 -29.5t-67 -11q-41 0 -72.5 11.5t-54 31t-35.5 44.5t-17 53z" />
    <glyph glyph-name="Tcommaaccent" unicode="&#x162;" horiz-adv-x="581" 
d="M256 -82q0 17 11 26.5t27 9.5q15 0 28.5 -12.5t13.5 -38.5q0 -48 -26.5 -74.5t-62.5 -30.5v25q25 4 42.5 21t18.5 43q-6 -6 -17 -6q-16 0 -25.5 10.5t-9.5 26.5zM312 670v-670h-43v670h-254v39h551v-39h-254z" />
    <glyph glyph-name="tcommaaccent" unicode="&#x163;" horiz-adv-x="334" 
d="M185 -82q0 17 11 26.5t27 9.5q15 0 28.5 -12.5t13.5 -38.5q0 -48 -26.5 -74.5t-62.5 -30.5v25q25 4 42.5 21t18.5 43q-6 -6 -17 -6q-16 0 -25.5 10.5t-9.5 26.5zM157 474h136v-36h-136v-309q0 -51 23 -74.5t66 -23.5q15 0 28.5 3t18.5 5v-35q-7 -3 -22 -6t-35 -3
q-55 0 -87 33t-32 99v311h-107v36h43q34 0 50.5 15t16.5 54v82h37v-151z" />
    <glyph glyph-name="Tcaron" unicode="&#x164;" horiz-adv-x="581" 
d="M148 878h40l106 -95l106 95h40l-116 -119h-60zM312 670v-670h-43v670h-254v39h551v-39h-254z" />
    <glyph glyph-name="tcaron" unicode="&#x165;" horiz-adv-x="334" 
d="M157 474h136v-36h-136v-309q0 -51 23 -74.5t66 -23.5q15 0 28.5 3t18.5 5v-35q-7 -3 -22 -6t-35 -3q-55 0 -87 33t-32 99v311h-107v36h43q34 0 50.5 15t16.5 54v82h37v-151zM256 541h-32l41 180h45z" />
    <glyph glyph-name="Tbar" unicode="&#x166;" horiz-adv-x="581" 
d="M312 670v-300h130v-36h-130v-334h-43v334h-123v36h123v300h-254v39h551v-39h-254z" />
    <glyph glyph-name="tbar" unicode="&#x167;" horiz-adv-x="334" 
d="M293 4q-7 -3 -22 -6t-35 -3q-55 0 -87 33t-32 99v112h-107v36h107v163h-107v36h43q34 0 50.5 15t16.5 54v82h37v-151h136v-36h-136v-163h136v-36h-136v-110q0 -51 23 -74.5t66 -23.5q15 0 28.5 3t18.5 5v-35z" />
    <glyph glyph-name="Utilde" unicode="&#x168;" horiz-adv-x="645" 
d="M256 869q21 0 37.5 -8t32.5 -21l21 -17q13 -10 24 -15.5t26 -5.5q21 0 34 16.5t13 47.5h32v-8q0 -43 -23 -67t-55 -24q-20 0 -35.5 7t-29.5 18l-22 18q-15 12 -26.5 18t-28.5 6q-23 0 -34.5 -17t-11.5 -46h-32v10q0 41 22.5 64.5t55.5 23.5zM322 -12q-108 0 -172 63
t-64 182v476h43v-474q0 -101 48.5 -154.5t144.5 -53.5q97 0 145.5 53.5t48.5 154.5v474h43v-476q0 -119 -63.5 -182t-173.5 -63z" />
    <glyph glyph-name="utilde" unicode="&#x169;" horiz-adv-x="529" 
d="M117 553v10q0 41 22.5 64t55.5 23q22 0 37.5 -8t31.5 -21l19 -16q13 -10 24 -15.5t25 -5.5q46 0 46 64h33v-8q0 -43 -23 -66.5t-55 -23.5q-19 0 -34 6.5t-28 17.5l-22 18q-13 11 -24.5 17.5t-28.5 6.5q-23 0 -34.5 -16.5t-11.5 -46.5h-33zM413 0q-1 7 -3 26t-2 47v11
q-7 -17 -20 -34t-32 -30.5t-44.5 -22.5t-57.5 -9q-48 0 -81.5 16t-55 42.5t-31.5 60.5t-10 70v297h40v-291q0 -31 7.5 -59.5t24.5 -50.5t44 -35.5t66 -13.5q33 0 60.5 12.5t46.5 34.5t29.5 50.5t10.5 60.5v292h40v-382q0 -26 2 -50.5t4 -41.5h-38z" />
    <glyph glyph-name="Umacron" unicode="&#x16a;" horiz-adv-x="645" 
d="M196 837h259v-36h-259v36zM322 -12q-108 0 -172 63t-64 182v476h43v-474q0 -101 48.5 -154.5t144.5 -53.5q97 0 145.5 53.5t48.5 154.5v474h43v-476q0 -119 -63.5 -182t-173.5 -63z" />
    <glyph glyph-name="umacron" unicode="&#x16b;" horiz-adv-x="529" 
d="M143 619h242v-35h-242v35zM413 0q-1 7 -3 26t-2 47v11q-7 -17 -20 -34t-32 -30.5t-44.5 -22.5t-57.5 -9q-48 0 -81.5 16t-55 42.5t-31.5 60.5t-10 70v297h40v-291q0 -31 7.5 -59.5t24.5 -50.5t44 -35.5t66 -13.5q33 0 60.5 12.5t46.5 34.5t29.5 50.5t10.5 60.5v292h40
v-382q0 -26 2 -50.5t4 -41.5h-38z" />
    <glyph glyph-name="Ubreve" unicode="&#x16c;" horiz-adv-x="645" 
d="M326 754q-32 0 -56 10.5t-41.5 28t-27 39.5t-11.5 46h33q2 -17 9 -33.5t20 -29.5t31.5 -20.5t42.5 -7.5t42.5 7.5t31.5 20.5t20 29.5t9 33.5h33q-2 -24 -11.5 -46t-27 -39.5t-42 -28t-55.5 -10.5zM322 -12q-108 0 -172 63t-64 182v476h43v-474q0 -101 48.5 -154.5
t144.5 -53.5q97 0 145.5 53.5t48.5 154.5v474h43v-476q0 -119 -63.5 -182t-173.5 -63z" />
    <glyph glyph-name="ubreve" unicode="&#x16d;" horiz-adv-x="529" 
d="M266 534q-33 0 -58.5 12t-43 31t-26 43t-8.5 49h32q0 -19 6.5 -37t19.5 -32.5t32.5 -23.5t45.5 -9t45.5 9t32.5 23.5t19.5 32.5t6.5 37h32q0 -25 -8.5 -49t-26 -43t-43 -31t-58.5 -12zM413 0q-1 7 -3 26t-2 47v11q-7 -17 -20 -34t-32 -30.5t-44.5 -22.5t-57.5 -9
q-48 0 -81.5 16t-55 42.5t-31.5 60.5t-10 70v297h40v-291q0 -31 7.5 -59.5t24.5 -50.5t44 -35.5t66 -13.5q33 0 60.5 12.5t46.5 34.5t29.5 50.5t10.5 60.5v292h40v-382q0 -26 2 -50.5t4 -41.5h-38z" />
    <glyph glyph-name="Uring" unicode="&#x16e;" horiz-adv-x="645" 
d="M232 844q0 20 7.5 37.5t20 30.5t29.5 20.5t37 7.5q19 0 36.5 -7.5t30 -20.5t20 -30.5t7.5 -37.5t-7.5 -37.5t-20 -30.5t-30 -20t-36.5 -7q-39 0 -66.5 27t-27.5 68zM265 844q0 -28 17.5 -46t43.5 -18t43.5 18t17.5 46t-17.5 46.5t-43.5 18.5t-43.5 -18.5t-17.5 -46.5z
M322 -12q-108 0 -172 63t-64 182v476h43v-474q0 -101 48.5 -154.5t144.5 -53.5q97 0 145.5 53.5t48.5 154.5v474h43v-476q0 -119 -63.5 -182t-173.5 -63z" />
    <glyph glyph-name="uring" unicode="&#x16f;" horiz-adv-x="529" 
d="M163 631q0 21 8 39.5t21.5 32.5t32 22t39.5 8t39.5 -8t32 -22t21.5 -32.5t8 -39.5t-8 -39.5t-21.5 -32.5t-32 -22t-39.5 -8t-39.5 8t-32 22t-21.5 32.5t-8 39.5zM196 631q0 -29 19.5 -50t48.5 -21t48.5 21t19.5 50t-19.5 50t-48.5 21t-48.5 -21t-19.5 -50zM413 0
q-1 7 -3 26t-2 47v11q-7 -17 -20 -34t-32 -30.5t-44.5 -22.5t-57.5 -9q-48 0 -81.5 16t-55 42.5t-31.5 60.5t-10 70v297h40v-291q0 -31 7.5 -59.5t24.5 -50.5t44 -35.5t66 -13.5q33 0 60.5 12.5t46.5 34.5t29.5 50.5t10.5 60.5v292h40v-382q0 -26 2 -50.5t4 -41.5h-38z" />
    <glyph glyph-name="Uhungarumlaut" unicode="&#x170;" horiz-adv-x="645" 
d="M270 759h-29l67 119h46zM370 759h-30l86 119h46zM322 -12q-108 0 -172 63t-64 182v476h43v-474q0 -101 48.5 -154.5t144.5 -53.5q97 0 145.5 53.5t48.5 154.5v474h43v-476q0 -119 -63.5 -182t-173.5 -63z" />
    <glyph glyph-name="uhungarumlaut" unicode="&#x171;" horiz-adv-x="529" 
d="M222 534h-31l70 135h45zM314 534h-31l83 135h45zM413 0q-1 7 -3 26t-2 47v11q-7 -17 -20 -34t-32 -30.5t-44.5 -22.5t-57.5 -9q-48 0 -81.5 16t-55 42.5t-31.5 60.5t-10 70v297h40v-291q0 -31 7.5 -59.5t24.5 -50.5t44 -35.5t66 -13.5q33 0 60.5 12.5t46.5 34.5
t29.5 50.5t10.5 60.5v292h40v-382q0 -26 2 -50.5t4 -41.5h-38z" />
    <glyph glyph-name="Uogonek" unicode="&#x172;" horiz-adv-x="645" 
d="M322 -12q-108 0 -172 63t-64 182v476h43v-474q0 -101 48.5 -154.5t144.5 -53.5q97 0 145.5 53.5t48.5 154.5v474h43v-476q0 -103 -47 -163.5t-131 -76.5q-10 -2 -19 -9q-23 -18 -39.5 -42t-16.5 -53q0 -31 20 -47t48 -16q19 0 36 5v-30q-9 -3 -19 -5t-23 -2q-41 0 -69 23
t-28 65q0 35 17 61t41 45h-7z" />
    <glyph glyph-name="uogonek" unicode="&#x173;" horiz-adv-x="529" 
d="M474 -199q-9 -3 -19 -5t-23 -2q-41 0 -69 23t-28 65t24 71.5t54 48.5q-2 8 -3.5 25.5t-1.5 43.5v13q-7 -17 -20 -34t-32 -30.5t-44.5 -22.5t-57.5 -9q-48 0 -81.5 16t-55 42.5t-31.5 60.5t-10 70v297h40v-291q0 -31 7.5 -59.5t24.5 -50.5t44 -35.5t66 -13.5
q33 0 60.5 12.5t46.5 34.5t29.5 50.5t10.5 60.5v292h40v-382q0 -26 2 -50.5t4 -41.5q-14 -8 -28 -19t-26 -25.5t-19.5 -31t-7.5 -35.5q0 -31 20 -47t48 -16q19 0 36 5v-30z" />
    <glyph glyph-name="Wcircumflex" unicode="&#x174;" horiz-adv-x="963" 
d="M485 854l-106 -95h-40l116 119h60l116 -119h-40zM899 709h44l-206 -709h-48l-208 656l-207 -656h-46l-208 709h45l187 -650l205 650h49l207 -652z" />
    <glyph glyph-name="wcircumflex" unicode="&#x175;" horiz-adv-x="753" 
d="M380 644l-105 -110h-34l113 135h52l113 -135h-34zM400 474l152 -427l139 427h42l-158 -474h-46l-152 427l-152 -427h-46l-159 474h44l139 -427l152 427h45z" />
    <glyph glyph-name="Ycircumflex" unicode="&#x176;" horiz-adv-x="591" 
d="M292 854l-106 -95h-40l116 119h60l116 -119h-40zM20 709h50l227 -366l226 366h48l-254 -406v-303h-42v303z" />
    <glyph glyph-name="ycircumflex" unicode="&#x177;" horiz-adv-x="468" 
d="M236 644l-105 -110h-34l113 135h52l113 -135h-34zM98 -190l120 257l-203 407h45l180 -365l165 365h43l-306 -664h-44z" />
    <glyph glyph-name="Ydieresis" unicode="&#x178;" horiz-adv-x="591" 
d="M165 819q0 14 9.5 24t23.5 10t24 -10t10 -24t-10 -24t-24 -10t-23.5 10t-9.5 24zM351 819q0 14 9.5 24t23.5 10t24 -10t10 -24t-10 -24t-24 -10t-23.5 10t-9.5 24zM20 709h50l227 -366l226 366h48l-254 -406v-303h-42v303z" />
    <glyph glyph-name="Zacute" unicode="&#x179;" horiz-adv-x="613" 
d="M308 759h-36l110 119h57zM46 0v45l492 625h-487v39h534v-44l-492 -626h494v-39h-541z" />
    <glyph glyph-name="zacute" unicode="&#x17a;" horiz-adv-x="436" 
d="M208 534h-31l90 135h54zM31 0v36l322 402h-320v36h368v-36l-322 -402h326v-36h-374z" />
    <glyph glyph-name="Zdotaccent" unicode="&#x17b;" horiz-adv-x="613" 
d="M277 819q0 16 11 27t27 11t27 -11t11 -27t-11 -27t-27 -11t-27 11t-11 27zM46 0v45l492 625h-487v39h534v-44l-492 -626h494v-39h-541z" />
    <glyph glyph-name="zdotaccent" unicode="&#x17c;" horiz-adv-x="436" 
d="M165 602q0 16 11 27t27 11t27 -11t11 -27t-11 -27t-27 -11t-27 11t-11 27zM31 0v36l322 402h-320v36h368v-36l-322 -402h326v-36h-374z" />
    <glyph glyph-name="Zcaron" unicode="&#x17d;" horiz-adv-x="613" 
d="M168 878h40l106 -95l106 95h40l-116 -119h-60zM46 0v45l492 625h-487v39h534v-44l-492 -626h494v-39h-541z" />
    <glyph glyph-name="zcaron" unicode="&#x17e;" horiz-adv-x="436" 
d="M66 669h36l103 -110l103 110h36l-113 -135h-52zM31 0v36l322 402h-320v36h368v-36l-322 -402h326v-36h-374z" />
    <glyph glyph-name="uni018F" unicode="&#x18f;" horiz-adv-x="772" 
d="M46 350h637q0 82 -25 144t-66 104t-95 63t-114 21q-48 0 -93 -14t-82 -40.5t-65 -64.5t-43 -85l-38 13q17 53 48.5 95.5t74 72.5t93 46t105.5 16q68 0 130 -24t109.5 -70.5t75.5 -115t28 -156.5q0 -89 -28.5 -157.5t-75.5 -115t-108.5 -70.5t-127.5 -24q-68 0 -130 25
t-108.5 71.5t-74 112t-27.5 145.5v8zM89 314q4 -67 30 -120.5t66 -90.5t92 -56.5t109 -19.5q56 0 107 19.5t90.5 56.5t65.5 90t32 121h-592z" />
    <glyph glyph-name="florin" unicode="&#x192;" horiz-adv-x="472" 
d="M232 438h-121v36h128l23 113q14 70 54.5 103t93.5 33q23 0 35.5 -3t21.5 -6v-37q-4 1 -17.5 4.5t-33.5 3.5q-40 0 -71 -25t-43 -84l-21 -102h135v-36h-142l-88 -444q-14 -70 -54 -103t-93 -33q-24 0 -36 3t-23 6v37q4 -1 17.5 -4.5t35.5 -3.5q39 0 70.5 25.5t42.5 83.5z
" />
    <glyph glyph-name="uni01B5" unicode="&#x1b5;" horiz-adv-x="613" 
d="M46 0v45l241 307h-180v36h209l222 282h-487v39h534v-44l-218 -277h170v-36h-198l-246 -313h494v-39h-541z" />
    <glyph glyph-name="uni01B6" unicode="&#x1b6;" horiz-adv-x="436" 
d="M405 0h-374v36l159 198h-154v33h180l137 171h-320v36h368v-36l-137 -171h116v-33h-142l-159 -198h326v-36z" />
    <glyph glyph-name="Aringacute" unicode="&#x1fa;" horiz-adv-x="660" 
d="M317 902l104 108h54l-124 -108h-34zM394 774q0 28 -17.5 46.5t-43.5 18.5t-43.5 -18.5t-17.5 -46.5t17.5 -46t43.5 -18t43.5 18t17.5 46zM176 285h307l-154 381zM61 0h-46l281 687q-26 11 -41.5 34t-15.5 53q0 20 7.5 37.5t20 30.5t29.5 20.5t37 7.5q19 0 36.5 -7.5
t30 -20.5t20 -30.5t7.5 -37.5q0 -32 -17.5 -56t-45.5 -34l281 -684h-46l-100 246h-339z" />
    <glyph glyph-name="aringacute" unicode="&#x1fb;" horiz-adv-x="495" 
d="M208 -11q-38 0 -66.5 11.5t-48 30t-29.5 42t-10 47.5q0 59 37 92.5t105 44.5l125 19q33 5 45.5 20t12.5 34q0 54 -34.5 87.5t-94.5 33.5q-62 0 -101.5 -31.5t-46.5 -89.5l-38 9q8 69 59 108t126 39q42 0 74 -12.5t53 -34t32 -50.5t11 -62v-243q0 -27 2 -46t5 -38h-39
q-2 8 -4 34t-2 58q-9 -20 -25 -38.5t-37.5 -32.5t-49.5 -23t-61 -9zM212 24q37 0 68 13t53 35.5t34 52.5t12 64v77q-5 -8 -18 -13.5t-38 -9.5l-125 -19q-48 -8 -75.5 -33.5t-27.5 -68.5q0 -18 7.5 -36t22 -31.5t36.5 -22t51 -8.5zM150 631q0 21 8 39.5t21.5 32.5t32 22
t39.5 8t39.5 -8t32 -22t21.5 -32.5t8 -39.5t-8 -39.5t-21.5 -32.5t-32 -22t-39.5 -8t-39.5 8t-32 22t-21.5 32.5t-8 39.5zM183 631q0 -29 19.5 -50t48.5 -21t48.5 21t19.5 50t-19.5 50t-48.5 21t-48.5 -21t-19.5 -50zM270 779h-31l90 135h54z" />
    <glyph glyph-name="AEacute" unicode="&#x1fc;" horiz-adv-x="973" 
d="M559 759h-36l110 119h57zM507 667l-269 -408h269v408zM507 221h-294l-145 -221h-53l471 709h431v-39h-368v-295h337v-39h-337v-297h368v-39h-410v221z" />
    <glyph glyph-name="aeacute" unicode="&#x1fd;" horiz-adv-x="859" 
d="M440 534h-31l90 135h54zM419 234v-6q0 -47 14.5 -84.5t40 -64t59.5 -41t72 -14.5q33 0 60.5 10t49 27.5t36.5 40t24 47.5l35 -12q-10 -31 -28.5 -58t-45 -47.5t-59.5 -32t-72 -11.5q-67 0 -121.5 34.5t-82.5 99.5q-9 -27 -26 -51.5t-41 -42.5t-55.5 -28.5t-71.5 -10.5
q-38 0 -66.5 11.5t-48 30t-29.5 42t-10 47.5q0 59 37 92.5t105 44.5l125 19q33 5 45.5 20t12.5 34q0 54 -34.5 87.5t-94.5 33.5q-62 0 -101.5 -31.5t-46.5 -89.5l-38 9q8 69 59 108t126 39q68 0 109 -31t54 -82q29 54 77 83.5t106 29.5q51 0 91.5 -17.5t68 -48.5t42.5 -74
t15 -94v-8q0 -2 -1 -10h-391zM769 269q0 38 -12 71t-34.5 57.5t-54.5 38.5t-73 14q-36 0 -66.5 -13.5t-53.5 -38t-37 -57.5t-17 -72h348zM214 24q35 0 65 12.5t52 34t34.5 51t12.5 63.5v81q-5 -8 -16.5 -13.5t-33.5 -8.5l-135 -21q-45 -7 -72 -32.5t-27 -68.5
q0 -19 7.5 -36.5t22.5 -31t37.5 -22t52.5 -8.5z" />
    <glyph glyph-name="Oslashacute" unicode="&#x1fe;" horiz-adv-x="780" 
d="M410 759h-36l110 119h57zM91 -17l71 91q-52 47 -84 116.5t-32 163.5q0 89 29.5 157.5t78 115t110 70.5t126.5 24q58 0 113.5 -19.5t101.5 -57.5l76 98l28 -21l-78 -100q47 -47 75 -113.5t28 -153.5q0 -89 -29.5 -157t-78 -114.5t-110.5 -70.5t-126 -24q-54 0 -105 16
t-96 48l-70 -90zM89 354q0 -83 26.5 -144.5t70.5 -103.5l395 507q-41 34 -90 51.5t-101 17.5q-57 0 -111.5 -21.5t-96.5 -63t-67.5 -102.5t-25.5 -141zM390 27q57 0 111.5 21t96.5 62.5t67.5 102.5t25.5 141q0 76 -23.5 134.5t-61.5 100.5l-392 -505q38 -29 83 -43t93 -14z
" />
    <glyph glyph-name="oslashacute" unicode="&#x1ff;" horiz-adv-x="556" 
d="M291 534h-31l90 135h54zM63 -17l54 70q-33 32 -52 79t-19 105q0 57 18 103t49.5 78.5t74 50t90.5 17.5q79 0 141 -48l57 73l26 -21l-58 -75q31 -32 48.5 -77t17.5 -101q0 -57 -18.5 -103t-50 -78.5t-73.5 -50t-90 -17.5q-77 0 -135 43l-54 -69zM87 237q0 -48 14.5 -87
t39.5 -66l254 324q-51 42 -117 42q-38 0 -73 -14.5t-61 -42.5t-41.5 -67.5t-15.5 -88.5zM469 237q0 46 -13.5 83t-36.5 64l-253 -323q49 -37 112 -37q38 0 72.5 14.5t61 42.5t42 67t15.5 89z" />
    <glyph glyph-name="Scommaaccent" unicode="&#x218;" horiz-adv-x="564" 
d="M257 -82q0 17 11 26.5t27 9.5q15 0 28.5 -12.5t13.5 -38.5q0 -48 -26.5 -74.5t-62.5 -30.5v25q25 4 42.5 21t18.5 43q-6 -6 -17 -6q-16 0 -25.5 10.5t-9.5 26.5zM285 683q-33 0 -64.5 -10.5t-56.5 -30t-40 -47.5t-15 -62q0 -54 31 -89t88 -49l120 -29q78 -19 124 -63.5
t46 -121.5q0 -41 -17 -76.5t-47 -61.5t-72 -40.5t-93 -14.5q-54 0 -98 17t-75.5 46.5t-51 67.5t-23.5 80l39 13q4 -38 20 -71.5t43 -59t64 -40.5t82 -15q43 0 78 11.5t59 32t37 48.5t13 60q0 57 -35 94t-100 53l-121 29q-67 16 -110 59t-43 117q0 42 17.5 77t47.5 60.5
t69.5 39.5t82.5 14q50 0 88 -13.5t66 -36.5t45.5 -55t26.5 -68l-38 -13q-14 65 -60 106t-127 42z" />
    <glyph glyph-name="scommaaccent" unicode="&#x219;" horiz-adv-x="428" 
d="M184 -82q0 17 11 26.5t27 9.5q15 0 28.5 -12.5t13.5 -38.5q0 -48 -26.5 -74.5t-62.5 -30.5v25q25 4 42.5 21t18.5 43q-6 -6 -17 -6q-16 0 -25.5 10.5t-9.5 26.5zM78 141q8 -52 44 -85t99 -33q25 0 47.5 7t39 19.5t26 30.5t9.5 41q0 40 -25 61.5t-67 31.5l-79 18
q-49 11 -80.5 40t-31.5 82q0 27 12.5 51t33.5 42t49 28.5t60 10.5q37 0 65 -10.5t47.5 -28t31.5 -40t18 -47.5l-36 -13q-9 44 -39 74t-87 30q-22 0 -42.5 -6.5t-37 -19t-26.5 -30.5t-10 -40q0 -36 22 -56.5t63 -29.5l79 -18q56 -13 87.5 -44t31.5 -83q0 -27 -11.5 -52
t-32.5 -43.5t-51 -29.5t-67 -11q-41 0 -72.5 11.5t-54 31t-35.5 44.5t-17 53z" />
    <glyph glyph-name="uni021A" unicode="&#x21a;" horiz-adv-x="581" 
d="M256 -82q0 17 11 26.5t27 9.5q15 0 28.5 -12.5t13.5 -38.5q0 -48 -26.5 -74.5t-62.5 -30.5v25q25 4 42.5 21t18.5 43q-6 -6 -17 -6q-16 0 -25.5 10.5t-9.5 26.5zM312 670v-670h-43v670h-254v39h551v-39h-254z" />
    <glyph glyph-name="uni021B" unicode="&#x21b;" horiz-adv-x="334" 
d="M185 -82q0 17 11 26.5t27 9.5q15 0 28.5 -12.5t13.5 -38.5q0 -48 -26.5 -74.5t-62.5 -30.5v25q25 4 42.5 21t18.5 43q-6 -6 -17 -6q-16 0 -25.5 10.5t-9.5 26.5zM157 474h136v-36h-136v-309q0 -51 23 -74.5t66 -23.5q15 0 28.5 3t18.5 5v-35q-7 -3 -22 -6t-35 -3
q-55 0 -87 33t-32 99v311h-107v36h43q34 0 50.5 15t16.5 54v82h37v-151z" />
    <glyph glyph-name="dotlessj" unicode="&#x237;" horiz-adv-x="212" 
d="M86 474h40v-539q0 -66 -31.5 -101.5t-87.5 -35.5q-26 0 -39 4t-15 5v33q2 0 15 -3t30 -3q88 0 88 102v538z" />
    <glyph glyph-name="uni0259" unicode="&#x259;" horiz-adv-x="526" 
d="M48 337q10 31 28.5 58t45 47t59.5 32t72 12q47 0 88.5 -17t72 -49.5t48.5 -79t18 -105.5q0 -56 -17 -101.5t-46.5 -77.5t-68.5 -50t-84 -18q-51 0 -91.5 17.5t-68 48.5t-42.5 74t-15 94v7q0 3 1 11h391v6q0 46 -14.5 84t-40 64.5t-59.5 41t-72 14.5q-33 0 -60.5 -10
t-49 -27.5t-36.5 -40t-24 -47.5zM89 205q0 -38 12 -71t34.5 -57.5t54.5 -38.5t73 -14q36 0 66.5 13.5t53.5 38t37 57.5t17 72h-348z" />
    <glyph glyph-name="circumflex" unicode="&#x2c6;" horiz-adv-x="368" 
d="M184 644l-105 -110h-34l113 135h52l113 -135h-34z" />
    <glyph glyph-name="caron" unicode="&#x2c7;" horiz-adv-x="368" 
d="M45 669h36l103 -110l103 110h36l-113 -135h-52z" />
    <glyph glyph-name="uni02C9" unicode="&#x2c9;" horiz-adv-x="332" 
d="M45 619h242v-35h-242v35z" />
    <glyph glyph-name="breve" unicode="&#x2d8;" horiz-adv-x="362" 
d="M181 534q-33 0 -58.5 12t-43 31t-26 43t-8.5 49h32q0 -19 6.5 -37t19.5 -32.5t32.5 -23.5t45.5 -9t45.5 9t32.5 23.5t19.5 32.5t6.5 37h32q0 -25 -8.5 -49t-26 -43t-43 -31t-58.5 -12z" />
    <glyph glyph-name="dotaccent" unicode="&#x2d9;" horiz-adv-x="164" 
d="M44 602q0 16 11 27t27 11t27 -11t11 -27t-11 -27t-27 -11t-27 11t-11 27z" />
    <glyph glyph-name="ring" unicode="&#x2da;" horiz-adv-x="292" 
d="M45 631q0 21 8 39.5t21.5 32.5t32 22t39.5 8t39.5 -8t32 -22t21.5 -32.5t8 -39.5t-8 -39.5t-21.5 -32.5t-32 -22t-39.5 -8t-39.5 8t-32 22t-21.5 32.5t-8 39.5zM78 631q0 -29 19.5 -50t48.5 -21t48.5 21t19.5 50t-19.5 50t-48.5 21t-48.5 -21t-19.5 -50z" />
    <glyph glyph-name="ogonek" unicode="&#x2db;" horiz-adv-x="229" 
d="M142 -206q-41 0 -69 23t-28 65q0 22 8 41.5t20.5 35t28.5 28.5t32 22l27 -9q-14 -8 -28 -19t-26 -25.5t-19.5 -31t-7.5 -35.5q0 -31 20 -47t48 -16q19 0 36 5v-30q-9 -3 -19 -5t-23 -2z" />
    <glyph glyph-name="tilde" unicode="&#x2dc;" horiz-adv-x="384" 
d="M45 553v10q0 41 22.5 64t55.5 23q22 0 37.5 -8t31.5 -21l19 -16q13 -10 24 -15.5t25 -5.5q46 0 46 64h33v-8q0 -43 -23 -66.5t-55 -23.5q-19 0 -34 6.5t-28 17.5l-22 18q-13 11 -24.5 17.5t-28.5 6.5q-23 0 -34.5 -16.5t-11.5 -46.5h-33z" />
    <glyph glyph-name="hungarumlaut" unicode="&#x2dd;" horiz-adv-x="305" 
d="M80 534h-31l70 135h45zM172 534h-31l83 135h45z" />
    <glyph glyph-name="uni0394" unicode="&#x394;" horiz-adv-x="618" 
d="M15 0l272 709h42l274 -709h-588zM74 38h470l-236 618z" />
    <glyph glyph-name="uni03A9" unicode="&#x3a9;" horiz-adv-x="805" 
d="M402 684q-61 0 -117 -22.5t-99 -64t-68.5 -99.5t-25.5 -129q0 -64 21 -118t57 -94.5t83.5 -67t99.5 -35.5v-54h-291v36h233q-50 14 -94 43.5t-78 72.5t-53.5 97.5t-19.5 119.5q0 79 28.5 143.5t77 111t112 72t134.5 25.5q70 0 134 -25.5t113 -72t77.5 -111t28.5 -143.5
q0 -65 -19.5 -119.5t-53.5 -97.5t-78.5 -72.5t-93.5 -43.5h233v-36h-291v54q52 9 99.5 35.5t83.5 67t57 94.5t21 118q0 71 -25.5 129t-68.5 99.5t-99.5 64t-117.5 22.5z" />
    <glyph glyph-name="uni03BC" unicode="&#x3bc;" horiz-adv-x="544" 
d="M90 474h40v-291q0 -31 7.5 -59.5t24.5 -50.5t44 -35.5t66 -13.5q33 0 60.5 12.5t46.5 34.5t29.5 50.5t10.5 60.5v292h40v-382q0 -26 2 -50.5t4 -41.5h-38q-1 7 -3 26t-2 47v11q-7 -17 -20 -34t-32 -30.5t-44.5 -22.5t-57.5 -9q-49 0 -85 19.5t-53 54.5v-252h-40v664z" />
    <glyph glyph-name="pi" unicode="&#x3c0;" horiz-adv-x="588" 
d="M537 474v-35h-103v-342q0 -32 17.5 -50t47.5 -18q11 0 22.5 2t21.5 5v-33q-11 -4 -25 -6.5t-30 -2.5q-48 0 -71 29t-23 71v345h-227v-439h-40v439h-102v35h512z" />
    <glyph glyph-name="Wgrave" unicode="&#x1e80;" horiz-adv-x="963" 
d="M337 878h57l110 -119h-36zM899 709h44l-206 -709h-48l-208 656l-207 -656h-46l-208 709h45l187 -650l205 650h49l207 -652z" />
    <glyph glyph-name="wgrave" unicode="&#x1e81;" horiz-adv-x="753" 
d="M255 669h53l90 -135h-30zM400 474l152 -427l139 427h42l-158 -474h-46l-152 427l-152 -427h-46l-159 474h44l139 -427l152 427h45z" />
    <glyph glyph-name="Wacute" unicode="&#x1e82;" horiz-adv-x="963" 
d="M502 759h-36l110 119h57zM899 709h44l-206 -709h-48l-208 656l-207 -656h-46l-208 709h45l187 -650l205 650h49l207 -652z" />
    <glyph glyph-name="wacute" unicode="&#x1e83;" horiz-adv-x="753" 
d="M402 534h-31l90 135h54zM400 474l152 -427l139 427h42l-158 -474h-46l-152 427l-152 -427h-46l-159 474h44l139 -427l152 427h45z" />
    <glyph glyph-name="Wdieresis" unicode="&#x1e84;" horiz-adv-x="963" 
d="M329 819q0 14 9.5 24t23.5 10t24 -10t10 -24t-10 -24t-24 -10t-23.5 10t-9.5 24zM576 819q0 14 9.5 24t23.5 10t24 -10t10 -24t-10 -24t-24 -10t-23.5 10t-9.5 24zM899 709h44l-206 -709h-48l-208 656l-207 -656h-46l-208 709h45l187 -650l205 650h49l207 -652z" />
    <glyph glyph-name="wdieresis" unicode="&#x1e85;" horiz-adv-x="753" 
d="M242 604q0 14 9.5 23.5t23.5 9.5t23.5 -9.5t9.5 -23.5t-9.5 -23.5t-23.5 -9.5t-23.5 9.5t-9.5 23.5zM452 604q0 14 9.5 23.5t23.5 9.5t23.5 -9.5t9.5 -23.5t-9.5 -23.5t-23.5 -9.5t-23.5 9.5t-9.5 23.5zM400 474l152 -427l139 427h42l-158 -474h-46l-152 427l-152 -427
h-46l-159 474h44l139 -427l152 427h45z" />
    <glyph glyph-name="uni1E8A" unicode="&#x1e8a;" horiz-adv-x="587" 
d="M249 819q0 16 11 27t27 11t27 -11t11 -27t-11 -27t-27 -11t-27 11t-11 27zM319 356l238 -356h-51l-213 321l-213 -321h-50l239 356l-236 353h51l210 -320l212 320h50z" />
    <glyph glyph-name="uni1E8B" unicode="&#x1e8b;" horiz-adv-x="447" 
d="M188 602q0 16 11 27t27 11t27 -11t11 -27t-11 -27t-27 -11t-27 11t-11 27zM200 242l-176 232h48l152 -203l152 203h47l-175 -232l184 -242h-48l-161 213l-160 -213h-48z" />
    <glyph glyph-name="Ygrave" unicode="&#x1ef2;" horiz-adv-x="591" 
d="M156 878h57l110 -119h-36zM20 709h50l227 -366l226 366h48l-254 -406v-303h-42v303z" />
    <glyph glyph-name="ygrave" unicode="&#x1ef3;" horiz-adv-x="468" 
d="M126 669h53l90 -135h-30zM98 -190l120 257l-203 407h45l180 -365l165 365h43l-306 -664h-44z" />
    <glyph glyph-name="uni2007" unicode="&#x2007;" horiz-adv-x="500" 
 />
    <glyph glyph-name="uni2008" unicode="&#x2008;" horiz-adv-x="500" 
 />
    <glyph glyph-name="uni200B" unicode="&#x200b;" horiz-adv-x="0" 
 />
    <glyph glyph-name="endash" unicode="&#x2013;" horiz-adv-x="643" 
d="M75 269v36h493v-36h-493z" />
    <glyph glyph-name="emdash" unicode="&#x2014;" horiz-adv-x="1068" 
d="M85 269v36h898v-36h-898z" />
    <glyph glyph-name="quoteleft" unicode="&#x2018;" horiz-adv-x="168" 
d="M66 581q3 2 6.5 3.5t10.5 1.5q16 0 26.5 -11.5t10.5 -28.5q0 -16 -11.5 -27.5t-28.5 -11.5q-18 0 -31.5 14t-13.5 41q0 58 28.5 99t69.5 54v-27q-31 -11 -48.5 -43t-18.5 -64z" />
    <glyph glyph-name="quoteright" unicode="&#x2019;" horiz-adv-x="168" 
d="M103 641q-7 -5 -17 -5q-16 0 -26.5 11.5t-10.5 28.5q0 16 11.5 27.5t28.5 11.5t30.5 -14t13.5 -41q0 -58 -28 -99t-70 -54v27q31 11 49 43t19 64z" />
    <glyph glyph-name="quotesinglbase" unicode="&#x201a;" horiz-adv-x="198" 
d="M118 1q-7 -5 -17 -5q-16 0 -26.5 11.5t-10.5 28.5q0 16 11.5 27.5t28.5 11.5t30.5 -14t13.5 -41q0 -58 -28 -99t-70 -54v27q31 11 49 43t19 64z" />
    <glyph glyph-name="quotedblleft" unicode="&#x201c;" horiz-adv-x="290" 
d="M66 581q3 2 6.5 3.5t10.5 1.5q16 0 26.5 -11.5t10.5 -28.5q0 -16 -11.5 -27.5t-28.5 -11.5q-18 0 -31.5 14t-13.5 41q0 58 28.5 99t69.5 54v-27q-31 -11 -48.5 -43t-18.5 -64zM188 581q3 2 6.5 3.5t10.5 1.5q16 0 26.5 -11.5t10.5 -28.5q0 -16 -11.5 -27.5t-28.5 -11.5
q-18 0 -31.5 14t-13.5 41q0 58 28.5 99t69.5 54v-27q-31 -11 -48.5 -43t-18.5 -64z" />
    <glyph glyph-name="quotedblright" unicode="&#x201d;" horiz-adv-x="290" 
d="M225 641q-7 -5 -17 -5q-16 0 -26.5 11.5t-10.5 28.5q0 16 11.5 27.5t28.5 11.5t30.5 -14t13.5 -41q0 -58 -28 -99t-70 -54v27q31 11 49 43t19 64zM103 641q-7 -5 -17 -5q-16 0 -26.5 11.5t-10.5 28.5q0 16 11.5 27.5t28.5 11.5t30.5 -14t13.5 -41q0 -58 -28 -99t-70 -54
v27q31 11 49 43t19 64z" />
    <glyph glyph-name="quotedblbase" unicode="&#x201e;" horiz-adv-x="320" 
d="M240 1q-7 -5 -17 -5q-16 0 -26.5 11.5t-10.5 28.5q0 16 11.5 27.5t28.5 11.5t30.5 -14t13.5 -41q0 -58 -28 -99t-70 -54v27q31 11 49 43t19 64zM118 1q-7 -5 -17 -5q-16 0 -26.5 11.5t-10.5 28.5q0 16 11.5 27.5t28.5 11.5t30.5 -14t13.5 -41q0 -58 -28 -99t-70 -54v27
q31 11 49 43t19 64z" />
    <glyph glyph-name="dagger" unicode="&#x2020;" horiz-adv-x="378" 
d="M171 162v345h-141v34h141v168h36v-168h141v-34h-141v-345h-36z" />
    <glyph glyph-name="daggerdbl" unicode="&#x2021;" horiz-adv-x="3022" 
d="M638 497h175v-497h-175v497zM1471 497h176v-497h-176v497zM2568 497h87v-145h-87v-352h-176v352h-86v145h86v156h176v-156zM1558 733q19 0 36 -7t29.5 -19.5t20 -29t7.5 -35.5t-7.5 -36t-20 -30t-29.5 -20.5t-36 -7.5t-35.5 7.5t-29 20.5t-19.5 30t-7 36q0 38 26.5 64.5
t64.5 26.5zM2080 508q44 0 78.5 -15.5t58 -42.5t35.5 -62.5t12 -75.5v-312h-175v269q0 17 -5 34t-16 30t-27.5 21t-40.5 8q-16 0 -33 -5t-30.5 -17t-22.5 -33t-9 -53v-254h-176v497h176v-65h4q28 38 76 57t95 19zM2746 181q38 0 65 -26.5t27 -64.5q0 -19 -7.5 -36t-20 -29.5
t-29 -19.5t-35.5 -7t-35.5 7t-29 19.5t-19.5 29.5t-7 36q0 38 26.5 64.5t64.5 26.5zM725 733q19 0 36 -7t29.5 -19.5t20 -29t7.5 -35.5t-7.5 -36t-20 -30t-29.5 -20.5t-36 -7.5t-35.5 7.5t-29 20.5t-19.5 30t-7 36q0 38 26.5 64.5t64.5 26.5zM1260 497h181l-217 -497h-163
l-217 497h183l116 -291zM427 497h182l-219 -497h-162l-218 497h184l116 -291z" />
    <glyph glyph-name="bullet" unicode="&#x2022;" horiz-adv-x="574" 
d="M80 278q0 43 16.5 81t44.5 66t65.5 44.5t80.5 16.5t80.5 -16.5t65.5 -44.5t44.5 -66t16.5 -81q0 -42 -16.5 -80t-44.5 -66t-65.5 -44.5t-80.5 -16.5t-80.5 16.5t-65.5 44.5t-44.5 66t-16.5 80z" />
    <glyph glyph-name="ellipsis" unicode="&#x2026;" horiz-adv-x="688" 
d="M532 36q0 17 11.5 29t28.5 12t29 -12t12 -29t-12 -28.5t-29 -11.5t-28.5 11.5t-11.5 28.5zM303 36q0 17 11.5 29t28.5 12t29 -12t12 -29t-12 -28.5t-29 -11.5t-28.5 11.5t-11.5 28.5zM75 36q0 17 11.5 29t28.5 12t29 -12t12 -29t-12 -28.5t-29 -11.5t-28.5 11.5
t-11.5 28.5z" />
    <glyph glyph-name="perthousand" unicode="&#x2030;" horiz-adv-x="1090" 
d="M160 0l478 709h40l-477 -709h-41zM214 447q24 0 45 9t36 25t24 37.5t9 46.5t-9 46.5t-24 37.5t-36 25t-45 9t-45 -9t-36 -25t-24 -37.5t-9 -46.5t9 -46.5t24 -37.5t36 -25t45 -9zM64 565q0 31 11.5 59t32 48t47.5 32t59 12q31 0 58.5 -12t48 -32t32 -48t11.5 -59
q0 -32 -11.5 -59.5t-32 -47.5t-48 -32t-58.5 -12q-32 0 -59 12t-47.5 32t-32 47.5t-11.5 59.5zM475 144q0 31 11.5 59t32 48t47.5 32t59 12q43 0 78 -22t54 -57q19 35 53.5 57t78.5 22q31 0 58.5 -12t48 -32t32 -48t11.5 -59q0 -32 -11.5 -59.5t-32 -47.5t-48 -32t-58.5 -12
q-44 0 -78.5 21.5t-53.5 56.5q-19 -35 -54 -56.5t-78 -21.5q-32 0 -59 12t-47.5 32t-32 47.5t-11.5 59.5zM625 26q24 0 45 9t36 25t24 37.5t9 46.5t-9 46.5t-24 37.5t-36 25t-45 9t-45 -9t-36 -25t-24 -37.5t-9 -46.5t9 -46.5t24 -37.5t36 -25t45 -9zM889 26q24 0 45 9
t36 25t24 37.5t9 46.5t-9 46.5t-24 37.5t-36 25t-45 9t-45 -9t-36 -25t-24 -37.5t-9 -46.5t9 -46.5t24 -37.5t36 -25t45 -9z" />
    <glyph glyph-name="guilsinglleft" unicode="&#x2039;" horiz-adv-x="243" 
d="M213 92h-40l-133 191l133 191h40l-132 -191z" />
    <glyph glyph-name="guilsinglright" unicode="&#x203a;" horiz-adv-x="243" 
d="M163 283l-133 191h40l133 -191l-133 -191h-40z" />
    <glyph glyph-name="uni2042" unicode="&#x2042;" horiz-adv-x="848" 
d="M439 570l134 46l9 -28l-134 -46l86 -121l-23 -18l-88 122l-84 -121l-24 18l84 120l-133 46l10 28l132 -46v139h31v-139zM223 173l134 46l9 -28l-134 -46l86 -121l-23 -18l-88 122l-84 -121l-24 18l84 120l-133 46l10 28l132 -46v139h31v-139zM655 173l134 46l9 -28
l-134 -46l86 -121l-23 -18l-88 122l-84 -121l-24 18l84 120l-133 46l10 28l132 -46v139h31v-139z" />
    <glyph glyph-name="fraction" unicode="&#x2044;" horiz-adv-x="518" 
d="M518 709l-477 -709h-41l478 709h40z" />
    <glyph glyph-name="uni2051" unicode="&#x2051;" horiz-adv-x="426" 
d="M228 570l134 46l9 -28l-134 -46l86 -121l-23 -18l-88 122l-84 -121l-24 18l84 120l-133 46l10 28l132 -46v139h31v-139zM228 173l134 46l9 -28l-134 -46l86 -121l-23 -18l-88 122l-84 -121l-24 18l84 120l-133 46l10 28l132 -46v139h31v-139z" />
    <glyph glyph-name="uni2070" unicode="&#x2070;" horiz-adv-x="430" 
d="M215 340q-38 0 -64.5 14.5t-43.5 37.5q-21 29 -29 64.5t-8 70.5t8 70.5t29 64.5q17 23 43.5 37.5t64.5 14.5t65 -14.5t44 -37.5q21 -29 28.5 -64.5t7.5 -70.5t-7.5 -70.5t-28.5 -64.5q-17 -23 -44 -37.5t-65 -14.5zM215 682q-31 0 -52 -13.5t-33.5 -35.5t-17.5 -50
t-5 -56t5 -56t17.5 -50t33.5 -35.5t52 -13.5t52 13.5t33.5 35.5t17.5 50t5 56t-5 56t-17.5 50t-33.5 35.5t-52 13.5z" />
    <glyph glyph-name="uni2074" unicode="&#x2074;" horiz-adv-x="428" 
d="M65 472l181 236h48v-242h74v-32h-74v-87h-36v87h-193v38zM258 669l-157 -203h157v203z" />
    <glyph glyph-name="uni2075" unicode="&#x2075;" horiz-adv-x="397" 
d="M198 340q-27 0 -50.5 8.5t-41 23t-28.5 33t-13 39.5l33 13q4 -36 31.5 -60.5t68.5 -24.5q43 0 70 25.5t27 63.5q0 40 -27 64.5t-69 24.5q-50 0 -87 -38l-33 12l49 184h191v-32h-166l-34 -129q18 18 41.5 26t46.5 8q56 0 90.5 -33.5t34.5 -85.5q0 -25 -9.5 -47.5t-27 -39
t-42 -26t-55.5 -9.5z" />
    <glyph glyph-name="uni2076" unicode="&#x2076;" horiz-adv-x="409" 
d="M344 463q0 -27 -10.5 -50t-29 -39t-43.5 -25t-53 -9q-63 0 -103 44.5t-40 124.5q0 51 15 89.5t40.5 64t59 38.5t70.5 13q52 0 84 -19l-10 -30q-13 8 -31.5 12.5t-41.5 4.5q-37 0 -64.5 -13.5t-46.5 -36.5t-28.5 -53t-10.5 -64q9 29 41 50t74 21q27 0 50.5 -9t40.5 -25
t27 -38.5t10 -50.5zM209 555q-19 0 -36.5 -6.5t-31 -18.5t-21.5 -28.5t-8 -37.5q0 -20 8 -37t21.5 -29t31 -19t36.5 -7q40 0 69 25.5t29 66.5q0 42 -29 66.5t-69 24.5z" />
    <glyph glyph-name="uni2077" unicode="&#x2077;" horiz-adv-x="407" 
d="M132 347q7 64 26 116t42.5 92.5t49.5 70.5t49 50h-234v32h277v-34q-29 -26 -57 -57t-51 -71t-40 -89t-24 -110h-38z" />
    <glyph glyph-name="uni2078" unicode="&#x2078;" horiz-adv-x="396" 
d="M198 340q-63 0 -98 30t-35 72q0 33 21.5 57.5t56.5 33.5q-29 8 -48.5 31t-19.5 53q0 42 33.5 70t89.5 28t90 -28t34 -70q0 -30 -20 -53t-49 -31q35 -9 56.5 -33.5t21.5 -57.5q0 -42 -34.5 -72t-98.5 -30zM198 548q39 0 63.5 19t24.5 49t-23.5 49.5t-64.5 19.5
q-42 0 -64.5 -19.5t-22.5 -49.5t24 -49t63 -19zM198 372q46 0 71 21t25 51q0 32 -24.5 53t-71.5 21q-46 0 -71 -21t-25 -53q0 -30 25.5 -51t70.5 -21z" />
    <glyph glyph-name="uni2079" unicode="&#x2079;" horiz-adv-x="406" 
d="M198 504q39 0 67.5 24.5t28.5 65.5q0 20 -8 36.5t-21 28t-30.5 18t-36.5 6.5q-39 0 -67.5 -24t-28.5 -65t28.5 -65.5t67.5 -24.5zM163 340q-24 0 -48.5 6.5t-41.5 16.5l10 30q16 -10 37.5 -15.5t41.5 -5.5q66 0 104.5 43.5t38.5 128.5q-11 -32 -42.5 -51.5t-69.5 -19.5
q-26 0 -49.5 8.5t-41 24.5t-27.5 38.5t-10 49.5q0 26 10.5 48.5t29 38.5t43 25t51.5 9q63 0 102.5 -44t39.5 -122q0 -44 -10.5 -82.5t-32 -66.5t-55.5 -44t-80 -16z" />
    <glyph glyph-name="uni2080" unicode="&#x2080;" horiz-adv-x="420" 
d="M210 -127q-38 0 -64.5 14.5t-43.5 37.5q-21 29 -29 64.5t-8 70.5t8 70.5t29 64.5q17 23 43.5 37.5t64.5 14.5t65 -14.5t44 -37.5q21 -29 28.5 -64.5t7.5 -70.5t-7.5 -70.5t-28.5 -64.5q-17 -23 -44 -37.5t-65 -14.5zM210 215q-31 0 -52 -13.5t-33.5 -35.5t-17.5 -50
t-5 -56t5 -56t17.5 -50t33.5 -35.5t52 -13.5t52 13.5t33.5 35.5t17.5 50t5 56t-5 56t-17.5 50t-33.5 35.5t-52 13.5z" />
    <glyph glyph-name="uni2081" unicode="&#x2081;" horiz-adv-x="278" 
d="M60 163q38 8 59.5 30.5t27.5 48.5h36v-362h-36v296q-4 -6 -12.5 -13t-20.5 -14t-26 -12t-28 -6v32z" />
    <glyph glyph-name="uni2082" unicode="&#x2082;" horiz-adv-x="383" 
d="M67 116q-1 4 -1.5 10t-0.5 9q0 47 34 79.5t92 32.5q57 0 89 -31t32 -75q0 -36 -20.5 -62t-52.5 -46l-74 -46q-22 -14 -37 -32t-18 -43h208v-32h-253q0 38 17.5 70.5t57.5 58.5l74 46q26 17 44 38t18 48q0 30 -23 53t-62 23t-64.5 -23t-25.5 -63q0 -4 0.5 -9.5t1.5 -10.5z
" />
    <glyph glyph-name="uni2083" unicode="&#x2083;" horiz-adv-x="398" 
d="M199 -127q-59 0 -96.5 30.5t-42.5 77.5l34 11q1 -21 10 -37t23.5 -27.5t32.5 -17.5t38 -6q42 0 70 23.5t28 60.5q0 38 -27 58t-65 20q-17 0 -34 -5l-18 29l126 119h-209v32h256v-31l-124 -117q5 1 7 1h6q23 0 44.5 -6.5t38 -19.5t26.5 -33t10 -47q0 -24 -9.5 -45
t-27 -36.5t-42.5 -24.5t-55 -9z" />
    <glyph glyph-name="uni2084" unicode="&#x2084;" horiz-adv-x="428" 
d="M65 5l181 236h48v-242h74v-32h-74v-87h-36v87h-193v38zM258 202l-157 -203h157v203z" />
    <glyph glyph-name="uni2085" unicode="&#x2085;" horiz-adv-x="397" 
d="M198 -127q-27 0 -50.5 8.5t-41 23t-28.5 33t-13 39.5l33 13q4 -36 31.5 -60.5t68.5 -24.5q43 0 70 25.5t27 63.5q0 40 -27 64.5t-69 24.5q-50 0 -87 -38l-33 12l49 184h191v-32h-166l-34 -129q18 18 41.5 26t46.5 8q56 0 90.5 -33.5t34.5 -85.5q0 -25 -9.5 -47.5t-27 -39
t-42 -26t-55.5 -9.5z" />
    <glyph glyph-name="uni2086" unicode="&#x2086;" horiz-adv-x="409" 
d="M344 -4q0 -27 -10.5 -50t-29 -39t-43.5 -25t-53 -9q-63 0 -103 44.5t-40 124.5q0 51 15 89.5t40.5 64t59 38.5t70.5 13q52 0 84 -19l-10 -30q-13 8 -31.5 12.5t-41.5 4.5q-37 0 -64.5 -13.5t-46.5 -36.5t-28.5 -53t-10.5 -64q9 29 41 50t74 21q27 0 50.5 -9t40.5 -25
t27 -38.5t10 -50.5zM209 88q-19 0 -36.5 -6.5t-31 -18.5t-21.5 -28.5t-8 -37.5q0 -20 8 -37t21.5 -29t31 -19t36.5 -7q40 0 69 25.5t29 66.5q0 42 -29 66.5t-69 24.5z" />
    <glyph glyph-name="uni2087" unicode="&#x2087;" horiz-adv-x="407" 
d="M132 -120q7 64 26 116t42.5 92.5t49.5 70.5t49 50h-234v32h277v-34q-29 -26 -57 -57t-51 -71t-40 -89t-24 -110h-38z" />
    <glyph glyph-name="uni2088" unicode="&#x2088;" horiz-adv-x="396" 
d="M198 -127q-63 0 -98 30t-35 72q0 33 21.5 57.5t56.5 33.5q-29 8 -48.5 31t-19.5 53q0 42 33.5 70t89.5 28t90 -28t34 -70q0 -30 -20 -53t-49 -31q35 -9 56.5 -33.5t21.5 -57.5q0 -42 -34.5 -72t-98.5 -30zM198 81q39 0 63.5 19t24.5 49t-23.5 49.5t-64.5 19.5
q-42 0 -64.5 -19.5t-22.5 -49.5t24 -49t63 -19zM198 -95q46 0 71 21t25 51q0 32 -24.5 53t-71.5 21q-46 0 -71 -21t-25 -53q0 -30 25.5 -51t70.5 -21z" />
    <glyph glyph-name="uni2089" unicode="&#x2089;" horiz-adv-x="406" 
d="M198 37q39 0 67.5 24.5t28.5 65.5q0 20 -8 36.5t-21 28t-30.5 18t-36.5 6.5q-39 0 -67.5 -24t-28.5 -65t28.5 -65.5t67.5 -24.5zM163 -127q-24 0 -48.5 6.5t-41.5 16.5l10 30q16 -10 37.5 -15.5t41.5 -5.5q66 0 104.5 43.5t38.5 128.5q-11 -32 -42.5 -51.5t-69.5 -19.5
q-26 0 -49.5 8.5t-41 24.5t-27.5 38.5t-10 49.5q0 26 10.5 48.5t29 38.5t43 25t51.5 9q63 0 102.5 -44t39.5 -122q0 -44 -10.5 -82.5t-32 -66.5t-55.5 -44t-80 -16z" />
    <glyph glyph-name="Euro" unicode="&#x20ac;" horiz-adv-x="726" 
d="M701 66q-35 -32 -90.5 -55.5t-125.5 -23.5q-59 0 -115 18.5t-102.5 54.5t-80 88t-47.5 120h-100v35h94q-3 25 -3 53q0 11 0.5 22t1.5 22h-93v34h98q13 69 48.5 122.5t84 90t106 55.5t116.5 19q56 0 101.5 -13.5t77.5 -36.5l-18 -34q-32 23 -73 34t-86 11
q-53 0 -103.5 -16t-93 -47.5t-73.5 -78t-44 -106.5h361l-16 -34h-350q-3 -23 -3 -46q0 -27 3 -51h304l-17 -35h-281q14 -59 44.5 -104t71.5 -75.5t89 -46t96 -15.5q60 0 112 20.5t81 49.5z" />
    <glyph glyph-name="uni2113" unicode="&#x2113;" horiz-adv-x="368" 
d="M304 15q-19 -10 -37.5 -15t-41.5 -5q-54 0 -84.5 32.5t-30.5 94.5v181q-17 -8 -35 -15.5t-35 -12.5v38q17 6 35 14t35 17v231q0 73 30.5 109.5t74.5 36.5q28 0 47.5 -9.5t32 -26.5t18 -40t5.5 -50q0 -47 -13.5 -86.5t-36 -73.5t-53.5 -61.5t-65 -48.5v-203
q0 -44 20 -67.5t55 -23.5q22 0 41 5.5t38 16.5v-38zM150 369q27 19 50 42.5t40.5 51.5t27.5 61t10 71t-14 64t-46 26t-50 -26.5t-18 -83.5v-206z" />
    <glyph glyph-name="trademark" unicode="&#x2122;" horiz-adv-x="804" 
d="M188 679v-332h-33v332h-125v30h283v-30h-125zM701 645l-139 -298h-30l-139 298v-298h-33v362h41l146 -315l146 315h41v-362h-33v298z" />
    <glyph glyph-name="Omega" unicode="&#x2126;" horiz-adv-x="805" 
d="M402 684q-61 0 -117 -22.5t-99 -64t-68.5 -99.5t-25.5 -129q0 -64 21 -118t57 -94.5t83.5 -67t99.5 -35.5v-54h-291v36h233q-50 14 -94 43.5t-78 72.5t-53.5 97.5t-19.5 119.5q0 79 28.5 143.5t77 111t112 72t134.5 25.5q70 0 134 -25.5t113 -72t77.5 -111t28.5 -143.5
q0 -65 -19.5 -119.5t-53.5 -97.5t-78.5 -72.5t-93.5 -43.5h233v-36h-291v54q52 9 99.5 35.5t83.5 67t57 94.5t21 118q0 71 -25.5 129t-68.5 99.5t-99.5 64t-117.5 22.5z" />
    <glyph glyph-name="uni2160" unicode="&#x2160;" horiz-adv-x="513" 
d="M448 672h-171v-634h171v-38h-383v38h171v634h-171v37h383v-37z" />
    <glyph glyph-name="uni2161" unicode="&#x2161;" horiz-adv-x="777" 
d="M712 672h-168v-634h168v-38h-647v38h167v634h-167v37h647v-37zM273 38h230v634h-230v-634z" />
    <glyph glyph-name="uni2162" unicode="&#x2162;" horiz-adv-x="1044" 
d="M979 672h-167v-634h167v-38h-914v38h167v634h-167v37h914v-37zM273 38h228v634h-228v-634zM771 38v634h-228v-634h228z" />
    <glyph glyph-name="uni2163" unicode="&#x2163;" horiz-adv-x="1012" 
d="M947 0h-882v38h164v634h-164v37h882v-37h-115l-192 -634h307v-38zM270 672v-634h294l-192 634h-102zM788 672h-372l186 -618z" />
    <glyph glyph-name="uni2164" unicode="&#x2164;" horiz-adv-x="801" 
d="M736 0h-671v38h297l-192 634h-105v37h671v-37h-106l-192 -634h298v-38zM586 672h-372l186 -618z" />
    <glyph glyph-name="uni2165" unicode="&#x2165;" horiz-adv-x="1012" 
d="M756 672h-116l-192 -634h308v634zM596 672h-372l186 -618zM65 38h307l-192 634h-115v37h882v-37h-150v-634h150v-38h-882v38z" />
    <glyph glyph-name="uni2166" unicode="&#x2166;" horiz-adv-x="1303" 
d="M1238 672h-171v-634h168v-38h-1170v38h307l-192 634h-115v37h1173v-37zM448 38h308v634h-116zM797 38h229v634h-229v-634zM596 672h-372l186 -618z" />
    <glyph glyph-name="uni2167" unicode="&#x2167;" horiz-adv-x="1555" 
d="M1490 672h-171v-634h166v-38h-1420v38h307l-192 634h-115v37h1425v-37zM449 38h305v634h-113zM795 38h221v634h-221v-634zM1057 38h221v634h-221v-634zM597 672h-372l186 -618z" />
    <glyph glyph-name="uni2168" unicode="&#x2168;" horiz-adv-x="983" 
d="M614 354l201 -316h103v-38h-853v38h164v634h-164v37h852v-37h-101zM365 672h-95v-634h95l201 316zM767 38l-177 278l-177 -278h354zM590 391l179 281h-357z" />
    <glyph glyph-name="uni2169" unicode="&#x2169;" horiz-adv-x="773" 
d="M408 350l199 -312h101v-38h-643v38h98l198 311l-204 323h-92v37h643v-37h-94zM559 38l-174 274l-175 -274h349zM385 386l182 286h-363z" />
    <glyph glyph-name="uni216C" unicode="&#x216c;" horiz-adv-x="661" 
d="M65 0v38h151v634h-151v37h353v-37h-161v-634h297v236h42v-274h-531z" />
    <glyph glyph-name="uni216D" unicode="&#x216d;" horiz-adv-x="740" 
d="M634 123q-14 -26 -34.5 -50.5t-49.5 -43t-66.5 -30t-85.5 -11.5q-67 0 -127.5 23.5t-106 70t-72.5 115t-27 157.5t27 157.5t73 115t106 70.5t125 24q48 0 85.5 -11t66 -29.5t48.5 -42t34 -48.5v119h41v-231h-41q-9 45 -27.5 83t-47.5 65t-68.5 42.5t-90.5 15.5
q-58 0 -110.5 -21.5t-92.5 -63.5t-63.5 -103.5t-23.5 -141.5q0 -81 23 -142.5t62.5 -103t92 -62.5t112.5 -21q54 0 95 17t70 45.5t47 66t26 79.5h41v-233h-41v123z" />
    <glyph glyph-name="uni216E" unicode="&#x216e;" horiz-adv-x="757" 
d="M373 38q55 0 105 18t88 56t61 98t23 144q0 83 -22 143t-60 99t-88 57.5t-106 18.5h-113v-634h112zM376 709q63 0 120 -21t100.5 -64.5t69.5 -110.5t26 -159t-26 -159t-70 -110.5t-102 -64t-122 -20.5h-307v38h156v634h-156v37h311z" />
    <glyph glyph-name="uni216F" unicode="&#x216f;" horiz-adv-x="1076" 
d="M534 55l273 654h199v-37h-140v-634h145v-38h-312v38h126v615l-273 -653h-36l-273 653v-615h134v-38h-312v38h138v634h-138v37h196z" />
    <glyph glyph-name="arrowleft" unicode="&#x2190;" horiz-adv-x="981" 
d="M50 291l179 151v-133h702v-36h-702v-133z" />
    <glyph glyph-name="arrowup" unicode="&#x2191;" horiz-adv-x="396" 
d="M356 592h-140v-740h-36v740h-140l158 208z" />
    <glyph glyph-name="arrowright" unicode="&#x2192;" horiz-adv-x="981" 
d="M752 140v133h-702v36h702v133l179 -151z" />
    <glyph glyph-name="arrowdown" unicode="&#x2193;" horiz-adv-x="396" 
d="M198 -162l-158 208h140v740h36v-740h140z" />
    <glyph glyph-name="uni2196" unicode="&#x2196;" horiz-adv-x="818" 
d="M276 709l-100 -100l592 -591l-26 -26l-591 591l-101 -101v227h226z" />
    <glyph glyph-name="uni2197" unicode="&#x2197;" horiz-adv-x="818" 
d="M768 709v-227l-101 101l-591 -591l-26 26l592 591l-100 100h226z" />
    <glyph glyph-name="uni2198" unicode="&#x2198;" horiz-adv-x="818" 
d="M542 0l100 100l-592 591l26 26l591 -591l101 101v-227h-226z" />
    <glyph glyph-name="uni2199" unicode="&#x2199;" horiz-adv-x="818" 
d="M50 0v227l101 -101l591 591l26 -26l-592 -591l100 -100h-226z" />
    <glyph glyph-name="uni21A9" unicode="&#x21a9;" horiz-adv-x="836" 
d="M40 287l179 151v-133h370q32 0 61 11t51.5 31t35.5 48t13 63q0 33 -12.5 61t-34 48.5t-50 32.5t-61.5 12h-154v36h154q40 0 75.5 -14.5t61.5 -40t41.5 -60.5t15.5 -75q0 -43 -16.5 -78t-43.5 -59.5t-62.5 -38t-74.5 -13.5h-370v-133z" />
    <glyph glyph-name="uni21B0" unicode="&#x21b0;" horiz-adv-x="752" 
d="M50 586l161 135v-117h441v-604h-36v568h-405v-117z" />
    <glyph glyph-name="uni21B1" unicode="&#x21b1;" horiz-adv-x="752" 
d="M100 0v604h441v117l161 -135l-161 -135v117h-405v-568h-36z" />
    <glyph glyph-name="uni21B2" unicode="&#x21b2;" horiz-adv-x="752" 
d="M652 709v-604h-441v-117l-161 135l161 135v-117h405v568h36z" />
    <glyph glyph-name="uni21B3" unicode="&#x21b3;" horiz-adv-x="752" 
d="M702 123l-161 -135v117h-441v604h36v-568h405v117z" />
    <glyph glyph-name="uni21B4" unicode="&#x21b4;" horiz-adv-x="723" 
d="M10 709h556v-560h117l-135 -161l-135 161h117v524h-520v36z" />
    <glyph glyph-name="uni21C6" unicode="&#x21c6;" horiz-adv-x="1032" 
d="M793 19v133h-702v36h702v133l179 -151zM60 540l179 151v-133h702v-36h-702v-133z" />
    <glyph glyph-name="partialdiff" unicode="&#x2202;" horiz-adv-x="610" 
d="M515 337q0 63 -12.5 125.5t-44 111.5t-84.5 79.5t-135 30.5q-30 0 -67 -7.5t-72 -24.5l-13 34q39 20 81.5 27.5t80.5 7.5q79 0 137 -30t95.5 -81.5t56 -120t18.5 -146.5q0 -71 -15.5 -135.5t-48 -113.5t-82 -77.5t-118.5 -28.5q-48 0 -90.5 16.5t-74 46.5t-49.5 73
t-18 96q0 51 18 93t49.5 72.5t74 47t92.5 16.5q71 0 129 -30t92 -82zM299 413q-45 0 -81.5 -14.5t-62.5 -41t-40.5 -62t-14.5 -77.5q0 -43 15 -78.5t41.5 -61t61.5 -39.5t76 -14q56 0 96 23.5t66.5 60.5t39.5 83t15 91q-34 65 -90 97.5t-122 32.5z" />
    <glyph glyph-name="Delta" unicode="&#x2206;" horiz-adv-x="618" 
d="M15 0l272 709h42l274 -709h-588zM74 38h470l-236 618z" />
    <glyph glyph-name="product" unicode="&#x220f;" horiz-adv-x="706" 
d="M565 0v672h-423v-672h-42v709h506v-709h-41z" />
    <glyph glyph-name="summation" unicode="&#x2211;" horiz-adv-x="569" 
d="M55 38l308 319l-308 314v38h479v-39h-424l309 -313l-313 -318h428v-39h-479v38z" />
    <glyph glyph-name="minus" unicode="&#x2212;" horiz-adv-x="550" 
d="M65 331v34h420v-34h-420z" />
    <glyph glyph-name="uni2215" unicode="&#x2215;" horiz-adv-x="384" 
d="M55 0h-40l314 648h40z" />
    <glyph glyph-name="uni2219" unicode="&#x2219;" horiz-adv-x="293" 
d="M76 284q0 17 11.5 29t29.5 12t29.5 -12t11.5 -29t-11.5 -29t-29.5 -12t-29.5 12t-11.5 29z" />
    <glyph glyph-name="radical" unicode="&#x221a;" horiz-adv-x="634" 
d="M223 0l-178 511h46l151 -442l255 774h162v-38h-130l-269 -805h-37z" />
    <glyph glyph-name="infinity" unicode="&#x221e;" horiz-adv-x="808" 
d="M91 348q0 -25 9.5 -47.5t26.5 -40t39 -27.5t48 -10q25 0 48.5 10t44.5 27t40 40.5t37 49.5q-35 53 -77 89t-93 36q-26 0 -48 -10t-39 -27.5t-26.5 -40.5t-9.5 -49zM717 348q0 26 -9.5 49t-26.5 40.5t-39.5 27.5t-47.5 10q-51 0 -93 -36t-77 -89q18 -26 37 -49.5t40 -40.5
t44 -27t49 -10q25 0 47.5 10t39.5 27.5t26.5 40t9.5 47.5zM404 321q-18 -27 -39.5 -51.5t-45.5 -42.5t-51 -28.5t-55 -10.5q-33 0 -61.5 13t-50 34.5t-34 51t-12.5 62.5t12.5 62.5t34 51t50 34.5t61.5 13q28 0 55 -10.5t51 -28.5t45.5 -42.5t39.5 -51.5q18 27 39.5 51.5
t45.5 42.5t50.5 28.5t55.5 10.5q33 0 61.5 -13t50 -34.5t34 -51t12.5 -62.5t-12.5 -62.5t-34 -51t-50 -34.5t-61.5 -13q-29 0 -55.5 10.5t-50.5 28.5t-45.5 42.5t-39.5 51.5z" />
    <glyph glyph-name="integral" unicode="&#x222b;" horiz-adv-x="306" 
d="M133 560q0 71 36.5 110t98.5 39h23v-36h-21q-44 0 -70.5 -29.5t-26.5 -85.5v-609q0 -71 -35.5 -110t-96.5 -39h-26v36h21q44 0 70.5 30t26.5 86v608z" />
    <glyph glyph-name="approxequal" unicode="&#x2248;" horiz-adv-x="550" 
d="M505 452q-24 -33 -53 -50t-70 -17q-22 0 -45.5 8t-48.5 21l-47 25q-19 10 -38 16t-36 6q-32 0 -55 -13t-43 -39l-24 21q25 33 53 50.5t69 17.5q21 0 43.5 -8t47.5 -21l46 -24q20 -11 41.5 -17.5t40.5 -6.5q32 0 54 12.5t42 38.5zM505 259q-24 -33 -53 -50t-70 -17
q-22 0 -45.5 8t-48.5 21l-47 25q-19 10 -38 16t-36 6q-32 0 -55 -13t-43 -39l-24 21q25 33 53 50.5t69 17.5q21 0 43.5 -8t47.5 -21l46 -24q20 -11 41.5 -17.5t40.5 -6.5q32 0 54 12.5t42 38.5z" />
    <glyph glyph-name="notequal" unicode="&#x2260;" horiz-adv-x="587" 
d="M105 119l85 115h-115v35h141l117 158h-258v35h284l83 112h42l-83 -112h111v-35h-137l-117 -158h254v-35h-280l-85 -115h-42z" />
    <glyph glyph-name="lessequal" unicode="&#x2264;" horiz-adv-x="550" 
d="M75 390v35l400 148v-38l-353 -128l353 -126v-39zM75 133v34h400v-34h-400z" />
    <glyph glyph-name="greaterequal" unicode="&#x2265;" horiz-adv-x="550" 
d="M75 281l353 126l-353 128v38l400 -148v-35l-400 -148v39zM75 133v34h400v-34h-400z" />
    <glyph glyph-name="dotmath" unicode="&#x22c5;" horiz-adv-x="293" 
d="M76 284q0 17 11.5 29t29.5 12t29.5 -12t11.5 -29t-11.5 -29t-29.5 -12t-29.5 12t-11.5 29z" />
    <glyph glyph-name="uni24C5" unicode="&#x24c5;" horiz-adv-x="835" 
d="M90 354q0 -70 25.5 -131t69.5 -106t103.5 -71t128.5 -26q68 0 127.5 26t104 71t70 106t25.5 131t-25.5 131t-70 106.5t-104 71.5t-127.5 26q-69 0 -128.5 -26t-103.5 -71.5t-69.5 -106.5t-25.5 -131zM55 354q0 76 28 143t77 116.5t115 78.5t142 29t142 -29t115 -78.5
t77.5 -116.5t28.5 -143t-28.5 -142.5t-77.5 -116t-115 -78.5t-142 -29t-142 29t-115 78.5t-77 116t-28 142.5zM440 349q42 0 67.5 23.5t25.5 62.5q0 40 -25.5 64t-67.5 24h-93v-174h93zM347 320v-166h-33v398h130q55 0 89 -33t34 -83t-34 -83t-89 -33h-97z" />
    <glyph glyph-name="filledbox" unicode="&#x25a0;" horiz-adv-x="901" 
d="M100 709h701v-709h-701v709z" />
    <glyph glyph-name="H22073" unicode="&#x25a1;" horiz-adv-x="901" 
d="M100 0v709h701v-709h-701zM135 33h631v643h-631v-643z" />
    <glyph glyph-name="uni25AF" unicode="&#x25af;" horiz-adv-x="623" 
d="M96 0v709h431v-709h-431zM133 34h357v640h-357v-640z" />
    <glyph glyph-name="triagup" unicode="&#x25b2;" horiz-adv-x="842" 
d="M842 0h-842l423 727z" />
    <glyph glyph-name="uni25B3" unicode="&#x25b3;" horiz-adv-x="842" 
d="M842 0h-842l423 727zM422 657l-362 -624h722z" />
    <glyph glyph-name="lozenge" unicode="&#x25ca;" horiz-adv-x="546" 
d="M289 709l212 -355l-211 -354h-34l-211 354l212 355h32zM273 49l185 305l-185 306l-185 -306z" />
    <glyph glyph-name="circle" unicode="&#x25cb;" horiz-adv-x="845" 
d="M91 354q0 -69 26 -129.5t71 -106t105 -71.5t129 -26t129.5 26t105.5 71.5t71 106t26 129.5t-26 129.5t-71 106t-105.5 71.5t-129.5 26t-129 -26t-105 -71.5t-71 -106t-26 -129.5zM55 354q0 76 29 143t78.5 117t116.5 79t143 29t143 -29t117 -79t79 -117t29 -143t-29 -143
t-79 -116.5t-117 -78.5t-143 -29t-143 29t-116.5 78.5t-78.5 116.5t-29 143z" />
    <glyph glyph-name="H18533" unicode="&#x25cf;" horiz-adv-x="845" 
d="M55 354q0 76 29 143t78.5 117t116.5 79t143 29t143 -29t117 -79t79 -117t29 -143t-29 -143t-79 -116.5t-117 -78.5t-143 -29t-143 29t-116.5 78.5t-78.5 116.5t-29 143z" />
    <glyph glyph-name="uni262E" unicode="&#x262e;" horiz-adv-x="835" 
d="M780 354q0 -75 -28.5 -142t-78 -116.5t-115.5 -78.5t-142 -29q-75 0 -141 29t-115 78.5t-77 116.5t-28 142q0 76 28 143t77 116.5t115 78.5t141 29q76 0 142 -29t115.5 -78.5t78 -116.5t28.5 -143zM744 354q0 67 -24 126.5t-66 104.5t-98.5 72.5t-121.5 30.5v-292
l243 -243q32 42 49.5 93t17.5 108zM90 354q0 -57 16.5 -107.5t48.5 -92.5l242 242v292q-65 -3 -121 -30.5t-97.5 -72.5t-65 -104.5t-23.5 -126.5zM434 21q66 3 122.5 30.5t98.5 72.5l-221 221v-324zM177 126q42 -46 98 -74t122 -31v324z" />
    <glyph glyph-name="uni2713" unicode="&#x2713;" horiz-adv-x="987" 
d="M315 -15l-280 313l25 24l257 -284l610 657l25 -24z" />
    <glyph glyph-name="uni2715" unicode="&#x2715;" horiz-adv-x="741" 
d="M370 314l-310 -317l-25 25l310 317l-310 318l25 25l310 -317l310 317l26 -25l-311 -318l311 -317l-25 -25z" />
    <glyph glyph-name="uni2780" unicode="&#x2780;" horiz-adv-x="834" 
d="M88 354q0 -69 25.5 -130t69.5 -106.5t104 -71.5t128 -26q69 0 129 26t104.5 71.5t70 106.5t25.5 130q0 70 -25.5 131t-70 106.5t-104.5 71.5t-129 26q-68 0 -128 -26t-104 -71.5t-69.5 -106.5t-25.5 -131zM55 354q0 76 28 142.5t77 116.5t114.5 79t140.5 29t141.5 -29
t116 -79t78 -116.5t28.5 -142.5q0 -75 -28.5 -142t-78 -116.5t-116 -78.5t-141.5 -29t-140.5 29t-114.5 78.5t-77 116.5t-28 142zM317 458q38 8 59.5 30.5t27.5 48.5h36v-362h-36v296q-4 -6 -12.5 -13t-20.5 -14t-26 -12t-28 -6v32z" />
    <glyph glyph-name="uni2781" unicode="&#x2781;" horiz-adv-x="834" 
d="M88 354q0 -69 25.5 -130t69.5 -106.5t104 -71.5t128 -26q69 0 129 26t104.5 71.5t70 106.5t25.5 130q0 70 -25.5 131t-70 106.5t-104.5 71.5t-129 26q-68 0 -128 -26t-104 -71.5t-69.5 -106.5t-25.5 -131zM55 354q0 76 28 142.5t77 116.5t114.5 79t140.5 29t141.5 -29
t116 -79t78 -116.5t28.5 -142.5q0 -75 -28.5 -142t-78 -116.5t-116 -78.5t-141.5 -29t-140.5 29t-114.5 78.5t-77 116.5t-28 142zM291 412q-1 4 -1.5 10t-0.5 9q0 47 34 79.5t92 32.5q57 0 89 -31t32 -75q0 -36 -20.5 -62t-52.5 -46l-74 -46q-22 -14 -37 -32t-18 -43h208
v-32h-253q0 38 17.5 70.5t57.5 58.5l74 46q26 17 44 38t18 48q0 30 -23 53t-62 23t-64.5 -23t-25.5 -63q0 -4 0.5 -9.5t1.5 -10.5z" />
    <glyph glyph-name="uni2782" unicode="&#x2782;" horiz-adv-x="834" 
d="M55 354q0 76 28 142.5t77 116.5t114.5 79t140.5 29t141.5 -29t116 -79t78 -116.5t28.5 -142.5q0 -75 -28.5 -142t-78 -116.5t-116 -78.5t-141.5 -29t-140.5 29t-114.5 78.5t-77 116.5t-28 142zM88 354q0 -69 25.5 -130t69.5 -106.5t104 -71.5t128 -26q69 0 129 26
t104.5 71.5t70 106.5t25.5 130q0 70 -25.5 131t-70 106.5t-104.5 71.5t-129 26q-68 0 -128 -26t-104 -71.5t-69.5 -106.5t-25.5 -131zM418 169q-59 0 -96.5 30.5t-42.5 77.5l34 11q1 -21 10 -37t23.5 -27.5t32.5 -17.5t38 -6q42 0 70 23.5t28 60.5q0 38 -27 58t-65 20
q-17 0 -34 -5l-18 29l126 119h-209v32h256v-31l-124 -117q5 1 7 1h6q23 0 44.5 -6.5t38 -19.5t26.5 -33t10 -47q0 -24 -9.5 -45t-27 -36.5t-42.5 -24.5t-55 -9z" />
    <glyph glyph-name="uni2783" unicode="&#x2783;" horiz-adv-x="834" 
d="M55 354q0 76 28 142.5t77 116.5t114.5 79t140.5 29t141.5 -29t116 -79t78 -116.5t28.5 -142.5q0 -75 -28.5 -142t-78 -116.5t-116 -78.5t-141.5 -29t-140.5 29t-114.5 78.5t-77 116.5t-28 142zM88 354q0 -69 25.5 -130t69.5 -106.5t104 -71.5t128 -26q69 0 129 26
t104.5 71.5t70 106.5t25.5 130q0 70 -25.5 131t-70 106.5t-104.5 71.5t-129 26q-68 0 -128 -26t-104 -71.5t-69.5 -106.5t-25.5 -131zM239 301l181 236h48v-242h74v-32h-74v-87h-36v87h-193v38zM432 498l-157 -203h157v203z" />
    <glyph glyph-name="uni2784" unicode="&#x2784;" horiz-adv-x="834" 
d="M55 354q0 76 28 142.5t77 116.5t114.5 79t140.5 29t141.5 -29t116 -79t78 -116.5t28.5 -142.5q0 -75 -28.5 -142t-78 -116.5t-116 -78.5t-141.5 -29t-140.5 29t-114.5 78.5t-77 116.5t-28 142zM88 354q0 -69 25.5 -130t69.5 -106.5t104 -71.5t128 -26q69 0 129 26
t104.5 71.5t70 106.5t25.5 130q0 70 -25.5 131t-70 106.5t-104.5 71.5t-129 26q-68 0 -128 -26t-104 -71.5t-69.5 -106.5t-25.5 -131zM409 169q-27 0 -50.5 8.5t-41 23t-28.5 33t-13 39.5l33 13q4 -36 31.5 -60.5t68.5 -24.5q43 0 70 25.5t27 63.5q0 40 -27 64.5t-69 24.5
q-50 0 -87 -38l-33 12l49 184h191v-32h-166l-34 -129q18 18 41.5 26t46.5 8q56 0 90.5 -33.5t34.5 -85.5q0 -25 -9.5 -47.5t-27 -39t-42 -26t-55.5 -9.5z" />
    <glyph glyph-name="uni2785" unicode="&#x2785;" horiz-adv-x="834" 
d="M55 354q0 76 28 142.5t77 116.5t114.5 79t140.5 29t141.5 -29t116 -79t78 -116.5t28.5 -142.5q0 -75 -28.5 -142t-78 -116.5t-116 -78.5t-141.5 -29t-140.5 29t-114.5 78.5t-77 116.5t-28 142zM88 354q0 -69 25.5 -130t69.5 -106.5t104 -71.5t128 -26q69 0 129 26
t104.5 71.5t70 106.5t25.5 130q0 70 -25.5 131t-70 106.5t-104.5 71.5t-129 26q-68 0 -128 -26t-104 -71.5t-69.5 -106.5t-25.5 -131zM536 292q0 -27 -10.5 -50t-29 -39t-43.5 -25t-53 -9q-63 0 -103 44.5t-40 124.5q0 51 15 89.5t40.5 64t59 38.5t70.5 13q52 0 84 -19
l-10 -30q-13 8 -31.5 12.5t-41.5 4.5q-37 0 -64.5 -13.5t-46.5 -36.5t-28.5 -53t-10.5 -64q9 29 41 50t74 21q27 0 50.5 -9t40.5 -25t27 -38.5t10 -50.5zM401 384q-19 0 -36.5 -6.5t-31 -18.5t-21.5 -28.5t-8 -37.5q0 -20 8 -37t21.5 -29t31 -19t36.5 -7q40 0 69 25.5
t29 66.5q0 42 -29 66.5t-69 24.5z" />
    <glyph glyph-name="uni2786" unicode="&#x2786;" horiz-adv-x="834" 
d="M55 354q0 76 28 142.5t77 116.5t114.5 79t140.5 29t141.5 -29t116 -79t78 -116.5t28.5 -142.5q0 -75 -28.5 -142t-78 -116.5t-116 -78.5t-141.5 -29t-140.5 29t-114.5 78.5t-77 116.5t-28 142zM88 354q0 -69 25.5 -130t69.5 -106.5t104 -71.5t128 -26q69 0 129 26
t104.5 71.5t70 106.5t25.5 130q0 70 -25.5 131t-70 106.5t-104.5 71.5t-129 26q-68 0 -128 -26t-104 -71.5t-69.5 -106.5t-25.5 -131zM349 176q7 64 26 116t42.5 92.5t49.5 70.5t49 50h-234v32h277v-34q-29 -26 -57 -57t-51 -71t-40 -89t-24 -110h-38z" />
    <glyph glyph-name="uni2787" unicode="&#x2787;" horiz-adv-x="834" 
d="M55 354q0 76 28 142.5t77 116.5t114.5 79t140.5 29t141.5 -29t116 -79t78 -116.5t28.5 -142.5q0 -75 -28.5 -142t-78 -116.5t-116 -78.5t-141.5 -29t-140.5 29t-114.5 78.5t-77 116.5t-28 142zM88 354q0 -69 25.5 -130t69.5 -106.5t104 -71.5t128 -26q69 0 129 26
t104.5 71.5t70 106.5t25.5 130q0 70 -25.5 131t-70 106.5t-104.5 71.5t-129 26q-68 0 -128 -26t-104 -71.5t-69.5 -106.5t-25.5 -131zM415 169q-63 0 -98 30t-35 72q0 33 21.5 57.5t56.5 33.5q-29 8 -48.5 31t-19.5 53q0 42 33.5 70t89.5 28t90 -28t34 -70q0 -30 -20 -53
t-49 -31q35 -9 56.5 -33.5t21.5 -57.5q0 -42 -34.5 -72t-98.5 -30zM415 377q39 0 63.5 19t24.5 49t-23.5 49.5t-64.5 19.5q-42 0 -64.5 -19.5t-22.5 -49.5t24 -49t63 -19zM415 201q46 0 71 21t25 51q0 32 -24.5 53t-71.5 21q-46 0 -71 -21t-25 -53q0 -30 25.5 -51t70.5 -21z
" />
    <glyph glyph-name="uni2788" unicode="&#x2788;" horiz-adv-x="834" 
d="M55 354q0 76 28 142.5t77 116.5t114.5 79t140.5 29t141.5 -29t116 -79t78 -116.5t28.5 -142.5q0 -75 -28.5 -142t-78 -116.5t-116 -78.5t-141.5 -29t-140.5 29t-114.5 78.5t-77 116.5t-28 142zM88 354q0 -69 25.5 -130t69.5 -106.5t104 -71.5t128 -26q69 0 129 26
t104.5 71.5t70 106.5t25.5 130q0 70 -25.5 131t-70 106.5t-104.5 71.5t-129 26q-68 0 -128 -26t-104 -71.5t-69.5 -106.5t-25.5 -131zM422 333q39 0 67.5 24.5t28.5 65.5q0 20 -8 36.5t-21 28t-30.5 18t-36.5 6.5q-39 0 -67.5 -24t-28.5 -65t28.5 -65.5t67.5 -24.5zM387 169
q-24 0 -48.5 6.5t-41.5 16.5l10 30q16 -10 37.5 -15.5t41.5 -5.5q66 0 104.5 43.5t38.5 128.5q-11 -32 -42.5 -51.5t-69.5 -19.5q-26 0 -49.5 8.5t-41 24.5t-27.5 38.5t-10 49.5q0 26 10.5 48.5t29 38.5t43 25t51.5 9q63 0 102.5 -44t39.5 -122q0 -44 -10.5 -82.5t-32 -66.5
t-55.5 -44t-80 -16z" />
    <glyph glyph-name="uniE000" unicode="&#xe000;" horiz-adv-x="723" 
d="M40 149h117v560h556v-36h-520v-524h117l-135 -161z" />
    <glyph glyph-name="uniE002" unicode="&#xe002;" horiz-adv-x="971" 
d="M627 355l137 180l137 -180h-119q0 -76 -29 -142.5t-78.5 -116t-116 -78.5t-142.5 -29t-142.5 29t-116 78.5t-78.5 116t-29 142.5t29 142.5t78.5 116t116 78.5t142.5 29q50 0 95.5 -12.5t85.5 -35.5l-16 -32q-36 21 -78 32.5t-87 11.5q-68 0 -128 -26t-105 -71t-71 -105
t-26 -128t26 -128t71 -105t105 -71t128 -26t128 26t105 71t71 105t26 128h-119z" />
    <glyph glyph-name="uniE021" unicode="&#xe021;" horiz-adv-x="1070" 
d="M700 641q-36 21 -78 32.5t-87 11.5q-68 0 -128 -26t-105 -71t-71 -105t-26 -128h119l-137 -180l-137 180h119q0 76 29 142.5t78.5 116t116 78.5t142.5 29q50 0 95.5 -12.5t85.5 -35.5zM370 69q36 -21 78 -32.5t87 -11.5q68 0 128 26t105 71t71 105t26 128h-119l137 180
l137 -180h-119q0 -76 -29 -142.5t-78.5 -116t-116 -78.5t-142.5 -29q-50 0 -95.5 12.5t-85.5 35.5z" />
    <glyph glyph-name="commaaccent" unicode="&#xf6c3;" horiz-adv-x="183" 
d="M56 644q0 17 11 26.5t27 9.5q15 0 28.5 -12.5t13.5 -38.5q0 -48 -26.5 -74.5t-62.5 -30.5v25q25 4 42.5 21t18.5 43q-6 -6 -17 -6q-16 0 -25.5 10.5t-9.5 26.5z" />
    <glyph glyph-name="uniFB00" unicode="&#xfb00;" horiz-adv-x="609" 
d="M446 438v-438h-40v438h-250v-438h-40v438h-103v36h103v111q0 74 37 110t97 36q30 0 53 -10v-36q-20 10 -48 10q-43 0 -71 -26.5t-28 -86.5v-108h250v111q0 74 37 110t97 36q30 0 53 -10v-36q-20 10 -48 10q-43 0 -71 -26.5t-28 -86.5v-108h142v-36h-142z" />
    <glyph glyph-name="fi" unicode="&#xfb01;" horiz-adv-x="532" 
d="M406 0v438h-250v-438h-40v438h-103v36h103v111q0 74 37 110t97 36q30 0 53 -10v-36q-20 10 -48 10q-43 0 -71 -26.5t-28 -86.5v-108h290v-474h-40zM387 681q0 17 11 28.5t28 11.5q16 0 27.5 -11.5t11.5 -28.5q0 -16 -11.5 -27t-27.5 -11q-17 0 -28 11t-11 27z" />
    <glyph glyph-name="fl" unicode="&#xfb02;" horiz-adv-x="532" 
d="M406 0v438h-250v-438h-40v438h-103v36h103v111q0 74 37 110t97 36q30 0 53 -10v-36q-20 10 -48 10q-43 0 -71 -26.5t-28 -86.5v-108h250v247h40v-721h-40z" />
    <glyph glyph-name="uniFB03" unicode="&#xfb03;" horiz-adv-x="822" 
d="M696 0v438h-250v-438h-40v438h-250v-438h-40v438h-103v36h103v111q0 74 37 110t97 36q30 0 53 -10v-36q-20 10 -48 10q-43 0 -71 -26.5t-28 -86.5v-108h250v111q0 74 37 110t97 36q30 0 53 -10v-36q-20 10 -48 10q-43 0 -71 -26.5t-28 -86.5v-108h290v-474h-40zM677 681
q0 17 11 28.5t28 11.5q16 0 27.5 -11.5t11.5 -28.5q0 -16 -11.5 -27t-27.5 -11q-17 0 -28 11t-11 27z" />
    <glyph glyph-name="uniFB04" unicode="&#xfb04;" horiz-adv-x="822" 
d="M696 0v438h-250v-438h-40v438h-250v-438h-40v438h-103v36h103v111q0 74 37 110t97 36q30 0 53 -10v-36q-20 10 -48 10q-43 0 -71 -26.5t-28 -86.5v-108h250v111q0 74 37 110t97 36q30 0 53 -10v-36q-20 10 -48 10q-43 0 -71 -26.5t-28 -86.5v-108h250v247h40v-721h-40z
" />
    <glyph glyph-name="uniFEFF" unicode="&#xfeff;" horiz-adv-x="0" 
 />
    <glyph glyph-name="daggerdbl.ss08" horiz-adv-x="388" 
d="M176 0v168h-141v34h141v305h-141v34h141v168h36v-168h141v-34h-141v-305h141v-34h-141v-168h-36z" />
    <glyph glyph-name="i.latn_TRK" horiz-adv-x="212" 
d="M86 0v474h40v-474h-40zM67 681q0 17 11 28.5t28 11.5q16 0 27.5 -11.5t11.5 -28.5q0 -16 -11.5 -27t-27.5 -11q-17 0 -28 11t-11 27z" />
    <glyph glyph-name="Ldot.latn_CAT" horiz-adv-x="536" 
d="M96 0v709h43v-670h371v-39h-414zM297 374q0 16 11 27t27 11t27 -11t11 -27t-11 -27t-27 -11t-27 11t-11 27z" />
    <glyph glyph-name="ldot.latn_CAT" horiz-adv-x="212" 
d="M182 312q0 16 11 27t27 11t27 -11t11 -27t-11 -27t-27 -11t-27 11t-11 27zM86 0v721h40v-721h-40z" />
    <glyph glyph-name="zero.dnom" horiz-adv-x="430" 
d="M215 -7q-38 0 -64.5 14.5t-43.5 37.5q-21 29 -29 64.5t-8 70.5t8 70.5t29 64.5q17 23 43.5 37.5t64.5 14.5t65 -14.5t44 -37.5q21 -29 28.5 -64.5t7.5 -70.5t-7.5 -70.5t-28.5 -64.5q-17 -23 -44 -37.5t-65 -14.5zM215 335q-31 0 -52 -13.5t-33.5 -35.5t-17.5 -50t-5 -56
t5 -56t17.5 -50t33.5 -35.5t52 -13.5t52 13.5t33.5 35.5t17.5 50t5 56t-5 56t-17.5 50t-33.5 35.5t-52 13.5z" />
    <glyph glyph-name="one.dnom" horiz-adv-x="278" 
d="M60 283q38 8 59.5 30.5t27.5 48.5h36v-362h-36v296q-4 -6 -12.5 -13t-20.5 -14t-26 -12t-28 -6v32z" />
    <glyph glyph-name="two.dnom" horiz-adv-x="383" 
d="M67 236q-1 4 -1.5 10t-0.5 9q0 47 34 79.5t92 32.5q57 0 89 -31t32 -75q0 -36 -20.5 -62t-52.5 -46l-74 -46q-22 -14 -37 -32t-18 -43h208v-32h-253q0 38 17.5 70.5t57.5 58.5l74 46q26 17 44 38t18 48q0 30 -23 53t-62 23t-64.5 -23t-25.5 -63q0 -4 0.5 -9.5t1.5 -10.5z
" />
    <glyph glyph-name="three.dnom" horiz-adv-x="398" 
d="M199 -7q-59 0 -96.5 30.5t-42.5 77.5l34 11q1 -21 10 -37t23.5 -27.5t32.5 -17.5t38 -6q42 0 70 23.5t28 60.5q0 38 -27 58t-65 20q-17 0 -34 -5l-18 29l126 119h-209v32h256v-31l-124 -117q5 1 7 1h6q23 0 44.5 -6.5t38 -19.5t26.5 -33t10 -47q0 -24 -9.5 -45t-27 -36.5
t-42.5 -24.5t-55 -9z" />
    <glyph glyph-name="four.dnom" horiz-adv-x="428" 
d="M65 125l181 236h48v-242h74v-32h-74v-87h-36v87h-193v38zM258 322l-157 -203h157v203z" />
    <glyph glyph-name="five.dnom" horiz-adv-x="397" 
d="M198 -7q-27 0 -50.5 8.5t-41 23t-28.5 33t-13 39.5l33 13q4 -36 31.5 -60.5t68.5 -24.5q43 0 70 25.5t27 63.5q0 40 -27 64.5t-69 24.5q-50 0 -87 -38l-33 12l49 184h191v-32h-166l-34 -129q18 18 41.5 26t46.5 8q56 0 90.5 -33.5t34.5 -85.5q0 -25 -9.5 -47.5t-27 -39
t-42 -26t-55.5 -9.5z" />
    <glyph glyph-name="six.dnom" horiz-adv-x="409" 
d="M344 116q0 -27 -10.5 -50t-29 -39t-43.5 -25t-53 -9q-63 0 -103 44.5t-40 124.5q0 51 15 89.5t40.5 64t59 38.5t70.5 13q52 0 84 -19l-10 -30q-13 8 -31.5 12.5t-41.5 4.5q-37 0 -64.5 -13.5t-46.5 -36.5t-28.5 -53t-10.5 -64q9 29 41 50t74 21q27 0 50.5 -9t40.5 -25
t27 -38.5t10 -50.5zM209 208q-19 0 -36.5 -6.5t-31 -18.5t-21.5 -28.5t-8 -37.5q0 -20 8 -37t21.5 -29t31 -19t36.5 -7q40 0 69 25.5t29 66.5q0 42 -29 66.5t-69 24.5z" />
    <glyph glyph-name="seven.dnom" horiz-adv-x="407" 
d="M132 0q7 64 26 116t42.5 92.5t49.5 70.5t49 50h-234v32h277v-34q-29 -26 -57 -57t-51 -71t-40 -89t-24 -110h-38z" />
    <glyph glyph-name="eight.dnom" horiz-adv-x="396" 
d="M198 -7q-63 0 -98 30t-35 72q0 33 21.5 57.5t56.5 33.5q-29 8 -48.5 31t-19.5 53q0 42 33.5 70t89.5 28t90 -28t34 -70q0 -30 -20 -53t-49 -31q35 -9 56.5 -33.5t21.5 -57.5q0 -42 -34.5 -72t-98.5 -30zM198 201q39 0 63.5 19t24.5 49t-23.5 49.5t-64.5 19.5
q-42 0 -64.5 -19.5t-22.5 -49.5t24 -49t63 -19zM198 25q46 0 71 21t25 51q0 32 -24.5 53t-71.5 21q-46 0 -71 -21t-25 -53q0 -30 25.5 -51t70.5 -21z" />
    <glyph glyph-name="nine.dnom" horiz-adv-x="406" 
d="M198 157q39 0 67.5 24.5t28.5 65.5q0 20 -8 36.5t-21 28t-30.5 18t-36.5 6.5q-39 0 -67.5 -24t-28.5 -65t28.5 -65.5t67.5 -24.5zM163 -7q-24 0 -48.5 6.5t-41.5 16.5l10 30q16 -10 37.5 -15.5t41.5 -5.5q66 0 104.5 43.5t38.5 128.5q-11 -32 -42.5 -51.5t-69.5 -19.5
q-26 0 -49.5 8.5t-41 24.5t-27.5 38.5t-10 49.5q0 26 10.5 48.5t29 38.5t43 25t51.5 9q63 0 102.5 -44t39.5 -122q0 -44 -10.5 -82.5t-32 -66.5t-55.5 -44t-80 -16z" />
    <glyph glyph-name="space.frac" horiz-adv-x="52" 
 />
    <glyph glyph-name="comma.tf" 
d="M289 1q-4 -2 -8.5 -4t-12.5 -2q-19 0 -32 14.5t-13 34.5q0 19 14 33t34 14q22 0 38 -17t16 -50q0 -35 -9.5 -65.5t-25.5 -54.5t-37.5 -40.5t-45.5 -24.5v32q18 7 33 21t25.5 31.5t16.5 37.5t7 40z" />
    <glyph glyph-name="period.tf" 
d="M227 44q0 20 14 34.5t34 14.5q21 0 35.5 -14.5t14.5 -34.5t-14.5 -34.5t-35.5 -14.5q-20 0 -34 14.5t-14 34.5z" />
    <glyph glyph-name="colon.tf" 
d="M238 38q0 18 12.5 30.5t29.5 12.5q18 0 30.5 -12.5t12.5 -30.5q0 -17 -12.5 -29.5t-30.5 -12.5q-17 0 -29.5 12.5t-12.5 29.5zM238 435q0 18 12.5 30.5t29.5 12.5q18 0 30.5 -12.5t12.5 -30.5q0 -17 -12.5 -29.5t-30.5 -12.5q-17 0 -29.5 12.5t-12.5 29.5z" />
    <glyph glyph-name="semicolon.tf" 
d="M225 435q0 18 12.5 30.5t29.5 12.5q18 0 30.5 -12.5t12.5 -30.5q0 -17 -12.5 -29.5t-30.5 -12.5q-17 0 -29.5 12.5t-12.5 29.5zM287 1q-7 -5 -18 -5q-17 0 -28 12.5t-11 29.5t12 29t30 12q19 0 33 -14.5t14 -43.5q0 -61 -30 -104t-73 -57v28q16 6 29 18t22 27.5t14.5 33
t5.5 34.5z" />
    <glyph glyph-name="section.tf" 
d="M136 -17q2 -68 42 -109t106 -41q29 0 54 8.5t44 24.5t29.5 38t10.5 49q0 45 -22.5 73.5t-64.5 51.5l-108 57q-27 14 -48.5 28.5t-36.5 31.5t-23.5 37.5t-8.5 47.5q0 48 29 81.5t72 46.5q-51 29 -76.5 65.5t-25.5 88.5q0 36 14.5 65.5t38.5 50t55.5 32t65.5 11.5
q40 0 73 -13t56 -36.5t36 -55.5t15 -70l-38 -9q-2 67 -40 108.5t-102 41.5q-26 0 -50 -8.5t-43 -24.5t-30.5 -38.5t-11.5 -50.5q0 -45 23 -73.5t61 -49.5l108 -58q52 -27 84.5 -59t32.5 -85q0 -48 -28.5 -81.5t-73.5 -48.5q54 -29 80.5 -65.5t26.5 -88.5q0 -35 -14.5 -64
t-39 -49.5t-57 -32t-68.5 -11.5q-41 0 -74 12.5t-57 36t-37.5 55.5t-14.5 71zM242 392q-38 -8 -66 -36.5t-28 -70.5q0 -38 23.5 -63t63.5 -47l89 -48q18 4 35 13.5t29.5 23.5t20.5 32t8 38q0 38 -23 64t-62 47z" />
    <glyph glyph-name="florin.tf" 
d="M288 438h-121v36h128l23 113q14 70 54.5 103t93.5 33q23 0 35.5 -3t21.5 -6v-37q-4 1 -17.5 4.5t-33.5 3.5q-40 0 -71 -25t-43 -84l-21 -102h135v-36h-142l-88 -444q-14 -70 -54 -103t-93 -33q-24 0 -36 3t-23 6v37q4 -1 17.5 -4.5t35.5 -3.5q39 0 70.5 25.5t42.5 83.5z
" />
    <glyph glyph-name="uni2007.tf" horiz-adv-x="500" 
 />
    <glyph glyph-name="uni2008.tf" horiz-adv-x="500" 
 />
    <glyph glyph-name="parenleft.case" horiz-adv-x="268" 
d="M65 352q0 69 13 130.5t36 116t55 102t70 88.5l24 -21q-76 -85 -119.5 -186t-43.5 -230q0 -130 43.5 -231t119.5 -185l-24 -21q-38 41 -70 88.5t-55 101.5t-36 115.5t-13 131.5z" />
    <glyph glyph-name="parenright.case" horiz-adv-x="269" 
d="M204 352q0 -70 -13 -131.5t-36 -115.5t-55 -101.5t-70 -88.5l-25 21q76 84 119.5 185t43.5 231q0 129 -43.5 230t-119.5 186l25 21q38 -41 70 -88.5t55 -102t36 -116t13 -130.5z" />
    <glyph glyph-name="hyphen.case" horiz-adv-x="368" 
d="M55 319v36h258v-36h-258z" />
    <glyph glyph-name="bracketleft.case" horiz-adv-x="256" 
d="M100 -46v836h131v-35h-94v-767h94v-34h-131z" />
    <glyph glyph-name="bracketright.case" horiz-adv-x="256" 
d="M25 -46v34h94v767h-94v35h131v-836h-131z" />
    <glyph glyph-name="braceleft.case" horiz-adv-x="321" 
d="M196 89q0 -52 20 -76.5t73 -24.5h7v-33h-7q-67 0 -97.5 33.5t-30.5 102.5v150q0 50 -31 77.5t-75 33.5v39q44 7 75 34t31 77v150q0 70 30.5 103.5t97.5 33.5h7v-33h-7q-53 0 -73 -24.5t-20 -76.5v-160q0 -49 -27.5 -80.5t-71.5 -42.5q44 -11 71.5 -43t27.5 -80v-160z" />
    <glyph glyph-name="braceright.case" horiz-adv-x="321" 
d="M125 249q0 48 27.5 80t71.5 43q-44 11 -71.5 42.5t-27.5 80.5v160q0 52 -20 76.5t-73 24.5h-7v33h7q67 0 97.5 -33.5t30.5 -103.5v-150q0 -50 31 -77t75 -34v-39q-44 -6 -75 -33.5t-31 -77.5v-150q0 -69 -30.5 -102.5t-97.5 -33.5h-7v33h7q53 0 73 24.5t20 76.5v160z" />
    <glyph glyph-name="exclamdown.case" horiz-adv-x="281" 
d="M150 528l13 -528h-52l13 528h26zM181 673q0 -17 -11.5 -29t-28.5 -12t-29 12t-12 29t12 28.5t29 11.5t28.5 -11.5t11.5 -28.5z" />
    <glyph glyph-name="guillemotleft.case" horiz-adv-x="392" 
d="M213 146h-40l-133 191l133 191h40l-132 -191zM362 146h-40l-133 191l133 191h40l-132 -191z" />
    <glyph glyph-name="uni00AD.case" horiz-adv-x="390" 
d="M55 319v36h258v-36h-258z" />
    <glyph glyph-name="guillemotright.case" horiz-adv-x="392" 
d="M163 337l-133 191h40l133 -191l-133 -191h-40zM312 337l-133 191h40l133 -191l-133 -191h-40z" />
    <glyph glyph-name="questiondown.case" horiz-adv-x="486" 
d="M270 529q3 -12 3.5 -21t0.5 -19q0 -45 -15 -79.5t-51 -63.5l-44 -35q-35 -29 -56.5 -62.5t-21.5 -75.5q0 -29 10 -56t29.5 -47.5t48 -32.5t65.5 -12q41 0 71.5 13.5t50.5 35.5t30 50.5t10 59.5q0 23 -9 56l41 -6q5 -15 6.5 -27.5t1.5 -26.5q0 -35 -12.5 -69.5
t-37.5 -61.5t-63 -44t-89 -17q-46 0 -82 15.5t-61 41t-38 58.5t-13 69q0 51 26.5 93t71.5 77l44 35q30 24 39.5 53.5t9.5 58.5v20q0 6 -2 20h36zM291 673q0 -17 -11.5 -29t-28.5 -12t-29 12t-12 29t12 28.5t29 11.5t28.5 -11.5t11.5 -28.5z" />
    <glyph glyph-name="endash.case" horiz-adv-x="643" 
d="M75 319v36h493v-36h-493z" />
    <glyph glyph-name="emdash.case" horiz-adv-x="1068" 
d="M85 319v36h898v-36h-898z" />
    <glyph glyph-name="guilsinglleft.case" horiz-adv-x="243" 
d="M213 146h-40l-133 191l133 191h40l-132 -191z" />
    <glyph glyph-name="guilsinglright.case" horiz-adv-x="243" 
d="M163 337l-133 191h40l133 -191l-133 -191h-40z" />
    <glyph glyph-name="G.ss01" horiz-adv-x="753" 
d="M391 27q57 0 103.5 18.5t81.5 51t57 77t29 97.5h-304v38h349q0 -8 -0.5 -13t-0.5 -7q-6 -65 -31.5 -120.5t-67.5 -95.5t-97 -62.5t-119 -22.5q-65 0 -126.5 24.5t-110.5 71.5t-78.5 115.5t-29.5 155.5t29.5 155.5t78 115t110 71t126.5 24.5q56 0 105 -15.5t88 -44
t66.5 -68.5t42.5 -88l-39 -14q-27 88 -95.5 139.5t-167.5 51.5q-57 0 -111.5 -21.5t-96.5 -63t-67.5 -102.5t-25.5 -140t25.5 -140t68 -102.5t97 -63.5t111.5 -22z" />
    <glyph glyph-name="Gcircumflex.ss01" horiz-adv-x="753" 
d="M391 27q57 0 103.5 18.5t81.5 51t57 77t29 97.5h-304v38h349q0 -8 -0.5 -13t-0.5 -7q-6 -65 -31.5 -120.5t-67.5 -95.5t-97 -62.5t-119 -22.5q-65 0 -126.5 24.5t-110.5 71.5t-78.5 115.5t-29.5 155.5t29.5 155.5t78 115t110 71t126.5 24.5q56 0 105 -15.5t88 -44
t66.5 -68.5t42.5 -88l-39 -14q-27 88 -95.5 139.5t-167.5 51.5q-57 0 -111.5 -21.5t-96.5 -63t-67.5 -102.5t-25.5 -140t25.5 -140t68 -102.5t97 -63.5t111.5 -22zM394 854l-106 -95h-40l116 119h60l116 -119h-40z" />
    <glyph glyph-name="Gbreve.ss01" horiz-adv-x="753" 
d="M394 754q-32 0 -56 10.5t-41.5 28t-27 39.5t-11.5 46h33q2 -17 9 -33.5t20 -29.5t31.5 -20.5t42.5 -7.5t42.5 7.5t31.5 20.5t20 29.5t9 33.5h33q-2 -24 -11.5 -46t-27 -39.5t-42 -28t-55.5 -10.5zM391 27q57 0 103.5 18.5t81.5 51t57 77t29 97.5h-304v38h349
q0 -8 -0.5 -13t-0.5 -7q-6 -65 -31.5 -120.5t-67.5 -95.5t-97 -62.5t-119 -22.5q-65 0 -126.5 24.5t-110.5 71.5t-78.5 115.5t-29.5 155.5t29.5 155.5t78 115t110 71t126.5 24.5q56 0 105 -15.5t88 -44t66.5 -68.5t42.5 -88l-39 -14q-27 88 -95.5 139.5t-167.5 51.5
q-57 0 -111.5 -21.5t-96.5 -63t-67.5 -102.5t-25.5 -140t25.5 -140t68 -102.5t97 -63.5t111.5 -22z" />
    <glyph glyph-name="Gdotaccent.ss01" horiz-adv-x="753" 
d="M391 27q57 0 103.5 18.5t81.5 51t57 77t29 97.5h-304v38h349q0 -8 -0.5 -13t-0.5 -7q-6 -65 -31.5 -120.5t-67.5 -95.5t-97 -62.5t-119 -22.5q-65 0 -126.5 24.5t-110.5 71.5t-78.5 115.5t-29.5 155.5t29.5 155.5t78 115t110 71t126.5 24.5q56 0 105 -15.5t88 -44
t66.5 -68.5t42.5 -88l-39 -14q-27 88 -95.5 139.5t-167.5 51.5q-57 0 -111.5 -21.5t-96.5 -63t-67.5 -102.5t-25.5 -140t25.5 -140t68 -102.5t97 -63.5t111.5 -22zM356 819q0 16 11 27t27 11t27 -11t11 -27t-11 -27t-27 -11t-27 11t-11 27z" />
    <glyph glyph-name="Gcommaaccent.ss01" horiz-adv-x="753" 
d="M360 -82q0 17 11 26.5t27 9.5q15 0 28.5 -12.5t13.5 -38.5q0 -48 -26.5 -74.5t-62.5 -30.5v25q25 4 42.5 21t18.5 43q-6 -6 -17 -6q-16 0 -25.5 10.5t-9.5 26.5zM391 27q57 0 103.5 18.5t81.5 51t57 77t29 97.5h-304v38h349q0 -8 -0.5 -13t-0.5 -7q-6 -65 -31.5 -120.5
t-67.5 -95.5t-97 -62.5t-119 -22.5q-65 0 -126.5 24.5t-110.5 71.5t-78.5 115.5t-29.5 155.5t29.5 155.5t78 115t110 71t126.5 24.5q56 0 105 -15.5t88 -44t66.5 -68.5t42.5 -88l-39 -14q-27 88 -95.5 139.5t-167.5 51.5q-57 0 -111.5 -21.5t-96.5 -63t-67.5 -102.5
t-25.5 -140t25.5 -140t68 -102.5t97 -63.5t111.5 -22z" />
    <glyph glyph-name="a.ss02" horiz-adv-x="562" 
d="M479 474v-382q0 -40 2.5 -65t2.5 -27h-39q-2 9 -3.5 31t-1.5 50v26q-8 -19 -22 -40t-35.5 -38.5t-51.5 -29t-69 -11.5q-49 0 -88.5 19t-68 52.5t-44 79.5t-15.5 99t15.5 98.5t43.5 78.5t68 52t88 19q42 0 73 -12t52 -29.5t33.5 -37.5t19.5 -36v103h40zM440 238
q0 45 -12.5 83.5t-35.5 67t-55 45t-72 16.5q-41 0 -74 -16t-56 -44t-36 -67t-13 -85q0 -45 13 -84t36 -68t56 -45.5t74 -16.5q40 0 72 16.5t55 45t35.5 68t12.5 84.5z" />
    <glyph glyph-name="agrave.ss02" horiz-adv-x="562" 
d="M479 474v-382q0 -40 2.5 -65t2.5 -27h-39q-2 9 -3.5 31t-1.5 50v26q-8 -19 -22 -40t-35.5 -38.5t-51.5 -29t-69 -11.5q-49 0 -88.5 19t-68 52.5t-44 79.5t-15.5 99t15.5 98.5t43.5 78.5t68 52t88 19q42 0 73 -12t52 -29.5t33.5 -37.5t19.5 -36v103h40zM440 238
q0 45 -12.5 83.5t-35.5 67t-55 45t-72 16.5q-41 0 -74 -16t-56 -44t-36 -67t-13 -85q0 -45 13 -84t36 -68t56 -45.5t74 -16.5q40 0 72 16.5t55 45t35.5 68t12.5 84.5zM157 669h53l90 -135h-30z" />
    <glyph glyph-name="aacute.ss02" horiz-adv-x="562" 
d="M277 534h-31l90 135h54zM479 474v-382q0 -40 2.5 -65t2.5 -27h-39q-2 9 -3.5 31t-1.5 50v26q-8 -19 -22 -40t-35.5 -38.5t-51.5 -29t-69 -11.5q-49 0 -88.5 19t-68 52.5t-44 79.5t-15.5 99t15.5 98.5t43.5 78.5t68 52t88 19q42 0 73 -12t52 -29.5t33.5 -37.5t19.5 -36
v103h40zM440 238q0 45 -12.5 83.5t-35.5 67t-55 45t-72 16.5q-41 0 -74 -16t-56 -44t-36 -67t-13 -85q0 -45 13 -84t36 -68t56 -45.5t74 -16.5q40 0 72 16.5t55 45t35.5 68t12.5 84.5z" />
    <glyph glyph-name="acircumflex.ss02" horiz-adv-x="562" 
d="M479 474v-382q0 -40 2.5 -65t2.5 -27h-39q-2 9 -3.5 31t-1.5 50v26q-8 -19 -22 -40t-35.5 -38.5t-51.5 -29t-69 -11.5q-49 0 -88.5 19t-68 52.5t-44 79.5t-15.5 99t15.5 98.5t43.5 78.5t68 52t88 19q42 0 73 -12t52 -29.5t33.5 -37.5t19.5 -36v103h40zM440 238
q0 45 -12.5 83.5t-35.5 67t-55 45t-72 16.5q-41 0 -74 -16t-56 -44t-36 -67t-13 -85q0 -45 13 -84t36 -68t56 -45.5t74 -16.5q40 0 72 16.5t55 45t35.5 68t12.5 84.5zM272 644l-105 -110h-34l113 135h52l113 -135h-34z" />
    <glyph glyph-name="atilde.ss02" horiz-adv-x="562" 
d="M479 474v-382q0 -40 2.5 -65t2.5 -27h-39q-2 9 -3.5 31t-1.5 50v26q-8 -19 -22 -40t-35.5 -38.5t-51.5 -29t-69 -11.5q-49 0 -88.5 19t-68 52.5t-44 79.5t-15.5 99t15.5 98.5t43.5 78.5t68 52t88 19q42 0 73 -12t52 -29.5t33.5 -37.5t19.5 -36v103h40zM440 238
q0 45 -12.5 83.5t-35.5 67t-55 45t-72 16.5q-41 0 -74 -16t-56 -44t-36 -67t-13 -85q0 -45 13 -84t36 -68t56 -45.5t74 -16.5q40 0 72 16.5t55 45t35.5 68t12.5 84.5zM123 553v10q0 41 22.5 64t55.5 23q22 0 37.5 -8t31.5 -21l19 -16q13 -10 24 -15.5t25 -5.5q46 0 46 64h33
v-8q0 -43 -23 -66.5t-55 -23.5q-19 0 -34 6.5t-28 17.5l-22 18q-13 11 -24.5 17.5t-28.5 6.5q-23 0 -34.5 -16.5t-11.5 -46.5h-33z" />
    <glyph glyph-name="adieresis.ss02" horiz-adv-x="562" 
d="M479 474v-382q0 -40 2.5 -65t2.5 -27h-39q-2 9 -3.5 31t-1.5 50v26q-8 -19 -22 -40t-35.5 -38.5t-51.5 -29t-69 -11.5q-49 0 -88.5 19t-68 52.5t-44 79.5t-15.5 99t15.5 98.5t43.5 78.5t68 52t88 19q42 0 73 -12t52 -29.5t33.5 -37.5t19.5 -36v103h40zM440 238
q0 45 -12.5 83.5t-35.5 67t-55 45t-72 16.5q-41 0 -74 -16t-56 -44t-36 -67t-13 -85q0 -45 13 -84t36 -68t56 -45.5t74 -16.5q40 0 72 16.5t55 45t35.5 68t12.5 84.5zM160 604q0 14 9.5 23.5t23.5 9.5t23.5 -9.5t9.5 -23.5t-9.5 -23.5t-23.5 -9.5t-23.5 9.5t-9.5 23.5z
M330 604q0 14 9.5 23.5t23.5 9.5t23.5 -9.5t9.5 -23.5t-9.5 -23.5t-23.5 -9.5t-23.5 9.5t-9.5 23.5z" />
    <glyph glyph-name="aring.ss02" horiz-adv-x="562" 
d="M479 474v-382q0 -40 2.5 -65t2.5 -27h-39q-2 9 -3.5 31t-1.5 50v26q-8 -19 -22 -40t-35.5 -38.5t-51.5 -29t-69 -11.5q-49 0 -88.5 19t-68 52.5t-44 79.5t-15.5 99t15.5 98.5t43.5 78.5t68 52t88 19q42 0 73 -12t52 -29.5t33.5 -37.5t19.5 -36v103h40zM440 238
q0 45 -12.5 83.5t-35.5 67t-55 45t-72 16.5q-41 0 -74 -16t-56 -44t-36 -67t-13 -85q0 -45 13 -84t36 -68t56 -45.5t74 -16.5q40 0 72 16.5t55 45t35.5 68t12.5 84.5zM170 631q0 21 8 39.5t21.5 32.5t32 22t39.5 8t39.5 -8t32 -22t21.5 -32.5t8 -39.5t-8 -39.5t-21.5 -32.5
t-32 -22t-39.5 -8t-39.5 8t-32 22t-21.5 32.5t-8 39.5zM203 631q0 -29 19.5 -50t48.5 -21t48.5 21t19.5 50t-19.5 50t-48.5 21t-48.5 -21t-19.5 -50z" />
    <glyph glyph-name="amacron.ss02" horiz-adv-x="562" 
d="M479 474v-382q0 -40 2.5 -65t2.5 -27h-39q-2 9 -3.5 31t-1.5 50v26q-8 -19 -22 -40t-35.5 -38.5t-51.5 -29t-69 -11.5q-49 0 -88.5 19t-68 52.5t-44 79.5t-15.5 99t15.5 98.5t43.5 78.5t68 52t88 19q42 0 73 -12t52 -29.5t33.5 -37.5t19.5 -36v103h40zM440 238
q0 45 -12.5 83.5t-35.5 67t-55 45t-72 16.5q-41 0 -74 -16t-56 -44t-36 -67t-13 -85q0 -45 13 -84t36 -68t56 -45.5t74 -16.5q40 0 72 16.5t55 45t35.5 68t12.5 84.5zM145 619h242v-35h-242v35z" />
    <glyph glyph-name="abreve.ss02" horiz-adv-x="562" 
d="M479 474v-382q0 -40 2.5 -65t2.5 -27h-39q-2 9 -3.5 31t-1.5 50v26q-8 -19 -22 -40t-35.5 -38.5t-51.5 -29t-69 -11.5q-49 0 -88.5 19t-68 52.5t-44 79.5t-15.5 99t15.5 98.5t43.5 78.5t68 52t88 19q42 0 73 -12t52 -29.5t33.5 -37.5t19.5 -36v103h40zM440 238
q0 45 -12.5 83.5t-35.5 67t-55 45t-72 16.5q-41 0 -74 -16t-56 -44t-36 -67t-13 -85q0 -45 13 -84t36 -68t56 -45.5t74 -16.5q40 0 72 16.5t55 45t35.5 68t12.5 84.5zM268 534q-33 0 -58.5 12t-43 31t-26 43t-8.5 49h32q0 -19 6.5 -37t19.5 -32.5t32.5 -23.5t45.5 -9t45.5 9
t32.5 23.5t19.5 32.5t6.5 37h32q0 -25 -8.5 -49t-26 -43t-43 -31t-58.5 -12z" />
    <glyph glyph-name="aogonek.ss02" horiz-adv-x="562" 
d="M479 474v-382q0 -40 2.5 -65t2.5 -27q-14 -8 -28 -19t-26 -25.5t-19.5 -31t-7.5 -35.5q0 -31 20 -47t48 -16q19 0 36 5v-30q-9 -3 -19 -5t-23 -2q-41 0 -69 23t-28 65q0 38 22 67.5t54 51.5q-2 10 -3 31.5t-1 48.5v26q-8 -19 -22 -40t-35.5 -38.5t-51.5 -29t-69 -11.5
q-49 0 -88.5 19t-68 52.5t-44 79.5t-15.5 99t15.5 98.5t43.5 78.5t68 52t88 19q42 0 73 -12t52 -29.5t33.5 -37.5t19.5 -36v103h40zM440 238q0 45 -12.5 83.5t-35.5 67t-55 45t-72 16.5q-41 0 -74 -16t-56 -44t-36 -67t-13 -85q0 -45 13 -84t36 -68t56 -45.5t74 -16.5
q40 0 72 16.5t55 45t35.5 68t12.5 84.5z" />
    <glyph glyph-name="aringacute.ss02" horiz-adv-x="562" 
d="M479 474v-382q0 -40 2.5 -65t2.5 -27h-39q-2 9 -3.5 31t-1.5 50v26q-8 -19 -22 -40t-35.5 -38.5t-51.5 -29t-69 -11.5q-49 0 -88.5 19t-68 52.5t-44 79.5t-15.5 99t15.5 98.5t43.5 78.5t68 52t88 19q42 0 73 -12t52 -29.5t33.5 -37.5t19.5 -36v103h40zM440 238
q0 45 -12.5 83.5t-35.5 67t-55 45t-72 16.5q-41 0 -74 -16t-56 -44t-36 -67t-13 -85q0 -45 13 -84t36 -68t56 -45.5t74 -16.5q40 0 72 16.5t55 45t35.5 68t12.5 84.5zM288 770h-31l90 135h54zM170 631q0 21 8 39.5t21.5 32.5t32 22t39.5 8t39.5 -8t32 -22t21.5 -32.5
t8 -39.5t-8 -39.5t-21.5 -32.5t-32 -22t-39.5 -8t-39.5 8t-32 22t-21.5 32.5t-8 39.5zM203 631q0 -29 19.5 -50t48.5 -21t48.5 21t19.5 50t-19.5 50t-48.5 21t-48.5 -21t-19.5 -50z" />
    <glyph glyph-name="ampersand.ss04" horiz-adv-x="665" 
d="M75 194q0 65 40 117t114 74q-61 17 -91 60.5t-30 98.5q0 36 15 68t41 56t60.5 38.5t72.5 14.5q100 0 153.5 -49t64.5 -135l-40 -9q-9 73 -51 115t-122 42q-31 0 -59 -11t-49 -30t-33.5 -45t-12.5 -55q0 -57 39.5 -96.5t123.5 -44.5v-36q-44 -2 -80 -15.5t-61.5 -36.5
t-40 -54t-14.5 -67t14.5 -67t41 -54t62.5 -36t78 -13q44 0 82 16t65.5 44t43 66t15.5 82v37h-117v37h240v-37h-83v-37q0 -53 -18.5 -97.5t-51.5 -77t-78 -51t-98 -18.5q-51 0 -94 16t-74.5 43.5t-49.5 65t-18 81.5z" />
    <glyph glyph-name="registered.ss06" horiz-adv-x="447" 
d="M35 528q0 39 14.5 74t40 60.5t60 40.5t73.5 15t73.5 -15t60 -40.5t40.5 -60.5t15 -74t-15 -74t-40.5 -60.5t-60 -40.5t-73.5 -15t-73.5 15t-60 40.5t-40 60.5t-14.5 74zM61 528q0 -34 12.5 -64t34.5 -52.5t52 -35.5t64 -13t63.5 13t51.5 35.5t34.5 52.5t12.5 64t-12.5 64
t-34.5 52.5t-51.5 35.5t-63.5 13t-64 -13t-52 -35.5t-34.5 -52.5t-12.5 -64zM191 530h35q20 0 32 10t12 29q0 17 -11.5 28t-32.5 11h-35v-78zM223 505h-32v-76h-27v203h67q30 0 49 -18.5t19 -44.5q0 -22 -13.5 -39t-34.5 -21l47 -80h-32z" />
    <glyph glyph-name="zero.numr" horiz-adv-x="420" 
d="M210 341q-38 0 -64.5 14.5t-43.5 37.5q-21 29 -29 64.5t-8 70.5t8 70.5t29 64.5q17 23 43.5 37.5t64.5 14.5t65 -14.5t44 -37.5q21 -29 28.5 -64.5t7.5 -70.5t-7.5 -70.5t-28.5 -64.5q-17 -23 -44 -37.5t-65 -14.5zM210 683q-31 0 -52 -13.5t-33.5 -35.5t-17.5 -50
t-5 -56t5 -56t17.5 -50t33.5 -35.5t52 -13.5t52 13.5t33.5 35.5t17.5 50t5 56t-5 56t-17.5 50t-33.5 35.5t-52 13.5z" />
    <glyph glyph-name="one.numr" horiz-adv-x="278" 
d="M60 630q38 8 59.5 30.5t27.5 48.5h36v-362h-36v296q-4 -6 -12.5 -13t-20.5 -14t-26 -12t-28 -6v32z" />
    <glyph glyph-name="two.numr" horiz-adv-x="383" 
d="M67 584q-1 4 -1.5 10t-0.5 9q0 47 34 79.5t92 32.5q57 0 89 -31t32 -75q0 -36 -20.5 -62t-52.5 -46l-74 -46q-22 -14 -37 -32t-18 -43h208v-32h-253q0 38 17.5 70.5t57.5 58.5l74 46q26 17 44 38t18 48q0 30 -23 53t-62 23t-64.5 -23t-25.5 -63q0 -4 0.5 -9.5t1.5 -10.5z
" />
    <glyph glyph-name="three.numr" horiz-adv-x="398" 
d="M199 341q-59 0 -96.5 30.5t-42.5 77.5l34 11q1 -21 10 -37t23.5 -27.5t32.5 -17.5t38 -6q42 0 70 23.5t28 60.5q0 38 -27 58t-65 20q-17 0 -34 -5l-18 29l126 119h-209v32h256v-31l-124 -117q5 1 7 1h6q23 0 44.5 -6.5t38 -19.5t26.5 -33t10 -47q0 -24 -9.5 -45
t-27 -36.5t-42.5 -24.5t-55 -9z" />
    <glyph glyph-name="four.numr" horiz-adv-x="428" 
d="M65 473l181 236h48v-242h74v-32h-74v-87h-36v87h-193v38zM258 670l-157 -203h157v203z" />
    <glyph glyph-name="five.numr" horiz-adv-x="397" 
d="M198 341q-27 0 -50.5 8.5t-41 23t-28.5 33t-13 39.5l33 13q4 -36 31.5 -60.5t68.5 -24.5q43 0 70 25.5t27 63.5q0 40 -27 64.5t-69 24.5q-50 0 -87 -38l-33 12l49 184h191v-32h-166l-34 -129q18 18 41.5 26t46.5 8q56 0 90.5 -33.5t34.5 -85.5q0 -25 -9.5 -47.5t-27 -39
t-42 -26t-55.5 -9.5z" />
    <glyph glyph-name="six.numr" horiz-adv-x="409" 
d="M344 464q0 -27 -10.5 -50t-29 -39t-43.5 -25t-53 -9q-63 0 -103 44.5t-40 124.5q0 51 15 89.5t40.5 64t59 38.5t70.5 13q52 0 84 -19l-10 -30q-13 8 -31.5 12.5t-41.5 4.5q-37 0 -64.5 -13.5t-46.5 -36.5t-28.5 -53t-10.5 -64q9 29 41 50t74 21q27 0 50.5 -9t40.5 -25
t27 -38.5t10 -50.5zM209 556q-19 0 -36.5 -6.5t-31 -18.5t-21.5 -28.5t-8 -37.5q0 -20 8 -37t21.5 -29t31 -19t36.5 -7q40 0 69 25.5t29 66.5q0 42 -29 66.5t-69 24.5z" />
    <glyph glyph-name="seven.numr" horiz-adv-x="407" 
d="M132 348q7 64 26 116t42.5 92.5t49.5 70.5t49 50h-234v32h277v-34q-29 -26 -57 -57t-51 -71t-40 -89t-24 -110h-38z" />
    <glyph glyph-name="eight.numr" horiz-adv-x="396" 
d="M198 341q-63 0 -98 30t-35 72q0 33 21.5 57.5t56.5 33.5q-29 8 -48.5 31t-19.5 53q0 42 33.5 70t89.5 28t90 -28t34 -70q0 -30 -20 -53t-49 -31q35 -9 56.5 -33.5t21.5 -57.5q0 -42 -34.5 -72t-98.5 -30zM198 549q39 0 63.5 19t24.5 49t-23.5 49.5t-64.5 19.5
q-42 0 -64.5 -19.5t-22.5 -49.5t24 -49t63 -19zM198 373q46 0 71 21t25 51q0 32 -24.5 53t-71.5 21q-46 0 -71 -21t-25 -53q0 -30 25.5 -51t70.5 -21z" />
    <glyph glyph-name="nine.numr" horiz-adv-x="406" 
d="M198 505q39 0 67.5 24.5t28.5 65.5q0 20 -8 36.5t-21 28t-30.5 18t-36.5 6.5q-39 0 -67.5 -24t-28.5 -65t28.5 -65.5t67.5 -24.5zM163 341q-24 0 -48.5 6.5t-41.5 16.5l10 30q16 -10 37.5 -15.5t41.5 -5.5q66 0 104.5 43.5t38.5 128.5q-11 -32 -42.5 -51.5t-69.5 -19.5
q-26 0 -49.5 8.5t-41 24.5t-27.5 38.5t-10 49.5q0 26 10.5 48.5t29 38.5t43 25t51.5 9q63 0 102.5 -44t39.5 -122q0 -44 -10.5 -82.5t-32 -66.5t-55.5 -44t-80 -16z" />
    <glyph glyph-name="a.ordn" horiz-adv-x="403" 
d="M295 558q-4 -5 -11.5 -8.5t-23.5 -5.5l-90 -15q-31 -5 -48.5 -22t-17.5 -46q0 -25 19.5 -45t59.5 -20q30 0 51 10.5t34.5 28.5t20 42.5t6.5 52.5v28zM67 460q0 42 26 65.5t71 30.5l96 15q20 3 27.5 12.5t7.5 21.5q0 35 -23.5 57.5t-65.5 22.5t-68.5 -22.5t-31.5 -61.5
l-33 9q5 48 41.5 77.5t90.5 29.5q33 0 56.5 -9.5t39 -25t23 -36.5t7.5 -45v-169q0 -19 1 -33t3 -26h-35q-2 8 -3 22.5t-1 36.5q-13 -26 -43 -46.5t-74 -20.5q-55 0 -83.5 29t-28.5 66z" />
    <glyph glyph-name="b.ordn" horiz-adv-x="469" 
d="M89 373v510h36v-243q5 13 15.5 26.5t25.5 24.5t36 18.5t47 7.5q36 0 64 -13t47.5 -36.5t30 -55.5t10.5 -69q0 -38 -11 -70.5t-31 -56.5t-48 -37.5t-63 -13.5q-26 0 -46.5 7.5t-35.5 19t-25.5 25.5t-16.5 28v-72h-35zM364 543q0 31 -8.5 57t-24.5 45t-38 29.5t-49 10.5
t-49 -11t-38 -30t-24.5 -45t-8.5 -56q0 -31 8.5 -58t24.5 -46.5t38 -30.5t49 -11t49 11t38 30.5t24.5 46.5t8.5 58z" />
    <glyph glyph-name="c.ordn" horiz-adv-x="444" 
d="M232 685q-27 0 -50 -10.5t-40 -29t-27 -45t-10 -59.5t10 -59.5t27 -45.5t40 -29t50 -10q24 0 43 7.5t33.5 20t23.5 28t14 30.5l31 -14q-6 -20 -18.5 -38.5t-30.5 -33t-42 -23.5t-54 -9q-35 0 -65 13t-52 36t-34.5 55.5t-12.5 71.5t12.5 71t34.5 55.5t52 36.5t65 13
q60 0 96 -30.5t47 -74.5l-32 -14q-4 16 -12.5 31.5t-22 28t-32.5 20t-44 7.5z" />
    <glyph glyph-name="d.ordn" horiz-adv-x="473" 
d="M344 543q0 30 -8.5 56t-24 45t-37.5 30t-49 11t-49 -10.5t-38 -29.5t-24.5 -45t-8.5 -57t8.5 -57.5t24 -46t38 -31t49.5 -11.5t49 11t37.5 30.5t24 46.5t8.5 58zM348 373q-2 8 -3 22.5t-1 36.5v12q-5 -13 -15 -27t-25 -25.5t-35.5 -19t-46.5 -7.5q-35 0 -63.5 13.5
t-48.5 37.5t-31 56.5t-11 70.5q0 37 11 69t31 55t48 36.5t63 13.5q29 0 50 -7.5t35.5 -19t23 -24.5t13.5 -24v241h36v-445q0 -15 1 -34.5t3 -30.5h-35z" />
    <glyph glyph-name="e.ordn" horiz-adv-x="444" 
d="M376 470q-14 -44 -51.5 -74.5t-94.5 -30.5q-33 0 -63 12t-52 34.5t-35 55.5t-13 75q0 39 12.5 71.5t33.5 55.5t49 35.5t60 12.5q75 0 115 -46.5t40 -120.5v-7q0 -2 -1 -7h-272q0 -33 10.5 -58.5t27.5 -43.5t40 -27.5t48 -9.5q46 0 74.5 25t40.5 59zM339 565
q0 51 -30 85.5t-86 34.5q-24 0 -45 -9t-36.5 -25.5t-25 -38.5t-10.5 -47h233z" />
    <glyph glyph-name="f.ordn" horiz-adv-x="341" 
d="M174 677v-304h-36v304h-71v32h71v69q0 53 27 79.5t71 26.5q12 0 21 -2t17 -5v-31q-12 6 -33 6q-28 0 -47.5 -17.5t-19.5 -58.5v-67h97v-32h-97z" />
    <glyph glyph-name="g.ordn" horiz-adv-x="435" 
d="M68 355q9 2 18 4.5t17 4.5q5 -42 34.5 -72t77.5 -30q36 0 59 11.5t35.5 31t17.5 43.5t5 50v64q-11 -26 -39 -48t-77 -22q-33 0 -60.5 12.5t-47 34t-30 51t-10.5 64.5q0 34 10.5 64t30 52t47 34.5t60.5 12.5q50 0 78 -22.5t39 -49.5v64h35v-310q0 -29 -6 -59t-22.5 -54.5
t-46.5 -40t-77 -15.5q-31 0 -56.5 9.5t-45 26.5t-31.5 40t-15 49zM104 554q0 -57 32 -93.5t84 -36.5q26 0 47 10t36 27.5t23.5 41t8.5 51.5t-8.5 52t-23.5 41.5t-36 27.5t-47 10t-47.5 -10t-36.5 -27.5t-23.5 -41.5t-8.5 -52z" />
    <glyph glyph-name="h.ordn" horiz-adv-x="443" 
d="M89 373v510h36v-231q12 25 39.5 45t69.5 20q60 0 90 -36.5t30 -87.5v-220h-37v214q0 41 -23 69.5t-71 28.5q-22 0 -40 -9.5t-31 -24.5t-20 -35t-7 -41v-202h-36z" />
    <glyph glyph-name="i.ordn" horiz-adv-x="242" 
d="M103 373v336h36v-336h-36zM90 852q0 14 8.5 22.5t22.5 8.5t22.5 -8.5t8.5 -22.5t-8.5 -22.5t-22.5 -8.5t-22.5 8.5t-8.5 22.5z" />
    <glyph glyph-name="j.ordn" horiz-adv-x="285" 
d="M162 709h36v-383q0 -46 -25 -70.5t-63 -24.5q-13 0 -22.5 2t-16.5 4v32q16 -6 33 -6q58 0 58 65v381zM149 852q0 14 8.5 22.5t22.5 8.5t22.5 -8.5t8.5 -22.5t-8.5 -22.5t-22.5 -8.5t-22.5 8.5t-8.5 22.5z" />
    <glyph glyph-name="k.ordn" horiz-adv-x="395" 
d="M218 571l149 -198h-46l-127 174l-69 -69v-105h-36v510h36v-356l184 182h50z" />
    <glyph glyph-name="l.ordn" horiz-adv-x="214" 
d="M89 373v510h36v-510h-36z" />
    <glyph glyph-name="m.ordn" horiz-adv-x="664" 
d="M448 685q-22 0 -40 -9t-30.5 -23.5t-19.5 -33.5t-7 -40v-206h-36v218q0 39 -23 66.5t-67 27.5q-22 0 -40 -8.5t-31 -23.5t-20 -34t-7 -40v-206h-36v274q0 9 -0.5 19t-0.5 19t-0.5 15.5t-0.5 8.5h34q0 -5 1.5 -23t1.5 -36q11 26 39 46.5t70 20.5q41 0 69.5 -22.5
t38.5 -58.5q12 35 42 58t73 23q51 0 84 -32.5t33 -88.5v-223h-36v218q0 39 -23 66.5t-68 27.5z" />
    <glyph glyph-name="n.ordn" horiz-adv-x="446" 
d="M128 373h-36v280q0 18 -1 32.5t-2 23.5h35q1 -5 2.5 -20.5t1.5 -38.5q11 26 39 46.5t70 20.5q60 0 90 -36t30 -88v-220h-36v215q0 41 -23 69t-71 28q-23 0 -41 -8.5t-30.5 -23.5t-19.5 -34.5t-8 -40.5v-205z" />
    <glyph glyph-name="o.ordn" horiz-adv-x="466" 
d="M233 365q-34 0 -64 12.5t-52.5 35.5t-35.5 55.5t-13 72.5t13 72.5t35 55.5t52 35.5t65 12.5q34 0 64 -12.5t52.5 -35.5t35.5 -55.5t13 -72.5t-13 -72.5t-35 -55.5t-52.5 -35.5t-64.5 -12.5zM104 541q0 -34 10.5 -60.5t28 -45t41 -28.5t49.5 -10t49.5 10t41 28.5t28 45
t10.5 60.5t-10.5 60.5t-28 45t-41 28.5t-49.5 10t-49.5 -10t-41 -28.5t-28 -45t-10.5 -60.5z" />
    <glyph glyph-name="p.ordn" horiz-adv-x="468" 
d="M89 238v471h36v-71q6 13 16 27t25.5 25.5t36 19t46.5 7.5q35 0 63 -13.5t47.5 -37t30 -55.5t10.5 -69q0 -38 -10.5 -70.5t-30.5 -56t-48 -37t-63 -13.5q-26 0 -46 7t-35 18.5t-25.5 25t-16.5 26.5v-204h-36zM364 542q0 30 -8.5 56.5t-24.5 45.5t-38 30t-49 11t-49 -11
t-38 -30.5t-24.5 -45.5t-8.5 -56q0 -31 8.5 -57.5t24.5 -46t38 -30.5t49 -11t49 11t38 30.5t24.5 46t8.5 57.5z" />
    <glyph glyph-name="q.ordn" horiz-adv-x="452" 
d="M343 238v204q-6 -13 -16.5 -26.5t-25.5 -25t-35.5 -18.5t-45.5 -7q-35 0 -63 13.5t-48 37t-30.5 56t-10.5 70.5q0 37 10.5 69t30 55.5t47.5 37t63 13.5q26 0 46.5 -7.5t36 -19t25.5 -25.5t16 -27v71h36v-471h-36zM104 542q0 -31 8.5 -57.5t24.5 -46t38 -30.5t49 -11
t49 11t38 30.5t24.5 46t8.5 57.5q0 30 -8.5 56t-24.5 45.5t-38 30.5t-49 11t-49 -11t-38 -30t-24.5 -45.5t-8.5 -56.5z" />
    <glyph glyph-name="r.ordn" horiz-adv-x="265" 
d="M242 671q-6 2 -14 3t-17 1q-43 0 -72 -29t-29 -88v-185h-36v305q0 16 -1 31h34q1 -12 1.5 -26.5t0.5 -37.5q14 34 41.5 50.5t63.5 16.5q9 0 16 -0.5t12 -1.5v-39z" />
    <glyph glyph-name="s.ordn" horiz-adv-x="381" 
d="M100 475q5 -35 29.5 -57t66.5 -22q35 0 58 17t23 46q0 26 -16.5 41t-44.5 21l-55 11q-37 8 -59.5 30t-22.5 59q0 20 9 37.5t24 30.5t35.5 20.5t43.5 7.5q28 0 48.5 -7.5t34.5 -20.5t22.5 -29t12.5 -33l-32 -11q-5 29 -25.5 49.5t-60.5 20.5q-29 0 -53 -17t-24 -47
q0 -23 15 -37.5t42 -19.5l55 -11q41 -8 63.5 -31.5t22.5 -60.5q0 -39 -30.5 -68t-85.5 -29q-30 0 -53 8.5t-38.5 22t-24.5 31.5t-12 37z" />
    <glyph glyph-name="t.ordn" horiz-adv-x="317" 
d="M165 709h92v-32h-92v-210q0 -33 15.5 -49t44.5 -16q10 0 19 1.5t13 3.5v-31q-4 -2 -15 -4.5t-26 -2.5q-40 0 -63.5 24t-23.5 71v213h-73v32h28q24 0 36 11.5t12 37.5v63h33v-112z" />
    <glyph glyph-name="u.ordn" horiz-adv-x="412" 
d="M305 373q-2 11 -2.5 26.5t-0.5 29.5q-11 -24 -38 -44t-70 -20q-33 0 -57 11t-39 29.5t-22.5 42.5t-7.5 50v211h36v-205q0 -21 5.5 -40t17 -34t29.5 -24t44 -9q46 0 72.5 31.5t26.5 74.5v206h36v-272q0 -18 1 -35.5t3 -28.5h-34z" />
    <glyph glyph-name="v.ordn" horiz-adv-x="365" 
d="M201 373h-38l-135 336h41l113 -295l113 295h39z" />
    <glyph glyph-name="w.ordn" horiz-adv-x="572" 
d="M304 709l104 -292l93 292h38l-111 -336h-40l-104 293l-103 -293h-41l-112 336h40l93 -292l104 292h39z" />
    <glyph glyph-name="x.ordn" horiz-adv-x="380" 
d="M169 544l-124 165h43l102 -138l102 138h43l-124 -165l130 -171h-43l-108 145l-108 -145h-43z" />
    <glyph glyph-name="y.ordn" horiz-adv-x="374" 
d="M88 238l84 181l-144 290h41l123 -252l113 252h38l-216 -471h-39z" />
    <glyph glyph-name="z.ordn" horiz-adv-x="403" 
d="M68 373v32l219 272h-216v32h260v-32l-219 -272h223v-32h-267z" />
    <glyph glyph-name="numbersign.tf" 
d="M377 465h-167l-46 -210h168zM324 220h-167l-48 -220h-38l48 220h-106v35h113l46 210h-105v35h113l45 209h38l-45 -209h167l45 209h39l-45 -209h122v-35h-130l-46 -210h112v-35h-119l-48 -220h-38z" />
    <glyph glyph-name="dollar.tf" 
d="M271 383v289q-30 -2 -58 -13t-50 -30t-35 -45t-13 -57q0 -53 29.5 -86.5t85.5 -47.5zM305 333v-298q78 5 121.5 47t43.5 101q0 56 -34 91.5t-97 50.5zM271 -112v112q-50 3 -89 20.5t-67.5 45t-45 63.5t-20.5 75l37 12q3 -35 17.5 -66t38 -55.5t56 -40t73.5 -18.5v306
l-49 12q-64 15 -105.5 57t-41.5 113q0 39 15.5 71.5t42.5 57t62.5 39.5t75.5 17v113h34v-114q43 -3 76.5 -16.5t58 -36t40 -51.5t23.5 -62l-36 -13q-14 59 -53.5 98t-108.5 45v-297l41 -10q75 -18 120 -61t45 -118q0 -38 -15 -71t-42 -58t-65 -40t-84 -18v-111h-34z" />
    <glyph glyph-name="percent.tf" 
d="M527 504l-482 -329v39l482 329v-39zM56 581q0 -43 28.5 -71.5t71.5 -28.5t71.5 28.5t28.5 71.5t-28.5 71.5t-71.5 28.5t-71.5 -28.5t-28.5 -71.5zM23 581q0 28 10 52.5t28 42.5t42.5 28t52.5 10t52.5 -10t42.5 -28t28 -42.5t10 -52.5t-10 -52.5t-28 -42.5t-42.5 -28
t-52.5 -10t-52.5 10t-42.5 28t-28 42.5t-10 52.5zM303 126q0 -43 28.5 -71.5t71.5 -28.5t71.5 28.5t28.5 71.5t-28.5 71.5t-71.5 28.5t-71.5 -28.5t-28.5 -71.5zM270 126q0 28 10 52.5t28 42.5t42.5 28t52.5 10t52.5 -10t42.5 -28t28 -42.5t10 -52.5t-10 -52.5t-28 -42.5
t-42.5 -28t-52.5 -10t-52.5 10t-42.5 28t-28 42.5t-10 52.5z" />
    <glyph glyph-name="plus.tf" 
d="M297 365h199v-34h-199v-217h-36v217h-197v34h197v214h36v-214z" />
    <glyph glyph-name="zero.tf" 
d="M70 354q0 -62 10.5 -121t35 -105t65 -74t99.5 -28t99.5 28t65 74t35 105t10.5 121q0 63 -10.5 122t-35 105t-64.5 74t-100 28t-100.5 -28t-64.5 -74t-34.5 -105t-10.5 -122zM28 354q0 63 11 128t39.5 118t77.5 87t124 34t124 -34t77.5 -87t39.5 -118t11 -128
q0 -62 -11 -127t-39.5 -118t-77.5 -87t-124 -34t-124 34t-77.5 87t-39.5 118t-11 127z" />
    <glyph glyph-name="one.tf" 
d="M277 37v591q-8 -17 -25 -37.5t-42 -38t-56 -30.5t-68 -15v36q36 4 67.5 19.5t56.5 38.5t42 51t24 57h42v-672h200v-37h-454v37h213z" />
    <glyph glyph-name="two.tf" 
d="M503 0h-447q1 32 9 64.5t24 64t41.5 60.5t60.5 53l139 94q58 39 89.5 83t31.5 101q0 33 -11 63t-33 52.5t-53.5 35.5t-72.5 13q-84 0 -133.5 -50t-49.5 -137q0 -17 3 -36l-41 5q-2 8 -2.5 19.5t-0.5 17.5q0 45 15 84.5t43.5 69.5t69.5 47t94 17q51 0 91 -15.5t67 -42.5
t41.5 -63.5t14.5 -78.5q0 -70 -38.5 -120.5t-95.5 -89.5l-148 -100q-40 -27 -71 -71.5t-36 -100.5h399v-39z" />
    <glyph glyph-name="three.tf" 
d="M518 206q0 -46 -18 -85.5t-49.5 -69t-75 -46.5t-93.5 -17q-53 0 -96 16.5t-74 46t-49 69.5t-21 88l40 9q2 -44 18.5 -79.5t43.5 -60t62.5 -38t75.5 -13.5q41 0 76.5 13.5t61.5 37.5t41 57t15 72q0 80 -49 129.5t-137 49.5q-17 0 -35.5 -3.5t-33.5 -8.5l-19 34l249 264
h-393v38h442v-41l-241 -254q11 3 23.5 4.5t20.5 1.5q43 0 82.5 -14.5t68.5 -42t46.5 -67t17.5 -90.5z" />
    <glyph glyph-name="four.tf" 
d="M24 231l328 478h62v-490h129v-36h-129v-183h-41v183h-349v48zM373 672l-310 -453h310v453z" />
    <glyph glyph-name="five.tf" 
d="M81 203q4 -37 19.5 -69.5t40.5 -56.5t59 -37.5t75 -13.5q45 0 80.5 15.5t61 41.5t39 61.5t13.5 76.5q0 44 -14 80t-39 61.5t-60.5 39.5t-78.5 14q-54 0 -97.5 -22t-73.5 -63l-42 16l73 362h348v-38h-318l-58 -292q32 39 80.5 57t94.5 18q52 0 94 -17t71.5 -47.5
t45.5 -73.5t16 -95q0 -49 -17 -91.5t-47.5 -74t-74 -49.5t-97.5 -18q-49 0 -90 15.5t-71 43t-48.5 65t-22.5 80.5z" />
    <glyph glyph-name="six.tf" 
d="M40 314q0 106 27.5 183t73 126.5t106 73.5t126.5 24q50 0 88 -12.5t64 -29.5l-14 -35q-23 15 -57.5 27t-82.5 12q-78 0 -133.5 -31t-90.5 -83t-51.5 -120.5t-16.5 -144.5v-9q0 -3 1 -11q4 31 21 63t45.5 58t69 42t91.5 16q48 0 89 -17.5t72 -49t48.5 -75.5t17.5 -98
q0 -52 -19.5 -95t-52 -74t-75.5 -48.5t-91 -17.5q-56 0 -103 22t-81 64t-53 102.5t-19 137.5zM100 224q0 -44 16 -80.5t43 -63t62.5 -41t74.5 -14.5q40 0 75.5 14.5t62.5 41t42.5 63t15.5 80.5q0 46 -15 83t-40.5 63t-61 40.5t-75.5 14.5q-42 0 -78.5 -15.5t-63.5 -43
t-42.5 -64t-15.5 -78.5z" />
    <glyph glyph-name="seven.tf" 
d="M536 665q-65 -61 -119 -130t-95.5 -150t-69.5 -176t-40 -209h-43q13 122 44 222t74.5 182.5t96 148t108.5 118.5h-448v38h492v-44z" />
    <glyph glyph-name="eight.tf" 
d="M280 25q45 0 80 12.5t59 34t37 51t13 62.5t-12 62.5t-36 51t-59.5 34t-81.5 12.5t-81.5 -12.5t-59.5 -34t-36 -51t-12 -62.5t13 -62.5t37 -51t59 -34t80 -12.5zM280 381q39 0 71.5 11.5t55.5 31.5t35.5 48t12.5 61t-12 60.5t-34.5 48t-55 32t-73.5 11.5t-73.5 -11.5
t-55 -32t-34.5 -48t-12 -60.5t12.5 -61t35.5 -48t55.5 -31.5t71.5 -11.5zM280 -12q-55 0 -97.5 15t-72 41.5t-45 61.5t-15.5 76q0 67 42 116.5t113 64.5q-31 7 -57 23t-44.5 38.5t-29 50.5t-10.5 60q0 39 15.5 73t43.5 59t68 39.5t89 14.5t89 -14.5t68 -39.5t43.5 -59
t15.5 -73q0 -32 -10.5 -60t-29 -50.5t-44.5 -38.5t-57 -23q71 -15 113 -64.5t42 -116.5q0 -41 -15.5 -76t-45 -61.5t-72 -41.5t-97.5 -15z" />
    <glyph glyph-name="nine.tf" 
d="M30 486q0 52 18 95.5t49 74.5t72.5 48t89.5 17q120 0 186 -89t66 -255q0 -200 -71.5 -294.5t-201.5 -94.5q-29 0 -58 6t-55 16.5t-48 26t-35 33.5l26 29q26 -33 71 -53t96 -20q115 0 174.5 85t59.5 254v21q0 14 -2 31q-16 -71 -71 -115t-136 -44q-46 0 -87.5 15.5
t-73 44.5t-50.5 71.5t-19 96.5zM449 493q0 43 -15 78.5t-40.5 60t-60.5 38t-74 13.5q-40 0 -74 -14t-59.5 -39.5t-40 -61t-14.5 -79.5q0 -46 14.5 -82t40 -61t60 -38t75.5 -13t75.5 14t59.5 39.5t39 62.5t14 82z" />
    <glyph glyph-name="less.tf" 
d="M472 161v-40l-396 208v37l396 208v-40l-362 -186z" />
    <glyph glyph-name="equal.tf" 
d="M62 427v35h437v-35h-437zM62 234v35h437v-35h-437z" />
    <glyph glyph-name="greater.tf" 
d="M451 348l-362 186v40l396 -208v-37l-396 -208v40z" />
    <glyph glyph-name="cent.tf" 
d="M307 0h-34v99q-46 4 -84 23.5t-65.5 52t-43 76.5t-15.5 96q0 51 15.5 95t43 76.5t66 52.5t83.5 24v114h34v-114q75 -4 121.5 -45t63.5 -101l-35 -15q-6 21 -17 42t-29 39t-44 30t-60 14v-424q33 2 59 14t44.5 30t31 39.5t19.5 42.5l34 -15q-8 -28 -24.5 -53.5t-40 -46
t-54.5 -33.5t-69 -15v-98zM104 347q0 -43 12 -80t34.5 -65.5t53.5 -46t69 -20.5v424q-38 -3 -69 -21t-53.5 -46t-34.5 -65.5t-12 -79.5z" />
    <glyph glyph-name="sterling.tf" 
d="M513 175q-5 -79 -50 -127t-123 -48h-300v40q21 15 42 36t37.5 47.5t26.5 57.5t10 66q0 18 -2.5 34t-7.5 32h-95v37h83q-8 20 -16.5 39.5t-15.5 40t-11.5 42.5t-4.5 47q0 43 14.5 80t41.5 64t64.5 42.5t83.5 15.5q44 0 78.5 -14t59 -38t38.5 -56.5t17 -68.5l-42 -8
q-4 63 -43 105t-108 42q-34 0 -63.5 -12t-51.5 -33.5t-34.5 -52t-12.5 -67.5q0 -24 5 -45.5t12.5 -41.5t16 -40t16.5 -41h193v-37h-181q8 -32 8 -66q0 -38 -9.5 -69.5t-24.5 -57.5t-34 -47t-38 -36h240q65 0 100.5 40t40.5 104z" />
    <glyph glyph-name="currency.tf" 
d="M416 179q-27 -23 -61 -35.5t-72 -12.5q-40 0 -75.5 14t-62.5 38l-72 -74l-25 25l72 74q-50 56 -50 136q0 40 14 76t38 63l-73 76l26 25l73 -76q28 23 62.5 36t72.5 13q37 0 70.5 -12t59.5 -34l71 73l25 -25l-69 -72q26 -28 41 -64.5t15 -78.5q0 -41 -14 -77t-40 -63
l69 -70l-25 -25zM106 344q0 -37 14 -69.5t38 -56.5t56 -38t69 -14t69 14t56 38t37.5 56.5t13.5 69.5t-13.5 69.5t-37.5 56.5t-56 38t-69 14t-69 -14t-56 -38t-38 -56.5t-14 -69.5z" />
    <glyph glyph-name="yen.tf" 
d="M259 0v187h-191v37h191v89h-191v37h168l-222 359h50l217 -356l216 356h48l-221 -359h170v-37h-193v-89h193v-37h-193v-187h-42z" />
    <glyph glyph-name="logicalnot.tf" 
d="M439 222v205h-389v36h426v-241h-37z" />
    <glyph glyph-name="plusminus.tf" 
d="M297 392v-152h-36v152h-194v34h194v151h36v-151h195v-34h-195zM67 133v34h425v-34h-425z" />
    <glyph glyph-name="multiply.tf" 
d="M284 372l184 191l24 -24l-185 -192l185 -191l-24 -25l-185 191l-183 -190l-24 24l183 191l-183 191l24 25z" />
    <glyph glyph-name="divide.tf" 
d="M242 169q0 16 11.5 27t26.5 11q16 0 27 -11t11 -27q0 -15 -11 -26t-27 -11q-15 0 -26.5 11t-11.5 26zM65 330v36h432v-36h-432zM242 525q0 16 11.5 27t26.5 11q16 0 27 -11t11 -27q0 -15 -11 -26.5t-27 -11.5q-15 0 -26.5 11.5t-11.5 26.5z" />
    <glyph glyph-name="perthousand.tf" 
d="M527 596l-482 -369v39l482 370v-40zM23 601q0 24 9 44.5t24 36t35.5 24t44.5 8.5t44.5 -8.5t35.5 -24t24 -36t9 -44.5t-9 -44.5t-24 -36t-35.5 -24t-44.5 -8.5t-44.5 8.5t-35.5 24t-24 36t-9 44.5zM56 601q0 -35 23 -57.5t57 -22.5t57 22.5t23 57.5t-23 57.5t-57 22.5
t-57 -22.5t-23 -57.5zM149 103q0 -35 23 -57.5t57 -22.5t57 22.5t23 57.5t-23 57.5t-57 22.5t-57 -22.5t-23 -57.5zM343 103q0 -35 23 -57.5t57 -22.5t57 22.5t23 57.5t-23 57.5t-57 22.5t-57 -22.5t-23 -57.5zM116 103q0 24 9 44.5t24 36t35.5 24t44.5 8.5q31 0 56.5 -15
t40.5 -41q14 26 39.5 41t57.5 15q24 0 44.5 -8.5t35.5 -24t24 -36t9 -44.5t-9 -44.5t-24 -36t-35.5 -24t-44.5 -8.5q-32 0 -57.5 15t-39.5 41q-15 -26 -40.5 -41t-56.5 -15q-24 0 -44.5 8.5t-35.5 24t-24 36t-9 44.5z" />
    <glyph glyph-name="Euro.tf" 
d="M518 10q-26 -10 -55 -15.5t-62 -5.5q-62 0 -113.5 20t-91.5 55.5t-66.5 85t-38.5 108.5h-91v35h86q-3 25 -3 51q0 17 1.5 33.5t3.5 32.5h-88v34h94q14 62 44 113t73 87t96 56t112 20q30 0 57 -5t52 -13l-10 -35q-20 7 -46 11t-53 4q-53 0 -99.5 -17t-83 -48.5
t-62.5 -75.5t-39 -97h312l-10 -34h-309q-2 -16 -3.5 -33t-1.5 -34q0 -26 3 -50h278l-10 -35h-263q12 -55 37 -98t60.5 -73t79 -45.5t92.5 -15.5q29 0 58.5 5t49.5 13z" />
    <glyph glyph-name="minus.tf" 
d="M70 331v34h420v-34h-420z" />
    <glyph glyph-name="approxequal.tf" 
d="M510 452q-24 -33 -53 -50t-70 -17q-22 0 -45.5 8t-48.5 21l-47 25q-19 10 -38 16t-36 6q-32 0 -55 -13t-43 -39l-24 21q25 33 53 50.5t69 17.5q21 0 43.5 -8t47.5 -21l46 -24q20 -11 41.5 -17.5t40.5 -6.5q32 0 54 12.5t42 38.5zM510 259q-24 -33 -53 -50t-70 -17
q-22 0 -45.5 8t-48.5 21l-47 25q-19 10 -38 16t-36 6q-32 0 -55 -13t-43 -39l-24 21q25 33 53 50.5t69 17.5q21 0 43.5 -8t47.5 -21l46 -24q20 -11 41.5 -17.5t40.5 -6.5q32 0 54 12.5t42 38.5z" />
    <glyph glyph-name="notequal.tf" 
d="M218 234l-91 -115h-42l91 115h-114v35h140l126 158h-266v35h291l89 112h42l-89 -112h104v-35h-129l-126 -158h255v-35h-281z" />
    <glyph glyph-name="lessequal.tf" 
d="M80 390v35l400 148v-38l-353 -128l353 -126v-39zM80 133v34h400v-34h-400z" />
    <glyph glyph-name="greaterequal.tf" 
d="M80 281l353 126l-353 128v38l400 -148v-35l-400 -148v39zM80 133v34h400v-34h-400z" />
    <glyph glyph-name="one.ss05" horiz-adv-x="456" 
d="M34 0v37h193v591q-8 -17 -23.5 -36t-38.5 -34.5t-52.5 -27t-66.5 -13.5v36q36 4 66 18t53 35t38.5 47.5t22.5 55.5h42v-672h180v-37h-414z" />
    <glyph glyph-name="caron.alt" horiz-adv-x="176" 
d="M77 529h-32l41 180h45z" />
    <glyph glyph-name="commaturn" horiz-adv-x="183" 
d="M127 565q0 -17 -11 -26.5t-27 -9.5q-15 0 -28.5 12.5t-13.5 38.5q0 48 26.5 74.5t62.5 30.5v-25q-25 -4 -42.5 -21t-18.5 -43q6 6 17 6q16 0 25.5 -10.5t9.5 -26.5z" />
    <glyph glyph-name="dieresis.narrow" horiz-adv-x="269" 
d="M45 603q0 14 9 23t22 9q14 0 23 -9t9 -23q0 -13 -9 -22t-23 -9q-13 0 -22 9t-9 22zM161 603q0 14 9 23t22 9q14 0 23 -9t9 -23q0 -13 -9 -22t-23 -9q-13 0 -22 9t-9 22z" />
    <glyph glyph-name="dieresis.uc.narrow" horiz-adv-x="273" 
d="M45 819q0 14 9 23t22 9t22.5 -9t9.5 -23t-9.5 -23t-22.5 -9t-22 9t-9 23zM165 819q0 14 9 23t22 9q14 0 23 -9t9 -23t-9 -23t-23 -9q-13 0 -22 9t-9 23z" />
    <glyph glyph-name="grave.uc" horiz-adv-x="260" 
d="M44 878h57l110 -119h-36z" />
    <glyph glyph-name="dieresis.uc" horiz-adv-x="343" 
d="M45 819q0 14 9.5 24t23.5 10t24 -10t10 -24t-10 -24t-24 -10t-23.5 10t-9.5 24zM231 819q0 14 9.5 24t23.5 10t24 -10t10 -24t-10 -24t-24 -10t-23.5 10t-9.5 24z" />
    <glyph glyph-name="macron.uc" horiz-adv-x="339" 
d="M40 837h259v-36h-259v36z" />
    <glyph glyph-name="acute.uc" horiz-adv-x="260" 
d="M84 759h-36l110 119h57z" />
    <glyph glyph-name="circumflex.uc" horiz-adv-x="382" 
d="M191 854l-106 -95h-40l116 119h60l116 -119h-40z" />
    <glyph glyph-name="caron.uc" horiz-adv-x="382" 
d="M45 878h40l106 -95l106 95h40l-116 -119h-60z" />
    <glyph glyph-name="breve.uc" horiz-adv-x="362" 
d="M181 754q-32 0 -56 10.5t-41.5 28t-27 39.5t-11.5 46h33q2 -17 9 -33.5t20 -29.5t31.5 -20.5t42.5 -7.5t42.5 7.5t31.5 20.5t20 29.5t9 33.5h33q-2 -24 -11.5 -46t-27 -39.5t-42 -28t-55.5 -10.5z" />
    <glyph glyph-name="dotaccent.uc" horiz-adv-x="162" 
d="M43 819q0 16 11 27t27 11t27 -11t11 -27t-11 -27t-27 -11t-27 11t-11 27z" />
    <glyph glyph-name="ring.uc" horiz-adv-x="278" 
d="M45 844q0 20 7.5 37.5t20 30.5t29.5 20.5t37 7.5q19 0 36.5 -7.5t30 -20.5t20 -30.5t7.5 -37.5t-7.5 -37.5t-20 -30.5t-30 -20t-36.5 -7q-39 0 -66.5 27t-27.5 68zM78 844q0 -28 17.5 -46t43.5 -18t43.5 18t17.5 46t-17.5 46.5t-43.5 18.5t-43.5 -18.5t-17.5 -46.5z" />
    <glyph glyph-name="tilde.uc" horiz-adv-x="388" 
d="M123 869q21 0 37.5 -8t32.5 -21l21 -17q13 -10 24 -15.5t26 -5.5q21 0 34 16.5t13 47.5h32v-8q0 -43 -23 -67t-55 -24q-20 0 -35.5 7t-29.5 18l-22 18q-15 12 -26.5 18t-28.5 6q-23 0 -34.5 -17t-11.5 -46h-32v10q0 41 22.5 64.5t55.5 23.5z" />
    <glyph glyph-name="hungarumlaut.uc" horiz-adv-x="323" 
d="M76 759h-29l67 119h46zM176 759h-30l86 119h46z" />
    <glyph glyph-name="caron.alt.uc" horiz-adv-x="179" 
d="M76 526h-31l42 183h47z" />
    <glyph glyph-name="undercommaaccent" horiz-adv-x="183" 
d="M56 -82q0 17 11 26.5t27 9.5q15 0 28.5 -12.5t13.5 -38.5q0 -48 -26.5 -74.5t-62.5 -30.5v25q25 4 42.5 21t18.5 43q-6 -6 -17 -6q-16 0 -25.5 10.5t-9.5 26.5z" />
    </font>
</defs>
</svg>
