<svg width="237" height="53" viewBox="0 0 237 53" fill="none" xmlns="http://www.w3.org/2000/svg">
<circle cx="20.5" cy="26.3574" r="20.5" fill="#203CA7"/>
<path d="M14.7466 29.58C11.9685 29.642 10.4344 26.3739 12.1883 24.2186C18.2359 16.7872 24.1834 9.47938 30.2017 2.08234C30.8946 1.23068 31.7526 1.54189 31.4321 2.59201C29.4805 8.74682 27.4999 14.8919 25.4613 21.0079C25.0748 22.1631 25.1134 22.6194 26.4951 22.5515C29.1749 22.4262 30.6578 25.6361 28.9645 27.7169C22.3173 35.8854 15.794 43.8927 9.27157 51.9054C9.19752 51.9964 9.06842 52.0194 8.96835 51.9582C8.87318 51.9 8.82917 51.7841 8.86351 51.6779C10.5057 46.6028 12.1479 41.5184 13.7901 36.4435C14.3988 34.5698 14.9591 32.6768 15.6354 30.8226C16.0026 29.8227 15.7417 29.5606 14.7466 29.58Z" fill="#FCC907"/>
<path d="M63.1 21.22H58.56V33H55.82V21.22H51.28V18.8H63.1V21.22ZM76.8028 18.8V33H74.0628V26.94H67.6228V33H64.8628V18.8H67.6228V24.54H74.0628V18.8H76.8028ZM89.6252 30.58V33H79.7652V18.8H89.4452V21.22H82.5252V24.64H88.5052V26.88H82.5252V30.58H89.6252ZM106.442 30.58V33H96.5816V18.8H106.262V21.22H99.3416V24.64H105.322V26.88H99.3416V30.58H106.442ZM108.593 33V18.8H111.353V30.58H118.593V33H108.593ZM130.133 30.58V33H120.273V18.8H129.953V21.22H123.033V24.64H129.013V26.88H123.033V30.58H130.133ZM131.171 25.8C131.171 24.9333 131.324 24.0867 131.631 23.26C131.951 22.42 132.411 21.66 133.011 20.98C133.611 20.2867 134.344 19.74 135.211 19.34C136.077 18.9267 137.064 18.72 138.171 18.72C139.477 18.72 140.604 19.0067 141.551 19.58C142.511 20.1533 143.224 20.9 143.691 21.82L141.571 23.28C141.331 22.7467 141.017 22.3267 140.631 22.02C140.244 21.7 139.831 21.48 139.391 21.36C138.951 21.2267 138.517 21.16 138.091 21.16C137.397 21.16 136.791 21.3 136.271 21.58C135.764 21.86 135.337 22.2267 134.991 22.68C134.644 23.1333 134.384 23.64 134.211 24.2C134.051 24.76 133.971 25.32 133.971 25.88C133.971 26.5067 134.071 27.1133 134.271 27.7C134.471 28.2733 134.751 28.7867 135.111 29.24C135.484 29.68 135.924 30.0333 136.431 30.3C136.951 30.5533 137.517 30.68 138.131 30.68C138.571 30.68 139.017 30.6067 139.471 30.46C139.924 30.3133 140.344 30.08 140.731 29.76C141.117 29.44 141.417 29.0267 141.631 28.52L143.891 29.82C143.611 30.5267 143.151 31.1267 142.511 31.62C141.884 32.1133 141.177 32.4867 140.391 32.74C139.604 32.9933 138.824 33.12 138.051 33.12C137.037 33.12 136.111 32.9133 135.271 32.5C134.431 32.0733 133.704 31.5133 133.091 30.82C132.491 30.1133 132.017 29.3267 131.671 28.46C131.337 27.58 131.171 26.6933 131.171 25.8ZM156.362 21.22H151.822V33H149.082V21.22H144.542V18.8H156.362V21.22ZM158.125 33V18.8H164.405C165.058 18.8 165.658 18.9333 166.205 19.2C166.765 19.4667 167.245 19.8267 167.645 20.28C168.058 20.7333 168.371 21.24 168.585 21.8C168.811 22.36 168.925 22.9333 168.925 23.52C168.925 24.12 168.818 24.7 168.605 25.26C168.405 25.8067 168.111 26.2867 167.725 26.7C167.338 27.1133 166.885 27.4333 166.365 27.66L169.605 33H166.565L163.645 28.24H160.885V33H158.125ZM160.885 25.82H164.345C164.691 25.82 164.998 25.72 165.265 25.52C165.531 25.3067 165.745 25.0267 165.905 24.68C166.065 24.3333 166.145 23.9467 166.145 23.52C166.145 23.0667 166.051 22.6733 165.865 22.34C165.678 21.9933 165.438 21.72 165.145 21.52C164.865 21.32 164.558 21.22 164.225 21.22H160.885V25.82ZM171.425 33V18.8H174.185V33H171.425ZM176.288 25.8C176.288 24.9333 176.441 24.0867 176.748 23.26C177.068 22.42 177.528 21.66 178.128 20.98C178.728 20.2867 179.461 19.74 180.328 19.34C181.195 18.9267 182.181 18.72 183.288 18.72C184.595 18.72 185.721 19.0067 186.668 19.58C187.628 20.1533 188.341 20.9 188.808 21.82L186.688 23.28C186.448 22.7467 186.135 22.3267 185.748 22.02C185.361 21.7 184.948 21.48 184.508 21.36C184.068 21.2267 183.635 21.16 183.208 21.16C182.515 21.16 181.908 21.3 181.388 21.58C180.881 21.86 180.455 22.2267 180.108 22.68C179.761 23.1333 179.501 23.64 179.328 24.2C179.168 24.76 179.088 25.32 179.088 25.88C179.088 26.5067 179.188 27.1133 179.388 27.7C179.588 28.2733 179.868 28.7867 180.228 29.24C180.601 29.68 181.041 30.0333 181.548 30.3C182.068 30.5533 182.635 30.68 183.248 30.68C183.688 30.68 184.135 30.6067 184.588 30.46C185.041 30.3133 185.461 30.08 185.848 29.76C186.235 29.44 186.535 29.0267 186.748 28.52L189.008 29.82C188.728 30.5267 188.268 31.1267 187.628 31.62C187.001 32.1133 186.295 32.4867 185.508 32.74C184.721 32.9933 183.941 33.12 183.168 33.12C182.155 33.12 181.228 32.9133 180.388 32.5C179.548 32.0733 178.821 31.5133 178.208 30.82C177.608 30.1133 177.135 29.3267 176.788 28.46C176.455 27.58 176.288 26.6933 176.288 25.8ZM190.859 33V18.8H193.619V33H190.859ZM200.442 18.8H203.242L208.462 33H205.622L204.302 29.46H199.342L198.042 33H195.202L200.442 18.8ZM203.802 27.52L201.842 21.66L199.802 27.52H203.802ZM212.779 23.88V33H210.019V18.8H212.219L219.559 28.16V18.82H222.319V33H220.019L212.779 23.88ZM233.733 22.52C233.64 22.4267 233.466 22.3 233.213 22.14C232.973 21.98 232.673 21.8267 232.313 21.68C231.966 21.5333 231.586 21.4067 231.173 21.3C230.76 21.18 230.34 21.12 229.913 21.12C229.166 21.12 228.6 21.26 228.213 21.54C227.84 21.82 227.653 22.2133 227.653 22.72C227.653 23.1067 227.773 23.4133 228.013 23.64C228.253 23.8667 228.613 24.06 229.093 24.22C229.573 24.38 230.173 24.5533 230.893 24.74C231.826 24.9667 232.633 25.2467 233.313 25.58C234.006 25.9 234.533 26.3267 234.893 26.86C235.266 27.38 235.453 28.0733 235.453 28.94C235.453 29.7 235.313 30.3533 235.033 30.9C234.753 31.4333 234.366 31.8667 233.873 32.2C233.38 32.5333 232.82 32.78 232.193 32.94C231.566 33.0867 230.9 33.16 230.193 33.16C229.486 33.16 228.78 33.0867 228.073 32.94C227.366 32.7933 226.686 32.5867 226.033 32.32C225.38 32.04 224.78 31.7067 224.233 31.32L225.453 28.94C225.573 29.06 225.786 29.22 226.093 29.42C226.4 29.6067 226.773 29.8 227.213 30C227.653 30.1867 228.133 30.3467 228.653 30.48C229.173 30.6133 229.7 30.68 230.233 30.68C230.98 30.68 231.546 30.5533 231.933 30.3C232.32 30.0467 232.513 29.6867 232.513 29.22C232.513 28.7933 232.36 28.46 232.053 28.22C231.746 27.98 231.32 27.7733 230.773 27.6C230.226 27.4133 229.58 27.2133 228.833 27C227.94 26.7467 227.193 26.4667 226.593 26.16C225.993 25.84 225.546 25.44 225.253 24.96C224.96 24.48 224.813 23.88 224.813 23.16C224.813 22.1867 225.04 21.3733 225.493 20.72C225.96 20.0533 226.586 19.5533 227.373 19.22C228.16 18.8733 229.033 18.7 229.993 18.7C230.66 18.7 231.286 18.7733 231.873 18.92C232.473 19.0667 233.033 19.26 233.553 19.5C234.073 19.74 234.54 20 234.953 20.28L233.733 22.52Z" fill="white"/>
</svg>
